<svg width="28" height="28" viewBox="0 0 28 28" fill="none" xmlns="http://www.w3.org/2000/svg">
<g clip-path="url(#clip0_483_993)">
<path d="M7.15828 18.6053L6.53491 19.696L13.6884 23.9669L14.3117 22.8761L7.15828 18.6053Z" fill="#A31C44"/>
<path d="M20.5579 12.8378L13.9968 9.57041L7.91873 12.5242L7.38782 11.3834L14.0032 8.16821L21.0995 11.702L20.5579 12.8378Z" fill="#A31C44"/>
<path d="M27.3087 15.2835L21.3446 11.764C21.2264 11.6942 21.1533 11.5651 21.1533 11.4256V4.38663C21.1533 4.24658 21.0802 4.11751 20.962 4.04776L14.1913 0.0520705C14.0731 -0.0176824 13.9269 -0.0176824 13.8087 0.0520705L7.03801 4.04776C6.91926 4.11751 6.84671 4.24658 6.84671 4.38663V11.4256C6.84671 11.5651 6.77363 11.6942 6.65542 11.764L0.691299 15.2835C0.57308 15.3532 0.5 15.4823 0.5 15.6218V23.6132C0.5 23.7532 0.57308 23.8823 0.691299 23.952L7.46199 27.9477C7.58074 28.0175 7.72637 28.0175 7.84458 27.9477L13.8087 24.4282C13.9269 24.3579 14.0731 24.3579 14.1913 24.4282L20.1554 27.9477C20.2736 28.0175 20.4193 28.0175 20.538 27.9477L27.3087 23.952C27.4269 23.8823 27.5 23.7532 27.5 23.6132V15.6218C27.5 15.4823 27.4269 15.3532 27.3087 15.2835ZM6.84671 25.6799L2.11368 22.8865V17.3008L6.84671 20.0937V25.6799ZM7.65329 18.6656L2.92025 15.8722L7.65329 13.0794L12.3863 15.8722L7.65329 18.6656ZM13.1934 22.8871L8.46039 25.6799V20.0937L13.1934 17.3008V22.8871ZM13.1934 14.4442L8.46039 11.6514V6.0651L13.1934 8.85795V14.4442ZM14 7.42994L9.26697 4.63708L14 1.84368L18.733 4.63708L14 7.42994ZM19.5396 6.0651V11.6514L14.8066 14.4442V8.85795L19.5396 6.0651ZM19.5396 25.6799L14.8066 22.8865V17.3008L19.5396 20.0937V25.6799ZM20.3467 18.6656L15.6137 15.8722L20.3467 13.0794L25.0797 15.8722L20.3467 18.6656ZM25.8863 22.8871L21.1533 25.6799V20.0937L25.8863 17.3008V22.8871Z" fill="#A31C44"/>
<path d="M18.733 4.63716L14 7.43002L9.26697 4.63716L14 1.84375L18.733 4.63716Z" fill="#A31C44"/>
<path d="M19.5396 20.0939V25.6802L14.8065 22.8867V17.301L19.5396 20.0939Z" fill="#A31C44"/>
<path d="M12.3864 15.8724L7.65332 18.6659L2.92029 15.8724L7.65332 13.0796L12.3864 15.8724Z" fill="#A31C44"/>
</g>
<defs>
<clipPath id="clip0_483_993">
<rect width="27" height="28" fill="white" transform="translate(0.5)"/>
</clipPath>
</defs>
</svg>
