<svg width="38" height="26" viewBox="0 0 38 26" fill="none" xmlns="http://www.w3.org/2000/svg">
<path d="M21.4719 25.6975C21.4608 25.6975 21.4486 25.6975 21.4376 25.6975C21.1563 25.6813 20.9227 25.4721 20.8714 25.1906L18.8229 14.0825L15.8938 19.116C15.7617 19.3427 15.5049 19.4597 15.2517 19.4099C14.9986 19.3601 14.8029 19.1521 14.7637 18.8931L13.4784 10.3092L10.9896 15.6005C10.8881 15.8172 10.6741 15.9542 10.438 15.9542H1.1115C0.77395 15.9542 0.5 15.6753 0.5 15.3315C0.5 14.9878 0.77395 14.7089 1.1115 14.7089H10.0503L13.2301 7.94937C13.3463 7.7028 13.6056 7.56208 13.8722 7.60193C14.1376 7.64178 14.3467 7.85348 14.3871 8.12371L15.714 16.9816L18.599 12.0253C18.7287 11.8023 18.9806 11.6853 19.2313 11.7289C19.482 11.7737 19.6789 11.973 19.7266 12.227L21.6174 22.4771L28.1665 0.742783C28.2399 0.499948 28.4515 0.325605 28.701 0.304435C28.948 0.28451 29.1865 0.419003 29.299 0.646894L32.8212 7.81986C32.9729 8.12745 32.8493 8.50104 32.5473 8.65546C32.2452 8.80988 31.8783 8.6841 31.7266 8.37651L28.8881 2.59455L22.0577 25.2566C21.9782 25.5194 21.7409 25.6962 21.4731 25.6962L21.4719 25.6975Z" fill="#4CA146"/>
<path d="M37.2044 15.6005C35.9129 17.4236 33.0951 19.725 33.0951 19.725C33.0951 19.725 30.2774 17.4236 28.9859 15.6005C27.6944 13.7774 28.7511 11.2668 30.3361 10.968C31.9211 10.6691 33.0951 12.2531 33.0951 12.2531C33.0951 12.2531 34.2692 10.6691 35.8542 10.968C37.4392 11.2668 38.4959 13.7774 37.2044 15.6005Z" fill="#4CA146"/>
</svg>
