<svg width="24" height="24" viewBox="0 0 24 24" fill="none" xmlns="http://www.w3.org/2000/svg">
<g clip-path="url(#clip0_475_682)">
<path d="M21.9103 5.46403V23.4278C21.9103 23.7437 21.6498 24 21.3288 24H16.6196C16.4449 24 16.3024 23.8605 16.3024 23.6879V10.5331C16.3024 10.4645 16.33 10.399 16.379 10.35L21.4621 5.29217C21.6215 5.13312 21.9065 5.23564 21.9103 5.45875C21.9103 5.46026 21.9103 5.46177 21.9103 5.46403Z" fill="#F26A2D"/>
<path d="M12.1609 14.5478L14.4438 12.2759C14.6101 12.1109 14.8959 12.2262 14.8959 12.4591V23.4279C14.8959 23.7438 14.6354 24 14.3144 24H9.60513C9.43046 24 9.28796 23.8606 9.28796 23.688V12.5639C9.28796 12.3325 9.57295 12.2164 9.7392 12.3799L11.9425 14.5485C12.003 14.6081 12.1011 14.6073 12.1609 14.5485V14.5478Z" fill="#F26A2D"/>
<path d="M7.83543 11.4709V23.4279C7.83543 23.7437 7.57495 24 7.25395 24H2.54471C2.37003 24 2.22754 23.8606 2.22754 23.688V16.6485C2.22754 16.4081 2.3256 16.1774 2.50027 16.0086L7.38572 11.2847C7.55273 11.1234 7.83543 11.2395 7.83543 11.4701V11.4709Z" fill="#F26A2D"/>
<path d="M1.80317 14.7806L7.91209 8.87484C7.97261 8.8168 8.06914 8.8168 8.1289 8.8756L11.938 12.6233C11.9985 12.6829 12.0958 12.6821 12.1563 12.6233L21.5449 3.27962C21.6016 3.22309 21.6928 3.21932 21.7541 3.27057L22.5723 3.95801C22.6627 4.03414 22.8029 3.98439 22.8236 3.86982L23.4985 0.177859C23.5176 0.0715778 23.4211 -0.0196282 23.3139 0.00298487L19.6818 0.787658C19.5638 0.813286 19.5201 0.955749 19.6044 1.04092L20.3536 1.79695C20.4126 1.8565 20.4119 1.95072 20.3521 2.00952L12.1555 10.1005C12.0958 10.1593 11.9985 10.16 11.9387 10.1012L8.07451 6.35047C8.01398 6.29168 7.91745 6.29243 7.8577 6.35047L0.545227 13.5467C0.484705 13.6063 0.485471 13.702 0.545227 13.7608L1.58636 14.7791C1.64612 14.8379 1.74265 14.8379 1.80241 14.7791L1.80317 14.7806Z" fill="#F26A2D"/>
</g>
<defs>
<clipPath id="clip0_475_682">
<rect width="23" height="24" fill="white" transform="translate(0.5)"/>
</clipPath>
</defs>
</svg>
