<svg width="80" height="80" viewBox="0 0 80 80" fill="none" xmlns="http://www.w3.org/2000/svg">
<rect width="80" height="80" rx="40" fill="#85DB84" fill-opacity="0.16"/>
<g clip-path="url(#clip0_107_824)">
<path fill-rule="evenodd" clip-rule="evenodd" d="M54.5091 21.2462C54.2195 21.2304 53.9299 21.2134 53.6301 21.2089C53.6448 21.2383 53.6595 21.2666 53.6731 21.2972C53.9571 21.27 54.2319 21.2598 54.5091 21.2474V21.2462Z" fill="url(#paint0_linear_107_824)"/>
<path fill-rule="evenodd" clip-rule="evenodd" d="M53.6731 58.705C53.6595 58.7344 53.6437 58.7627 53.6301 58.7933C53.9299 58.7888 54.2195 58.7707 54.5102 58.7559C54.2319 58.7412 53.9582 58.731 53.6731 58.7061V58.705Z" fill="url(#paint1_linear_107_824)"/>
<path fill-rule="evenodd" clip-rule="evenodd" d="M65.4876 24.0012L65.4933 24.0125C65.5193 23.9956 65.5487 23.9831 65.5748 23.9684C65.4492 23.8936 65.3191 23.829 65.1833 23.7747C65.2852 23.8562 65.3926 23.9185 65.4876 24.0012Z" fill="url(#paint2_linear_107_824)"/>
<path fill-rule="evenodd" clip-rule="evenodd" d="M65.4876 55.9987C65.3915 56.0814 65.2818 56.1482 65.1833 56.2275C65.318 56.1731 65.4492 56.1086 65.5748 56.0338C65.5487 56.0179 65.5193 56.0055 65.4933 55.9896L65.4876 55.9987Z" fill="url(#paint3_linear_107_824)"/>
<path fill-rule="evenodd" clip-rule="evenodd" d="M20.7443 23.0701C20.2115 23.0723 19.7771 22.6419 19.7737 22.1083C19.7703 21.5748 20.2013 21.1398 20.7341 21.1364H20.7443C21.2771 21.1364 21.7092 21.5691 21.7092 22.1026C21.7092 22.6362 21.2771 23.0689 20.7443 23.0689V23.0701Z" fill="url(#paint4_linear_107_824)"/>
<path d="M29.9696 46.6927C30.206 46.7913 30.4718 46.7924 30.7082 46.695C30.9447 46.5976 31.1336 46.4095 31.232 46.1727L32.5929 42.9001H37.7422L39.103 46.1727C39.3078 46.6655 39.8734 46.8989 40.3655 46.6927C40.8576 46.4865 41.0906 45.9213 40.8847 45.4285L36.0578 33.8285C35.9073 33.4683 35.5567 33.2338 35.1664 33.2338C34.7761 33.2338 34.4254 33.4683 34.275 33.8285L29.4481 45.4285C29.3496 45.6652 29.3485 45.9315 29.4458 46.1682C29.5431 46.405 29.7309 46.5942 29.9673 46.6927H29.9696ZM35.1675 36.7138L36.9367 40.9675H33.3983L35.1675 36.7138Z" fill="url(#paint5_linear_107_824)"/>
<path fill-rule="evenodd" clip-rule="evenodd" d="M42.8902 44.8337C42.3574 44.8337 41.9253 45.2665 41.9253 45.8C41.9253 46.3336 42.3574 46.7663 42.8902 46.7663H48.6821C49.2149 46.7663 49.647 46.3336 49.647 45.8C49.647 45.2665 49.2149 44.8337 48.6821 44.8337H46.7511V35.1674H48.6821C49.2149 35.1674 49.647 34.7347 49.647 34.2012C49.647 33.6676 49.2149 33.2349 48.6821 33.2349H42.8902C42.3574 33.2349 41.9253 33.6676 41.9253 34.2012C41.9253 34.7347 42.3574 35.1674 42.8902 35.1674H44.8212V44.8337H42.8902Z" fill="url(#paint6_linear_107_824)"/>
<path d="M12 53.5337C12 55.6691 13.7285 57.4 15.8609 57.4C16.345 57.3977 16.8235 57.3048 17.2726 57.1236C19.5543 58.8738 22.7749 59.7857 26.733 59.7857C27.3292 59.7857 27.9491 59.7574 28.5781 59.7166C31.3812 65.4532 35.4265 69 39.9943 69C44.5622 69 48.6075 65.4532 51.4118 59.72C52.0407 59.7608 52.6595 59.7891 53.2568 59.7891C57.2149 59.7891 60.4344 58.8761 62.7172 57.127C63.1663 57.3071 63.6448 57.4 64.1278 57.4C65.8326 57.3955 67.3314 56.2717 67.8179 54.6359C68.3043 53.0002 67.6618 51.2386 66.2376 50.3018C66.3722 47.1888 65.1708 43.6567 62.7251 40C65.1708 36.3444 66.3733 32.8123 66.2376 29.6982C67.9061 28.6198 68.483 26.447 67.569 24.6821C66.655 22.9161 64.5509 22.1355 62.7081 22.8787C60.0848 20.8691 56.2127 19.9787 51.414 20.2913C48.612 14.5502 44.5645 11 39.9943 11C35.4242 11 31.3801 14.548 28.5769 20.2845C27.1878 20.1848 25.7919 20.2018 24.405 20.3355C24.1437 20.3559 23.9027 20.485 23.7398 20.6901C23.5769 20.8951 23.5057 21.1591 23.5452 21.4196C23.6222 21.9328 24.0826 22.2998 24.6007 22.2602C25.6414 22.1571 26.6878 22.1299 27.733 22.1775C26.5351 25.1726 25.6867 28.2946 25.2036 31.4846C22.707 33.4977 20.448 35.7893 18.4683 38.3144C16.8382 35.9457 15.8688 33.1839 15.6595 30.3145C15.7285 30.3145 15.793 30.3348 15.862 30.3348C17.7885 30.3428 19.4276 28.9336 19.7115 27.0259C19.9955 25.1182 18.8382 23.291 16.9932 22.7359C15.1482 22.1809 13.1765 23.0656 12.3631 24.8135C11.5498 26.5614 12.1414 28.6436 13.7523 29.7005C13.6165 32.8123 14.819 36.3444 17.2647 40.0023C14.819 43.659 13.6154 47.1911 13.7523 50.3041C12.6606 51.0132 12.0011 52.2287 12 53.5337ZM15.862 24.5337C16.9287 24.5337 17.793 25.3992 17.793 26.4674C17.793 27.5357 16.9287 28.4011 15.862 28.4011C14.7952 28.4011 13.931 27.5357 13.931 26.4674C13.931 25.3992 14.7952 24.5337 15.862 24.5337ZM13.931 53.5337C13.931 52.4655 14.7952 51.6 15.862 51.6C16.9287 51.6 17.793 52.4655 17.793 53.5337C17.793 54.602 16.9287 55.4674 15.862 55.4674C15.3495 55.4674 14.8586 55.2635 14.4966 54.901C14.1346 54.5385 13.931 54.0469 13.931 53.5337ZM29.7704 22.3293C32.3405 22.6374 34.8722 23.2061 37.3269 24.0273C35.5995 24.7999 33.9118 25.6597 32.2715 26.6045C30.6256 27.5561 29.0317 28.5937 27.4955 29.7141C28.0011 27.1811 28.7636 24.707 29.7704 22.3293ZM27.0102 32.511C28.9785 30.9488 31.06 29.5339 33.2376 28.2799C35.4095 27.0225 37.6697 25.9237 40 24.9936C42.3292 25.9248 44.5871 27.0225 46.7568 28.2799C48.9333 29.5339 51.0147 30.9488 52.983 32.511C53.336 34.9918 53.5113 37.4942 53.5079 40C53.5102 42.5058 53.3326 45.0082 52.9785 47.489C51.0102 49.0512 48.9287 50.4661 46.7511 51.7201C44.5815 52.9775 42.3224 54.0752 39.9943 55.0052C37.6652 54.0752 35.4072 52.9764 33.2376 51.7189C31.0611 50.4649 28.9796 49.05 27.0113 47.4879C26.3043 42.5205 26.3043 37.4784 27.0113 32.5098V32.5121L27.0102 32.511ZM52.4943 29.7152C50.9581 28.5948 49.3631 27.5561 47.7172 26.6056C46.0792 25.662 44.3948 24.8022 42.6708 24.0285C45.1233 23.2072 47.6527 22.6385 50.2195 22.3304C51.2251 24.7082 51.9876 27.1834 52.4932 29.7152H52.4955H52.4943ZM50.2172 57.6707C47.6471 57.3626 45.1154 56.7939 42.6606 55.9727C44.388 55.2001 46.0758 54.3403 47.7161 53.3955C49.362 52.4439 50.9559 51.4063 52.4921 50.2859C51.9864 52.8189 51.224 55.293 50.2172 57.6707ZM55.1538 34.3382C57.0781 36.0454 58.8247 37.9417 60.3688 40C58.8258 42.0572 57.0792 43.9547 55.1561 45.6618C55.3462 43.7802 55.44 41.8907 55.4389 40C55.4389 38.1093 55.3439 36.2198 55.1538 34.3382ZM32.2715 53.3955C33.9095 54.3391 35.5939 55.1989 37.3179 55.9727C34.8654 56.7939 32.336 57.3626 29.7692 57.6707C28.7624 55.293 28.0011 52.8178 27.4955 50.2859C29.0317 51.4063 30.6256 52.4451 32.2715 53.3955ZM39.9943 67.0663C36.3688 67.0663 33.0735 64.1867 30.6448 59.5161C33.8439 59.0618 36.9808 58.2428 39.9943 57.076C43.0091 58.2439 46.1471 59.0618 49.3484 59.5161C46.914 64.1867 43.6199 67.0663 39.9943 67.0663ZM64.1267 55.4663C63.06 55.4663 62.1957 54.6008 62.1957 53.5326C62.1957 52.4643 63.06 51.5989 64.1267 51.5989C65.1934 51.5989 66.0577 52.4643 66.0577 53.5326C66.0577 54.6008 65.1934 55.4663 64.1267 55.4663ZM64.3292 49.6867C64.2602 49.6867 64.1957 49.6663 64.1267 49.6663C61.9943 49.6663 60.2658 51.3972 60.2658 53.5326C60.2692 54.3969 60.5656 55.2352 61.1052 55.9092C59.0023 57.298 55.9344 57.9585 52.2579 57.8203C53.4548 54.8262 54.3032 51.7042 54.7862 48.5154C57.2828 46.5023 59.543 44.2107 61.5215 41.6845C63.1516 44.0543 64.121 46.8161 64.3303 49.6855L64.3292 49.6867ZM66.0577 26.4663C66.0577 27.5345 65.1934 28.4 64.1267 28.4C63.06 28.4 62.1957 27.5345 62.1957 26.4663C62.1957 25.398 63.06 24.5326 64.1267 24.5326C65.1934 24.5326 66.0577 25.398 66.0577 26.4663ZM61.1041 24.0896C60.5645 24.7648 60.2692 25.602 60.2647 26.4663C60.2647 28.6016 61.9932 30.3326 64.1256 30.3326C64.1946 30.3326 64.2602 30.3156 64.3281 30.3122C64.1188 33.1816 63.1493 35.9434 61.5192 38.3132C59.5407 35.7871 57.2805 33.4965 54.7828 31.4824C54.2986 28.2935 53.4502 25.1715 52.2523 22.1775C55.931 22.0381 59.0023 22.6952 61.1029 24.0885L61.1041 24.0896ZM39.9943 12.9337C43.6199 12.9337 46.9152 15.8133 49.3439 20.4839C46.1459 20.9382 43.0113 21.7572 39.9989 22.924C36.9842 21.7572 33.845 20.9382 30.6448 20.4828C33.0747 15.8133 36.3676 12.9326 39.9943 12.9326V12.9337ZM24.8394 34.3382C24.4593 38.1037 24.4593 41.8963 24.8394 45.6618C22.914 43.9558 21.1652 42.0583 19.6199 40C21.1652 37.9417 22.914 36.0454 24.8394 34.3382ZM18.4683 41.6845C20.448 44.2095 22.7081 46.5001 25.2048 48.5142C25.6878 51.7042 26.5373 54.8274 27.7353 57.8225C24.0611 57.9619 20.991 57.2992 18.888 55.9104C19.4265 55.2352 19.7206 54.3969 19.7229 53.5337C19.7229 51.3984 17.9943 49.6674 15.862 49.6674C15.793 49.6674 15.7274 49.6844 15.6595 49.6878C15.8688 46.8184 16.8382 44.0566 18.4683 41.6879V41.6856V41.6845Z" fill="url(#paint7_linear_107_824)"/>
</g>
<defs>
<linearGradient id="paint0_linear_107_824" x1="54.069" y1="69.4881" x2="54.069" y2="4.3549" gradientUnits="userSpaceOnUse">
<stop stop-color="#46A729" stop-opacity="0"/>
<stop offset="1" stop-color="#78EA56"/>
</linearGradient>
<linearGradient id="paint1_linear_107_824" x1="54.069" y1="11" x2="54.069" y2="11" gradientUnits="userSpaceOnUse">
<stop stop-color="#46A729" stop-opacity="0"/>
<stop offset="1" stop-color="#78EA56"/>
</linearGradient>
<linearGradient id="paint2_linear_107_824" x1="65.379" y1="69.4883" x2="65.379" y2="4.3548" gradientUnits="userSpaceOnUse">
<stop stop-color="#46A729" stop-opacity="0"/>
<stop offset="1" stop-color="#78EA56"/>
</linearGradient>
<linearGradient id="paint3_linear_107_824" x1="65.379" y1="69.4883" x2="65.379" y2="4.35475" gradientUnits="userSpaceOnUse">
<stop stop-color="#46A729" stop-opacity="0"/>
<stop offset="1" stop-color="#78EA56"/>
</linearGradient>
<linearGradient id="paint4_linear_107_824" x1="20.742" y1="69.4882" x2="20.742" y2="4.35487" gradientUnits="userSpaceOnUse">
<stop stop-color="#46A729" stop-opacity="0"/>
<stop offset="1" stop-color="#78EA56"/>
</linearGradient>
<linearGradient id="paint5_linear_107_824" x1="35.1675" y1="69.4883" x2="35.1675" y2="4.35498" gradientUnits="userSpaceOnUse">
<stop stop-color="#46A729" stop-opacity="0"/>
<stop offset="1" stop-color="#78EA56"/>
</linearGradient>
<linearGradient id="paint6_linear_107_824" x1="45.7862" y1="69.4883" x2="45.7862" y2="4.35494" gradientUnits="userSpaceOnUse">
<stop stop-color="#46A729" stop-opacity="0"/>
<stop offset="1" stop-color="#78EA56"/>
</linearGradient>
<linearGradient id="paint7_linear_107_824" x1="40" y1="69.4882" x2="40" y2="4.35492" gradientUnits="userSpaceOnUse">
<stop stop-color="#46A729" stop-opacity="0"/>
<stop offset="1" stop-color="#78EA56"/>
</linearGradient>
<clipPath id="clip0_107_824">
<rect width="56" height="58" fill="white" transform="translate(12 11)"/>
</clipPath>
</defs>
</svg>
