<svg width="80" height="80" viewBox="0 0 80 80" fill="none" xmlns="http://www.w3.org/2000/svg">
<circle cx="40" cy="40" r="40" fill="#FF97B8" fill-opacity="0.16"/>
<g clip-path="url(#clip0_126_3601)">
<path fill-rule="evenodd" clip-rule="evenodd" d="M58.2385 51.8487C58.108 51.719 57.9282 51.6385 57.7297 51.6376C57.5311 51.6376 57.3514 51.719 57.2208 51.8487C57.0911 51.9793 57.0106 52.159 57.0106 52.3576C57.0106 52.5561 57.0911 52.7367 57.2208 52.8664C57.3514 52.997 57.5311 53.0775 57.7297 53.0775C57.9282 53.0775 58.108 52.997 58.2385 52.8664C58.3682 52.7367 58.4487 52.5561 58.4487 52.3576C58.4487 52.159 58.3682 51.9793 58.2385 51.8487ZM55.1532 51.8487C55.0226 51.719 54.8428 51.6385 54.6443 51.6376C54.4458 51.6376 54.266 51.719 54.1354 51.8487C54.0058 51.9793 53.9253 52.159 53.9253 52.3576C53.9253 52.5561 54.0058 52.7367 54.1354 52.8664C54.266 52.997 54.4458 53.0775 54.6443 53.0775C54.8428 53.0775 55.0226 52.997 55.1532 52.8664C55.2837 52.7367 55.3642 52.5561 55.3642 52.3576C55.3642 52.159 55.2837 51.9793 55.1532 51.8487ZM52.0678 51.8487C51.9372 51.719 51.7584 51.6385 51.5589 51.6376C51.3604 51.6376 51.1806 51.719 51.0501 51.8487C50.9195 51.9793 50.839 52.159 50.839 52.3576C50.839 52.5561 50.9195 52.7367 51.0501 52.8664C51.1806 52.997 51.3604 53.0775 51.5589 53.0775C51.7575 53.0775 51.9372 52.997 52.0678 52.8664C52.1984 52.7367 52.2789 52.5561 52.2789 52.3576C52.2789 52.159 52.1984 51.9793 52.0678 51.8487ZM52.0678 51.8487C51.9372 51.719 51.7584 51.6385 51.5589 51.6376C51.3604 51.6376 51.1806 51.719 51.0501 51.8487C50.9195 51.9793 50.839 52.159 50.839 52.3576C50.839 52.5561 50.9195 52.7367 51.0501 52.8664C51.1806 52.997 51.3604 53.0775 51.5589 53.0775C51.7575 53.0775 51.9372 52.997 52.0678 52.8664C52.1984 52.7367 52.2789 52.5561 52.2789 52.3576C52.2789 52.159 52.1984 51.9793 52.0678 51.8487ZM55.1532 51.8487C55.0226 51.719 54.8428 51.6385 54.6443 51.6376C54.4458 51.6376 54.266 51.719 54.1354 51.8487C54.0058 51.9793 53.9253 52.159 53.9253 52.3576C53.9253 52.5561 54.0058 52.7367 54.1354 52.8664C54.266 52.997 54.4458 53.0775 54.6443 53.0775C54.8428 53.0775 55.0226 52.997 55.1532 52.8664C55.2837 52.7367 55.3642 52.5561 55.3642 52.3576C55.3642 52.159 55.2837 51.9793 55.1532 51.8487ZM58.2385 51.8487C58.108 51.719 57.9282 51.6385 57.7297 51.6376C57.5311 51.6376 57.3514 51.719 57.2208 51.8487C57.0911 51.9793 57.0106 52.159 57.0106 52.3576C57.0106 52.5561 57.0911 52.7367 57.2208 52.8664C57.3514 52.997 57.5311 53.0775 57.7297 53.0775C57.9282 53.0775 58.108 52.997 58.2385 52.8664C58.3682 52.7367 58.4487 52.5561 58.4487 52.3576C58.4487 52.159 58.3682 51.9793 58.2385 51.8487ZM52.0678 51.8487C51.9372 51.719 51.7584 51.6385 51.5589 51.6376C51.3604 51.6376 51.1806 51.719 51.0501 51.8487C50.9195 51.9793 50.839 52.159 50.839 52.3576C50.839 52.5561 50.9195 52.7367 51.0501 52.8664C51.1806 52.997 51.3604 53.0775 51.5589 53.0775C51.7575 53.0775 51.9372 52.997 52.0678 52.8664C52.1984 52.7367 52.2789 52.5561 52.2789 52.3576C52.2789 52.159 52.1984 51.9793 52.0678 51.8487ZM55.1532 51.8487C55.0226 51.719 54.8428 51.6385 54.6443 51.6376C54.4458 51.6376 54.266 51.719 54.1354 51.8487C54.0058 51.9793 53.9253 52.159 53.9253 52.3576C53.9253 52.5561 54.0058 52.7367 54.1354 52.8664C54.266 52.997 54.4458 53.0775 54.6443 53.0775C54.8428 53.0775 55.0226 52.997 55.1532 52.8664C55.2837 52.7367 55.3642 52.5561 55.3642 52.3576C55.3642 52.159 55.2837 51.9793 55.1532 51.8487ZM58.2385 51.8487C58.108 51.719 57.9282 51.6385 57.7297 51.6376C57.5311 51.6376 57.3514 51.719 57.2208 51.8487C57.0911 51.9793 57.0106 52.159 57.0106 52.3576C57.0106 52.5561 57.0911 52.7367 57.2208 52.8664C57.3514 52.997 57.5311 53.0775 57.7297 53.0775C57.9282 53.0775 58.108 52.997 58.2385 52.8664C58.3682 52.7367 58.4487 52.5561 58.4487 52.3576C58.4487 52.159 58.3682 51.9793 58.2385 51.8487ZM58.2385 51.8487C58.108 51.719 57.9282 51.6385 57.7297 51.6376C57.5311 51.6376 57.3514 51.719 57.2208 51.8487C57.0911 51.9793 57.0106 52.159 57.0106 52.3576C57.0106 52.5561 57.0911 52.7367 57.2208 52.8664C57.3514 52.997 57.5311 53.0775 57.7297 53.0775C57.9282 53.0775 58.108 52.997 58.2385 52.8664C58.3682 52.7367 58.4487 52.5561 58.4487 52.3576C58.4487 52.159 58.3682 51.9793 58.2385 51.8487ZM55.1532 51.8487C55.0226 51.719 54.8428 51.6385 54.6443 51.6376C54.4458 51.6376 54.266 51.719 54.1354 51.8487C54.0058 51.9793 53.9253 52.159 53.9253 52.3576C53.9253 52.5561 54.0058 52.7367 54.1354 52.8664C54.266 52.997 54.4458 53.0775 54.6443 53.0775C54.8428 53.0775 55.0226 52.997 55.1532 52.8664C55.2837 52.7367 55.3642 52.5561 55.3642 52.3576C55.3642 52.159 55.2837 51.9793 55.1532 51.8487ZM52.0678 51.8487C51.9372 51.719 51.7584 51.6385 51.5589 51.6376C51.3604 51.6376 51.1806 51.719 51.0501 51.8487C50.9195 51.9793 50.839 52.159 50.839 52.3576C50.839 52.5561 50.9195 52.7367 51.0501 52.8664C51.1806 52.997 51.3604 53.0775 51.5589 53.0775C51.7575 53.0775 51.9372 52.997 52.0678 52.8664C52.1984 52.7367 52.2789 52.5561 52.2789 52.3576C52.2789 52.159 52.1984 51.9793 52.0678 51.8487ZM52.0678 51.8487C51.9372 51.719 51.7584 51.6385 51.5589 51.6376C51.3604 51.6376 51.1806 51.719 51.0501 51.8487C50.9195 51.9793 50.839 52.159 50.839 52.3576C50.839 52.5561 50.9195 52.7367 51.0501 52.8664C51.1806 52.997 51.3604 53.0775 51.5589 53.0775C51.7575 53.0775 51.9372 52.997 52.0678 52.8664C52.1984 52.7367 52.2789 52.5561 52.2789 52.3576C52.2789 52.159 52.1984 51.9793 52.0678 51.8487ZM55.1532 51.8487C55.0226 51.719 54.8428 51.6385 54.6443 51.6376C54.4458 51.6376 54.266 51.719 54.1354 51.8487C54.0058 51.9793 53.9253 52.159 53.9253 52.3576C53.9253 52.5561 54.0058 52.7367 54.1354 52.8664C54.266 52.997 54.4458 53.0775 54.6443 53.0775C54.8428 53.0775 55.0226 52.997 55.1532 52.8664C55.2837 52.7367 55.3642 52.5561 55.3642 52.3576C55.3642 52.159 55.2837 51.9793 55.1532 51.8487ZM58.2385 51.8487C58.108 51.719 57.9282 51.6385 57.7297 51.6376C57.5311 51.6376 57.3514 51.719 57.2208 51.8487C57.0911 51.9793 57.0106 52.159 57.0106 52.3576C57.0106 52.5561 57.0911 52.7367 57.2208 52.8664C57.3514 52.997 57.5311 53.0775 57.7297 53.0775C57.9282 53.0775 58.108 52.997 58.2385 52.8664C58.3682 52.7367 58.4487 52.5561 58.4487 52.3576C58.4487 52.159 58.3682 51.9793 58.2385 51.8487ZM58.2385 51.8487C58.108 51.719 57.9282 51.6385 57.7297 51.6376C57.5311 51.6376 57.3514 51.719 57.2208 51.8487C57.0911 51.9793 57.0106 52.159 57.0106 52.3576C57.0106 52.5561 57.0911 52.7367 57.2208 52.8664C57.3514 52.997 57.5311 53.0775 57.7297 53.0775C57.9282 53.0775 58.108 52.997 58.2385 52.8664C58.3682 52.7367 58.4487 52.5561 58.4487 52.3576C58.4487 52.159 58.3682 51.9793 58.2385 51.8487ZM55.1532 51.8487C55.0226 51.719 54.8428 51.6385 54.6443 51.6376C54.4458 51.6376 54.266 51.719 54.1354 51.8487C54.0058 51.9793 53.9253 52.159 53.9253 52.3576C53.9253 52.5561 54.0058 52.7367 54.1354 52.8664C54.266 52.997 54.4458 53.0775 54.6443 53.0775C54.8428 53.0775 55.0226 52.997 55.1532 52.8664C55.2837 52.7367 55.3642 52.5561 55.3642 52.3576C55.3642 52.159 55.2837 51.9793 55.1532 51.8487ZM52.0678 51.8487C51.9372 51.719 51.7584 51.6385 51.5589 51.6376C51.3604 51.6376 51.1806 51.719 51.0501 51.8487C50.9195 51.9793 50.839 52.159 50.839 52.3576C50.839 52.5561 50.9195 52.7367 51.0501 52.8664C51.1806 52.997 51.3604 53.0775 51.5589 53.0775C51.7575 53.0775 51.9372 52.997 52.0678 52.8664C52.1984 52.7367 52.2789 52.5561 52.2789 52.3576C52.2789 52.159 52.1984 51.9793 52.0678 51.8487ZM52.0678 51.8487C51.9372 51.719 51.7584 51.6385 51.5589 51.6376C51.3604 51.6376 51.1806 51.719 51.0501 51.8487C50.9195 51.9793 50.839 52.159 50.839 52.3576C50.839 52.5561 50.9195 52.7367 51.0501 52.8664C51.1806 52.997 51.3604 53.0775 51.5589 53.0775C51.7575 53.0775 51.9372 52.997 52.0678 52.8664C52.1984 52.7367 52.2789 52.5561 52.2789 52.3576C52.2789 52.159 52.1984 51.9793 52.0678 51.8487ZM55.1532 51.8487C55.0226 51.719 54.8428 51.6385 54.6443 51.6376C54.4458 51.6376 54.266 51.719 54.1354 51.8487C54.0058 51.9793 53.9253 52.159 53.9253 52.3576C53.9253 52.5561 54.0058 52.7367 54.1354 52.8664C54.266 52.997 54.4458 53.0775 54.6443 53.0775C54.8428 53.0775 55.0226 52.997 55.1532 52.8664C55.2837 52.7367 55.3642 52.5561 55.3642 52.3576C55.3642 52.159 55.2837 51.9793 55.1532 51.8487ZM58.2385 51.8487C58.108 51.719 57.9282 51.6385 57.7297 51.6376C57.5311 51.6376 57.3514 51.719 57.2208 51.8487C57.0911 51.9793 57.0106 52.159 57.0106 52.3576C57.0106 52.5561 57.0911 52.7367 57.2208 52.8664C57.3514 52.997 57.5311 53.0775 57.7297 53.0775C57.9282 53.0775 58.108 52.997 58.2385 52.8664C58.3682 52.7367 58.4487 52.5561 58.4487 52.3576C58.4487 52.159 58.3682 51.9793 58.2385 51.8487ZM58.2385 51.8487C58.108 51.719 57.9282 51.6385 57.7297 51.6376C57.5311 51.6376 57.3514 51.719 57.2208 51.8487C57.0911 51.9793 57.0106 52.159 57.0106 52.3576C57.0106 52.5561 57.0911 52.7367 57.2208 52.8664C57.3514 52.997 57.5311 53.0775 57.7297 53.0775C57.9282 53.0775 58.108 52.997 58.2385 52.8664C58.3682 52.7367 58.4487 52.5561 58.4487 52.3576C58.4487 52.159 58.3682 51.9793 58.2385 51.8487ZM55.1532 51.8487C55.0226 51.719 54.8428 51.6385 54.6443 51.6376C54.4458 51.6376 54.266 51.719 54.1354 51.8487C54.0058 51.9793 53.9253 52.159 53.9253 52.3576C53.9253 52.5561 54.0058 52.7367 54.1354 52.8664C54.266 52.997 54.4458 53.0775 54.6443 53.0775C54.8428 53.0775 55.0226 52.997 55.1532 52.8664C55.2837 52.7367 55.3642 52.5561 55.3642 52.3576C55.3642 52.159 55.2837 51.9793 55.1532 51.8487ZM52.0678 51.8487C51.9372 51.719 51.7584 51.6385 51.5589 51.6376C51.3604 51.6376 51.1806 51.719 51.0501 51.8487C50.9195 51.9793 50.839 52.159 50.839 52.3576C50.839 52.5561 50.9195 52.7367 51.0501 52.8664C51.1806 52.997 51.3604 53.0775 51.5589 53.0775C51.7575 53.0775 51.9372 52.997 52.0678 52.8664C52.1984 52.7367 52.2789 52.5561 52.2789 52.3576C52.2789 52.159 52.1984 51.9793 52.0678 51.8487ZM52.0678 51.8487C51.9372 51.719 51.7584 51.6385 51.5589 51.6376C51.3604 51.6376 51.1806 51.719 51.0501 51.8487C50.9195 51.9793 50.839 52.159 50.839 52.3576C50.839 52.5561 50.9195 52.7367 51.0501 52.8664C51.1806 52.997 51.3604 53.0775 51.5589 53.0775C51.7575 53.0775 51.9372 52.997 52.0678 52.8664C52.1984 52.7367 52.2789 52.5561 52.2789 52.3576C52.2789 52.159 52.1984 51.9793 52.0678 51.8487ZM55.1532 51.8487C55.0226 51.719 54.8428 51.6385 54.6443 51.6376C54.4458 51.6376 54.266 51.719 54.1354 51.8487C54.0058 51.9793 53.9253 52.159 53.9253 52.3576C53.9253 52.5561 54.0058 52.7367 54.1354 52.8664C54.266 52.997 54.4458 53.0775 54.6443 53.0775C54.8428 53.0775 55.0226 52.997 55.1532 52.8664C55.2837 52.7367 55.3642 52.5561 55.3642 52.3576C55.3642 52.159 55.2837 51.9793 55.1532 51.8487ZM58.2385 51.8487C58.108 51.719 57.9282 51.6385 57.7297 51.6376C57.5311 51.6376 57.3514 51.719 57.2208 51.8487C57.0911 51.9793 57.0106 52.159 57.0106 52.3576C57.0106 52.5561 57.0911 52.7367 57.2208 52.8664C57.3514 52.997 57.5311 53.0775 57.7297 53.0775C57.9282 53.0775 58.108 52.997 58.2385 52.8664C58.3682 52.7367 58.4487 52.5561 58.4487 52.3576C58.4487 52.159 58.3682 51.9793 58.2385 51.8487ZM58.2385 51.8487C58.108 51.719 57.9282 51.6385 57.7297 51.6376C57.5311 51.6376 57.3514 51.719 57.2208 51.8487C57.0911 51.9793 57.0106 52.159 57.0106 52.3576C57.0106 52.5561 57.0911 52.7367 57.2208 52.8664C57.3514 52.997 57.5311 53.0775 57.7297 53.0775C57.9282 53.0775 58.108 52.997 58.2385 52.8664C58.3682 52.7367 58.4487 52.5561 58.4487 52.3576C58.4487 52.159 58.3682 51.9793 58.2385 51.8487ZM55.1532 51.8487C55.0226 51.719 54.8428 51.6385 54.6443 51.6376C54.4458 51.6376 54.266 51.719 54.1354 51.8487C54.0058 51.9793 53.9253 52.159 53.9253 52.3576C53.9253 52.5561 54.0058 52.7367 54.1354 52.8664C54.266 52.997 54.4458 53.0775 54.6443 53.0775C54.8428 53.0775 55.0226 52.997 55.1532 52.8664C55.2837 52.7367 55.3642 52.5561 55.3642 52.3576C55.3642 52.159 55.2837 51.9793 55.1532 51.8487ZM52.0678 51.8487C51.9372 51.719 51.7584 51.6385 51.5589 51.6376C51.3604 51.6376 51.1806 51.719 51.0501 51.8487C50.9195 51.9793 50.839 52.159 50.839 52.3576C50.839 52.5561 50.9195 52.7367 51.0501 52.8664C51.1806 52.997 51.3604 53.0775 51.5589 53.0775C51.7575 53.0775 51.9372 52.997 52.0678 52.8664C52.1984 52.7367 52.2789 52.5561 52.2789 52.3576C52.2789 52.159 52.1984 51.9793 52.0678 51.8487ZM52.0678 51.8487C51.9372 51.719 51.7584 51.6385 51.5589 51.6376C51.3604 51.6376 51.1806 51.719 51.0501 51.8487C50.9195 51.9793 50.839 52.159 50.839 52.3576C50.839 52.5561 50.9195 52.7367 51.0501 52.8664C51.1806 52.997 51.3604 53.0775 51.5589 53.0775C51.7575 53.0775 51.9372 52.997 52.0678 52.8664C52.1984 52.7367 52.2789 52.5561 52.2789 52.3576C52.2789 52.159 52.1984 51.9793 52.0678 51.8487ZM55.1532 51.8487C55.0226 51.719 54.8428 51.6385 54.6443 51.6376C54.4458 51.6376 54.266 51.719 54.1354 51.8487C54.0058 51.9793 53.9253 52.159 53.9253 52.3576C53.9253 52.5561 54.0058 52.7367 54.1354 52.8664C54.266 52.997 54.4458 53.0775 54.6443 53.0775C54.8428 53.0775 55.0226 52.997 55.1532 52.8664C55.2837 52.7367 55.3642 52.5561 55.3642 52.3576C55.3642 52.159 55.2837 51.9793 55.1532 51.8487ZM58.2385 51.8487C58.108 51.719 57.9282 51.6385 57.7297 51.6376C57.5311 51.6376 57.3514 51.719 57.2208 51.8487C57.0911 51.9793 57.0106 52.159 57.0106 52.3576C57.0106 52.5561 57.0911 52.7367 57.2208 52.8664C57.3514 52.997 57.5311 53.0775 57.7297 53.0775C57.9282 53.0775 58.108 52.997 58.2385 52.8664C58.3682 52.7367 58.4487 52.5561 58.4487 52.3576C58.4487 52.159 58.3682 51.9793 58.2385 51.8487ZM58.2385 51.8487C58.108 51.719 57.9282 51.6385 57.7297 51.6376C57.5311 51.6376 57.3514 51.719 57.2208 51.8487C57.0911 51.9793 57.0106 52.159 57.0106 52.3576C57.0106 52.5561 57.0911 52.7367 57.2208 52.8664C57.3514 52.997 57.5311 53.0775 57.7297 53.0775C57.9282 53.0775 58.108 52.997 58.2385 52.8664C58.3682 52.7367 58.4487 52.5561 58.4487 52.3576C58.4487 52.159 58.3682 51.9793 58.2385 51.8487ZM54.6443 51.6376C54.4458 51.6376 54.266 51.719 54.1354 51.8487C54.0058 51.9793 53.9253 52.159 53.9253 52.3576C53.9253 52.5561 54.0058 52.7367 54.1354 52.8664C54.266 52.997 54.4458 53.0775 54.6443 53.0775C54.8428 53.0775 55.0226 52.997 55.1532 52.8664C55.2837 52.7367 55.3642 52.5561 55.3642 52.3576C55.3642 52.159 55.2837 51.9793 55.1532 51.8487C55.0226 51.719 54.8428 51.6385 54.6443 51.6376ZM51.5589 51.6376C51.3604 51.6376 51.1806 51.719 51.0501 51.8487C50.9195 51.9793 50.839 52.159 50.839 52.3576C50.839 52.5561 50.9195 52.7367 51.0501 52.8664C51.1806 52.997 51.3604 53.0775 51.5589 53.0775C51.7575 53.0775 51.9372 52.997 52.0678 52.8664C52.1984 52.7367 52.2789 52.5561 52.2789 52.3576C52.2789 52.159 52.1984 51.9793 52.0678 51.8487C51.9372 51.719 51.7584 51.6385 51.5589 51.6376ZM60.3768 47.5703H59.1579L57.7252 45.3274C57.5678 45.0815 57.2941 44.9348 56.9946 44.9348C56.695 44.9348 56.4213 45.0815 56.2639 45.3274L54.8303 47.5703H48.9118C48.0693 47.5703 47.3834 48.2563 47.3834 49.0987V55.8141C47.3834 56.6565 48.0685 57.3424 48.9118 57.3424H60.3768C61.2202 57.3424 61.9052 56.6565 61.9052 55.8141V49.0987C61.9052 48.2554 61.2202 47.5703 60.3768 47.5703ZM60.832 55.8141C60.832 56.0654 60.6281 56.2693 60.3768 56.2693H48.9118C48.6605 56.2693 48.4566 56.0654 48.4566 55.8141V49.0987C48.4566 48.8474 48.6605 48.6435 48.9118 48.6435H55.1245C55.3079 48.6435 55.4778 48.5505 55.5771 48.3958L56.9946 46.1779L58.412 48.3958C58.5104 48.5505 58.6812 48.6435 58.8637 48.6435H60.3768C60.6281 48.6435 60.832 48.8474 60.832 49.0987V55.8141ZM57.7297 51.6376C57.5311 51.6376 57.3514 51.719 57.2208 51.8487C57.0911 51.9793 57.0106 52.159 57.0106 52.3576C57.0106 52.5561 57.0911 52.7367 57.2208 52.8664C57.3514 52.997 57.5311 53.0775 57.7297 53.0775C57.9282 53.0775 58.108 52.997 58.2385 52.8664C58.3682 52.7367 58.4487 52.5561 58.4487 52.3576C58.4487 52.159 58.3682 51.9793 58.2385 51.8487C58.108 51.719 57.9282 51.6385 57.7297 51.6376ZM54.6443 51.6376C54.4458 51.6376 54.266 51.719 54.1354 51.8487C54.0058 51.9793 53.9253 52.159 53.9253 52.3576C53.9253 52.5561 54.0058 52.7367 54.1354 52.8664C54.266 52.997 54.4458 53.0775 54.6443 53.0775C54.8428 53.0775 55.0226 52.997 55.1532 52.8664C55.2837 52.7367 55.3642 52.5561 55.3642 52.3576C55.3642 52.159 55.2837 51.9793 55.1532 51.8487C55.0226 51.719 54.8428 51.6385 54.6443 51.6376ZM51.5589 51.6376C51.3604 51.6376 51.1806 51.719 51.0501 51.8487C50.9195 51.9793 50.839 52.159 50.839 52.3576C50.839 52.5561 50.9195 52.7367 51.0501 52.8664C51.1806 52.997 51.3604 53.0775 51.5589 53.0775C51.7575 53.0775 51.9372 52.997 52.0678 52.8664C52.1984 52.7367 52.2789 52.5561 52.2789 52.3576C52.2789 52.159 52.1984 51.9793 52.0678 51.8487C51.9372 51.719 51.7584 51.6385 51.5589 51.6376ZM52.0678 51.8487C51.9372 51.719 51.7584 51.6385 51.5589 51.6376C51.3604 51.6376 51.1806 51.719 51.0501 51.8487C50.9195 51.9793 50.839 52.159 50.839 52.3576C50.839 52.5561 50.9195 52.7367 51.0501 52.8664C51.1806 52.997 51.3604 53.0775 51.5589 53.0775C51.7575 53.0775 51.9372 52.997 52.0678 52.8664C52.1984 52.7367 52.2789 52.5561 52.2789 52.3576C52.2789 52.159 52.1984 51.9793 52.0678 51.8487ZM55.1532 51.8487C55.0226 51.719 54.8428 51.6385 54.6443 51.6376C54.4458 51.6376 54.266 51.719 54.1354 51.8487C54.0058 51.9793 53.9253 52.159 53.9253 52.3576C53.9253 52.5561 54.0058 52.7367 54.1354 52.8664C54.266 52.997 54.4458 53.0775 54.6443 53.0775C54.8428 53.0775 55.0226 52.997 55.1532 52.8664C55.2837 52.7367 55.3642 52.5561 55.3642 52.3576C55.3642 52.159 55.2837 51.9793 55.1532 51.8487ZM58.2385 51.8487C58.108 51.719 57.9282 51.6385 57.7297 51.6376C57.5311 51.6376 57.3514 51.719 57.2208 51.8487C57.0911 51.9793 57.0106 52.159 57.0106 52.3576C57.0106 52.5561 57.0911 52.7367 57.2208 52.8664C57.3514 52.997 57.5311 53.0775 57.7297 53.0775C57.9282 53.0775 58.108 52.997 58.2385 52.8664C58.3682 52.7367 58.4487 52.5561 58.4487 52.3576C58.4487 52.159 58.3682 51.9793 58.2385 51.8487ZM58.2385 51.8487C58.108 51.719 57.9282 51.6385 57.7297 51.6376C57.5311 51.6376 57.3514 51.719 57.2208 51.8487C57.0911 51.9793 57.0106 52.159 57.0106 52.3576C57.0106 52.5561 57.0911 52.7367 57.2208 52.8664C57.3514 52.997 57.5311 53.0775 57.7297 53.0775C57.9282 53.0775 58.108 52.997 58.2385 52.8664C58.3682 52.7367 58.4487 52.5561 58.4487 52.3576C58.4487 52.159 58.3682 51.9793 58.2385 51.8487ZM55.1532 51.8487C55.0226 51.719 54.8428 51.6385 54.6443 51.6376C54.4458 51.6376 54.266 51.719 54.1354 51.8487C54.0058 51.9793 53.9253 52.159 53.9253 52.3576C53.9253 52.5561 54.0058 52.7367 54.1354 52.8664C54.266 52.997 54.4458 53.0775 54.6443 53.0775C54.8428 53.0775 55.0226 52.997 55.1532 52.8664C55.2837 52.7367 55.3642 52.5561 55.3642 52.3576C55.3642 52.159 55.2837 51.9793 55.1532 51.8487ZM52.0678 51.8487C51.9372 51.719 51.7584 51.6385 51.5589 51.6376C51.3604 51.6376 51.1806 51.719 51.0501 51.8487C50.9195 51.9793 50.839 52.159 50.839 52.3576C50.839 52.5561 50.9195 52.7367 51.0501 52.8664C51.1806 52.997 51.3604 53.0775 51.5589 53.0775C51.7575 53.0775 51.9372 52.997 52.0678 52.8664C52.1984 52.7367 52.2789 52.5561 52.2789 52.3576C52.2789 52.159 52.1984 51.9793 52.0678 51.8487ZM52.0678 51.8487C51.9372 51.719 51.7584 51.6385 51.5589 51.6376C51.3604 51.6376 51.1806 51.719 51.0501 51.8487C50.9195 51.9793 50.839 52.159 50.839 52.3576C50.839 52.5561 50.9195 52.7367 51.0501 52.8664C51.1806 52.997 51.3604 53.0775 51.5589 53.0775C51.7575 53.0775 51.9372 52.997 52.0678 52.8664C52.1984 52.7367 52.2789 52.5561 52.2789 52.3576C52.2789 52.159 52.1984 51.9793 52.0678 51.8487ZM55.1532 51.8487C55.0226 51.719 54.8428 51.6385 54.6443 51.6376C54.4458 51.6376 54.266 51.719 54.1354 51.8487C54.0058 51.9793 53.9253 52.159 53.9253 52.3576C53.9253 52.5561 54.0058 52.7367 54.1354 52.8664C54.266 52.997 54.4458 53.0775 54.6443 53.0775C54.8428 53.0775 55.0226 52.997 55.1532 52.8664C55.2837 52.7367 55.3642 52.5561 55.3642 52.3576C55.3642 52.159 55.2837 51.9793 55.1532 51.8487ZM58.2385 51.8487C58.108 51.719 57.9282 51.6385 57.7297 51.6376C57.5311 51.6376 57.3514 51.719 57.2208 51.8487C57.0911 51.9793 57.0106 52.159 57.0106 52.3576C57.0106 52.5561 57.0911 52.7367 57.2208 52.8664C57.3514 52.997 57.5311 53.0775 57.7297 53.0775C57.9282 53.0775 58.108 52.997 58.2385 52.8664C58.3682 52.7367 58.4487 52.5561 58.4487 52.3576C58.4487 52.159 58.3682 51.9793 58.2385 51.8487ZM58.2385 51.8487C58.108 51.719 57.9282 51.6385 57.7297 51.6376C57.5311 51.6376 57.3514 51.719 57.2208 51.8487C57.0911 51.9793 57.0106 52.159 57.0106 52.3576C57.0106 52.5561 57.0911 52.7367 57.2208 52.8664C57.3514 52.997 57.5311 53.0775 57.7297 53.0775C57.9282 53.0775 58.108 52.997 58.2385 52.8664C58.3682 52.7367 58.4487 52.5561 58.4487 52.3576C58.4487 52.159 58.3682 51.9793 58.2385 51.8487ZM55.1532 51.8487C55.0226 51.719 54.8428 51.6385 54.6443 51.6376C54.4458 51.6376 54.266 51.719 54.1354 51.8487C54.0058 51.9793 53.9253 52.159 53.9253 52.3576C53.9253 52.5561 54.0058 52.7367 54.1354 52.8664C54.266 52.997 54.4458 53.0775 54.6443 53.0775C54.8428 53.0775 55.0226 52.997 55.1532 52.8664C55.2837 52.7367 55.3642 52.5561 55.3642 52.3576C55.3642 52.159 55.2837 51.9793 55.1532 51.8487ZM52.0678 51.8487C51.9372 51.719 51.7584 51.6385 51.5589 51.6376C51.3604 51.6376 51.1806 51.719 51.0501 51.8487C50.9195 51.9793 50.839 52.159 50.839 52.3576C50.839 52.5561 50.9195 52.7367 51.0501 52.8664C51.1806 52.997 51.3604 53.0775 51.5589 53.0775C51.7575 53.0775 51.9372 52.997 52.0678 52.8664C52.1984 52.7367 52.2789 52.5561 52.2789 52.3576C52.2789 52.159 52.1984 51.9793 52.0678 51.8487ZM52.0678 51.8487C51.9372 51.719 51.7584 51.6385 51.5589 51.6376C51.3604 51.6376 51.1806 51.719 51.0501 51.8487C50.9195 51.9793 50.839 52.159 50.839 52.3576C50.839 52.5561 50.9195 52.7367 51.0501 52.8664C51.1806 52.997 51.3604 53.0775 51.5589 53.0775C51.7575 53.0775 51.9372 52.997 52.0678 52.8664C52.1984 52.7367 52.2789 52.5561 52.2789 52.3576C52.2789 52.159 52.1984 51.9793 52.0678 51.8487ZM55.1532 51.8487C55.0226 51.719 54.8428 51.6385 54.6443 51.6376C54.4458 51.6376 54.266 51.719 54.1354 51.8487C54.0058 51.9793 53.9253 52.159 53.9253 52.3576C53.9253 52.5561 54.0058 52.7367 54.1354 52.8664C54.266 52.997 54.4458 53.0775 54.6443 53.0775C54.8428 53.0775 55.0226 52.997 55.1532 52.8664C55.2837 52.7367 55.3642 52.5561 55.3642 52.3576C55.3642 52.159 55.2837 51.9793 55.1532 51.8487ZM58.2385 51.8487C58.108 51.719 57.9282 51.6385 57.7297 51.6376C57.5311 51.6376 57.3514 51.719 57.2208 51.8487C57.0911 51.9793 57.0106 52.159 57.0106 52.3576C57.0106 52.5561 57.0911 52.7367 57.2208 52.8664C57.3514 52.997 57.5311 53.0775 57.7297 53.0775C57.9282 53.0775 58.108 52.997 58.2385 52.8664C58.3682 52.7367 58.4487 52.5561 58.4487 52.3576C58.4487 52.159 58.3682 51.9793 58.2385 51.8487ZM58.2385 51.8487C58.108 51.719 57.9282 51.6385 57.7297 51.6376C57.5311 51.6376 57.3514 51.719 57.2208 51.8487C57.0911 51.9793 57.0106 52.159 57.0106 52.3576C57.0106 52.5561 57.0911 52.7367 57.2208 52.8664C57.3514 52.997 57.5311 53.0775 57.7297 53.0775C57.9282 53.0775 58.108 52.997 58.2385 52.8664C58.3682 52.7367 58.4487 52.5561 58.4487 52.3576C58.4487 52.159 58.3682 51.9793 58.2385 51.8487ZM55.1532 51.8487C55.0226 51.719 54.8428 51.6385 54.6443 51.6376C54.4458 51.6376 54.266 51.719 54.1354 51.8487C54.0058 51.9793 53.9253 52.159 53.9253 52.3576C53.9253 52.5561 54.0058 52.7367 54.1354 52.8664C54.266 52.997 54.4458 53.0775 54.6443 53.0775C54.8428 53.0775 55.0226 52.997 55.1532 52.8664C55.2837 52.7367 55.3642 52.5561 55.3642 52.3576C55.3642 52.159 55.2837 51.9793 55.1532 51.8487ZM52.0678 51.8487C51.9372 51.719 51.7584 51.6385 51.5589 51.6376C51.3604 51.6376 51.1806 51.719 51.0501 51.8487C50.9195 51.9793 50.839 52.159 50.839 52.3576C50.839 52.5561 50.9195 52.7367 51.0501 52.8664C51.1806 52.997 51.3604 53.0775 51.5589 53.0775C51.7575 53.0775 51.9372 52.997 52.0678 52.8664C52.1984 52.7367 52.2789 52.5561 52.2789 52.3576C52.2789 52.159 52.1984 51.9793 52.0678 51.8487ZM52.0678 51.8487C51.9372 51.719 51.7584 51.6385 51.5589 51.6376C51.3604 51.6376 51.1806 51.719 51.0501 51.8487C50.9195 51.9793 50.839 52.159 50.839 52.3576C50.839 52.5561 50.9195 52.7367 51.0501 52.8664C51.1806 52.997 51.3604 53.0775 51.5589 53.0775C51.7575 53.0775 51.9372 52.997 52.0678 52.8664C52.1984 52.7367 52.2789 52.5561 52.2789 52.3576C52.2789 52.159 52.1984 51.9793 52.0678 51.8487ZM55.1532 51.8487C55.0226 51.719 54.8428 51.6385 54.6443 51.6376C54.4458 51.6376 54.266 51.719 54.1354 51.8487C54.0058 51.9793 53.9253 52.159 53.9253 52.3576C53.9253 52.5561 54.0058 52.7367 54.1354 52.8664C54.266 52.997 54.4458 53.0775 54.6443 53.0775C54.8428 53.0775 55.0226 52.997 55.1532 52.8664C55.2837 52.7367 55.3642 52.5561 55.3642 52.3576C55.3642 52.159 55.2837 51.9793 55.1532 51.8487ZM58.2385 51.8487C58.108 51.719 57.9282 51.6385 57.7297 51.6376C57.5311 51.6376 57.3514 51.719 57.2208 51.8487C57.0911 51.9793 57.0106 52.159 57.0106 52.3576C57.0106 52.5561 57.0911 52.7367 57.2208 52.8664C57.3514 52.997 57.5311 53.0775 57.7297 53.0775C57.9282 53.0775 58.108 52.997 58.2385 52.8664C58.3682 52.7367 58.4487 52.5561 58.4487 52.3576C58.4487 52.159 58.3682 51.9793 58.2385 51.8487ZM58.2385 51.8487C58.108 51.719 57.9282 51.6385 57.7297 51.6376C57.5311 51.6376 57.3514 51.719 57.2208 51.8487C57.0911 51.9793 57.0106 52.159 57.0106 52.3576C57.0106 52.5561 57.0911 52.7367 57.2208 52.8664C57.3514 52.997 57.5311 53.0775 57.7297 53.0775C57.9282 53.0775 58.108 52.997 58.2385 52.8664C58.3682 52.7367 58.4487 52.5561 58.4487 52.3576C58.4487 52.159 58.3682 51.9793 58.2385 51.8487ZM55.1532 51.8487C55.0226 51.719 54.8428 51.6385 54.6443 51.6376C54.4458 51.6376 54.266 51.719 54.1354 51.8487C54.0058 51.9793 53.9253 52.159 53.9253 52.3576C53.9253 52.5561 54.0058 52.7367 54.1354 52.8664C54.266 52.997 54.4458 53.0775 54.6443 53.0775C54.8428 53.0775 55.0226 52.997 55.1532 52.8664C55.2837 52.7367 55.3642 52.5561 55.3642 52.3576C55.3642 52.159 55.2837 51.9793 55.1532 51.8487ZM52.0678 51.8487C51.9372 51.719 51.7584 51.6385 51.5589 51.6376C51.3604 51.6376 51.1806 51.719 51.0501 51.8487C50.9195 51.9793 50.839 52.159 50.839 52.3576C50.839 52.5561 50.9195 52.7367 51.0501 52.8664C51.1806 52.997 51.3604 53.0775 51.5589 53.0775C51.7575 53.0775 51.9372 52.997 52.0678 52.8664C52.1984 52.7367 52.2789 52.5561 52.2789 52.3576C52.2789 52.159 52.1984 51.9793 52.0678 51.8487ZM28.5126 24.8102C28.3865 24.6841 28.213 24.6063 28.0207 24.6063C27.8285 24.6063 27.655 24.6841 27.5289 24.8102C27.4028 24.9363 27.325 25.1098 27.325 25.302C27.325 25.4943 27.4028 25.6678 27.5289 25.7939C27.6541 25.92 27.8285 25.9978 28.0207 25.9978C28.213 25.9978 28.3865 25.92 28.5126 25.7939C28.6387 25.6678 28.7165 25.4943 28.7165 25.302C28.7165 25.1098 28.6387 24.9363 28.5126 24.8102ZM25.5292 24.8102C25.4031 24.6841 25.2296 24.6063 25.0373 24.6063C24.845 24.6063 24.6715 24.6841 24.5454 24.8102C24.4193 24.9363 24.3415 25.1098 24.3415 25.302C24.3415 25.4943 24.4193 25.6678 24.5454 25.7939C24.6724 25.92 24.8459 25.9978 25.0373 25.9978C25.2287 25.9978 25.4031 25.92 25.5292 25.7939C25.6553 25.6678 25.7331 25.4943 25.7331 25.302C25.7331 25.1098 25.6553 24.9363 25.5292 24.8102ZM22.5467 24.8102C22.4206 24.6841 22.2471 24.6063 22.0548 24.6063C21.8625 24.6063 21.689 24.6841 21.5629 24.8102C21.4368 24.9363 21.359 25.1098 21.359 25.302C21.359 25.4943 21.4368 25.6678 21.5629 25.7939C21.689 25.92 21.8625 25.9978 22.0548 25.9978C22.2471 25.9978 22.4206 25.92 22.5467 25.7939C22.6728 25.6678 22.7506 25.4943 22.7506 25.302C22.7506 25.1098 22.6728 24.9363 22.5467 24.8102ZM22.5467 24.8102C22.4206 24.6841 22.2471 24.6063 22.0548 24.6063C21.8625 24.6063 21.689 24.6841 21.5629 24.8102C21.4368 24.9363 21.359 25.1098 21.359 25.302C21.359 25.4943 21.4368 25.6678 21.5629 25.7939C21.689 25.92 21.8625 25.9978 22.0548 25.9978C22.2471 25.9978 22.4206 25.92 22.5467 25.7939C22.6728 25.6678 22.7506 25.4943 22.7506 25.302C22.7506 25.1098 22.6728 24.9363 22.5467 24.8102ZM25.5292 24.8102C25.4031 24.6841 25.2296 24.6063 25.0373 24.6063C24.845 24.6063 24.6715 24.6841 24.5454 24.8102C24.4193 24.9363 24.3415 25.1098 24.3415 25.302C24.3415 25.4943 24.4193 25.6678 24.5454 25.7939C24.6724 25.92 24.8459 25.9978 25.0373 25.9978C25.2287 25.9978 25.4031 25.92 25.5292 25.7939C25.6553 25.6678 25.7331 25.4943 25.7331 25.302C25.7331 25.1098 25.6553 24.9363 25.5292 24.8102ZM28.5126 24.8102C28.3865 24.6841 28.213 24.6063 28.0207 24.6063C27.8285 24.6063 27.655 24.6841 27.5289 24.8102C27.4028 24.9363 27.325 25.1098 27.325 25.302C27.325 25.4943 27.4028 25.6678 27.5289 25.7939C27.6541 25.92 27.8285 25.9978 28.0207 25.9978C28.213 25.9978 28.3865 25.92 28.5126 25.7939C28.6387 25.6678 28.7165 25.4943 28.7165 25.302C28.7165 25.1098 28.6387 24.9363 28.5126 24.8102ZM22.5467 24.8102C22.4206 24.6841 22.2471 24.6063 22.0548 24.6063C21.8625 24.6063 21.689 24.6841 21.5629 24.8102C21.4368 24.9363 21.359 25.1098 21.359 25.302C21.359 25.4943 21.4368 25.6678 21.5629 25.7939C21.689 25.92 21.8625 25.9978 22.0548 25.9978C22.2471 25.9978 22.4206 25.92 22.5467 25.7939C22.6728 25.6678 22.7506 25.4943 22.7506 25.302C22.7506 25.1098 22.6728 24.9363 22.5467 24.8102ZM25.5292 24.8102C25.4031 24.6841 25.2296 24.6063 25.0373 24.6063C24.845 24.6063 24.6715 24.6841 24.5454 24.8102C24.4193 24.9363 24.3415 25.1098 24.3415 25.302C24.3415 25.4943 24.4193 25.6678 24.5454 25.7939C24.6724 25.92 24.8459 25.9978 25.0373 25.9978C25.2287 25.9978 25.4031 25.92 25.5292 25.7939C25.6553 25.6678 25.7331 25.4943 25.7331 25.302C25.7331 25.1098 25.6553 24.9363 25.5292 24.8102ZM28.5126 24.8102C28.3865 24.6841 28.213 24.6063 28.0207 24.6063C27.8285 24.6063 27.655 24.6841 27.5289 24.8102C27.4028 24.9363 27.325 25.1098 27.325 25.302C27.325 25.4943 27.4028 25.6678 27.5289 25.7939C27.6541 25.92 27.8285 25.9978 28.0207 25.9978C28.213 25.9978 28.3865 25.92 28.5126 25.7939C28.6387 25.6678 28.7165 25.4943 28.7165 25.302C28.7165 25.1098 28.6387 24.9363 28.5126 24.8102ZM28.5126 24.8102C28.3865 24.6841 28.213 24.6063 28.0207 24.6063C27.8285 24.6063 27.655 24.6841 27.5289 24.8102C27.4028 24.9363 27.325 25.1098 27.325 25.302C27.325 25.4943 27.4028 25.6678 27.5289 25.7939C27.6541 25.92 27.8285 25.9978 28.0207 25.9978C28.213 25.9978 28.3865 25.92 28.5126 25.7939C28.6387 25.6678 28.7165 25.4943 28.7165 25.302C28.7165 25.1098 28.6387 24.9363 28.5126 24.8102ZM25.5292 24.8102C25.4031 24.6841 25.2296 24.6063 25.0373 24.6063C24.845 24.6063 24.6715 24.6841 24.5454 24.8102C24.4193 24.9363 24.3415 25.1098 24.3415 25.302C24.3415 25.4943 24.4193 25.6678 24.5454 25.7939C24.6724 25.92 24.8459 25.9978 25.0373 25.9978C25.2287 25.9978 25.4031 25.92 25.5292 25.7939C25.6553 25.6678 25.7331 25.4943 25.7331 25.302C25.7331 25.1098 25.6553 24.9363 25.5292 24.8102ZM22.5467 24.8102C22.4206 24.6841 22.2471 24.6063 22.0548 24.6063C21.8625 24.6063 21.689 24.6841 21.5629 24.8102C21.4368 24.9363 21.359 25.1098 21.359 25.302C21.359 25.4943 21.4368 25.6678 21.5629 25.7939C21.689 25.92 21.8625 25.9978 22.0548 25.9978C22.2471 25.9978 22.4206 25.92 22.5467 25.7939C22.6728 25.6678 22.7506 25.4943 22.7506 25.302C22.7506 25.1098 22.6728 24.9363 22.5467 24.8102ZM22.5467 24.8102C22.4206 24.6841 22.2471 24.6063 22.0548 24.6063C21.8625 24.6063 21.689 24.6841 21.5629 24.8102C21.4368 24.9363 21.359 25.1098 21.359 25.302C21.359 25.4943 21.4368 25.6678 21.5629 25.7939C21.689 25.92 21.8625 25.9978 22.0548 25.9978C22.2471 25.9978 22.4206 25.92 22.5467 25.7939C22.6728 25.6678 22.7506 25.4943 22.7506 25.302C22.7506 25.1098 22.6728 24.9363 22.5467 24.8102ZM25.5292 24.8102C25.4031 24.6841 25.2296 24.6063 25.0373 24.6063C24.845 24.6063 24.6715 24.6841 24.5454 24.8102C24.4193 24.9363 24.3415 25.1098 24.3415 25.302C24.3415 25.4943 24.4193 25.6678 24.5454 25.7939C24.6724 25.92 24.8459 25.9978 25.0373 25.9978C25.2287 25.9978 25.4031 25.92 25.5292 25.7939C25.6553 25.6678 25.7331 25.4943 25.7331 25.302C25.7331 25.1098 25.6553 24.9363 25.5292 24.8102ZM28.5126 24.8102C28.3865 24.6841 28.213 24.6063 28.0207 24.6063C27.8285 24.6063 27.655 24.6841 27.5289 24.8102C27.4028 24.9363 27.325 25.1098 27.325 25.302C27.325 25.4943 27.4028 25.6678 27.5289 25.7939C27.6541 25.92 27.8285 25.9978 28.0207 25.9978C28.213 25.9978 28.3865 25.92 28.5126 25.7939C28.6387 25.6678 28.7165 25.4943 28.7165 25.302C28.7165 25.1098 28.6387 24.9363 28.5126 24.8102ZM28.5126 24.8102C28.3865 24.6841 28.213 24.6063 28.0207 24.6063C27.8285 24.6063 27.655 24.6841 27.5289 24.8102C27.4028 24.9363 27.325 25.1098 27.325 25.302C27.325 25.4943 27.4028 25.6678 27.5289 25.7939C27.6541 25.92 27.8285 25.9978 28.0207 25.9978C28.213 25.9978 28.3865 25.92 28.5126 25.7939C28.6387 25.6678 28.7165 25.4943 28.7165 25.302C28.7165 25.1098 28.6387 24.9363 28.5126 24.8102ZM25.5292 24.8102C25.4031 24.6841 25.2296 24.6063 25.0373 24.6063C24.845 24.6063 24.6715 24.6841 24.5454 24.8102C24.4193 24.9363 24.3415 25.1098 24.3415 25.302C24.3415 25.4943 24.4193 25.6678 24.5454 25.7939C24.6724 25.92 24.8459 25.9978 25.0373 25.9978C25.2287 25.9978 25.4031 25.92 25.5292 25.7939C25.6553 25.6678 25.7331 25.4943 25.7331 25.302C25.7331 25.1098 25.6553 24.9363 25.5292 24.8102ZM22.5467 24.8102C22.4206 24.6841 22.2471 24.6063 22.0548 24.6063C21.8625 24.6063 21.689 24.6841 21.5629 24.8102C21.4368 24.9363 21.359 25.1098 21.359 25.302C21.359 25.4943 21.4368 25.6678 21.5629 25.7939C21.689 25.92 21.8625 25.9978 22.0548 25.9978C22.2471 25.9978 22.4206 25.92 22.5467 25.7939C22.6728 25.6678 22.7506 25.4943 22.7506 25.302C22.7506 25.1098 22.6728 24.9363 22.5467 24.8102ZM22.5467 24.8102C22.4206 24.6841 22.2471 24.6063 22.0548 24.6063C21.8625 24.6063 21.689 24.6841 21.5629 24.8102C21.4368 24.9363 21.359 25.1098 21.359 25.302C21.359 25.4943 21.4368 25.6678 21.5629 25.7939C21.689 25.92 21.8625 25.9978 22.0548 25.9978C22.2471 25.9978 22.4206 25.92 22.5467 25.7939C22.6728 25.6678 22.7506 25.4943 22.7506 25.302C22.7506 25.1098 22.6728 24.9363 22.5467 24.8102ZM25.5292 24.8102C25.4031 24.6841 25.2296 24.6063 25.0373 24.6063C24.845 24.6063 24.6715 24.6841 24.5454 24.8102C24.4193 24.9363 24.3415 25.1098 24.3415 25.302C24.3415 25.4943 24.4193 25.6678 24.5454 25.7939C24.6724 25.92 24.8459 25.9978 25.0373 25.9978C25.2287 25.9978 25.4031 25.92 25.5292 25.7939C25.6553 25.6678 25.7331 25.4943 25.7331 25.302C25.7331 25.1098 25.6553 24.9363 25.5292 24.8102ZM28.5126 24.8102C28.3865 24.6841 28.213 24.6063 28.0207 24.6063C27.8285 24.6063 27.655 24.6841 27.5289 24.8102C27.4028 24.9363 27.325 25.1098 27.325 25.302C27.325 25.4943 27.4028 25.6678 27.5289 25.7939C27.6541 25.92 27.8285 25.9978 28.0207 25.9978C28.213 25.9978 28.3865 25.92 28.5126 25.7939C28.6387 25.6678 28.7165 25.4943 28.7165 25.302C28.7165 25.1098 28.6387 24.9363 28.5126 24.8102ZM28.5126 24.8102C28.3865 24.6841 28.213 24.6063 28.0207 24.6063C27.8285 24.6063 27.655 24.6841 27.5289 24.8102C27.4028 24.9363 27.325 25.1098 27.325 25.302C27.325 25.4943 27.4028 25.6678 27.5289 25.7939C27.6541 25.92 27.8285 25.9978 28.0207 25.9978C28.213 25.9978 28.3865 25.92 28.5126 25.7939C28.6387 25.6678 28.7165 25.4943 28.7165 25.302C28.7165 25.1098 28.6387 24.9363 28.5126 24.8102ZM25.5292 24.8102C25.4031 24.6841 25.2296 24.6063 25.0373 24.6063C24.845 24.6063 24.6715 24.6841 24.5454 24.8102C24.4193 24.9363 24.3415 25.1098 24.3415 25.302C24.3415 25.4943 24.4193 25.6678 24.5454 25.7939C24.6724 25.92 24.8459 25.9978 25.0373 25.9978C25.2287 25.9978 25.4031 25.92 25.5292 25.7939C25.6553 25.6678 25.7331 25.4943 25.7331 25.302C25.7331 25.1098 25.6553 24.9363 25.5292 24.8102ZM22.5467 24.8102C22.4206 24.6841 22.2471 24.6063 22.0548 24.6063C21.8625 24.6063 21.689 24.6841 21.5629 24.8102C21.4368 24.9363 21.359 25.1098 21.359 25.302C21.359 25.4943 21.4368 25.6678 21.5629 25.7939C21.689 25.92 21.8625 25.9978 22.0548 25.9978C22.2471 25.9978 22.4206 25.92 22.5467 25.7939C22.6728 25.6678 22.7506 25.4943 22.7506 25.302C22.7506 25.1098 22.6728 24.9363 22.5467 24.8102ZM22.5467 24.8102C22.4206 24.6841 22.2471 24.6063 22.0548 24.6063C21.8625 24.6063 21.689 24.6841 21.5629 24.8102C21.4368 24.9363 21.359 25.1098 21.359 25.302C21.359 25.4943 21.4368 25.6678 21.5629 25.7939C21.689 25.92 21.8625 25.9978 22.0548 25.9978C22.2471 25.9978 22.4206 25.92 22.5467 25.7939C22.6728 25.6678 22.7506 25.4943 22.7506 25.302C22.7506 25.1098 22.6728 24.9363 22.5467 24.8102ZM25.5292 24.8102C25.4031 24.6841 25.2296 24.6063 25.0373 24.6063C24.845 24.6063 24.6715 24.6841 24.5454 24.8102C24.4193 24.9363 24.3415 25.1098 24.3415 25.302C24.3415 25.4943 24.4193 25.6678 24.5454 25.7939C24.6724 25.92 24.8459 25.9978 25.0373 25.9978C25.2287 25.9978 25.4031 25.92 25.5292 25.7939C25.6553 25.6678 25.7331 25.4943 25.7331 25.302C25.7331 25.1098 25.6553 24.9363 25.5292 24.8102ZM28.5126 24.8102C28.3865 24.6841 28.213 24.6063 28.0207 24.6063C27.8285 24.6063 27.655 24.6841 27.5289 24.8102C27.4028 24.9363 27.325 25.1098 27.325 25.302C27.325 25.4943 27.4028 25.6678 27.5289 25.7939C27.6541 25.92 27.8285 25.9978 28.0207 25.9978C28.213 25.9978 28.3865 25.92 28.5126 25.7939C28.6387 25.6678 28.7165 25.4943 28.7165 25.302C28.7165 25.1098 28.6387 24.9363 28.5126 24.8102ZM28.5126 24.8102C28.3865 24.6841 28.213 24.6063 28.0207 24.6063C27.8285 24.6063 27.655 24.6841 27.5289 24.8102C27.4028 24.9363 27.325 25.1098 27.325 25.302C27.325 25.4943 27.4028 25.6678 27.5289 25.7939C27.6541 25.92 27.8285 25.9978 28.0207 25.9978C28.213 25.9978 28.3865 25.92 28.5126 25.7939C28.6387 25.6678 28.7165 25.4943 28.7165 25.302C28.7165 25.1098 28.6387 24.9363 28.5126 24.8102ZM25.5292 24.8102C25.4031 24.6841 25.2296 24.6063 25.0373 24.6063C24.845 24.6063 24.6715 24.6841 24.5454 24.8102C24.4193 24.9363 24.3415 25.1098 24.3415 25.302C24.3415 25.4943 24.4193 25.6678 24.5454 25.7939C24.6724 25.92 24.8459 25.9978 25.0373 25.9978C25.2287 25.9978 25.4031 25.92 25.5292 25.7939C25.6553 25.6678 25.7331 25.4943 25.7331 25.302C25.7331 25.1098 25.6553 24.9363 25.5292 24.8102ZM22.5467 24.8102C22.4206 24.6841 22.2471 24.6063 22.0548 24.6063C21.8625 24.6063 21.689 24.6841 21.5629 24.8102C21.4368 24.9363 21.359 25.1098 21.359 25.302C21.359 25.4943 21.4368 25.6678 21.5629 25.7939C21.689 25.92 21.8625 25.9978 22.0548 25.9978C22.2471 25.9978 22.4206 25.92 22.5467 25.7939C22.6728 25.6678 22.7506 25.4943 22.7506 25.302C22.7506 25.1098 22.6728 24.9363 22.5467 24.8102ZM22.5467 24.8102C22.4206 24.6841 22.2471 24.6063 22.0548 24.6063C21.8625 24.6063 21.689 24.6841 21.5629 24.8102C21.4368 24.9363 21.359 25.1098 21.359 25.302C21.359 25.4943 21.4368 25.6678 21.5629 25.7939C21.689 25.92 21.8625 25.9978 22.0548 25.9978C22.2471 25.9978 22.4206 25.92 22.5467 25.7939C22.6728 25.6678 22.7506 25.4943 22.7506 25.302C22.7506 25.1098 22.6728 24.9363 22.5467 24.8102ZM25.5292 24.8102C25.4031 24.6841 25.2296 24.6063 25.0373 24.6063C24.845 24.6063 24.6715 24.6841 24.5454 24.8102C24.4193 24.9363 24.3415 25.1098 24.3415 25.302C24.3415 25.4943 24.4193 25.6678 24.5454 25.7939C24.6724 25.92 24.8459 25.9978 25.0373 25.9978C25.2287 25.9978 25.4031 25.92 25.5292 25.7939C25.6553 25.6678 25.7331 25.4943 25.7331 25.302C25.7331 25.1098 25.6553 24.9363 25.5292 24.8102ZM28.5126 24.8102C28.3865 24.6841 28.213 24.6063 28.0207 24.6063C27.8285 24.6063 27.655 24.6841 27.5289 24.8102C27.4028 24.9363 27.325 25.1098 27.325 25.302C27.325 25.4943 27.4028 25.6678 27.5289 25.7939C27.6541 25.92 27.8285 25.9978 28.0207 25.9978C28.213 25.9978 28.3865 25.92 28.5126 25.7939C28.6387 25.6678 28.7165 25.4943 28.7165 25.302C28.7165 25.1098 28.6387 24.9363 28.5126 24.8102ZM28.5126 24.8102C28.3865 24.6841 28.213 24.6063 28.0207 24.6063C27.8285 24.6063 27.655 24.6841 27.5289 24.8102C27.4028 24.9363 27.325 25.1098 27.325 25.302C27.325 25.4943 27.4028 25.6678 27.5289 25.7939C27.6541 25.92 27.8285 25.9978 28.0207 25.9978C28.213 25.9978 28.3865 25.92 28.5126 25.7939C28.6387 25.6678 28.7165 25.4943 28.7165 25.302C28.7165 25.1098 28.6387 24.9363 28.5126 24.8102ZM25.0373 24.6063C24.845 24.6063 24.6715 24.6841 24.5454 24.8102C24.4193 24.9363 24.3415 25.1098 24.3415 25.302C24.3415 25.4943 24.4193 25.6678 24.5454 25.7939C24.6724 25.92 24.8459 25.9978 25.0373 25.9978C25.2287 25.9978 25.4031 25.92 25.5292 25.7939C25.6553 25.6678 25.7331 25.4943 25.7331 25.302C25.7331 25.1098 25.6553 24.9363 25.5292 24.8102C25.4031 24.6841 25.2296 24.6063 25.0373 24.6063ZM22.0548 24.6063C21.8625 24.6063 21.689 24.6841 21.5629 24.8102C21.4368 24.9363 21.359 25.1098 21.359 25.302C21.359 25.4943 21.4368 25.6678 21.5629 25.7939C21.689 25.92 21.8625 25.9978 22.0548 25.9978C22.2471 25.9978 22.4206 25.92 22.5467 25.7939C22.6728 25.6678 22.7506 25.4943 22.7506 25.302C22.7506 25.1098 22.6728 24.9363 22.5467 24.8102C22.4206 24.6841 22.2471 24.6063 22.0548 24.6063ZM30.5811 20.4656H19.4953C18.6707 20.4656 18 21.1363 18 21.9609V28.4536C18 29.2781 18.6707 29.9489 19.4953 29.9489H25.2081L26.5889 32.1095C26.7437 32.3528 27.0137 32.4976 27.3106 32.4976C27.6076 32.4976 27.8767 32.3528 28.0315 32.1095L29.4123 29.9489H30.5811C31.4057 29.9489 32.0764 29.2781 32.0764 28.4536V21.9609C32.0764 21.1363 31.4057 20.4656 30.5811 20.4656ZM31.0041 28.4536C31.0041 28.687 30.8154 28.8757 30.582 28.8757H29.1189C28.9356 28.8757 28.7648 28.9687 28.6664 29.1234L27.3106 31.2447L25.9549 29.1234C25.8556 28.9696 25.6848 28.8757 25.5024 28.8757H19.4953C19.2628 28.8757 19.0732 28.6861 19.0732 28.4536V21.9609C19.0732 21.7284 19.2628 21.5388 19.4953 21.5388H30.582C30.8154 21.5388 31.0041 21.7275 31.0041 21.9609V28.4536ZM28.0207 24.6063C27.8285 24.6063 27.655 24.6841 27.5289 24.8102C27.4028 24.9363 27.325 25.1098 27.325 25.302C27.325 25.4943 27.4028 25.6678 27.5289 25.7939C27.6541 25.92 27.8285 25.9978 28.0207 25.9978C28.213 25.9978 28.3865 25.92 28.5126 25.7939C28.6387 25.6678 28.7165 25.4943 28.7165 25.302C28.7165 25.1098 28.6387 24.9363 28.5126 24.8102C28.3865 24.6841 28.213 24.6063 28.0207 24.6063ZM25.0373 24.6063C24.845 24.6063 24.6715 24.6841 24.5454 24.8102C24.4193 24.9363 24.3415 25.1098 24.3415 25.302C24.3415 25.4943 24.4193 25.6678 24.5454 25.7939C24.6724 25.92 24.8459 25.9978 25.0373 25.9978C25.2287 25.9978 25.4031 25.92 25.5292 25.7939C25.6553 25.6678 25.7331 25.4943 25.7331 25.302C25.7331 25.1098 25.6553 24.9363 25.5292 24.8102C25.4031 24.6841 25.2296 24.6063 25.0373 24.6063ZM22.0548 24.6063C21.8625 24.6063 21.689 24.6841 21.5629 24.8102C21.4368 24.9363 21.359 25.1098 21.359 25.302C21.359 25.4943 21.4368 25.6678 21.5629 25.7939C21.689 25.92 21.8625 25.9978 22.0548 25.9978C22.2471 25.9978 22.4206 25.92 22.5467 25.7939C22.6728 25.6678 22.7506 25.4943 22.7506 25.302C22.7506 25.1098 22.6728 24.9363 22.5467 24.8102C22.4206 24.6841 22.2471 24.6063 22.0548 24.6063ZM22.5467 24.8102C22.4206 24.6841 22.2471 24.6063 22.0548 24.6063C21.8625 24.6063 21.689 24.6841 21.5629 24.8102C21.4368 24.9363 21.359 25.1098 21.359 25.302C21.359 25.4943 21.4368 25.6678 21.5629 25.7939C21.689 25.92 21.8625 25.9978 22.0548 25.9978C22.2471 25.9978 22.4206 25.92 22.5467 25.7939C22.6728 25.6678 22.7506 25.4943 22.7506 25.302C22.7506 25.1098 22.6728 24.9363 22.5467 24.8102ZM25.5292 24.8102C25.4031 24.6841 25.2296 24.6063 25.0373 24.6063C24.845 24.6063 24.6715 24.6841 24.5454 24.8102C24.4193 24.9363 24.3415 25.1098 24.3415 25.302C24.3415 25.4943 24.4193 25.6678 24.5454 25.7939C24.6724 25.92 24.8459 25.9978 25.0373 25.9978C25.2287 25.9978 25.4031 25.92 25.5292 25.7939C25.6553 25.6678 25.7331 25.4943 25.7331 25.302C25.7331 25.1098 25.6553 24.9363 25.5292 24.8102ZM28.5126 24.8102C28.3865 24.6841 28.213 24.6063 28.0207 24.6063C27.8285 24.6063 27.655 24.6841 27.5289 24.8102C27.4028 24.9363 27.325 25.1098 27.325 25.302C27.325 25.4943 27.4028 25.6678 27.5289 25.7939C27.6541 25.92 27.8285 25.9978 28.0207 25.9978C28.213 25.9978 28.3865 25.92 28.5126 25.7939C28.6387 25.6678 28.7165 25.4943 28.7165 25.302C28.7165 25.1098 28.6387 24.9363 28.5126 24.8102ZM28.5126 24.8102C28.3865 24.6841 28.213 24.6063 28.0207 24.6063C27.8285 24.6063 27.655 24.6841 27.5289 24.8102C27.4028 24.9363 27.325 25.1098 27.325 25.302C27.325 25.4943 27.4028 25.6678 27.5289 25.7939C27.6541 25.92 27.8285 25.9978 28.0207 25.9978C28.213 25.9978 28.3865 25.92 28.5126 25.7939C28.6387 25.6678 28.7165 25.4943 28.7165 25.302C28.7165 25.1098 28.6387 24.9363 28.5126 24.8102ZM25.5292 24.8102C25.4031 24.6841 25.2296 24.6063 25.0373 24.6063C24.845 24.6063 24.6715 24.6841 24.5454 24.8102C24.4193 24.9363 24.3415 25.1098 24.3415 25.302C24.3415 25.4943 24.4193 25.6678 24.5454 25.7939C24.6724 25.92 24.8459 25.9978 25.0373 25.9978C25.2287 25.9978 25.4031 25.92 25.5292 25.7939C25.6553 25.6678 25.7331 25.4943 25.7331 25.302C25.7331 25.1098 25.6553 24.9363 25.5292 24.8102ZM22.5467 24.8102C22.4206 24.6841 22.2471 24.6063 22.0548 24.6063C21.8625 24.6063 21.689 24.6841 21.5629 24.8102C21.4368 24.9363 21.359 25.1098 21.359 25.302C21.359 25.4943 21.4368 25.6678 21.5629 25.7939C21.689 25.92 21.8625 25.9978 22.0548 25.9978C22.2471 25.9978 22.4206 25.92 22.5467 25.7939C22.6728 25.6678 22.7506 25.4943 22.7506 25.302C22.7506 25.1098 22.6728 24.9363 22.5467 24.8102ZM22.5467 24.8102C22.4206 24.6841 22.2471 24.6063 22.0548 24.6063C21.8625 24.6063 21.689 24.6841 21.5629 24.8102C21.4368 24.9363 21.359 25.1098 21.359 25.302C21.359 25.4943 21.4368 25.6678 21.5629 25.7939C21.689 25.92 21.8625 25.9978 22.0548 25.9978C22.2471 25.9978 22.4206 25.92 22.5467 25.7939C22.6728 25.6678 22.7506 25.4943 22.7506 25.302C22.7506 25.1098 22.6728 24.9363 22.5467 24.8102ZM25.5292 24.8102C25.4031 24.6841 25.2296 24.6063 25.0373 24.6063C24.845 24.6063 24.6715 24.6841 24.5454 24.8102C24.4193 24.9363 24.3415 25.1098 24.3415 25.302C24.3415 25.4943 24.4193 25.6678 24.5454 25.7939C24.6724 25.92 24.8459 25.9978 25.0373 25.9978C25.2287 25.9978 25.4031 25.92 25.5292 25.7939C25.6553 25.6678 25.7331 25.4943 25.7331 25.302C25.7331 25.1098 25.6553 24.9363 25.5292 24.8102ZM28.5126 24.8102C28.3865 24.6841 28.213 24.6063 28.0207 24.6063C27.8285 24.6063 27.655 24.6841 27.5289 24.8102C27.4028 24.9363 27.325 25.1098 27.325 25.302C27.325 25.4943 27.4028 25.6678 27.5289 25.7939C27.6541 25.92 27.8285 25.9978 28.0207 25.9978C28.213 25.9978 28.3865 25.92 28.5126 25.7939C28.6387 25.6678 28.7165 25.4943 28.7165 25.302C28.7165 25.1098 28.6387 24.9363 28.5126 24.8102ZM28.5126 24.8102C28.3865 24.6841 28.213 24.6063 28.0207 24.6063C27.8285 24.6063 27.655 24.6841 27.5289 24.8102C27.4028 24.9363 27.325 25.1098 27.325 25.302C27.325 25.4943 27.4028 25.6678 27.5289 25.7939C27.6541 25.92 27.8285 25.9978 28.0207 25.9978C28.213 25.9978 28.3865 25.92 28.5126 25.7939C28.6387 25.6678 28.7165 25.4943 28.7165 25.302C28.7165 25.1098 28.6387 24.9363 28.5126 24.8102ZM25.5292 24.8102C25.4031 24.6841 25.2296 24.6063 25.0373 24.6063C24.845 24.6063 24.6715 24.6841 24.5454 24.8102C24.4193 24.9363 24.3415 25.1098 24.3415 25.302C24.3415 25.4943 24.4193 25.6678 24.5454 25.7939C24.6724 25.92 24.8459 25.9978 25.0373 25.9978C25.2287 25.9978 25.4031 25.92 25.5292 25.7939C25.6553 25.6678 25.7331 25.4943 25.7331 25.302C25.7331 25.1098 25.6553 24.9363 25.5292 24.8102ZM22.5467 24.8102C22.4206 24.6841 22.2471 24.6063 22.0548 24.6063C21.8625 24.6063 21.689 24.6841 21.5629 24.8102C21.4368 24.9363 21.359 25.1098 21.359 25.302C21.359 25.4943 21.4368 25.6678 21.5629 25.7939C21.689 25.92 21.8625 25.9978 22.0548 25.9978C22.2471 25.9978 22.4206 25.92 22.5467 25.7939C22.6728 25.6678 22.7506 25.4943 22.7506 25.302C22.7506 25.1098 22.6728 24.9363 22.5467 24.8102ZM22.5467 24.8102C22.4206 24.6841 22.2471 24.6063 22.0548 24.6063C21.8625 24.6063 21.689 24.6841 21.5629 24.8102C21.4368 24.9363 21.359 25.1098 21.359 25.302C21.359 25.4943 21.4368 25.6678 21.5629 25.7939C21.689 25.92 21.8625 25.9978 22.0548 25.9978C22.2471 25.9978 22.4206 25.92 22.5467 25.7939C22.6728 25.6678 22.7506 25.4943 22.7506 25.302C22.7506 25.1098 22.6728 24.9363 22.5467 24.8102ZM25.5292 24.8102C25.4031 24.6841 25.2296 24.6063 25.0373 24.6063C24.845 24.6063 24.6715 24.6841 24.5454 24.8102C24.4193 24.9363 24.3415 25.1098 24.3415 25.302C24.3415 25.4943 24.4193 25.6678 24.5454 25.7939C24.6724 25.92 24.8459 25.9978 25.0373 25.9978C25.2287 25.9978 25.4031 25.92 25.5292 25.7939C25.6553 25.6678 25.7331 25.4943 25.7331 25.302C25.7331 25.1098 25.6553 24.9363 25.5292 24.8102ZM28.5126 24.8102C28.3865 24.6841 28.213 24.6063 28.0207 24.6063C27.8285 24.6063 27.655 24.6841 27.5289 24.8102C27.4028 24.9363 27.325 25.1098 27.325 25.302C27.325 25.4943 27.4028 25.6678 27.5289 25.7939C27.6541 25.92 27.8285 25.9978 28.0207 25.9978C28.213 25.9978 28.3865 25.92 28.5126 25.7939C28.6387 25.6678 28.7165 25.4943 28.7165 25.302C28.7165 25.1098 28.6387 24.9363 28.5126 24.8102ZM28.5126 24.8102C28.3865 24.6841 28.213 24.6063 28.0207 24.6063C27.8285 24.6063 27.655 24.6841 27.5289 24.8102C27.4028 24.9363 27.325 25.1098 27.325 25.302C27.325 25.4943 27.4028 25.6678 27.5289 25.7939C27.6541 25.92 27.8285 25.9978 28.0207 25.9978C28.213 25.9978 28.3865 25.92 28.5126 25.7939C28.6387 25.6678 28.7165 25.4943 28.7165 25.302C28.7165 25.1098 28.6387 24.9363 28.5126 24.8102ZM25.5292 24.8102C25.4031 24.6841 25.2296 24.6063 25.0373 24.6063C24.845 24.6063 24.6715 24.6841 24.5454 24.8102C24.4193 24.9363 24.3415 25.1098 24.3415 25.302C24.3415 25.4943 24.4193 25.6678 24.5454 25.7939C24.6724 25.92 24.8459 25.9978 25.0373 25.9978C25.2287 25.9978 25.4031 25.92 25.5292 25.7939C25.6553 25.6678 25.7331 25.4943 25.7331 25.302C25.7331 25.1098 25.6553 24.9363 25.5292 24.8102ZM22.5467 24.8102C22.4206 24.6841 22.2471 24.6063 22.0548 24.6063C21.8625 24.6063 21.689 24.6841 21.5629 24.8102C21.4368 24.9363 21.359 25.1098 21.359 25.302C21.359 25.4943 21.4368 25.6678 21.5629 25.7939C21.689 25.92 21.8625 25.9978 22.0548 25.9978C22.2471 25.9978 22.4206 25.92 22.5467 25.7939C22.6728 25.6678 22.7506 25.4943 22.7506 25.302C22.7506 25.1098 22.6728 24.9363 22.5467 24.8102ZM22.5467 24.8102C22.4206 24.6841 22.2471 24.6063 22.0548 24.6063C21.8625 24.6063 21.689 24.6841 21.5629 24.8102C21.4368 24.9363 21.359 25.1098 21.359 25.302C21.359 25.4943 21.4368 25.6678 21.5629 25.7939C21.689 25.92 21.8625 25.9978 22.0548 25.9978C22.2471 25.9978 22.4206 25.92 22.5467 25.7939C22.6728 25.6678 22.7506 25.4943 22.7506 25.302C22.7506 25.1098 22.6728 24.9363 22.5467 24.8102ZM25.5292 24.8102C25.4031 24.6841 25.2296 24.6063 25.0373 24.6063C24.845 24.6063 24.6715 24.6841 24.5454 24.8102C24.4193 24.9363 24.3415 25.1098 24.3415 25.302C24.3415 25.4943 24.4193 25.6678 24.5454 25.7939C24.6724 25.92 24.8459 25.9978 25.0373 25.9978C25.2287 25.9978 25.4031 25.92 25.5292 25.7939C25.6553 25.6678 25.7331 25.4943 25.7331 25.302C25.7331 25.1098 25.6553 24.9363 25.5292 24.8102ZM28.5126 24.8102C28.3865 24.6841 28.213 24.6063 28.0207 24.6063C27.8285 24.6063 27.655 24.6841 27.5289 24.8102C27.4028 24.9363 27.325 25.1098 27.325 25.302C27.325 25.4943 27.4028 25.6678 27.5289 25.7939C27.6541 25.92 27.8285 25.9978 28.0207 25.9978C28.213 25.9978 28.3865 25.92 28.5126 25.7939C28.6387 25.6678 28.7165 25.4943 28.7165 25.302C28.7165 25.1098 28.6387 24.9363 28.5126 24.8102ZM28.5126 24.8102C28.3865 24.6841 28.213 24.6063 28.0207 24.6063C27.8285 24.6063 27.655 24.6841 27.5289 24.8102C27.4028 24.9363 27.325 25.1098 27.325 25.302C27.325 25.4943 27.4028 25.6678 27.5289 25.7939C27.6541 25.92 27.8285 25.9978 28.0207 25.9978C28.213 25.9978 28.3865 25.92 28.5126 25.7939C28.6387 25.6678 28.7165 25.4943 28.7165 25.302C28.7165 25.1098 28.6387 24.9363 28.5126 24.8102ZM25.5292 24.8102C25.4031 24.6841 25.2296 24.6063 25.0373 24.6063C24.845 24.6063 24.6715 24.6841 24.5454 24.8102C24.4193 24.9363 24.3415 25.1098 24.3415 25.302C24.3415 25.4943 24.4193 25.6678 24.5454 25.7939C24.6724 25.92 24.8459 25.9978 25.0373 25.9978C25.2287 25.9978 25.4031 25.92 25.5292 25.7939C25.6553 25.6678 25.7331 25.4943 25.7331 25.302C25.7331 25.1098 25.6553 24.9363 25.5292 24.8102ZM22.5467 24.8102C22.4206 24.6841 22.2471 24.6063 22.0548 24.6063C21.8625 24.6063 21.689 24.6841 21.5629 24.8102C21.4368 24.9363 21.359 25.1098 21.359 25.302C21.359 25.4943 21.4368 25.6678 21.5629 25.7939C21.689 25.92 21.8625 25.9978 22.0548 25.9978C22.2471 25.9978 22.4206 25.92 22.5467 25.7939C22.6728 25.6678 22.7506 25.4943 22.7506 25.302C22.7506 25.1098 22.6728 24.9363 22.5467 24.8102ZM33.2131 56.2693H32.4163V47.4254C32.4163 47.1294 32.1766 46.8889 31.8797 46.8889H28.9875C28.6915 46.8889 28.4509 47.1294 28.4509 47.4254V56.2693H27.858V49.6594C27.858 49.3634 27.6174 49.1228 27.3214 49.1228H24.4283C24.1323 49.1228 23.8917 49.3634 23.8917 49.6594V56.2693H23.2988V51.5035C23.2988 51.2075 23.0582 50.9669 22.7622 50.9669H19.87C19.574 50.9669 19.3334 51.2075 19.3334 51.5035V56.2693H18.5366C18.2406 56.2693 18 56.5098 18 56.8059C18 57.1019 18.2406 57.3424 18.5366 57.3424H33.2131C33.51 57.3424 33.7497 57.1019 33.7497 56.8059C33.7497 56.5098 33.5091 56.2693 33.2131 56.2693ZM22.2256 56.2693H20.4066V52.0401H22.2256V56.2693ZM26.7839 56.2693H24.9649V50.196H26.7839V56.2693ZM31.3422 56.2693H29.5232V47.962H31.3422V56.2693ZM55.1013 19.819C51.2969 19.819 48.2017 22.9142 48.2017 26.7177C48.2017 30.5212 51.2969 33.6173 55.1013 33.6173C58.9057 33.6173 62 30.5221 62 26.7177C62 22.9133 58.9048 19.819 55.1013 19.819ZM55.6379 20.9181C58.4228 21.1739 60.6451 23.3972 60.9009 26.1811H55.6379V20.9181ZM49.2758 26.7186C49.2758 23.6869 51.6028 21.19 54.5647 20.9181V26.5925L52.0428 31.674C50.3838 30.6464 49.2758 28.8095 49.2758 26.7186ZM55.1013 32.5441C54.3617 32.5441 53.6543 32.4037 53.0033 32.1515L55.434 27.2543H60.9009C60.629 30.2172 58.1321 32.5441 55.1013 32.5441ZM42.2859 28.6986C44.2346 27.8231 45.5948 25.8654 45.5948 23.5948C45.5948 20.5094 43.0845 18 40 18C36.9155 18 34.4052 20.5094 34.4043 23.5939C34.4043 25.8637 35.7646 27.8213 37.7124 28.6977C34.0537 29.6493 31.3449 32.9815 31.3449 36.9334V40.9193C31.3449 43.1703 32.9797 45.0403 35.1511 45.3846V59.3081C35.1511 60.7927 36.3593 62 37.8438 62C38.7247 62 39.5072 61.5752 39.9991 60.9188C40.491 61.5752 41.2744 62 42.1553 62C43.6389 62 44.8472 60.7927 44.8472 59.3081V45.3855C47.0185 45.0412 48.6533 43.1703 48.6533 40.9202V36.9343C48.6533 32.9815 45.9445 29.6502 42.2859 28.6986ZM35.4784 23.5948C35.4784 21.1015 37.5067 19.0732 40 19.0732C42.4933 19.0732 44.5216 21.1015 44.5216 23.5948C44.5216 26.0881 42.4933 28.1164 40 28.1164C37.5067 28.1164 35.4784 26.0881 35.4784 23.5948ZM47.5811 40.9202C47.5811 42.5774 46.4193 43.9645 44.848 44.2945V35.2172C44.848 34.9203 44.6075 34.6807 44.3115 34.6807C44.0154 34.6807 43.7749 34.9203 43.7749 35.2172V59.3081C43.7749 60.2006 43.0487 60.9268 42.1562 60.9268C41.2637 60.9268 40.5366 60.2006 40.5366 59.3081V43.3385C40.5366 43.0424 40.296 42.8019 40 42.8019C39.704 42.8019 39.4634 43.0424 39.4634 43.3385V59.3081C39.4634 60.2006 38.7372 60.9268 37.8447 60.9268C36.9522 60.9268 36.2251 60.2006 36.2251 59.3081V35.2172C36.2251 34.9203 35.9846 34.6807 35.6885 34.6807C35.3925 34.6807 35.152 34.9212 35.152 35.2172V44.2945C33.5815 43.9645 32.4189 42.5774 32.4189 40.9202V36.9343C32.4189 32.8348 35.7547 29.499 39.8542 29.499H40.1458C44.2453 29.499 47.5811 32.8348 47.5811 36.9343V40.9202Z" fill="url(#paint0_linear_126_3601)"/>
<g opacity="0.35">
<path fill-rule="evenodd" clip-rule="evenodd" d="M54.5648 20.9181V26.5925L52.0429 31.6739C50.3839 30.6464 49.2759 28.8095 49.2759 26.7186C49.2759 23.6869 51.6029 21.19 54.5648 20.9181Z" fill="url(#paint1_linear_126_3601)"/>
<path fill-rule="evenodd" clip-rule="evenodd" d="M60.9012 26.1811H55.6382V20.9181C58.4231 21.1739 60.6454 23.3971 60.9012 26.1811Z" fill="url(#paint2_linear_126_3601)"/>
<path d="M22.2258 52.04H20.4067V56.2692H22.2258V52.04Z" fill="url(#paint3_linear_126_3601)"/>
<path d="M26.7839 50.1959H24.9648V56.2692H26.7839V50.1959Z" fill="url(#paint4_linear_126_3601)"/>
<path d="M31.3425 47.962H29.5234V56.2693H31.3425V47.962Z" fill="url(#paint5_linear_126_3601)"/>
<path fill-rule="evenodd" clip-rule="evenodd" d="M60.3768 48.6435H58.8636C58.6812 48.6435 58.5104 48.5505 58.412 48.3957L56.9945 46.1779L55.577 48.3957C55.4778 48.5505 55.3078 48.6435 55.1245 48.6435H48.9117C48.6604 48.6435 48.4565 48.8474 48.4565 49.0987V55.814C48.4565 56.0653 48.6604 56.2692 48.9117 56.2692H60.3768C60.6281 56.2692 60.832 56.0653 60.832 55.814V49.0987C60.832 48.8474 60.6281 48.6435 60.3768 48.6435ZM52.0678 52.8664C51.9372 52.997 51.7583 53.0775 51.5589 53.0775C51.3595 53.0775 51.1806 52.997 51.05 52.8664C50.9195 52.7367 50.839 52.557 50.839 52.3575C50.839 52.1581 50.9195 51.9792 51.05 51.8487C51.1806 51.719 51.3604 51.6376 51.5589 51.6376C51.7583 51.6385 51.9372 51.719 52.0678 51.8487C52.1983 51.9792 52.2788 52.159 52.2788 52.3575C52.2788 52.5561 52.1983 52.7367 52.0678 52.8664ZM55.1531 52.8664C55.0226 52.997 54.8428 53.0775 54.6443 53.0775C54.4457 53.0775 54.266 52.997 54.1354 52.8664C54.0057 52.7367 53.9252 52.557 53.9252 52.3575C53.9252 52.1581 54.0057 51.9792 54.1354 51.8487C54.266 51.719 54.4457 51.6376 54.6443 51.6376C54.8428 51.6385 55.0226 51.719 55.1531 51.8487C55.2837 51.9792 55.3642 52.159 55.3642 52.3575C55.3642 52.5561 55.2837 52.7367 55.1531 52.8664ZM58.2385 52.8664C58.1079 52.997 57.9282 53.0775 57.7296 53.0775C57.5311 53.0775 57.3513 52.997 57.2208 52.8664C57.0911 52.7367 57.0106 52.557 57.0106 52.3575C57.0106 52.1581 57.0911 51.9792 57.2208 51.8487C57.3513 51.719 57.5311 51.6376 57.7296 51.6376C57.9282 51.6385 58.1079 51.719 58.2385 51.8487C58.3682 51.9792 58.4487 52.159 58.4487 52.3575C58.4487 52.5561 58.3682 52.7367 58.2385 52.8664Z" fill="url(#paint6_linear_126_3601)"/>
<path fill-rule="evenodd" clip-rule="evenodd" d="M60.9011 27.2543C60.6292 30.2171 58.1323 32.5441 55.1015 32.5441C54.3619 32.5441 53.6545 32.4037 53.0034 32.1515L55.4341 27.2543H60.9011Z" fill="url(#paint7_linear_126_3601)"/>
<path fill-rule="evenodd" clip-rule="evenodd" d="M30.5821 21.5387H19.4954C19.2628 21.5387 19.0732 21.7283 19.0732 21.9608V28.4535C19.0732 28.686 19.2628 28.8756 19.4954 28.8756H25.5024C25.6849 28.8756 25.8557 28.9695 25.9549 29.1233L27.3107 31.2446L28.6665 29.1233C28.7649 28.9686 28.9357 28.8756 29.119 28.8756H30.5821C30.8155 28.8756 31.0042 28.6869 31.0042 28.4535V21.9608C31.0042 21.7274 30.8155 21.5387 30.5821 21.5387ZM22.5467 25.7938C22.4206 25.9199 22.2471 25.9977 22.0549 25.9977C21.8626 25.9977 21.6891 25.9199 21.563 25.7938C21.4369 25.6677 21.3591 25.4942 21.3591 25.3019C21.3591 25.1097 21.4369 24.9362 21.563 24.8101C21.6891 24.684 21.8626 24.6062 22.0549 24.6062C22.2471 24.6062 22.4206 24.684 22.5467 24.8101C22.6728 24.9362 22.7506 25.1097 22.7506 25.3019C22.7506 25.4942 22.6728 25.6677 22.5467 25.7938ZM25.5293 25.7938C25.4032 25.9199 25.2297 25.9977 25.0374 25.9977C24.8451 25.9977 24.6725 25.9199 24.5455 25.7938C24.4194 25.6677 24.3416 25.4942 24.3416 25.3019C24.3416 25.1097 24.4194 24.9362 24.5455 24.8101C24.6716 24.684 24.8451 24.6062 25.0374 24.6062C25.2297 24.6062 25.4032 24.684 25.5293 24.8101C25.6554 24.9362 25.7332 25.1097 25.7332 25.3019C25.7332 25.4942 25.6554 25.6677 25.5293 25.7938ZM28.5127 25.7938C28.3866 25.9199 28.2131 25.9977 28.0208 25.9977C27.8285 25.9977 27.6541 25.9199 27.5289 25.7938C27.4028 25.6677 27.325 25.4942 27.325 25.3019C27.325 25.1097 27.4028 24.9362 27.5289 24.8101C27.655 24.684 27.8285 24.6062 28.0208 24.6062C28.2131 24.6062 28.3866 24.684 28.5127 24.8101C28.6388 24.9362 28.7166 25.1097 28.7166 25.3019C28.7166 25.4942 28.6388 25.6677 28.5127 25.7938Z" fill="url(#paint8_linear_126_3601)"/>
<path fill-rule="evenodd" clip-rule="evenodd" d="M44.5218 23.5947C44.5218 26.0881 42.4935 28.1164 40.0001 28.1164C37.5068 28.1164 35.4785 26.0881 35.4785 23.5947C35.4785 21.1014 37.5068 19.0731 40.0001 19.0731C42.4935 19.0731 44.5218 21.1014 44.5218 23.5947Z" fill="url(#paint9_linear_126_3601)"/>
<path fill-rule="evenodd" clip-rule="evenodd" d="M47.5811 36.9343V40.9202C47.5811 42.5774 46.4194 43.9645 44.8481 44.2945V35.2172C44.8481 34.9203 44.6075 34.6806 44.3115 34.6806C44.0154 34.6806 43.7749 34.9203 43.7749 35.2172V59.3081C43.7749 60.2006 43.0487 60.9268 42.1562 60.9268C41.2637 60.9268 40.5366 60.2006 40.5366 59.3081V43.3385C40.5366 43.0424 40.296 42.8019 40 42.8019C39.704 42.8019 39.4634 43.0424 39.4634 43.3385V59.3081C39.4634 60.2006 38.7372 60.9268 37.8447 60.9268C36.9522 60.9268 36.2251 60.2006 36.2251 59.3081V35.2172C36.2251 34.9203 35.9846 34.6806 35.6885 34.6806C35.3925 34.6806 35.152 34.9212 35.152 35.2172V44.2945C33.5815 43.9645 32.4189 42.5774 32.4189 40.9202V36.9343C32.4189 32.8348 35.7547 29.499 39.8542 29.499H40.1458C44.2453 29.499 47.5811 32.8348 47.5811 36.9343Z" fill="url(#paint10_linear_126_3601)"/>
</g>
</g>
<defs>
<linearGradient id="paint0_linear_126_3601" x1="40" y1="62.9864" x2="40" y2="14.108" gradientUnits="userSpaceOnUse">
<stop stop-color="#FF759F" stop-opacity="0.2"/>
<stop offset="1" stop-color="#FF196E"/>
</linearGradient>
<linearGradient id="paint1_linear_126_3601" x1="51.9203" y1="62.4069" x2="51.9203" y2="41.861" gradientUnits="userSpaceOnUse">
<stop stop-color="#FF749F" stop-opacity="0.2"/>
<stop offset="1" stop-color="#FF749F"/>
</linearGradient>
<linearGradient id="paint2_linear_126_3601" x1="58.2701" y1="62.4069" x2="58.2701" y2="41.861" gradientUnits="userSpaceOnUse">
<stop stop-color="#FF749F" stop-opacity="0.2"/>
<stop offset="1" stop-color="#FF749F"/>
</linearGradient>
<linearGradient id="paint3_linear_126_3601" x1="21.3163" y1="62.4069" x2="21.3163" y2="41.861" gradientUnits="userSpaceOnUse">
<stop stop-color="#FF749F" stop-opacity="0.2"/>
<stop offset="1" stop-color="#FF749F"/>
</linearGradient>
<linearGradient id="paint4_linear_126_3601" x1="25.8744" y1="62.4068" x2="25.8744" y2="41.861" gradientUnits="userSpaceOnUse">
<stop stop-color="#FF749F" stop-opacity="0.2"/>
<stop offset="1" stop-color="#FF749F"/>
</linearGradient>
<linearGradient id="paint5_linear_126_3601" x1="30.4329" y1="62.4069" x2="30.4329" y2="41.8611" gradientUnits="userSpaceOnUse">
<stop stop-color="#FF749F" stop-opacity="0.2"/>
<stop offset="1" stop-color="#FF749F"/>
</linearGradient>
<linearGradient id="paint6_linear_126_3601" x1="54.6443" y1="62.4069" x2="54.6443" y2="41.861" gradientUnits="userSpaceOnUse">
<stop stop-color="#FF749F" stop-opacity="0.2"/>
<stop offset="1" stop-color="#FF749F"/>
</linearGradient>
<linearGradient id="paint7_linear_126_3601" x1="56.9527" y1="62.4069" x2="56.9527" y2="41.861" gradientUnits="userSpaceOnUse">
<stop stop-color="#FF749F" stop-opacity="0.2"/>
<stop offset="1" stop-color="#FF749F"/>
</linearGradient>
<linearGradient id="paint8_linear_126_3601" x1="25.0383" y1="62.4068" x2="25.0383" y2="41.861" gradientUnits="userSpaceOnUse">
<stop stop-color="#FF749F" stop-opacity="0.2"/>
<stop offset="1" stop-color="#FF749F"/>
</linearGradient>
<linearGradient id="paint9_linear_126_3601" x1="40.0001" y1="62.4069" x2="40.0001" y2="41.861" gradientUnits="userSpaceOnUse">
<stop stop-color="#FF749F" stop-opacity="0.2"/>
<stop offset="1" stop-color="#FF749F"/>
</linearGradient>
<linearGradient id="paint10_linear_126_3601" x1="40" y1="62.4069" x2="40" y2="41.8611" gradientUnits="userSpaceOnUse">
<stop stop-color="#FF749F" stop-opacity="0.2"/>
<stop offset="1" stop-color="#FF749F"/>
</linearGradient>
<clipPath id="clip0_126_3601">
<rect width="44" height="44" fill="white" transform="translate(18 18)"/>
</clipPath>
</defs>
</svg>
