<svg width="80" height="80" viewBox="0 0 80 80" fill="none" xmlns="http://www.w3.org/2000/svg">
<circle cx="40" cy="40" r="40" fill="#FCA467" fill-opacity="0.16"/>
<g clip-path="url(#clip0_126_3608)">
<path d="M46.085 50.5856C46.085 50.5856 41.6766 58.4102 44.963 64.1262C47.0929 67.8308 51.8104 69.1004 55.4993 66.9614C59.1882 64.8224 60.4524 60.0848 58.3224 56.3802C55.0361 50.6642 46.085 50.5856 46.085 50.5856Z" fill="url(#paint0_linear_126_3608)"/>
<path opacity="0.35" d="M48.5711 54.9094C51.5092 53.2059 55.2668 54.2164 56.9631 57.1679C58.6593 60.1185 57.6531 63.8921 54.7141 65.5956C51.776 67.2991 48.0184 66.2885 46.3221 63.3371C44.6258 60.3864 45.6321 56.6129 48.5711 54.9094Z" fill="#FFCBB9"/>
<path d="M51.7359 62.324L51.7455 62.494C52.501 62.51 53.0968 62.7025 53.0968 62.9383C53.0968 63.1741 52.4459 63.3843 51.6433 63.3843C50.8407 63.3843 50.189 63.1845 50.189 62.9383C50.189 62.7683 50.5005 62.6199 50.9581 62.5453L50.9692 62.3472C49.7354 62.4403 48.8193 62.7811 48.8193 63.1886C48.8193 63.6666 50.0836 64.0547 51.6433 64.0547C53.203 64.0547 54.4664 63.6666 54.4664 63.1886C54.4664 62.7105 53.2525 62.3384 51.7359 62.324Z" fill="white"/>
<path d="M51.892 56.6793C51.892 56.4828 51.7402 56.2928 51.5925 56.162L51.535 56.1107C51.5166 56.0947 51.4927 56.0866 51.4687 56.089C51.428 56.0931 51.3952 56.1251 51.3904 56.1652C51.3697 56.3385 51.3154 56.8229 51.2658 57.4998C51.2555 57.6426 51.2635 57.892 51.3409 58.0508C51.4184 58.2096 51.4687 58.3123 51.4687 58.3123C51.5038 58.3059 51.8049 58.3034 51.8888 58.3796L51.892 56.6793Z" fill="white"/>
<path d="M49.7722 59.5178C49.6037 59.6164 49.5143 59.8434 49.476 60.0375L49.4608 60.1137C49.456 60.1377 49.4608 60.1626 49.4752 60.1827C49.4991 60.2163 49.5422 60.2284 49.5806 60.2123C49.7403 60.1434 50.1851 59.9485 50.7937 59.6533C50.9215 59.5916 51.1331 59.4592 51.2313 59.3125C51.3288 59.1657 51.3927 59.0702 51.3927 59.0702C51.3695 59.0438 51.217 58.7823 51.2409 58.6716L49.773 59.5186L49.7722 59.5178Z" fill="white"/>
<path d="M53.2796 59.942C53.4489 60.0399 53.6893 60.003 53.8762 59.9404L53.9497 59.9156C53.9728 59.9076 53.9912 59.8907 54.0016 59.8683C54.0184 59.8306 54.0072 59.7865 53.9744 59.7624C53.8355 59.6581 53.4441 59.3686 52.8859 58.9868C52.7685 58.9066 52.5489 58.7887 52.3732 58.7767C52.1975 58.7647 52.0833 58.7574 52.0833 58.7574C52.0721 58.7911 51.9228 59.0542 51.8149 59.0895L53.2796 59.942Z" fill="white"/>
<path d="M51.45 58.9547L51.2319 62.9015H52.0561L51.8381 58.9547H51.45Z" fill="white"/>
<path d="M51.6444 58.2168C51.3753 58.2168 51.1572 58.4357 51.1572 58.706C51.1572 58.9763 51.3753 59.1953 51.6444 59.1953C51.9135 59.1953 52.1316 58.9763 52.1316 58.706C52.1316 58.4357 51.9135 58.2168 51.6444 58.2168ZM51.6444 58.9025C51.5366 58.9025 51.4487 58.8143 51.4487 58.706C51.4487 58.5978 51.5366 58.5095 51.6444 58.5095C51.7522 58.5095 51.8401 58.5978 51.8401 58.706C51.8401 58.8143 51.7522 58.9025 51.6444 58.9025Z" fill="white"/>
<path d="M33.9141 50.5856C33.9141 50.5856 24.9631 50.6642 21.6767 56.3802C19.5468 60.0848 20.811 64.8224 24.4999 66.9614C28.1887 69.1004 32.9062 67.8308 35.0362 64.1262C38.3225 58.4102 33.9141 50.5856 33.9141 50.5856Z" fill="url(#paint1_linear_126_3608)"/>
<path opacity="0.35" d="M31.4278 54.9093C34.366 56.6128 35.373 60.3864 33.6767 63.337C31.9805 66.2877 28.2229 67.299 25.2848 65.5955C22.3466 63.892 21.3395 60.1185 23.0358 57.1678C24.7321 54.2172 28.4896 53.2058 31.4278 54.9093Z" fill="#FFCBB9"/>
<path d="M26.2425 58.9042L26.502 57.4534L25.0573 57.714L25.4822 58.1407C24.8808 58.7615 24.5103 59.6092 24.5103 60.5444C24.5103 61.6744 25.0525 62.6786 25.8887 63.3066L26.07 62.4588C25.4846 61.9375 25.1156 61.178 25.1156 60.331C25.1156 59.6188 25.3768 58.9676 25.8088 58.4679L26.2417 58.9026L26.2425 58.9042Z" fill="white"/>
<path d="M32.2027 60.2123C32.2027 59.0815 31.662 58.0781 30.8235 57.4493L30.6414 58.2979C31.2284 58.8176 31.5974 59.5779 31.5974 60.4257C31.5974 61.1387 31.3362 61.7899 30.9041 62.2888L30.4705 61.8533L30.2109 63.3041L31.6557 63.0435L31.2308 62.6168C31.8322 61.996 32.2027 61.1483 32.2027 60.2131V60.2123Z" fill="white"/>
<path d="M28.3574 58.1527C28.3574 58.1527 26.8208 59.9709 26.8208 61.0625C26.8208 61.915 27.5092 62.6056 28.3574 62.6056C29.2055 62.6056 29.8931 61.9142 29.8931 61.0625C29.8931 59.995 28.3574 58.1527 28.3574 58.1527Z" fill="white"/>
<path d="M52.1709 40.0004C52.1709 40.0004 56.7143 47.7464 63.287 47.7464C67.5469 47.7464 71.0002 44.2784 71.0002 40.0004C71.0002 35.7224 67.5469 32.2544 63.287 32.2544C56.7143 32.2544 52.1709 40.0004 52.1709 40.0004Z" fill="url(#paint2_linear_126_3608)"/>
<path opacity="0.35" d="M69.4203 40.3352C69.605 36.9327 67.0081 34.024 63.6199 33.8386C60.2318 33.6531 57.3355 36.2611 57.1508 39.6636C56.9661 43.0662 59.563 45.9748 62.9512 46.1603C66.3393 46.3457 69.2356 43.7378 69.4203 40.3352Z" fill="#FFCBB9"/>
<path d="M61.5681 39.0275H60.8237V41.5009H61.5681V39.0275Z" fill="white"/>
<path d="M65.7497 39.0275H65.0054V41.5009H65.7497V39.0275Z" fill="white"/>
<path d="M66.1579 42.2276V41.7448H60.4157V42.2276H60.1426V42.7112H66.4302V42.2276H66.1579Z" fill="white"/>
<path d="M62.9616 39.0275H62.2173V41.5009H62.9616V39.0275Z" fill="white"/>
<path d="M63.2866 36.4177L60.4155 38.0322V38.7709H66.1577V38.0322L63.2866 36.4177Z" fill="white"/>
<path d="M64.3561 39.0275H63.6118V41.5009H64.3561V39.0275Z" fill="white"/>
<path d="M50.0207 40.4043C50.242 34.8475 45.9358 30.1627 40.4026 29.9405C34.8694 29.7183 30.2044 34.0428 29.9832 39.5996C29.7619 45.1564 34.0681 49.8411 39.6013 50.0634C45.1345 50.2856 49.7995 45.9611 50.0207 40.4043Z" fill="url(#paint3_linear_126_3608)"/>
<path opacity="0.35" d="M48.3366 40.0004C48.3366 44.6241 44.6046 48.3728 40.0005 48.3728C35.3964 48.3728 31.6636 44.6249 31.6636 40.0004C31.6636 35.3759 35.3956 31.6281 40.0005 31.6281C44.6054 31.6281 48.3366 35.3767 48.3366 40.0004Z" fill="#FFCBB9"/>
<path d="M37.1269 37.7723V38.6682H34.8931V39.5961H36.9024V40.4535H34.8931V41.3886H37.1971V42.2781H33.8916V37.7715H37.1269V37.7723Z" fill="white"/>
<path d="M39.1395 38.6722C39.0437 38.7516 38.9949 38.8567 38.9949 38.9882C38.9949 39.1197 39.054 39.2232 39.1714 39.301C39.2896 39.378 39.5612 39.4694 39.9868 39.5745C40.4125 39.6796 40.7431 39.8376 40.9787 40.0485C41.2143 40.2594 41.3317 40.5666 41.3317 40.97C41.3317 41.3734 41.1808 41.7015 40.8797 41.9533C40.5778 42.2043 40.1809 42.3303 39.6881 42.3303C38.9782 42.3303 38.3385 42.0656 37.769 41.5379L38.3664 40.8032C38.8504 41.2283 39.2976 41.4408 39.7081 41.4408C39.8918 41.4408 40.0364 41.4015 40.1418 41.3221C40.2464 41.2427 40.2991 41.1352 40.2991 40.9997C40.2991 40.8642 40.2432 40.7567 40.1322 40.6773C40.0212 40.5979 39.8008 40.5177 39.4717 40.4351C38.9494 40.3108 38.5677 40.1487 38.3257 39.9482C38.0837 39.7485 37.9631 39.4349 37.9631 39.0075C37.9631 38.58 38.1164 38.2503 38.4223 38.0178C38.7282 37.786 39.1099 37.6697 39.5676 37.6697C39.867 37.6697 40.1665 37.721 40.466 37.8245C40.7655 37.9279 41.0267 38.0739 41.2487 38.2624L40.7423 38.997C40.3526 38.7003 39.9501 38.5519 39.5356 38.5519C39.3687 38.5519 39.2369 38.592 39.1411 38.6714L39.1395 38.6722Z" fill="white"/>
<path d="M45.0996 39.9835H46.1075V41.5827C45.6626 42.0808 45.0461 42.3302 44.2586 42.3302C43.5998 42.3302 43.0463 42.1113 42.5991 41.6725C42.1518 41.2338 41.9282 40.6804 41.9282 40.0123C41.9282 39.3443 42.1558 38.786 42.6118 38.3393C43.0671 37.8926 43.6173 37.6688 44.2618 37.6688C44.9063 37.6688 45.4654 37.8814 45.9405 38.3072L45.4206 39.0619C45.2194 38.8855 45.0349 38.7644 44.8656 38.6978C44.6963 38.6313 44.5134 38.5976 44.3169 38.5976C43.936 38.5976 43.6157 38.7275 43.3546 38.9874C43.0934 39.2472 42.9632 39.5905 42.9632 40.0156C42.9632 40.4406 43.0878 40.7815 43.3386 41.0373C43.5894 41.2932 43.8873 41.4207 44.2347 41.4207C44.5821 41.4207 44.8696 41.3549 45.1012 41.221V39.9827L45.0996 39.9835Z" fill="white"/>
<path d="M27.8285 40.0004C27.8285 40.0004 23.2851 32.2544 16.7124 32.2544C12.4533 32.2544 9 35.7224 9 40.0004C9 44.2784 12.4533 47.7464 16.7132 47.7464C23.2859 47.7464 27.8293 40.0004 27.8293 40.0004H27.8285Z" fill="url(#paint4_linear_126_3608)"/>
<path opacity="0.35" d="M22.85 40.3082C23.0181 36.9048 20.4071 34.0089 17.0181 33.8401C13.6291 33.6713 10.7455 36.2934 10.5774 39.6968C10.4092 43.1002 13.0203 45.9961 16.4093 46.165C19.7982 46.3338 22.6819 43.7117 22.85 40.3082Z" fill="#FFCBB9"/>
<path d="M14.1749 42.3768H18.8437C19.8021 42.3768 20.6007 41.5892 20.5983 40.6268C20.5967 39.9811 20.2469 39.4173 19.727 39.1165C19.6823 38.0258 18.787 37.1548 17.6897 37.1548C17.0276 37.1548 16.439 37.4716 16.0669 37.9624C15.8297 37.8405 15.5605 37.7715 15.2762 37.7715C14.3155 37.7715 13.5368 38.5535 13.5368 39.5176C13.5368 39.5368 13.5368 39.5553 13.5376 39.5745C13.0441 39.8135 12.707 40.3204 12.707 40.9027C12.707 41.7167 13.3643 42.3768 14.1749 42.3768ZM19.6791 41.6678H18.8341V41.598C19.2909 41.0567 19.354 40.9692 19.354 40.8714C19.354 40.8096 19.3133 40.7679 19.255 40.7679C19.1911 40.7679 19.152 40.8112 19.152 40.8794V40.9011H18.8517V40.8802C18.8517 40.6492 19.0026 40.4968 19.251 40.4968C19.4994 40.4968 19.6583 40.646 19.6583 40.8602C19.6583 41.0037 19.6056 41.1136 19.3628 41.3967H19.6783V41.667L19.6791 41.6678ZM17.7073 39.1542C18.0299 39.1542 18.3214 39.2633 18.5274 39.4614C18.7335 39.6595 18.8469 39.9378 18.8469 40.2466C18.8469 40.5554 18.7335 40.8345 18.5274 41.0318C18.3214 41.2299 18.0299 41.339 17.7073 41.339H17.6977C17.3782 41.3366 17.0899 41.2275 16.8847 41.031C16.6778 40.8329 16.5644 40.5546 16.5644 40.2466C16.5644 39.9386 16.6778 39.6603 16.8847 39.4622C17.0923 39.2633 17.3838 39.1542 17.7073 39.1542ZM15.3729 39.1542C15.8984 39.1542 16.3096 39.4895 16.4111 39.994H15.8872C15.8009 39.7678 15.6069 39.629 15.3737 39.629C15.0454 39.629 14.8066 39.8897 14.8066 40.249C14.8066 40.6083 15.0454 40.8642 15.3737 40.8642C15.6172 40.8642 15.8169 40.7102 15.8896 40.4688H16.4175C16.3224 40.9925 15.9071 41.3406 15.3721 41.3406H15.3633C15.0614 41.3382 14.7851 41.2275 14.5846 41.0286C14.3826 40.8281 14.2707 40.5514 14.2707 40.2498C14.2707 39.9482 14.3826 39.6691 14.5846 39.4678C14.7875 39.2665 15.067 39.155 15.3729 39.155V39.1542Z" fill="white"/>
<path d="M17.1001 40.2474C17.1001 40.5931 17.3365 40.8473 17.6671 40.8666L17.7071 40.8674C18.0569 40.8674 18.3108 40.6067 18.3108 40.2474C18.3108 39.8881 18.0569 39.6274 17.7071 39.6274C17.3573 39.6274 17.1001 39.8881 17.1001 40.2474Z" fill="white"/>
<path d="M46.085 29.4145C46.085 29.4145 55.0361 29.3359 58.3224 23.6198C60.4524 19.9152 59.1882 15.1777 55.4993 13.0387C51.8104 10.8996 47.0929 12.1693 44.963 15.8738C41.6766 21.5899 46.085 29.4145 46.085 29.4145Z" fill="url(#paint5_linear_126_3608)"/>
<path opacity="0.35" d="M57.0835 22.6172C58.6613 19.6004 57.5051 15.8703 54.5011 14.2858C51.4971 12.7013 47.7828 13.8624 46.205 16.8792C44.6272 19.896 45.7834 23.6261 48.7874 25.2106C51.7914 26.7951 55.5057 25.634 57.0835 22.6172Z" fill="#FFCBB9"/>
<path d="M51.6215 21.1759C50.1105 21.1759 48.8862 21.5513 48.8862 22.0148C48.8862 22.4784 50.1105 22.8537 51.6215 22.8537C53.1325 22.8537 54.3568 22.4784 54.3568 22.0148C54.3568 21.5513 53.1325 21.1759 51.6215 21.1759ZM51.6215 22.2049C50.8437 22.2049 50.2128 22.0116 50.2128 21.7726C50.2128 21.5336 50.8437 21.3403 51.6215 21.3403C52.3994 21.3403 53.0303 21.5336 53.0303 21.7726C53.0303 22.0116 52.3994 22.2049 51.6215 22.2049Z" fill="white"/>
<path d="M52.1656 21.4944C52.168 21.5617 52.1249 21.6251 52.0594 21.6419C51.7711 21.7093 51.4724 21.7093 51.1865 21.6419C51.1194 21.6251 51.0755 21.5625 51.081 21.4944L51.0978 21.2385V21.2361L51.1122 20.9995L51.1242 20.7942H52.1217L52.1336 20.9995L52.148 21.2385L52.1648 21.4944H52.1656Z" fill="white"/>
<path d="M50.5618 18.5677H49.7904C49.6817 18.5685 49.5995 18.4795 49.6075 18.3704L49.6578 17.6165C49.665 17.5138 49.7544 17.4304 49.859 17.4304H50.6002C50.7048 17.4296 50.787 17.5122 50.7839 17.6149L50.7639 18.3688C50.7607 18.4779 50.6704 18.5677 50.5618 18.5677Z" fill="white"/>
<path d="M52.0273 18.5661H51.255C51.1464 18.5669 51.0602 18.4779 51.0625 18.3688L51.0761 17.6149C51.0777 17.5122 51.164 17.4296 51.2686 17.4288H52.0097C52.1135 17.4288 52.2006 17.5106 52.2022 17.6133L52.219 18.3672C52.2214 18.4763 52.1351 18.5661 52.0265 18.5661H52.0273Z" fill="white"/>
<path d="M53.493 18.5645H52.7207C52.6121 18.5653 52.5219 18.4763 52.5179 18.3672L52.4947 17.6133C52.4915 17.5107 52.5738 17.4273 52.6776 17.4273H53.4187C53.5226 17.4264 53.6136 17.5091 53.6208 17.6117L53.6743 18.3656C53.6823 18.4747 53.6 18.5645 53.4922 18.5645H53.493Z" fill="white"/>
<path d="M50.5058 20.199H49.692C49.5778 20.1998 49.4915 20.1012 49.4995 19.9793L49.5554 19.1436C49.5634 19.0297 49.6585 18.9382 49.7679 18.9382H50.5473C50.6567 18.9374 50.7438 19.0289 50.7406 19.1428L50.7182 19.9785C50.7151 20.0996 50.62 20.199 50.505 20.199H50.5058Z" fill="white"/>
<path d="M52.0514 20.1974H51.2376C51.1234 20.1982 51.0323 20.0996 51.0347 19.9777L51.0499 19.142C51.0523 19.0281 51.1425 18.9367 51.2519 18.9367H52.0314C52.1408 18.9358 52.2319 19.0273 52.2343 19.1412L52.2526 19.9769C52.255 20.098 52.1648 20.1974 52.0506 20.1974H52.0514Z" fill="white"/>
<path d="M53.596 20.1959H52.7822C52.668 20.1967 52.5721 20.098 52.5681 19.9761L52.5426 19.1404C52.5394 19.0265 52.6248 18.9351 52.735 18.9351H53.5145C53.6239 18.9343 53.7197 19.0257 53.7277 19.1396L53.7868 19.9753C53.7956 20.0964 53.7094 20.1959 53.5952 20.1959H53.596Z" fill="white"/>
<path d="M53.8442 20.9835L49.4421 20.9819C49.0732 20.9819 48.8088 20.6562 48.844 20.2656L49.0883 17.5355C49.1171 17.2171 49.3351 16.9629 49.6586 16.9629H53.6246C53.9472 16.9637 54.1652 17.2187 54.1948 17.5371L54.4439 20.268C54.4799 20.6586 54.2139 20.9843 53.8458 20.9843L53.8442 20.9835ZM49.6003 17.1666C49.4573 17.1666 49.3319 17.2797 49.3215 17.42L49.1043 20.1983C49.0907 20.3683 49.2097 20.5071 49.3687 20.5079H53.916C54.075 20.5087 54.194 20.3699 54.1804 20.1999L53.96 17.4217C53.9488 17.2813 53.8234 17.1682 53.6805 17.1682H49.5995L49.6003 17.1666Z" fill="white"/>
<path d="M33.9141 29.4145C33.9141 29.4145 38.3225 21.5899 35.0362 15.8738C32.9062 12.1693 28.1895 10.9005 24.4999 13.0395C20.811 15.1785 19.5468 19.9161 21.6767 23.6206C24.9631 29.3367 33.9141 29.4153 33.9141 29.4153V29.4145Z" fill="url(#paint6_linear_126_3608)"/>
<path opacity="0.35" d="M31.9529 24.7526C34.7042 22.7584 35.3248 18.9018 33.339 16.1387C31.3532 13.3756 27.513 12.7523 24.7616 14.7466C22.0102 16.7409 21.3896 20.5975 23.3754 23.3605C25.3612 26.1236 29.2015 26.7469 31.9529 24.7526Z" fill="#FFCBB9"/>
<path d="M32.4728 21.492C32.4489 21.2145 32.5423 20.8736 31.9098 20.6017C31.4258 20.3932 30.9778 20.3331 30.9778 20.3331L30.9794 19.9152C30.9794 19.9152 31.1878 19.6192 31.1942 19.3754C31.1942 19.3754 31.3236 19.3578 31.3516 19.2054C31.3843 19.0257 31.4115 18.9086 31.4019 18.6648C31.3995 18.6071 31.3627 18.579 31.3412 18.5686C31.3412 18.5686 31.3516 18.4387 31.3516 18.3817C31.3516 18.1612 31.3436 17.9021 31.1934 17.6607C30.9403 17.2541 30.5561 17.08 30.1568 17.0792C29.7591 17.0816 29.3773 17.2549 29.1242 17.6599C28.974 17.9013 28.9668 18.1604 28.9668 18.3809C28.9668 18.4379 28.9772 18.5678 28.9772 18.5678C28.9557 18.579 28.9189 18.6063 28.9165 18.664C28.9069 18.907 28.9333 19.0241 28.9668 19.2046C28.994 19.3562 29.1234 19.3746 29.1234 19.3746C29.1306 19.6176 29.3382 19.9144 29.3382 19.9144V20.3322C29.3382 20.3322 28.8902 20.3924 28.4062 20.6009C28.2928 20.6499 28.2026 20.7012 28.1299 20.7541C28.308 20.7894 28.629 20.8664 28.9668 21.0116C29.3789 21.1888 29.4979 21.3941 29.5355 21.5938H32.4736C32.4768 21.5594 32.476 21.5249 32.4736 21.4912L32.4728 21.492Z" fill="white"/>
<path d="M28.761 21.1896C28.2523 20.9707 27.7795 20.9065 27.7795 20.9065L27.7811 20.4662C27.7811 20.4662 28.0007 20.1542 28.0071 19.8975C28.0071 19.8975 28.1429 19.8783 28.1724 19.7187C28.2068 19.5294 28.2355 19.4067 28.2252 19.15C28.2228 19.0891 28.1836 19.0602 28.1613 19.0482C28.1613 19.0482 28.1716 18.9118 28.1716 18.8509C28.1716 18.6183 28.1637 18.3456 28.0055 18.0922C27.7396 17.6655 27.3379 17.4818 26.9186 17.4802C26.9186 17.4802 26.917 17.4802 26.9162 17.4802C26.9162 17.4802 26.9146 17.4802 26.9138 17.4802C26.4945 17.4826 26.0928 17.6663 25.8269 18.0922C25.6687 18.3456 25.6608 18.6183 25.6608 18.8509C25.6608 18.911 25.6711 19.0482 25.6711 19.0482C25.6488 19.0594 25.6096 19.0891 25.6072 19.15C25.5969 19.4067 25.6256 19.5294 25.66 19.7187C25.6895 19.8791 25.8253 19.8975 25.8253 19.8975C25.8325 20.1542 26.0513 20.4662 26.0513 20.4662V20.9065C26.0513 20.9065 25.5793 20.9707 25.0706 21.1896C24.4045 21.4759 24.5027 21.8344 24.478 22.1264C24.4748 22.1617 24.4748 22.1978 24.478 22.2338H29.352C29.3552 22.1978 29.3544 22.1617 29.352 22.1264C29.3273 21.8344 29.4247 21.4759 28.7594 21.1896H28.761Z" fill="white"/>
</g>
<defs>
<linearGradient id="paint0_linear_126_3608" x1="43.7459" y1="59.2924" x2="59.3575" y2="59.2924" gradientUnits="userSpaceOnUse">
<stop stop-color="#FFB37F"/>
<stop offset="1" stop-color="#FF7B0D"/>
</linearGradient>
<linearGradient id="paint1_linear_126_3608" x1="20.6425" y1="59.2924" x2="36.2541" y2="59.2924" gradientUnits="userSpaceOnUse">
<stop stop-color="#FFB37F"/>
<stop offset="1" stop-color="#FF7B0D"/>
</linearGradient>
<linearGradient id="paint2_linear_126_3608" x1="52.1709" y1="39.9996" x2="71.0002" y2="39.9996" gradientUnits="userSpaceOnUse">
<stop stop-color="#FFB37F"/>
<stop offset="1" stop-color="#FF7B0D"/>
</linearGradient>
<linearGradient id="paint3_linear_126_3608" x1="29.976" y1="40.0005" x2="50.0304" y2="40.0005" gradientUnits="userSpaceOnUse">
<stop stop-color="#FFB37F"/>
<stop offset="1" stop-color="#FF7B0D"/>
</linearGradient>
<linearGradient id="paint4_linear_126_3608" x1="9" y1="40.0004" x2="27.8285" y2="40.0004" gradientUnits="userSpaceOnUse">
<stop stop-color="#FFB37F"/>
<stop offset="1" stop-color="#FF7B0D"/>
</linearGradient>
<linearGradient id="paint5_linear_126_3608" x1="43.7459" y1="20.7076" x2="59.3575" y2="20.7076" gradientUnits="userSpaceOnUse">
<stop stop-color="#FFB37F"/>
<stop offset="1" stop-color="#FF7B0D"/>
</linearGradient>
<linearGradient id="paint6_linear_126_3608" x1="20.6425" y1="20.7077" x2="36.2533" y2="20.7077" gradientUnits="userSpaceOnUse">
<stop stop-color="#FFB37F"/>
<stop offset="1" stop-color="#FF7B0D"/>
</linearGradient>
<clipPath id="clip0_126_3608">
<rect width="62" height="56" fill="white" transform="translate(9 12)"/>
</clipPath>
</defs>
</svg>
