<svg width="22" height="23" viewBox="0 0 22 23" fill="none" xmlns="http://www.w3.org/2000/svg">
<path d="M2.28677 10.5473C1.85377 10.5486 1.42995 10.6755 1.06436 10.9136C0.698773 11.1516 0.406347 11.4909 0.220916 11.8923C0.0354852 12.2937 -0.0353719 12.7408 0.0165424 13.1818C0.0684567 13.6227 0.241021 14.0396 0.51427 14.3842L6.33931 21.7041C6.547 21.9687 6.81323 22.1786 7.11587 22.3164C7.41852 22.4542 7.74886 22.5159 8.07944 22.4965C8.78647 22.4575 9.4248 22.0696 9.83177 21.4316L21.9319 1.44122C21.9338 1.43791 21.9359 1.43459 21.938 1.43133C22.0516 1.2525 22.0148 0.898122 21.7804 0.675497C21.716 0.614361 21.6401 0.567392 21.5574 0.537481C21.4747 0.507571 21.3868 0.495353 21.2993 0.50158C21.2118 0.507808 21.1264 0.532348 21.0485 0.57369C20.9706 0.615032 20.9018 0.6723 20.8462 0.741968C20.8419 0.747445 20.8374 0.75284 20.8328 0.758152L8.62971 14.9019C8.58328 14.9557 8.52688 14.9995 8.4638 15.0308C8.40072 15.0621 8.3322 15.0802 8.26224 15.0841C8.19228 15.0879 8.12226 15.0775 8.05626 15.0534C7.99026 15.0293 7.92958 14.992 7.87776 14.9436L3.82778 11.1629C3.40716 10.7674 2.85739 10.5478 2.28677 10.5473Z" fill="#3DBBCB"/>
</svg>
