<svg width="80" height="80" viewBox="0 0 80 80" fill="none" xmlns="http://www.w3.org/2000/svg">
<circle cx="40" cy="40" r="40" fill="#FCA467" fill-opacity="0.16"/>
<g clip-path="url(#clip0_407_478)">
<path d="M29.2146 33.6758H27.0693C26.2322 33.6758 25.5535 32.9922 25.5535 32.1491V30.2862C25.5535 29.4431 26.2322 28.7595 27.0693 28.7595H29.2146V33.6765V33.6758Z" fill="#C6C5CA"/>
<path d="M29.2146 38.8482H27.0693C26.2322 38.8482 25.5535 38.1646 25.5535 37.3215C25.5535 36.4784 26.2322 35.7941 27.0693 35.7941H29.2146V38.8482Z" fill="#C6C5CA"/>
<path d="M51.4692 58.4434H31.9065C29.7096 58.4434 27.9285 56.6502 27.9285 54.4378V25.5622C27.9285 23.3498 29.7089 21.5566 31.9065 21.5566H51.4692C53.666 21.5566 55.4464 23.3498 55.4464 25.5622V54.437C55.4464 56.6495 53.666 58.4426 51.4692 58.4426V58.4434Z" fill="url(#paint0_linear_407_478)"/>
<path d="M49.1495 41.2647H34.2272C32.8897 41.2647 31.8049 40.173 31.8049 38.8252V27.6025C31.8049 26.2555 32.889 25.163 34.2272 25.163H49.1495C50.487 25.163 51.5718 26.2547 51.5718 27.6025V38.8252C51.5718 40.1722 50.4878 41.2647 49.1495 41.2647Z" fill="url(#paint1_linear_407_478)"/>
<path d="M38.2767 46.9714H37.049V45.7349C37.049 45.2376 36.6488 44.8339 36.1543 44.8339H34.8212C34.3275 44.8339 33.9266 45.2369 33.9266 45.7349V46.9714H32.6988C32.2044 46.9714 31.8042 47.3744 31.8042 47.8724V49.215C31.8042 49.7123 32.2044 50.116 32.6988 50.116H33.9266V51.3525C33.9266 51.8498 34.3267 52.2535 34.8212 52.2535H36.1543C36.6481 52.2535 37.049 51.8505 37.049 51.3525V50.116H38.2767C38.7712 50.116 39.1714 49.713 39.1714 49.215V47.8724C39.1714 47.3744 38.7705 46.9714 38.2767 46.9714Z" fill="#FFEB99"/>
<path d="M45.3713 48.5434C45.3713 49.3494 44.7228 50.0025 43.9232 50.0025C43.1236 50.0025 42.4744 49.3494 42.4744 48.5434C42.4744 47.7373 43.1229 47.085 43.9232 47.085C44.7235 47.085 45.3713 47.7381 45.3713 48.5434Z" fill="#B1EF97"/>
<path d="M51.5712 48.5434C51.5712 49.3494 50.9227 50.0025 50.1224 50.0025C49.3221 50.0025 48.6743 49.3494 48.6743 48.5434C48.6743 47.7373 49.3228 47.085 50.1224 47.085C50.922 47.085 51.5712 47.7381 51.5712 48.5434Z" fill="#B1EF97"/>
<path d="M48.4716 45.4217C48.4716 46.2269 47.8231 46.8801 47.0235 46.8801C46.2239 46.8801 45.5747 46.2269 45.5747 45.4217C45.5747 44.6164 46.2232 43.9625 47.0235 43.9625C47.8238 43.9625 48.4716 44.6156 48.4716 45.4217Z" fill="#B1EF97"/>
<path d="M48.4716 51.6657C48.4716 52.4717 47.8231 53.1248 47.0235 53.1248C46.2239 53.1248 45.5747 52.4717 45.5747 51.6657C45.5747 50.8597 46.2232 50.2073 47.0235 50.2073C47.8238 50.2073 48.4716 50.8604 48.4716 51.6657Z" fill="#B1EF97"/>
<path d="M42.5789 56.5745H40.797C40.1094 56.5745 39.5471 56.0082 39.5471 55.3158C39.5471 54.6233 40.1094 54.057 40.797 54.057H42.5789C43.2664 54.057 43.8287 54.6233 43.8287 55.3158C43.8287 56.0082 43.2664 56.5745 42.5789 56.5745Z" fill="#EAEAEA"/>
<path d="M55.4473 29.2813C55.7524 29.2813 56 29.032 56 28.7247V25.5622C56 23.047 53.9675 21 51.4693 21H31.9066C29.4084 21 27.3759 23.047 27.3759 25.5622V28.2022H27.0686C25.9278 28.2022 25 29.1366 25 30.2855V32.1484C25 33.2973 25.9278 34.2317 27.0686 34.2317H27.3759V35.2366H27.0686C25.9278 35.2366 25 36.1711 25 37.32C25 38.4689 25.9278 39.404 27.0686 39.404H27.3759V54.4363C27.3759 56.9523 29.4084 58.9985 31.9066 58.9985H51.4693C53.9675 58.9985 55.9993 56.9523 55.9993 54.4363V31.1509C55.9993 30.8436 55.7516 30.5943 55.4466 30.5943C55.1415 30.5943 54.8939 30.8436 54.8939 31.1509V54.4378C54.8939 56.3393 53.3573 57.8867 51.4693 57.8867H31.9066C30.0185 57.8867 28.4813 56.3393 28.4813 54.4378V25.5622C28.4813 23.6607 30.0178 22.1133 31.9066 22.1133H51.4693C53.3581 22.1133 54.8946 23.6607 54.8946 25.5622V28.7247C54.8946 29.032 55.1422 29.2813 55.4473 29.2813ZM27.0686 33.1192C26.5373 33.1192 26.1054 32.6843 26.1054 32.1491V30.2863C26.1054 29.7511 26.538 29.3162 27.0686 29.3162H27.3759V33.1199H27.0686V33.1192ZM27.0686 38.2915C26.5373 38.2915 26.1054 37.8558 26.1054 37.3214C26.1054 36.7871 26.538 36.3507 27.0686 36.3507H27.3759V38.2915H27.0686Z" fill="url(#paint2_linear_407_478)"/>
<path opacity="0.35" d="M52.1237 27.6025C52.1237 25.9504 50.7891 24.6063 49.1487 24.6063H34.2272C32.5868 24.6063 31.2522 25.9504 31.2522 27.6025V35.2842C31.2522 35.5914 31.4998 35.8408 31.8049 35.8408C32.11 35.8408 32.3576 35.5914 32.3576 35.2842V27.6025C32.3576 26.5642 33.1962 25.7196 34.2272 25.7196H49.1495C50.1804 25.7196 51.0191 26.5642 51.0191 27.6025V38.8252C51.0191 39.8635 50.1804 40.7081 49.1495 40.7081H34.2272C33.1962 40.7081 32.3576 39.8635 32.3576 38.8252V37.7267C32.3576 37.4194 32.11 37.1701 31.8049 37.1701C31.4998 37.1701 31.2522 37.4194 31.2522 37.7267V38.8252C31.2522 40.4773 32.5868 41.8214 34.2272 41.8214H49.1495C50.7899 41.8214 52.1245 40.4773 52.1245 38.8252V27.6025H52.1237Z" fill="#FFCBB9"/>
<path opacity="0.35" d="M34.8212 52.8094H36.1543C36.9524 52.8094 37.6017 52.1556 37.6017 51.3518V50.6719H38.2767C39.0748 50.6719 39.724 50.0181 39.724 49.2143V47.8716C39.724 47.0679 39.0748 46.414 38.2767 46.414H37.6017V45.7341C37.6017 44.9304 36.9524 44.2765 36.1543 44.2765H34.8212C34.0231 44.2765 33.3738 44.9304 33.3738 45.7341V46.414H32.6988C31.9007 46.414 31.2515 47.0679 31.2515 47.8716V49.2143C31.2515 50.0181 31.9007 50.6719 32.6988 50.6719H33.3738V51.3518C33.3738 52.1556 34.0231 52.8094 34.8212 52.8094ZM32.6995 49.5594C32.5116 49.5594 32.3576 49.405 32.3576 49.215V47.8724C32.3576 47.6831 32.5109 47.528 32.6995 47.528H33.9273C34.2324 47.528 34.48 47.2786 34.48 46.9714V45.7349C34.48 45.5449 34.6333 45.3905 34.8219 45.3905H36.155C36.3437 45.3905 36.497 45.5449 36.497 45.7349V46.9714C36.497 47.2786 36.7446 47.528 37.0497 47.528H38.2774C38.4661 47.528 38.6194 47.6824 38.6194 47.8724V49.215C38.6194 49.405 38.4661 49.5594 38.2774 49.5594H37.0497C36.7446 49.5594 36.497 49.8088 36.497 50.116V51.3525C36.497 51.5425 36.3437 51.6969 36.155 51.6969H34.8219C34.6333 51.6969 34.48 51.5425 34.48 51.3525V50.116C34.48 49.8088 34.2324 49.5594 33.9273 49.5594H32.6995Z" fill="#FFCBB9"/>
<path opacity="0.35" d="M45.9239 48.5434C45.9239 47.4323 45.0263 46.5283 43.9232 46.5283C42.82 46.5283 41.9216 47.4323 41.9216 48.5434C41.9216 49.6544 42.8192 50.5591 43.9232 50.5591C45.0271 50.5591 45.9239 49.6552 45.9239 48.5434ZM43.9232 49.4459C43.4294 49.4459 43.027 49.0414 43.027 48.5434C43.027 48.0454 43.4287 47.6416 43.9232 47.6416C44.4176 47.6416 44.8185 48.0461 44.8185 48.5434C44.8185 49.0406 44.4169 49.4459 43.9232 49.4459Z" fill="#FFCBB9"/>
<path opacity="0.35" d="M52.1236 48.5434C52.1236 47.4323 51.2261 46.5283 50.1221 46.5283C49.0182 46.5283 48.1213 47.4323 48.1213 48.5434C48.1213 49.6544 49.0189 50.5591 50.1221 50.5591C51.2253 50.5591 52.1236 49.6552 52.1236 48.5434ZM49.2267 48.5434C49.2267 48.0461 49.6284 47.6416 50.1221 47.6416C50.6159 47.6416 51.0182 48.0461 51.0182 48.5434C51.0182 49.0406 50.6166 49.4459 50.1221 49.4459C49.6276 49.4459 49.2267 49.0414 49.2267 48.5434Z" fill="#FFCBB9"/>
<path opacity="0.35" d="M47.0225 47.4367C48.1257 47.4367 49.0233 46.5327 49.0233 45.4217C49.0233 44.3106 48.1257 43.4059 47.0225 43.4059C45.9193 43.4059 45.021 44.3099 45.021 45.4217C45.021 46.5335 45.9186 47.4367 47.0225 47.4367ZM47.0225 44.5192C47.5163 44.5192 47.9179 44.9237 47.9179 45.4217C47.9179 45.9197 47.5163 46.3234 47.0225 46.3234C46.5288 46.3234 46.1264 45.9189 46.1264 45.4217C46.1264 44.9244 46.528 44.5192 47.0225 44.5192Z" fill="#FFCBB9"/>
<path opacity="0.35" d="M47.0225 53.6815C48.1257 53.6815 49.0233 52.7775 49.0233 51.6657C49.0233 50.5539 48.1257 49.6506 47.0225 49.6506C45.9193 49.6506 45.021 50.5546 45.021 51.6657C45.021 52.7767 45.9186 53.6815 47.0225 53.6815ZM47.0225 50.7639C47.5163 50.7639 47.9179 51.1684 47.9179 51.6657C47.9179 52.1629 47.5163 52.5682 47.0225 52.5682C46.5288 52.5682 46.1264 52.1637 46.1264 51.6657C46.1264 51.1677 46.528 50.7639 47.0225 50.7639Z" fill="#FFCBB9"/>
<path opacity="0.35" d="M40.7969 57.1311H42.5788C43.573 57.1311 44.3814 56.3162 44.3814 55.3158C44.3814 54.3153 43.573 53.5004 42.5788 53.5004H40.7969C39.8028 53.5004 38.9944 54.3145 38.9944 55.3158C38.9944 56.317 39.8028 57.1311 40.7969 57.1311ZM40.7969 54.6129H42.5788C42.9635 54.6129 43.276 54.9283 43.276 55.315C43.276 55.7017 42.9628 56.0171 42.5788 56.0171H40.7969C40.4123 56.0171 40.0998 55.7017 40.0998 55.315C40.0998 54.9283 40.413 54.6129 40.7969 54.6129Z" fill="#FFCBB9"/>
</g>
<defs>
<linearGradient id="paint0_linear_407_478" x1="41.6878" y1="60.3567" x2="41.6878" y2="20.4285" gradientUnits="userSpaceOnUse">
<stop stop-color="#FFB37F"/>
<stop offset="1" stop-color="#FF7B0D"/>
</linearGradient>
<linearGradient id="paint1_linear_407_478" x1="31.8049" y1="33.2135" x2="51.5711" y2="33.2135" gradientUnits="userSpaceOnUse">
<stop stop-color="white"/>
<stop offset="1" stop-color="white" stop-opacity="0.2"/>
</linearGradient>
<linearGradient id="paint2_linear_407_478" x1="25" y1="40" x2="56" y2="40" gradientUnits="userSpaceOnUse">
<stop stop-color="white" stop-opacity="0.25"/>
<stop offset="1" stop-color="white" stop-opacity="0"/>
</linearGradient>
<clipPath id="clip0_407_478">
<rect width="31" height="38" fill="white" transform="translate(25 21)"/>
</clipPath>
</defs>
</svg>
