<svg width="80" height="80" viewBox="0 0 80 80" fill="none" xmlns="http://www.w3.org/2000/svg">
<rect width="80" height="80" rx="40" fill="#85DB84" fill-opacity="0.16"/>
<g clip-path="url(#clip0_126_3587)">
<path fill-rule="evenodd" clip-rule="evenodd" d="M39.2996 19.8326V28.653C38.4669 28.4567 37.6001 28.3531 36.7101 28.3531C30.3894 28.3531 25.2358 33.585 25.2358 40.0015C25.2358 46.4181 30.3885 51.65 36.7101 51.65C37.6001 51.65 38.4669 51.5464 39.2996 51.3501V60.1685C39.1217 60.2593 38.9206 60.3106 38.7088 60.3106H34.7085C33.9826 60.3106 33.3948 59.7158 33.3948 58.9769C33.3948 54.9731 28.6239 52.9678 25.8353 55.7988C25.3222 56.3196 24.4905 56.3196 23.9784 55.7988L21.148 52.9273C20.6349 52.4065 20.6349 51.5602 21.148 51.0394C23.9337 48.2114 21.9584 43.3652 18.0173 43.3652C17.2915 43.3652 16.7036 42.7684 16.7036 42.0315V37.9705C16.7036 37.2337 17.2924 36.6369 18.0173 36.6369C21.9584 36.6369 23.9337 31.7917 21.148 28.9627C20.6349 28.4419 20.6349 27.5975 21.148 27.0777L23.9784 24.2043C24.4915 23.6835 25.3232 23.6835 25.8353 24.2043C28.621 27.0323 33.3948 25.027 33.3948 21.0261C33.3948 20.2893 33.9826 19.6925 34.7085 19.6925H38.7088C38.9216 19.6925 39.1217 19.7438 39.2996 19.8345V19.8326ZM44.5417 24.4203C45.5337 24.4203 46.3392 25.2381 46.3392 26.2452C46.3392 27.2523 45.5337 28.07 44.5417 28.07C43.5496 28.07 42.7441 27.2523 42.7441 26.2452C42.7441 25.2381 43.5496 24.4203 44.5417 24.4203ZM54.3302 22.411C55.3222 22.411 56.1277 23.2288 56.1277 24.2359C56.1277 25.243 55.3222 26.0607 54.3302 26.0607C53.3381 26.0607 52.5326 25.243 52.5326 24.2359C52.5326 23.2288 53.3381 22.411 54.3302 22.411ZM52.28 54.2106C53.272 54.2106 54.0775 55.0284 54.0775 56.0355C54.0775 57.0426 53.272 57.8603 52.28 57.8603C51.2879 57.8603 50.4824 57.0426 50.4824 56.0355C50.4824 55.0284 51.2879 54.2106 52.28 54.2106ZM59.4508 47.6452C60.4429 47.6452 61.2484 48.4629 61.2484 49.47C61.2484 50.4771 60.4429 51.2948 59.4508 51.2948C58.4588 51.2948 57.6532 50.4771 57.6532 49.47C57.6532 48.4629 58.4588 47.6452 59.4508 47.6452ZM61.5 31.8164C62.4921 31.8164 63.2976 32.6341 63.2976 33.6412C63.2976 34.6483 62.4921 35.4661 61.5 35.4661C60.508 35.4661 59.7025 34.6483 59.7025 33.6412C59.7025 32.6341 60.508 31.8164 61.5 31.8164Z" fill="url(#paint0_linear_126_3587)"/>
<path fill-rule="evenodd" clip-rule="evenodd" d="M45.4248 45.2068C45.4044 46.3629 44.4745 47.2931 43.3309 47.2931H33.1508C31.9945 47.2931 31.0568 46.3412 31.0568 45.1674V34.8328C31.0568 33.659 31.9945 32.7072 33.1508 32.7072H43.3309C44.4871 32.7072 45.4248 33.659 45.4248 34.8328V35.0903H48.7547V26.9347H47.0912C46.79 28.0908 45.7522 28.944 44.5192 28.944C43.051 28.944 41.8598 27.7347 41.8598 26.2442C41.8598 24.7538 43.052 23.5445 44.5192 23.5445C45.7522 23.5445 46.79 24.3977 47.0912 25.5538H49.4348C49.8109 25.5538 50.115 25.8625 50.115 26.2442V35.7808C50.115 36.1625 49.8109 36.4713 49.4348 36.4713H45.4248V39.9552H53.6275V26.846C52.4887 26.5402 51.6483 25.4867 51.6483 24.2349C51.6483 22.7445 52.8395 21.5352 54.3077 21.5352C55.7759 21.5352 56.9671 22.7445 56.9671 24.2349C56.9671 25.4867 56.1266 26.5402 54.9879 26.846V32.9508H59.0494C59.3467 31.8727 60.3223 31.0816 61.4776 31.0816C62.869 31.0816 63.999 32.2287 63.999 33.6413C63.999 35.0538 62.869 36.201 61.4776 36.201C60.3213 36.201 59.3467 35.4099 59.0494 34.3318H54.9879V40.6467C54.9879 41.0284 54.6837 41.3372 54.3077 41.3372H45.4248V43.8259H52.2575C52.6335 43.8259 52.9377 44.1346 52.9377 44.5164V48.7796H56.9992C57.2965 47.7014 58.2721 46.9104 59.4274 46.9104C60.8188 46.9104 61.9488 48.0575 61.9488 49.4701C61.9488 50.8826 60.8188 52.0298 59.4274 52.0298C58.2711 52.0298 57.2965 51.2387 56.9992 50.1605H52.9377V53.5705C53.9997 53.8724 54.7789 54.8627 54.7789 56.0356C54.7789 57.4481 53.6489 58.5953 52.2575 58.5953C50.8661 58.5953 49.736 57.4481 49.736 56.0356C49.736 54.8617 50.5153 53.8724 51.5773 53.5705V45.2068H45.4248ZM54.3087 22.9161C53.5916 22.9161 53.0096 23.507 53.0096 24.2349C53.0096 24.9629 53.5916 25.5538 54.3087 25.5538C55.0257 25.5538 55.6078 24.9629 55.6078 24.2349C55.6078 23.507 55.0257 22.9161 54.3087 22.9161ZM59.4283 48.2913C58.787 48.2913 58.2672 48.819 58.2672 49.4701C58.2672 50.1211 58.788 50.6488 59.4283 50.6488C60.0687 50.6488 60.5895 50.1211 60.5895 49.4701C60.5895 48.819 60.0696 48.2913 59.4283 48.2913ZM52.2585 54.8568C51.6172 54.8568 51.0973 55.3855 51.0973 56.0356C51.0973 56.6856 51.6172 57.2143 52.2585 57.2143C52.8998 57.2143 53.4196 56.6866 53.4196 56.0356C53.4196 55.3845 52.8988 54.8568 52.2585 54.8568ZM61.4785 32.4625C60.8372 32.4625 60.3174 32.9902 60.3174 33.6413C60.3174 34.2923 60.8372 34.82 61.4785 34.82C62.1198 34.82 62.6397 34.2923 62.6397 33.6413C62.6397 32.9902 62.1198 32.4625 61.4785 32.4625ZM43.3309 34.0881H33.1508C32.7456 34.0881 32.4172 34.4215 32.4172 34.8328V45.1674C32.4172 45.5787 32.7456 45.9121 33.1508 45.9121H43.3309C43.736 45.9121 44.0645 45.5787 44.0645 45.1674V34.8328C44.0645 34.4215 43.736 34.0881 43.3309 34.0881ZM44.5202 24.9264C43.8031 24.9264 43.2211 25.5173 43.2211 26.2452C43.2211 26.9732 43.8031 27.5641 44.5202 27.5641C45.2372 27.5641 45.8193 26.9732 45.8193 26.2452C45.8193 25.5173 45.2372 24.9264 44.5202 24.9264ZM39.9572 19.8326V28.653C39.9572 28.8631 39.863 29.0624 39.6998 29.1936C39.5365 29.3248 39.3247 29.3731 39.1226 29.3258C38.3394 29.1413 37.5242 29.0437 36.6866 29.0437C30.7401 29.0437 25.8925 33.9648 25.8925 40.0016C25.8925 46.0384 30.7401 50.9595 36.6866 50.9595C37.5242 50.9595 38.3394 50.8619 39.1226 50.6774C39.3247 50.6301 39.5375 50.6774 39.6998 50.8096C39.862 50.9418 39.9572 51.14 39.9572 51.3501V60.1686C39.9572 60.429 39.8125 60.6677 39.5832 60.7851C39.314 60.9232 39.0089 61.0001 38.6863 61.0001H34.686C33.5851 61.0001 32.6921 60.0976 32.6921 58.976C32.6921 55.5877 28.6539 53.8901 26.2938 56.2861C25.5155 57.0762 24.2533 57.0762 23.475 56.2861L20.6436 53.4147C19.8653 52.6246 19.8653 51.3403 20.6436 50.5502C23.0018 48.1562 21.3296 44.0547 17.9938 44.0547C16.893 44.0547 16 43.1482 16 42.0306V37.9696C16 36.852 16.893 35.9455 17.9938 35.9455C21.3296 35.9455 23.0018 31.8441 20.6436 29.4501C19.8653 28.6599 19.8653 27.3786 20.6436 26.5885L23.474 23.7151C24.2523 22.925 25.5145 22.925 26.2928 23.7151C28.651 26.1091 32.6912 24.4115 32.6912 21.0252C32.6912 19.9076 33.5841 19.0011 34.685 19.0011H38.6853C39.0079 19.0011 39.313 19.079 39.5832 19.2171C39.8125 19.3345 39.9572 19.5732 39.9572 19.8336V19.8326ZM38.5969 59.6192V52.1876C37.9751 52.2882 37.3367 52.3405 36.6876 52.3405C29.9919 52.3405 24.5331 46.7959 24.5331 40.0016C24.5331 33.2073 29.9919 27.6627 36.6876 27.6627C37.3367 27.6627 37.9751 27.715 38.5969 27.8156V20.3811H34.686C34.3362 20.3811 34.0525 20.6691 34.0525 21.0242C34.0525 25.6406 28.5461 27.9537 25.3318 24.6907C25.085 24.4401 24.6837 24.4401 24.436 24.6907L21.6055 27.5641C21.3587 27.8146 21.3587 28.222 21.6055 28.4725C24.8198 31.7355 22.5402 37.3255 17.9938 37.3255C17.644 37.3255 17.3603 37.6135 17.3603 37.9686V42.0296C17.3603 42.3847 17.644 42.6728 17.9938 42.6728C22.5412 42.6728 24.8198 48.2627 21.6055 51.5257C21.3577 51.7773 21.3577 52.1856 21.6055 52.4372L24.436 55.3086C24.6828 55.5591 25.084 55.5591 25.3318 55.3086C28.548 52.0436 34.0515 54.3567 34.0515 58.975C34.0515 59.3311 34.3352 59.6182 34.685 59.6182H38.596L38.5969 59.6192Z" fill="url(#paint1_linear_126_3587)"/>
</g>
<defs>
<linearGradient id="paint0_linear_126_3587" x1="16.7017" y1="40.0005" x2="63.2976" y2="40.0005" gradientUnits="userSpaceOnUse">
<stop stop-color="#46A729" stop-opacity="0"/>
<stop offset="1" stop-color="#78EA56"/>
</linearGradient>
<linearGradient id="paint1_linear_126_3587" x1="76.6296" y1="39.9996" x2="9.84259" y2="39.9996" gradientUnits="userSpaceOnUse">
<stop stop-color="#46A729" stop-opacity="0"/>
<stop offset="1" stop-color="#78EA56"/>
</linearGradient>
<clipPath id="clip0_126_3587">
<rect width="48" height="42" fill="white" transform="translate(16 19)"/>
</clipPath>
</defs>
</svg>
