<svg width="64" height="45" viewBox="0 0 64 45" fill="none" xmlns="http://www.w3.org/2000/svg">
<path d="M64 33.5297C63.9955 33.3878 63.9887 33.246 63.982 33.1021C63.9752 32.9664 63.9662 32.8307 63.955 32.693C63.946 32.5634 63.9347 32.4339 63.9235 32.3023C63.9122 32.1769 63.8987 32.0515 63.8852 31.9261C63.8739 31.8233 63.8627 31.7205 63.8492 31.6157C63.8357 31.5149 63.8244 31.4142 63.8109 31.3135C63.7974 31.2168 63.7816 31.1202 63.7681 31.0215C63.7546 30.927 63.7389 30.8303 63.7231 30.7358C63.7073 30.6432 63.6916 30.5487 63.6758 30.4562C63.6601 30.3657 63.6421 30.2752 63.624 30.1848C63.606 30.0943 63.5903 30.0059 63.5723 29.9155C63.5543 29.8291 63.5362 29.7407 63.5182 29.6544C63.5002 29.568 63.4822 29.4817 63.462 29.3953C63.4439 29.311 63.4237 29.2267 63.4034 29.1424C63.3832 29.0602 63.3652 28.978 63.3449 28.8937C63.3246 28.8135 63.3044 28.7313 63.2841 28.6511C63.2638 28.5709 63.2436 28.4907 63.2211 28.4106C63.2008 28.3324 63.1783 28.2543 63.1558 28.1741C63.1333 28.096 63.113 28.0179 63.0905 27.9398C63.068 27.8637 63.0455 27.7876 63.023 27.7116C63.0004 27.6355 62.9779 27.5594 62.9554 27.4833C62.9329 27.4093 62.9081 27.3353 62.8856 27.2634C62.8631 27.1894 62.8384 27.1174 62.8158 27.0434C62.7933 26.9714 62.7686 26.8995 62.7438 26.8275C62.719 26.7556 62.6965 26.6857 62.6718 26.6137C62.647 26.5438 62.6222 26.4719 62.5975 26.402C62.5727 26.3341 62.5479 26.2642 62.5209 26.1943C62.5052 26.1491 62.4872 26.1039 62.4714 26.0566C62.4624 26.0319 62.4556 26.0093 62.4466 25.9867C62.4219 25.9188 62.3949 25.851 62.3701 25.7831C62.3453 25.7153 62.3183 25.6495 62.2913 25.5817C62.2643 25.5138 62.2395 25.448 62.2125 25.3802C62.1877 25.3144 62.1585 25.2486 62.1315 25.1849C62.1045 25.1191 62.0797 25.0554 62.0504 24.9896C62.0234 24.9258 61.9964 24.86 61.9694 24.7963C61.9424 24.7326 61.9153 24.6688 61.8883 24.6051C61.8613 24.5414 61.8343 24.4777 61.8073 24.4139C61.7803 24.3502 61.7533 24.2885 61.724 24.2248C61.697 24.1631 61.6677 24.1014 61.6407 24.0397C61.6137 23.9781 61.5844 23.9164 61.5574 23.8547C61.5304 23.793 61.5011 23.7334 61.4718 23.6717C61.4426 23.6101 61.4133 23.5525 61.3863 23.4908C61.357 23.4312 61.33 23.3716 61.3008 23.3099C61.2715 23.2503 61.2445 23.1907 61.2152 23.131C61.1859 23.0735 61.1567 23.0139 61.1274 22.9563C61.0981 22.8987 61.0689 22.8391 61.0396 22.7815C61.0103 22.724 60.9811 22.6644 60.9518 22.6068C60.9225 22.5492 60.891 22.4937 60.8618 22.4362C60.8325 22.3786 60.8032 22.3231 60.7717 22.2655C60.7424 22.208 60.7132 22.1524 60.6817 22.0949C60.6524 22.0394 60.6209 21.9839 60.5916 21.9263C60.5623 21.8708 60.5308 21.8153 60.4993 21.7598C60.4678 21.7043 60.4385 21.6488 60.407 21.5932C60.3755 21.5377 60.3462 21.4822 60.3147 21.4267C60.2854 21.3733 60.2517 21.3178 60.2224 21.2643C60.1909 21.2109 60.1616 21.1553 60.1301 21.1019C60.0986 21.0484 60.0693 20.9929 60.0378 20.9395C60.0063 20.886 59.9748 20.8326 59.9432 20.7791C59.9117 20.7257 59.8802 20.6743 59.8487 20.6208C59.8172 20.5674 59.7857 20.516 59.7541 20.4625C59.7226 20.4091 59.6911 20.3577 59.6596 20.3042C59.6281 20.2528 59.5966 20.2014 59.565 20.148C59.5335 20.0966 59.502 20.0452 59.4682 19.9938C59.4367 19.9424 59.4052 19.891 59.3714 19.8396C59.3399 19.7882 59.3084 19.7368 59.2746 19.6854C59.2701 19.6792 59.2679 19.6751 59.2634 19.6689C59.2341 19.6237 59.2048 19.5785 59.1756 19.5333C59.1441 19.4819 59.1103 19.4325 59.0788 19.3832C59.0473 19.3338 59.0135 19.2824 58.982 19.2331C58.9482 19.1838 58.9167 19.1344 58.8829 19.0851C58.8491 19.0357 58.8176 18.9864 58.7839 18.9371C58.7501 18.8877 58.7186 18.8384 58.6848 18.7911C58.651 18.7417 58.6173 18.6945 58.5857 18.6472C58.552 18.5999 58.5182 18.5505 58.4867 18.5033C58.4709 18.4786 58.4529 18.456 58.4372 18.4313C58.4214 18.4066 58.4034 18.384 58.3876 18.3593C58.3539 18.3121 58.3201 18.2668 58.2863 18.2195C58.2526 18.1723 58.2188 18.125 58.185 18.0797C58.1513 18.0325 58.1175 17.9872 58.0837 17.942C58.0499 17.8968 58.0162 17.8515 57.9802 17.8063C57.9441 17.7611 57.9126 17.7159 57.8766 17.6706C57.8428 17.6254 57.8068 17.5802 57.773 17.537C57.7393 17.4918 57.7033 17.4486 57.6695 17.4054C57.6357 17.3622 57.5997 17.317 57.5659 17.2738C57.5299 17.2307 57.4961 17.1875 57.4601 17.1443C57.4241 17.1011 57.3903 17.058 57.3543 17.0148C57.3183 16.9716 57.2845 16.9285 57.2485 16.8873C57.2125 16.8442 57.1765 16.8051 57.1404 16.7619C57.1044 16.7208 57.0684 16.6776 57.0324 16.6365C56.9964 16.5954 56.9603 16.5543 56.9243 16.5132C56.8883 16.472 56.8523 16.433 56.8163 16.3919C56.7802 16.3507 56.7442 16.3117 56.7082 16.2706C56.6722 16.2315 56.6339 16.1924 56.5979 16.1534C56.5619 16.1143 56.5236 16.0753 56.4876 16.0362C56.4516 15.9971 56.4133 15.9581 56.3773 15.919C56.339 15.88 56.303 15.845 56.2647 15.8059C56.2264 15.7689 56.1904 15.7299 56.1521 15.6929C56.1139 15.6559 56.0779 15.6189 56.0396 15.5819C56.0013 15.5448 55.963 15.5099 55.9248 15.4749C55.8865 15.4379 55.8482 15.403 55.81 15.368C55.7717 15.3331 55.7334 15.2981 55.6951 15.2632C55.6569 15.2282 55.6186 15.1933 55.5803 15.1604C55.5421 15.1254 55.5038 15.0905 55.4655 15.0576C55.4272 15.0227 55.3867 14.9918 55.3484 14.9589C55.3102 14.926 55.2697 14.8931 55.2314 14.8602C55.1909 14.8273 55.1526 14.7944 55.1143 14.7636C55.0738 14.7307 55.0355 14.6999 54.995 14.669C54.9545 14.6382 54.9162 14.6053 54.8757 14.5745C54.8352 14.5436 54.7946 14.5148 54.7541 14.484C54.7136 14.4532 54.6731 14.4244 54.6326 14.3936C54.592 14.3648 54.5515 14.3339 54.511 14.3051C54.4705 14.2764 54.4299 14.2476 54.3894 14.2209C54.3489 14.1921 54.3084 14.1633 54.2678 14.1366C54.2273 14.1098 54.1846 14.0831 54.144 14.0564C54.1035 14.0297 54.0607 14.0029 54.0202 13.9762C53.9774 13.9495 53.9369 13.9248 53.8941 13.8981C53.8514 13.8734 53.8108 13.8487 53.7681 13.822C53.7253 13.7953 53.6848 13.7706 53.642 13.748C53.5992 13.7233 53.5565 13.7007 53.5137 13.6781C53.4709 13.6555 53.4281 13.6308 53.3854 13.6082C53.3426 13.5856 53.2998 13.563 53.2548 13.5424C53.212 13.5198 53.167 13.4992 53.1242 13.4766C53.0814 13.4561 53.0364 13.4335 52.9936 13.4129C52.9486 13.3923 52.9058 13.3738 52.8608 13.3533C52.8158 13.3327 52.773 13.3122 52.728 13.2937C52.683 13.2752 52.6379 13.2587 52.5929 13.2402C52.5479 13.2217 52.5029 13.2032 52.4578 13.1867C52.4128 13.1703 52.3678 13.1539 52.3228 13.1374C52.2777 13.121 52.2305 13.1045 52.1854 13.0901C52.1404 13.0737 52.0931 13.0593 52.0481 13.0449C52.0008 13.0305 51.9558 13.0161 51.9085 13.0017C51.8613 12.9873 51.8162 12.9729 51.769 12.9606C51.7217 12.9483 51.6744 12.9359 51.6271 12.9236C51.5799 12.9113 51.5326 12.8989 51.4853 12.8866C51.438 12.8763 51.3908 12.866 51.3412 12.8558C51.2939 12.8455 51.2444 12.8352 51.1971 12.8249C51.1476 12.8146 51.1003 12.8085 51.0508 12.7982C51.0013 12.79 50.954 12.7817 50.9045 12.7735C50.855 12.7653 50.8054 12.7591 50.7559 12.753C50.7064 12.7468 50.6568 12.7406 50.6073 12.7345C50.5578 12.7283 50.5083 12.7242 50.4587 12.7201C50.4092 12.716 50.3574 12.7118 50.3079 12.7098C50.2336 12.7057 50.1571 12.7016 50.0828 12.6995C50.0062 12.6974 49.9319 12.6954 49.8554 12.6954C49.7789 12.6954 49.7023 12.6954 49.6235 12.6995C49.6033 12.6995 49.5852 12.6995 49.565 12.6995C49.5042 12.7016 49.4479 12.7077 49.3871 12.7118C49.3083 12.718 49.2295 12.7201 49.1508 12.7283C49.0697 12.7365 48.9887 12.7488 48.9099 12.7591C48.8288 12.7694 48.7478 12.7817 48.6667 12.7941C48.5834 12.8085 48.5001 12.8249 48.4191 12.8414C48.3336 12.8599 48.2503 12.8784 48.167 12.8989C48.0814 12.9195 47.9959 12.94 47.9126 12.9647C47.8248 12.9894 47.737 13.0182 47.6514 13.0449C47.5614 13.0737 47.4736 13.1066 47.3858 13.1374C47.2957 13.1703 47.2034 13.2053 47.1156 13.2423C47.0233 13.2813 46.931 13.3204 46.841 13.3615C46.7442 13.4047 46.6519 13.452 46.5573 13.4992C46.4583 13.5486 46.3637 13.602 46.2669 13.6555C46.1656 13.7131 46.0665 13.7706 45.9697 13.8302C45.8662 13.894 45.7649 13.9598 45.6636 14.0276C45.5555 14.0996 45.452 14.1736 45.3484 14.2496C45.2381 14.3319 45.1278 14.4162 45.022 14.5005C44.9049 14.595 44.7923 14.6917 44.682 14.7903C44.5582 14.8993 44.4411 15.0083 44.3263 15.1193C44.1958 15.2467 44.0697 15.3722 43.9504 15.4996C43.8085 15.6497 43.6735 15.7998 43.5474 15.9499C43.3876 16.1369 43.2412 16.3199 43.1084 16.4967C42.917 16.7475 42.7505 16.984 42.6086 17.1998C42.3182 17.6377 42.1291 17.9831 42.0391 18.1558C42.0188 18.1887 41.9918 18.238 41.9603 18.2936C41.8815 18.4334 41.7667 18.6369 41.6181 18.9185C41.5911 18.8774 41.564 18.8384 41.537 18.7973C41.4875 18.7232 41.4402 18.6513 41.3907 18.5793C41.3412 18.5074 41.2939 18.4354 41.2444 18.3635C41.1948 18.2915 41.1453 18.2195 41.098 18.1476C41.0485 18.0756 40.999 18.0057 40.9495 17.9338C40.8999 17.8618 40.8504 17.7919 40.8009 17.722C40.7513 17.6521 40.7018 17.5822 40.6523 17.5123C40.6028 17.4424 40.5532 17.3725 40.5037 17.3026C40.4542 17.2327 40.4024 17.1649 40.3529 17.097C40.3033 17.0292 40.2516 16.9593 40.202 16.8914C40.1503 16.8236 40.1007 16.7558 40.0512 16.69C39.9994 16.6221 39.9499 16.5543 39.8981 16.4885C39.8463 16.4207 39.7968 16.3569 39.745 16.2911C39.6933 16.2253 39.6415 16.1596 39.592 16.0938C39.5402 16.028 39.4884 15.9642 39.4366 15.9005C39.3848 15.8368 39.3331 15.773 39.2813 15.7093C39.2295 15.6456 39.1777 15.5819 39.1237 15.5202C39.0719 15.4564 39.0179 15.3968 38.9661 15.3351C38.9143 15.2735 38.8603 15.2118 38.8063 15.1522C38.7522 15.0905 38.6982 15.0329 38.6464 14.9733C38.5924 14.9137 38.5384 14.8541 38.4843 14.7944C38.4303 14.7348 38.3763 14.6793 38.3222 14.6218C38.2682 14.5642 38.2142 14.5066 38.1579 14.4511C38.1039 14.3936 38.0476 14.338 37.9936 14.2825C37.9373 14.227 37.8833 14.1736 37.827 14.1181C37.7707 14.0646 37.7167 14.0091 37.6604 13.9556C37.6041 13.9022 37.5478 13.8508 37.4915 13.7994C37.4353 13.748 37.379 13.6966 37.3204 13.6452C37.2642 13.5938 37.2056 13.5445 37.1493 13.4951C37.0908 13.4458 37.0345 13.3985 36.976 13.3512C36.9175 13.3039 36.8589 13.2546 36.8004 13.2094C36.7419 13.1621 36.6811 13.1189 36.6226 13.0737C36.564 13.0284 36.5032 12.9853 36.4447 12.9421C36.3839 12.8989 36.3254 12.8558 36.2646 12.8146C36.2038 12.7735 36.143 12.7324 36.0823 12.6933C36.0215 12.6522 35.9607 12.6132 35.8977 12.5741C35.8346 12.535 35.7738 12.498 35.7108 12.461C35.6478 12.424 35.5847 12.3891 35.5217 12.3541C35.4587 12.3192 35.3956 12.2842 35.3326 12.2513C35.2696 12.2184 35.2043 12.1855 35.139 12.1547C35.0737 12.1239 35.0084 12.093 34.9431 12.0642C34.8778 12.0355 34.8125 12.0046 34.7473 11.9779C34.682 11.9512 34.6144 11.9244 34.5469 11.8998C34.4794 11.8751 34.4118 11.8504 34.3443 11.8278C34.2768 11.8052 34.2092 11.7805 34.1394 11.76C34.0696 11.7394 34.0021 11.7188 33.9323 11.7003C33.8625 11.6818 33.7927 11.6654 33.7229 11.6489C33.6532 11.6325 33.5811 11.6161 33.5113 11.6017C33.4393 11.5873 33.3695 11.5749 33.2975 11.5626C33.2254 11.5503 33.1534 11.542 33.0791 11.5318C33.0048 11.5235 32.9328 11.5133 32.8585 11.5071C32.7842 11.5009 32.7099 11.4948 32.6356 11.4906C32.5613 11.4865 32.4848 11.4845 32.4082 11.4845C32.3699 11.4845 32.3294 11.4824 32.2911 11.4824C32.2529 11.4824 32.2169 11.4845 32.1786 11.4845C32.102 11.4845 32.0233 11.4865 31.9467 11.4906C31.8679 11.4948 31.7891 11.5009 31.7103 11.5091C31.6293 11.5174 31.5505 11.5256 31.4694 11.5359C31.3884 11.5462 31.3074 11.5585 31.2263 11.5729C31.143 11.5873 31.062 11.6017 30.9787 11.6202C30.8954 11.6387 30.8098 11.6572 30.7265 11.6777C30.6612 11.6942 30.5982 11.7127 30.5329 11.7332C30.4676 11.7517 30.4024 11.7723 30.3371 11.7929C30.2718 11.8134 30.2042 11.836 30.139 11.8607C30.0714 11.8854 30.0039 11.9121 29.9363 11.9388C29.8688 11.9656 29.799 11.9943 29.7315 12.0231C29.6617 12.054 29.5919 12.0827 29.5221 12.1156C29.4501 12.1485 29.3803 12.1855 29.3082 12.2205C29.2362 12.2575 29.1642 12.2966 29.0921 12.3356C29.0178 12.3767 28.9458 12.4178 28.8715 12.461C28.7972 12.5063 28.7207 12.5494 28.6464 12.5967C28.5698 12.6461 28.491 12.6974 28.4145 12.7488C28.3357 12.8023 28.2569 12.8578 28.1781 12.9133C28.0971 12.9709 28.016 13.0305 27.9372 13.0922C27.8539 13.1559 27.7729 13.2196 27.6896 13.2854C27.604 13.3533 27.5208 13.4232 27.4352 13.4951C27.3474 13.5691 27.2619 13.6452 27.1741 13.7233C27.084 13.8035 26.9962 13.8857 26.9062 13.97C26.8139 14.0564 26.7216 14.1468 26.6315 14.2373C26.537 14.3319 26.4424 14.4285 26.3479 14.5272C26.2488 14.63 26.152 14.7348 26.0552 14.8417C25.9539 14.9528 25.8526 15.0658 25.7513 15.181C25.6522 15.2961 25.5509 15.4133 25.4496 15.5325L25.4361 15.549C25.328 15.6785 25.22 15.8101 25.1119 15.9457L25.1074 15.9499C24.9971 16.0876 24.8845 16.2295 24.7742 16.3713C24.6572 16.5214 24.5423 16.6735 24.4253 16.8298C24.3037 16.9922 24.1821 17.1567 24.0606 17.3252C23.9345 17.5 23.8084 17.6788 23.6824 17.8598C23.5518 18.0469 23.4212 18.236 23.2907 18.4313C23.1826 18.5917 23.0723 18.7541 22.9642 18.9206C22.9575 18.9062 22.9507 18.898 22.944 18.8836C22.9079 18.8158 22.8742 18.7541 22.8427 18.6965C22.8066 18.6287 22.7729 18.567 22.7413 18.5115C22.7031 18.4416 22.6693 18.382 22.64 18.3285C22.5995 18.2586 22.5658 18.1969 22.541 18.1579L22.5365 18.1496C22.5095 18.1003 22.478 18.0386 22.4352 17.9626C22.4059 17.9091 22.3699 17.8474 22.3316 17.7816C22.3001 17.7261 22.2641 17.6686 22.2258 17.6048C22.192 17.5493 22.156 17.4938 22.12 17.4321C22.0862 17.3787 22.0502 17.3211 22.0119 17.2636C21.9759 17.2101 21.9399 17.1546 21.9016 17.0991C21.8656 17.0456 21.8296 16.9922 21.7913 16.9387C21.7553 16.8873 21.7193 16.8339 21.6788 16.7804C21.6427 16.729 21.6045 16.6776 21.5662 16.6262C21.5302 16.5769 21.4897 16.5255 21.4514 16.4741C21.4131 16.4248 21.3748 16.3754 21.3366 16.324C21.2983 16.2767 21.26 16.2274 21.2195 16.1781C21.1812 16.1308 21.1407 16.0835 21.1024 16.0362C21.0642 15.9889 21.0236 15.9416 20.9831 15.8943C20.9449 15.8491 20.9021 15.8039 20.8638 15.7587C20.8233 15.7134 20.785 15.6682 20.7422 15.625C20.7017 15.5819 20.6612 15.5366 20.6207 15.4934C20.5801 15.4503 20.5396 15.4071 20.4969 15.3639C20.4563 15.3228 20.4158 15.2796 20.373 15.2385C20.3325 15.1974 20.2897 15.1563 20.247 15.1152C20.2042 15.074 20.1637 15.035 20.1209 14.9939C20.0781 14.9548 20.0353 14.9157 19.9926 14.8767C19.9498 14.8376 19.907 14.7986 19.8643 14.7616C19.8215 14.7245 19.7787 14.6875 19.7337 14.6505C19.6909 14.6135 19.6481 14.5765 19.6031 14.5416C19.5603 14.5066 19.5153 14.4717 19.4703 14.4367C19.4253 14.4018 19.3825 14.3668 19.3375 14.3339C19.2924 14.301 19.2474 14.2681 19.2024 14.2332C19.1574 14.2003 19.1123 14.1674 19.0673 14.1345C19.0223 14.1037 18.9773 14.0708 18.93 14.0399C18.885 14.0091 18.8377 13.9783 18.7927 13.9495C18.7476 13.9186 18.7004 13.8899 18.6553 13.859C18.6103 13.8302 18.563 13.8015 18.5158 13.7747C18.4685 13.7459 18.4235 13.7172 18.3762 13.6904C18.3289 13.6637 18.2816 13.639 18.2343 13.6123C18.1871 13.5856 18.1398 13.5589 18.0925 13.5342C18.0452 13.5095 17.9957 13.4849 17.9484 13.4622C17.9012 13.4376 17.8516 13.415 17.8021 13.3923C17.7526 13.3697 17.7053 13.3471 17.6558 13.3245C17.6062 13.3019 17.5567 13.2813 17.5072 13.2608C17.4577 13.2402 17.4081 13.2176 17.3586 13.197C17.3091 13.1765 17.2573 13.16 17.2078 13.1415C17.1582 13.123 17.1087 13.1025 17.0569 13.086C17.0074 13.0675 16.9556 13.0511 16.9039 13.0346C16.8521 13.0182 16.8003 13.0017 16.7485 12.9873C16.6967 12.9709 16.645 12.9565 16.5932 12.9421C16.5414 12.9277 16.4874 12.9154 16.4356 12.903C16.3838 12.8907 16.332 12.8763 16.278 12.864C16.2262 12.8516 16.1722 12.8414 16.1182 12.8311C16.0641 12.8208 16.0101 12.8105 15.9583 12.8002C15.9043 12.79 15.8503 12.7817 15.7962 12.7715C15.7422 12.7632 15.6859 12.7571 15.6319 12.7509C15.5779 12.7447 15.5238 12.7345 15.4676 12.7303C15.4113 12.7242 15.355 12.7221 15.301 12.716C15.2447 12.7118 15.1884 12.7077 15.1321 12.7036C15.0916 12.7016 15.0533 12.6974 15.0128 12.6954C14.997 12.6954 14.979 12.6954 14.9633 12.6954C14.907 12.6954 14.8485 12.6933 14.7922 12.6913C14.7337 12.6913 14.6774 12.6913 14.6188 12.6913C14.5603 12.6913 14.5018 12.6933 14.4432 12.6954C14.3847 12.6974 14.3262 12.7016 14.2676 12.7057C14.2091 12.7098 14.1483 12.7139 14.0898 12.718C14.029 12.7242 13.9705 12.7303 13.9097 12.7365C13.8489 12.7427 13.7881 12.7488 13.7296 12.7571C13.6688 12.7653 13.6058 12.7776 13.545 12.7879C13.4842 12.7982 13.4212 12.8085 13.3604 12.8208C13.2974 12.8331 13.2343 12.8455 13.1735 12.8599C13.1105 12.8743 13.0475 12.8886 12.9822 12.9051C12.9191 12.9215 12.8539 12.9359 12.7908 12.9544C12.7255 12.9729 12.6603 12.9935 12.595 13.0141C12.5297 13.0346 12.4644 13.0552 12.3969 13.0778C12.3293 13.1004 12.264 13.123 12.1965 13.1477C12.129 13.1724 12.0614 13.1991 11.9939 13.2279C11.9263 13.2546 11.8566 13.2834 11.789 13.3122C11.7192 13.343 11.6494 13.3738 11.5797 13.4067C11.5076 13.4396 11.4378 13.4746 11.368 13.5095C11.296 13.5445 11.224 13.5815 11.1519 13.6205C11.0799 13.6596 11.0056 13.6987 10.9335 13.7398C10.8593 13.783 10.785 13.8282 10.7107 13.8714C10.6341 13.9166 10.5598 13.9639 10.4833 14.0132C10.4068 14.0626 10.328 14.1119 10.2514 14.1653C10.1726 14.2188 10.0938 14.2723 10.015 14.3298C9.93399 14.3874 9.85294 14.4491 9.77415 14.5087C9.69085 14.5704 9.60981 14.6361 9.52651 14.7019C9.44322 14.7698 9.35767 14.8376 9.27437 14.9096C9.18883 14.9815 9.10103 15.0555 9.01548 15.1337C8.92768 15.2118 8.83763 15.292 8.74983 15.3742C8.65978 15.4585 8.56748 15.5448 8.47743 15.6353C8.14875 15.9581 7.82232 16.3076 7.49814 16.6838C6.75748 17.5411 6.02807 18.5341 5.31217 19.6648C3.87588 21.9345 2.83805 24.0706 2.10639 26.0525C0.634076 30.0347 0.399946 33.3961 0.643081 35.9906C0.654338 36.1098 0.665594 36.2291 0.679101 36.3442C0.692609 36.4593 0.706116 36.5724 0.721875 36.6855C0.737634 36.7965 0.751141 36.9055 0.769151 37.0144C0.78491 37.1213 0.80292 37.2282 0.82093 37.331C0.83894 37.4338 0.85695 37.5366 0.87496 37.6374C0.89297 37.7381 0.913231 37.8368 0.933493 37.9334C0.953754 38.03 0.974015 38.1267 0.996528 38.2212C1.01679 38.3158 1.0393 38.4083 1.06181 38.5008C1.08433 38.5933 1.10684 38.6838 1.12935 38.7722C1.15186 38.8627 1.17663 38.949 1.20139 39.0353C1.22615 39.1238 1.25092 39.208 1.27568 39.2923C1.30045 39.3766 1.32746 39.4609 1.35223 39.5411C1.37924 39.6233 1.404 39.7056 1.43102 39.7837C1.45803 39.8639 1.48505 39.944 1.51206 40.0201C1.53908 40.1003 1.56834 40.1764 1.59536 40.2504C1.62463 40.3285 1.65389 40.4025 1.68091 40.4765C1.71017 40.5526 1.73944 40.6266 1.76871 40.6965C1.80022 40.7705 1.82949 40.8404 1.85876 40.9103C1.89027 40.9823 1.92179 41.0522 1.95106 41.118C1.98483 41.1899 2.01634 41.2557 2.04561 41.3194C2.07938 41.3893 2.11315 41.4551 2.14241 41.5147C2.17843 41.5867 2.2122 41.6484 2.24147 41.7039C2.28424 41.782 2.31801 41.8416 2.34503 41.8848L2.36078 41.9115C2.3878 41.9588 2.41932 42.0082 2.45083 42.0575C2.4846 42.111 2.52062 42.1665 2.56115 42.222C2.59717 42.2734 2.63319 42.3268 2.67371 42.3803C2.70973 42.4296 2.75025 42.479 2.78852 42.5283C2.82679 42.5756 2.86506 42.6229 2.90559 42.6722C2.94386 42.7174 2.98438 42.7647 3.0249 42.81C3.06317 42.8531 3.10595 42.8984 3.14647 42.9415C3.18699 42.9847 3.22752 43.0279 3.27029 43.071C3.31081 43.1122 3.35359 43.1533 3.39636 43.1923C3.43688 43.2314 3.47966 43.2725 3.52243 43.3116C3.5652 43.3506 3.60798 43.3877 3.65075 43.4247C3.69352 43.4617 3.7363 43.4987 3.78132 43.5336C3.8241 43.5686 3.86912 43.6056 3.91415 43.6405C3.95692 43.6755 4.0042 43.7084 4.04922 43.7413C4.09425 43.7742 4.13702 43.8091 4.1843 43.842C4.22932 43.8728 4.2766 43.9016 4.32162 43.9325C4.36665 43.9633 4.41167 43.9941 4.45895 44.0229C4.50397 44.0517 4.55125 44.0805 4.59853 44.1072C4.6458 44.1339 4.69308 44.1607 4.74036 44.1874C4.78763 44.2141 4.83266 44.2429 4.88218 44.2676C4.92946 44.2922 4.97899 44.3149 5.02852 44.3375C5.07579 44.3621 5.12532 44.3848 5.17485 44.4074C5.22437 44.43 5.27165 44.4526 5.32118 44.4732C5.37071 44.4937 5.42023 44.5122 5.47201 44.5328C5.52154 44.5533 5.57107 44.5739 5.62285 44.5924C5.67237 44.6109 5.72415 44.6273 5.77593 44.6438C5.82771 44.6602 5.87949 44.6767 5.93127 44.6911C5.98305 44.7075 6.03257 44.724 6.0866 44.7384C6.13838 44.7528 6.19241 44.763 6.24419 44.7754C6.29597 44.7877 6.35 44.8 6.40403 44.8103C6.45806 44.8206 6.50984 44.835 6.56387 44.8453C6.6179 44.8556 6.67418 44.8597 6.72821 44.8679C6.78224 44.8761 6.83627 44.8843 6.89255 44.8905C6.94658 44.8967 7.00061 44.907 7.05689 44.9111C7.11317 44.9172 7.16945 44.9172 7.22574 44.9193C7.28202 44.9234 7.3383 44.9255 7.39458 44.9275C7.44411 44.9275 7.49138 44.9337 7.54316 44.9357H7.59944C7.64672 44.9357 7.69399 44.9337 7.74127 44.9316C7.7998 44.9316 7.85834 44.9316 7.91687 44.9275C7.9754 44.9255 8.03619 44.9193 8.09472 44.9131C8.15325 44.909 8.21403 44.9028 8.27257 44.8967C8.33335 44.8905 8.39413 44.8823 8.45492 44.8741C8.5157 44.8658 8.57649 44.8556 8.63952 44.8453C8.7003 44.835 8.76334 44.8247 8.82412 44.8124C8.88716 44.8 8.95019 44.7857 9.01323 44.7713C9.07626 44.7569 9.1393 44.7425 9.20459 44.726C9.26987 44.7096 9.3329 44.6911 9.39819 44.6726C9.46348 44.6541 9.52876 44.6315 9.59405 44.6109C9.65934 44.5883 9.72687 44.5677 9.79216 44.5451C9.8597 44.5204 9.92724 44.4937 9.99477 44.467C10.0623 44.4403 10.1321 44.4115 10.1996 44.3827C10.2694 44.3539 10.3392 44.3231 10.4068 44.2922C10.4788 44.2593 10.5486 44.2244 10.6184 44.1894C10.6904 44.1524 10.7624 44.1154 10.8345 44.0764C10.9065 44.0373 10.9808 43.9983 11.0529 43.9551C11.1272 43.9119 11.2014 43.8687 11.2757 43.8235C11.3523 43.7762 11.4288 43.7269 11.5054 43.6775C11.5819 43.6261 11.6607 43.5747 11.7372 43.5213C11.816 43.4658 11.8948 43.4103 11.9736 43.3527C12.0547 43.2931 12.1357 43.2335 12.2168 43.1697C12.3001 43.106 12.3833 43.0382 12.4666 42.9703C12.5522 42.9004 12.6377 42.8285 12.721 42.7565C12.8088 42.6825 12.8944 42.6044 12.9822 42.5262C13.0722 42.4461 13.1623 42.3618 13.2501 42.2775C13.3424 42.1891 13.4347 42.1007 13.527 42.0082C13.6215 41.9136 13.7161 41.817 13.8106 41.7162C13.9097 41.6134 14.0065 41.5086 14.1056 41.4017C14.2069 41.2907 14.3082 41.1755 14.4095 41.0583C14.4567 41.0028 14.5063 40.9453 14.5536 40.8898C14.6098 40.8219 14.6684 40.7561 14.7246 40.6862C14.835 40.5546 14.943 40.419 15.0533 40.2812C15.1681 40.1373 15.283 39.9893 15.3955 39.8371C15.5148 39.6788 15.6342 39.5164 15.7557 39.352C15.8818 39.1772 16.0079 39.0004 16.1339 38.8174C16.2668 38.6262 16.3996 38.4309 16.5324 38.2294C16.6742 38.0136 16.8183 37.7915 16.9601 37.5654C17.1132 37.3249 17.2663 37.0782 17.4171 36.8232C17.4306 36.8006 17.4464 36.7759 17.4599 36.7533C17.6108 36.5005 17.7571 36.2537 17.9057 36.0029C18.07 35.7274 18.2343 35.4499 18.3964 35.1785C18.5653 34.8927 18.7319 34.609 18.8962 34.3253C19.0651 34.0354 19.2362 33.7456 19.4027 33.4577C19.5761 33.1617 19.7472 32.8657 19.916 32.5737C20.0218 32.3907 20.1254 32.2098 20.2312 32.0289C20.2987 31.9117 20.3685 31.7925 20.4361 31.6753C20.6117 31.371 20.785 31.0688 20.9584 30.7666C21.134 30.4603 21.3096 30.1539 21.4829 29.8517C21.5347 29.7613 21.5865 29.6708 21.6382 29.5804C21.7643 29.3624 21.8859 29.1486 22.0097 28.9327C22.0952 28.7847 22.1808 28.6346 22.2641 28.4887C22.2776 28.5277 22.2933 28.5689 22.3069 28.61C22.3339 28.686 22.3631 28.7662 22.3902 28.8423C22.4172 28.9204 22.4442 28.9965 22.4734 29.0746C22.5005 29.1527 22.5275 29.2309 22.5567 29.309C22.5838 29.3871 22.6108 29.4652 22.6378 29.5454C22.6648 29.6235 22.6918 29.7016 22.7188 29.7818C22.7458 29.86 22.7729 29.9401 22.7999 30.0203C22.8269 30.0984 22.8539 30.1786 22.8809 30.2588C22.9079 30.3369 22.935 30.4171 22.962 30.4973C22.989 30.5754 23.016 30.6576 23.043 30.7378C23.07 30.818 23.097 30.8961 23.1241 30.9783C23.1308 31.003 23.1398 31.0256 23.1466 31.0483C23.1668 31.1058 23.1848 31.1613 23.2029 31.2189C23.2389 31.3258 23.2749 31.4327 23.3087 31.5396C23.3447 31.6465 23.3807 31.7555 23.4145 31.8603C23.4505 31.9693 23.4865 32.0721 23.5203 32.179C23.5563 32.2859 23.5923 32.3928 23.6261 32.4976C23.6621 32.6046 23.6981 32.7094 23.7341 32.8163C23.7702 32.9232 23.8062 33.0301 23.8422 33.135C23.8782 33.2419 23.9142 33.3467 23.9503 33.4516C23.9863 33.5585 24.0223 33.6633 24.0583 33.7682C24.0943 33.8751 24.1304 33.9799 24.1664 34.0827C24.2024 34.1876 24.2384 34.2924 24.2744 34.3973C24.3105 34.5021 24.3465 34.607 24.3848 34.7098C24.4208 34.8146 24.4591 34.9174 24.4951 35.0202C24.5311 35.1251 24.5694 35.2279 24.6054 35.3307C24.6437 35.4355 24.6797 35.5362 24.7157 35.637C24.754 35.7398 24.79 35.8426 24.8283 35.9433C24.8665 36.0461 24.9048 36.1468 24.9408 36.2455C24.9791 36.3463 25.0174 36.447 25.0556 36.5457C25.0714 36.5868 25.0871 36.6279 25.1029 36.669C25.1254 36.7266 25.1479 36.7862 25.1704 36.8438C25.2087 36.9445 25.2492 37.0411 25.2875 37.1378C25.3258 37.2365 25.3663 37.3351 25.4046 37.4297C25.4451 37.5284 25.4834 37.6209 25.5239 37.7155C25.5644 37.8121 25.6049 37.9067 25.6432 37.9992C25.6837 38.0917 25.7243 38.1842 25.7625 38.2747V38.2788C25.8053 38.3713 25.8458 38.4638 25.8886 38.5543C25.9314 38.6447 25.9719 38.7372 26.0147 38.8257C26.0574 38.9161 26.1002 39.0025 26.143 39.0888C26.1858 39.1772 26.2285 39.2636 26.2736 39.3478C26.3163 39.4342 26.3614 39.5185 26.4064 39.6007C26.4514 39.685 26.4964 39.7652 26.5415 39.8454C26.573 39.9029 26.6067 39.9626 26.6383 40.0201C26.6518 40.0427 26.6653 40.0653 26.6788 40.0859C26.7238 40.162 26.7688 40.2401 26.8184 40.3203C26.8634 40.3943 26.9129 40.4704 26.9624 40.5444C27.0097 40.6163 27.0592 40.6883 27.1088 40.7623C27.156 40.8322 27.2056 40.9021 27.2574 40.972C27.3069 41.0398 27.3564 41.1077 27.4104 41.1735C27.46 41.2372 27.514 41.3009 27.5658 41.3647C27.6176 41.4263 27.6693 41.4901 27.7234 41.5518C27.7751 41.6114 27.8314 41.6689 27.8855 41.7265C27.9395 41.7841 27.9935 41.8396 28.0498 41.8951C28.1038 41.9485 28.1601 42.002 28.2186 42.0554C28.2749 42.1068 28.3335 42.1562 28.3897 42.2055C28.446 42.2549 28.5045 42.3042 28.5631 42.3515C28.6216 42.3967 28.6824 42.4399 28.7409 42.4831C28.7995 42.5262 28.858 42.5715 28.921 42.6126C28.9818 42.6516 29.0448 42.6887 29.1056 42.7277C29.1664 42.7647 29.2272 42.8058 29.2925 42.8408C29.3533 42.8757 29.4208 42.9066 29.4838 42.9395C29.5469 42.9724 29.6099 43.0053 29.6752 43.0361C29.7382 43.0649 29.8058 43.0937 29.8733 43.1204C29.9386 43.1471 30.0039 43.1738 30.0714 43.2006C30.1367 43.2252 30.2042 43.2499 30.274 43.2725C30.3416 43.2951 30.4114 43.3157 30.4789 43.3342C30.5487 43.3548 30.614 43.3753 30.686 43.3938C30.7558 43.4103 30.8278 43.4226 30.8976 43.4391C30.9674 43.4534 31.0372 43.4719 31.1092 43.4843C31.179 43.4966 31.2533 43.5048 31.3276 43.5151C31.3997 43.5254 31.4717 43.5336 31.546 43.5418C31.6203 43.5501 31.6923 43.5583 31.7666 43.5645C31.8409 43.5706 31.9174 43.5706 31.9917 43.5727C32.066 43.5747 32.1403 43.5809 32.2169 43.5809C32.2371 43.5809 32.2574 43.583 32.2799 43.583C32.3384 43.583 32.3925 43.5768 32.4487 43.5768C32.5275 43.5768 32.6041 43.5727 32.6829 43.5686C32.7617 43.5645 32.8405 43.5624 32.917 43.5562C33.0003 43.5501 33.0768 43.5377 33.1579 43.5275C33.2389 43.5172 33.32 43.511 33.3988 43.4987C33.4843 43.4863 33.5654 43.4678 33.6464 43.4514C33.7297 43.4349 33.8152 43.4205 33.8963 43.4C33.9841 43.3794 34.0674 43.3548 34.1529 43.3301C34.2407 43.3054 34.3285 43.2828 34.4118 43.254C34.5041 43.2232 34.5919 43.1862 34.682 43.1512C34.7743 43.1142 34.8666 43.0772 34.9544 43.0382C35.0512 42.995 35.1457 42.9477 35.238 42.9004C35.3393 42.847 35.4361 42.7894 35.533 42.7318C35.6388 42.6681 35.7401 42.6003 35.8391 42.5324C35.9517 42.4543 36.0597 42.372 36.1633 42.2898C36.2849 42.1911 36.3997 42.0904 36.51 41.9876C36.6428 41.8622 36.7689 41.7327 36.8882 41.6031C37.0458 41.4284 37.1899 41.2475 37.3227 41.0686C37.5298 40.789 37.7099 40.5115 37.8697 40.2442C37.9013 40.1908 37.935 40.1373 37.9643 40.0859C38.0634 39.9132 38.1624 39.7302 38.2592 39.5411C38.4708 39.132 38.6779 38.6879 38.8851 38.2007C39.0764 37.7525 39.2678 37.2693 39.4636 36.7492C39.5942 36.4038 39.727 36.0399 39.8621 35.6596C40.3033 34.422 40.7761 32.9993 41.3232 31.3505L41.4222 31.0524C41.4627 30.929 41.5033 30.8118 41.5438 30.6905C41.8049 29.9134 42.0593 29.1795 42.3047 28.4948C42.3205 28.5236 42.3385 28.5524 42.3542 28.5812C42.3993 28.6593 42.4465 28.7416 42.4916 28.8217C42.5366 28.9019 42.5839 28.9821 42.6289 29.0623C42.6739 29.1424 42.7212 29.2226 42.7662 29.3028C42.8112 29.383 42.8563 29.4611 42.9035 29.5433C42.9125 29.5577 42.9216 29.5742 42.9283 29.5886C42.9643 29.6523 43.0026 29.7181 43.0409 29.7839C43.0859 29.8641 43.1332 29.9442 43.1782 30.0244C43.2232 30.1046 43.2705 30.1848 43.3155 30.265C43.3605 30.3451 43.4078 30.4253 43.4528 30.5055C43.4844 30.559 43.5159 30.6145 43.5451 30.6679C43.5767 30.7214 43.6059 30.7769 43.6374 30.8303C43.669 30.8838 43.6982 30.9372 43.7297 30.9927C43.7613 31.0462 43.7905 31.0996 43.822 31.1552C43.8536 31.2086 43.8828 31.2621 43.9144 31.3176C43.9459 31.371 43.9774 31.4265 44.0067 31.48C44.0382 31.5334 44.0697 31.5889 44.099 31.6424C44.1305 31.6959 44.162 31.7493 44.1913 31.8048C44.2228 31.8583 44.2543 31.9117 44.2836 31.9672L44.3263 32.0433C44.3421 32.0721 44.3601 32.1009 44.3759 32.1296C44.4074 32.1831 44.4389 32.2365 44.4682 32.2921C44.4997 32.3455 44.5312 32.399 44.5605 32.4545C44.592 32.5079 44.6235 32.5614 44.6528 32.6169C44.682 32.6724 44.7135 32.7238 44.7451 32.7793C44.7766 32.8328 44.8058 32.8862 44.8374 32.9417C44.8689 32.9972 44.8981 33.0486 44.9297 33.1041C44.9612 33.1576 44.9927 33.211 45.0242 33.2645C45.0557 33.3179 45.0872 33.3714 45.1188 33.4249C45.1503 33.4783 45.1818 33.5318 45.2133 33.5852C45.2448 33.6387 45.2764 33.6921 45.3079 33.7456C45.3394 33.799 45.3709 33.8525 45.4024 33.9059L45.497 34.0663C45.5285 34.1197 45.56 34.1732 45.5915 34.2266C45.6231 34.2801 45.6546 34.3335 45.6861 34.387C45.7176 34.4405 45.7491 34.4939 45.7806 34.5474C45.8122 34.6008 45.8437 34.6543 45.8752 34.7077C45.9067 34.7612 45.936 34.8146 45.9697 34.8681C46.0013 34.9215 46.0328 34.975 46.0643 35.0264C46.0958 35.0778 46.1273 35.1333 46.1588 35.1847C46.1904 35.2381 46.2219 35.2916 46.2534 35.343C46.2849 35.3944 46.3164 35.4499 46.348 35.5013C46.3795 35.5547 46.411 35.6082 46.4425 35.6596C46.474 35.711 46.5055 35.7644 46.5371 35.8179C46.5686 35.8713 46.6001 35.9227 46.6316 35.9762C46.6631 36.0297 46.6946 36.081 46.7262 36.1345C46.7577 36.188 46.7892 36.2394 46.8207 36.2928C46.8522 36.3463 46.8838 36.3977 46.9153 36.4511C46.9468 36.5046 46.9783 36.556 47.0098 36.6094C47.0413 36.6629 47.0706 36.7143 47.1044 36.7677C47.1359 36.8212 47.1674 36.8726 47.1989 36.926C47.2304 36.9795 47.262 37.0309 47.2935 37.0823C47.325 37.1337 47.3565 37.1871 47.388 37.2385C47.4195 37.2899 47.4511 37.3413 47.4848 37.3927C47.5163 37.4441 47.5501 37.4955 47.5816 37.5469C47.6132 37.5983 47.6469 37.6497 47.6784 37.7011C47.71 37.7525 47.7437 37.8018 47.7752 37.8532C47.8068 37.9046 47.8405 37.954 47.872 38.0033C47.9036 38.0526 47.9373 38.104 47.9689 38.1534C48.0026 38.2027 48.0341 38.2521 48.0679 38.3014C48.1017 38.3507 48.1332 38.4001 48.167 38.4474C48.2007 38.4967 48.2323 38.5461 48.266 38.5933C48.2998 38.6427 48.3313 38.692 48.3651 38.7393C48.3988 38.7886 48.4326 38.8339 48.4641 38.8832C48.4956 38.9326 48.5317 38.9798 48.5632 39.0271C48.597 39.0744 48.6307 39.1238 48.6645 39.171C48.6983 39.2183 48.732 39.2636 48.7658 39.3108C48.7996 39.3581 48.8333 39.4054 48.8671 39.4506C48.9009 39.4959 48.9346 39.5452 48.9684 39.5904C49.0022 39.6377 49.0359 39.6809 49.072 39.7261C49.1057 39.7714 49.1395 39.8186 49.1755 39.8618C49.2093 39.907 49.2453 39.9523 49.2791 39.9975C49.3128 40.0427 49.3489 40.0859 49.3826 40.1311C49.4164 40.1764 49.4524 40.2195 49.4862 40.2648C49.52 40.3079 49.556 40.3532 49.5898 40.3963C49.6258 40.4395 49.6595 40.4827 49.6956 40.5259C49.7316 40.569 49.7653 40.6122 49.8014 40.6554C49.8374 40.6986 49.8712 40.7417 49.9072 40.7828C49.9432 40.826 49.9792 40.8671 50.0152 40.9083C50.0513 40.9494 50.0873 40.9925 50.1233 41.0337C50.1593 41.0748 50.1953 41.1159 50.2314 41.157C50.2674 41.1981 50.3034 41.2372 50.3394 41.2783C50.3754 41.3194 50.4115 41.3606 50.4475 41.3996C50.4835 41.4407 50.5195 41.4798 50.5578 41.5189C50.5938 41.5579 50.6321 41.597 50.6681 41.636C50.7041 41.6751 50.7424 41.7162 50.7784 41.7532C50.8167 41.7923 50.8527 41.8293 50.8887 41.8684C50.927 41.9074 50.963 41.9444 51.0013 41.9814C51.0396 42.0184 51.0756 42.0575 51.1138 42.0945C51.1521 42.1315 51.1904 42.1665 51.2264 42.2035C51.2647 42.2405 51.303 42.2775 51.339 42.3124C51.3772 42.3494 51.4155 42.3844 51.4538 42.4193C51.4921 42.4543 51.5303 42.4892 51.5686 42.5242C51.6069 42.5591 51.6451 42.5941 51.6834 42.629C51.7217 42.664 51.76 42.6969 51.8005 42.7298C51.8387 42.7627 51.8793 42.7976 51.9175 42.8305C51.9558 42.8634 51.9963 42.8984 52.0346 42.9292C52.0751 42.9621 52.1134 42.9929 52.1539 43.0238C52.1944 43.0567 52.2327 43.0875 52.2732 43.1183C52.3138 43.1492 52.352 43.18 52.3926 43.2108C52.4331 43.2417 52.4736 43.2705 52.5141 43.3013C52.5546 43.3321 52.5952 43.363 52.6357 43.3918C52.6762 43.4205 52.7167 43.4493 52.7573 43.4781C52.7978 43.5069 52.8383 43.5357 52.8788 43.5645C52.9193 43.5932 52.9621 43.62 53.0026 43.6467C53.0432 43.6734 53.0859 43.7001 53.1265 43.7269C53.167 43.7536 53.2098 43.7824 53.2503 43.8071C53.2931 43.8338 53.3336 43.8564 53.3764 43.8831C53.4191 43.9098 53.4596 43.9345 53.5024 43.9571C53.5452 43.9818 53.588 44.0065 53.6307 44.0291C53.6735 44.0538 53.7163 44.0764 53.7591 44.099C53.8018 44.1216 53.8446 44.1463 53.8874 44.1668C53.9302 44.1894 53.9752 44.21 54.018 44.2306C54.0607 44.2511 54.1058 44.2737 54.1485 44.2943C54.1936 44.3149 54.2363 44.3334 54.2814 44.3539C54.3264 44.3745 54.3692 44.393 54.4142 44.4115C54.4592 44.43 54.5042 44.4485 54.5493 44.467C54.5943 44.4855 54.6393 44.5019 54.6843 44.5184C54.7294 44.5348 54.7744 44.5533 54.8194 44.5698C54.8644 44.5862 54.9117 44.6006 54.9567 44.615C55.0018 44.6294 55.049 44.6459 55.0941 44.6602C55.1413 44.6746 55.1886 44.687 55.2336 44.6993C55.2809 44.7116 55.3282 44.726 55.3732 44.7384C55.4205 44.7507 55.4678 44.761 55.515 44.7733C55.5623 44.7836 55.6096 44.7959 55.6569 44.8062C55.7041 44.8165 55.7537 44.8268 55.8009 44.835C55.8505 44.8432 55.8978 44.8535 55.9473 44.8617C55.9968 44.8699 56.0441 44.8782 56.0936 44.8843C56.1431 44.8905 56.1927 44.8967 56.2422 44.9028C56.2917 44.909 56.3413 44.9152 56.3908 44.9193C56.4403 44.9234 56.4921 44.9275 56.5416 44.9316C56.5911 44.9357 56.6429 44.9378 56.6924 44.9419C56.7442 44.944 56.796 44.944 56.8455 44.946C56.8838 44.946 56.9243 44.9481 56.9626 44.9481H57.0166C57.0639 44.9481 57.1089 44.9419 57.1562 44.9398C57.2102 44.9398 57.262 44.9357 57.3138 44.9316C57.3656 44.9275 57.4196 44.9275 57.4714 44.9234C57.5254 44.9193 57.5794 44.9111 57.6335 44.9049C57.6898 44.8987 57.7438 44.8905 57.7978 44.8823C57.8518 44.8741 57.9081 44.8699 57.9621 44.8597C58.0207 44.8494 58.0747 44.835 58.131 44.8247C58.1873 44.8124 58.2458 44.8 58.2998 44.7877C58.3561 44.7733 58.4146 44.763 58.4709 44.7466C58.5317 44.7301 58.588 44.7096 58.6465 44.6931C58.7051 44.6746 58.7658 44.6582 58.8221 44.6397C58.8829 44.6191 58.9437 44.5945 59.0022 44.5718C59.0743 44.5451 59.1486 44.5163 59.2183 44.4876C59.2949 44.4547 59.3669 44.4218 59.4412 44.3868C59.5155 44.3519 59.5943 44.3169 59.6663 44.2799C59.7474 44.2388 59.8239 44.1915 59.9005 44.1483C59.9815 44.101 60.0626 44.0538 60.1391 44.0024C60.2224 43.9489 60.3057 43.8955 60.3845 43.84C60.4723 43.7783 60.5578 43.7125 60.6411 43.6488C60.7334 43.5768 60.8235 43.5028 60.909 43.4267C61.0081 43.3404 61.1026 43.254 61.1927 43.1677C61.3008 43.0628 61.4021 42.96 61.4966 42.8552C61.6227 42.7154 61.7352 42.5776 61.8388 42.4419C61.9784 42.259 62.0977 42.0822 62.1922 41.9218C62.2148 41.8848 62.2463 41.8314 62.2845 41.7614C62.5164 41.3462 63.0162 40.3388 63.4169 38.8174C63.5115 38.4618 63.5993 38.0773 63.6758 37.6661C63.7253 37.4009 63.7704 37.1254 63.8109 36.8376C63.8424 36.6135 63.8717 36.3812 63.8942 36.1427C63.9145 35.9433 63.9325 35.7398 63.946 35.5321C63.9595 35.3492 63.9685 35.1662 63.9775 34.977C63.9842 34.8105 63.9887 34.6399 63.991 34.4672C63.991 34.3109 63.9932 34.1506 63.991 33.9902C63.991 33.8422 63.9865 33.6921 63.982 33.54L64 33.5297ZM14.432 33.3714C14.2699 33.6448 14.1056 33.9203 13.9412 34.1958C13.8174 34.4014 13.7003 34.6049 13.5743 34.8126C13.5337 34.8784 13.4955 34.94 13.4572 35.0058C13.3041 35.2587 13.1533 35.4992 13.0047 35.7316C12.8629 35.9536 12.7233 36.1653 12.586 36.3689C12.4531 36.5642 12.3248 36.7513 12.1965 36.9301C12.0727 37.1049 11.9489 37.2735 11.8295 37.4338C11.7125 37.5921 11.5954 37.7443 11.4828 37.8861C11.3703 38.028 11.2622 38.1595 11.1542 38.2891C11.0484 38.4165 10.9425 38.5378 10.8412 38.653C10.7399 38.7681 10.6386 38.8791 10.5418 38.9819C10.445 39.0847 10.3482 39.1854 10.2559 39.2779C10.1614 39.3725 10.0713 39.4589 9.98127 39.5411C9.89122 39.6254 9.80342 39.7035 9.71787 39.7775C9.63007 39.8536 9.54677 39.9235 9.46348 39.9893C9.38018 40.0571 9.29689 40.1188 9.21809 40.1764C9.13705 40.236 9.05825 40.2894 8.98171 40.3388C8.90292 40.3902 8.82638 40.4395 8.75433 40.4827C8.67779 40.5279 8.60575 40.567 8.53596 40.604C8.46167 40.643 8.38963 40.6759 8.32435 40.7047C8.25231 40.7356 8.18477 40.7623 8.12173 40.7849C8.04969 40.8096 7.98441 40.8301 7.92587 40.8445C7.85383 40.863 7.7908 40.8754 7.73902 40.8815C7.67824 40.8898 7.62871 40.8918 7.59494 40.8939H7.59044C7.59044 40.8939 7.57243 40.8939 7.56342 40.8939C7.50714 40.8939 7.45311 40.8856 7.39908 40.8754C7.34505 40.8651 7.29327 40.8507 7.24375 40.8322C7.19197 40.8137 7.14244 40.7931 7.09516 40.7705C7.04564 40.7458 6.99836 40.7191 6.95333 40.6903C6.90606 40.6595 6.86103 40.6287 6.81826 40.5937C6.77323 40.5588 6.72821 40.5218 6.68769 40.4847C6.64266 40.4436 6.59989 40.4025 6.56162 40.3635C6.51659 40.3162 6.47607 40.2709 6.44005 40.2298C6.39052 40.1702 6.35225 40.1209 6.32298 40.0839C6.29372 40.0448 6.27571 40.0181 6.27346 40.014L6.27796 40.0201L6.23969 39.9605C6.23969 39.9605 6.22618 39.9358 6.21267 39.9153C6.19016 39.8741 6.15414 39.8104 6.11137 39.7282C6.0821 39.6727 6.05058 39.6048 6.01456 39.5288C5.9853 39.4671 5.95378 39.3972 5.92226 39.3211C5.893 39.2533 5.86373 39.1834 5.83221 39.1052C5.80295 39.0353 5.77593 38.9593 5.74666 38.8812C5.71965 38.8071 5.69038 38.729 5.66337 38.6488C5.63635 38.5707 5.60934 38.4926 5.58232 38.4083C5.55756 38.3281 5.53054 38.2438 5.50578 38.1575C5.48102 38.0732 5.45625 37.9868 5.43374 37.8984C5.41123 37.8121 5.38646 37.7216 5.36395 37.6291C5.34144 37.5387 5.32118 37.4441 5.29867 37.3495C5.2784 37.255 5.25814 37.1583 5.23788 37.0596C5.21762 36.961 5.19961 36.8602 5.1816 36.7574C5.16359 36.6546 5.14783 36.5477 5.12982 36.4408C5.11406 36.3319 5.0983 36.2229 5.0848 36.1098C5.07129 35.9968 5.05778 35.8816 5.04427 35.7644C5.03302 35.6452 5.02176 35.5218 5.01276 35.3985C5.00375 35.2731 4.99475 35.1436 4.98799 35.012C4.98124 34.8784 4.97674 34.7427 4.97223 34.6029C4.96773 34.459 4.96773 34.313 4.96773 34.1629C4.96773 34.0087 4.96998 33.8525 4.97674 33.6921C4.98124 33.5235 4.99024 33.3529 5.0015 33.1781C5.01276 32.9931 5.02852 32.806 5.04653 32.6148C5.06679 32.4072 5.09155 32.1934 5.11857 31.9775C5.15008 31.7349 5.18835 31.4882 5.23113 31.2353C5.28291 30.9352 5.34369 30.6288 5.41123 30.3164C5.50803 29.8826 5.62059 29.4364 5.75342 28.9759C6.10236 27.7712 6.58638 26.4801 7.24375 25.1047C7.45987 24.6503 7.694 24.1878 7.95064 23.717C8.12173 23.3983 8.30408 23.0776 8.49544 22.7528C8.64627 22.4937 8.80611 22.2326 8.97045 21.9674C9.02674 21.877 9.08077 21.7886 9.1393 21.696C9.2271 21.5562 9.31715 21.4226 9.40495 21.289C9.53777 21.0875 9.67059 20.8922 9.80342 20.7031C9.92724 20.5283 10.0488 20.3577 10.1726 20.1932C10.2874 20.039 10.4022 19.8889 10.5193 19.743C10.6296 19.6052 10.7377 19.4716 10.8457 19.3441C10.9493 19.2208 11.0529 19.1015 11.1564 18.9864C11.2555 18.8754 11.3545 18.7664 11.4536 18.6636C11.5481 18.5649 11.6427 18.4704 11.7372 18.3779C11.8273 18.2894 11.9173 18.2072 12.0074 18.125C12.0952 18.0448 12.1807 17.9687 12.2685 17.8968C12.3541 17.8248 12.4374 17.7549 12.5207 17.6891C12.6017 17.6275 12.6805 17.5699 12.7616 17.5123C12.8404 17.4568 12.9169 17.4054 12.9957 17.3561C13.0722 17.3067 13.1488 17.2574 13.2231 17.2142C13.2951 17.1731 13.3671 17.1361 13.4392 17.0991C13.509 17.0641 13.581 17.0312 13.6508 17.0004C13.7206 16.9696 13.7881 16.9387 13.8557 16.9141C13.921 16.8894 13.9862 16.8729 14.0515 16.8544C14.1168 16.8359 14.1798 16.8174 14.2429 16.803C14.3059 16.7887 14.3667 16.7784 14.4275 16.7702C14.4883 16.7619 14.5468 16.7578 14.6076 16.7537C14.6661 16.7496 14.7246 16.7455 14.7832 16.7475C14.7877 16.7475 14.7944 16.7475 14.7989 16.7475C14.8485 16.7475 14.898 16.7599 14.9498 16.764C15.0038 16.7702 15.0601 16.7722 15.1141 16.7825C15.1659 16.7928 15.2199 16.8092 15.2717 16.8236C15.3235 16.838 15.3775 16.8483 15.4293 16.8647C15.4811 16.8812 15.5283 16.9038 15.5801 16.9223C15.6297 16.9428 15.6792 16.9593 15.7287 16.9819C15.7782 17.0045 15.8255 17.0292 15.8728 17.0559C15.9201 17.0806 15.9696 17.1053 16.0169 17.132C16.0641 17.1587 16.1092 17.1875 16.1564 17.2183C16.2037 17.2471 16.2487 17.278 16.2938 17.3088C16.3388 17.3396 16.3838 17.3725 16.4288 17.4054C16.4739 17.4383 16.5189 17.4733 16.5617 17.5082C16.6067 17.5432 16.6495 17.5781 16.6922 17.6151C16.735 17.6521 16.7778 17.6912 16.8206 17.7282C16.8633 17.7673 16.9061 17.8043 16.9489 17.8433C16.9917 17.8844 17.0322 17.9256 17.075 17.9667C17.1177 18.0078 17.1582 18.0489 17.1988 18.0921C17.2415 18.1353 17.2798 18.1805 17.3203 18.2237C17.3609 18.2689 17.4014 18.3121 17.4419 18.3573C17.4824 18.4046 17.5207 18.4498 17.5612 18.4971C17.6017 18.5444 17.64 18.5917 17.6783 18.6389C17.7188 18.6883 17.7571 18.7376 17.7954 18.787C17.8359 18.8384 17.8719 18.8877 17.9102 18.9391C17.9484 18.9905 17.9867 19.044 18.0227 19.0933C18.061 19.1488 18.097 19.2023 18.133 19.2537C18.1713 19.3112 18.2073 19.3647 18.2434 19.4181C18.2816 19.4757 18.3176 19.5333 18.3514 19.5867C18.3897 19.6484 18.4257 19.708 18.4572 19.7635C18.4932 19.8252 18.5225 19.8807 18.5495 19.9321L18.5585 19.9485L18.6261 20.0698C18.6261 20.0698 18.6396 20.0925 18.6598 20.1295C18.6823 20.1685 18.7184 20.2302 18.7634 20.3104C18.7927 20.3638 18.8264 20.4255 18.8647 20.4954C18.8962 20.553 18.9277 20.6146 18.966 20.6845C18.9975 20.7442 19.0313 20.8079 19.0651 20.8757C19.0966 20.9354 19.1303 21.0012 19.1641 21.069C19.1956 21.1307 19.2271 21.1965 19.2609 21.2643C19.2924 21.326 19.324 21.3938 19.3577 21.4617C19.3892 21.5254 19.4208 21.5912 19.4545 21.659C19.486 21.7248 19.5176 21.7906 19.5513 21.8585C19.5828 21.9222 19.6144 21.9921 19.6459 22.0599C19.6774 22.1257 19.7089 22.1936 19.7404 22.2635C19.7719 22.3293 19.8035 22.3992 19.835 22.467C19.8665 22.5348 19.898 22.6027 19.9295 22.6726C19.9611 22.7404 19.9903 22.8083 20.0218 22.8782C20.0511 22.946 20.0826 23.0159 20.1141 23.0858C20.1457 23.1557 20.1749 23.2236 20.2064 23.2955C20.2132 23.314 20.2222 23.3305 20.229 23.3469C20.1884 23.4168 20.1457 23.4908 20.1029 23.5628C19.9363 23.8486 19.7674 24.1364 19.5964 24.4304C19.4253 24.7223 19.2542 25.0204 19.0808 25.3226C18.9097 25.6207 18.7341 25.9229 18.5585 26.2293C18.3852 26.5294 18.2096 26.8357 18.034 27.1441C17.9237 27.3353 17.8179 27.5224 17.7053 27.7157C17.64 27.8287 17.5725 27.9459 17.5072 28.0611C17.3338 28.3653 17.1582 28.6696 16.9827 28.9759C16.8093 29.2761 16.636 29.5783 16.4604 29.8826C16.2893 30.1807 16.1159 30.4808 15.9426 30.781C15.7737 31.0729 15.6026 31.3669 15.4315 31.663C15.2649 31.9508 15.0961 32.2386 14.925 32.5305C14.7607 32.8122 14.5941 33.0939 14.4275 33.3776L14.432 33.3714ZM27.9237 31.4841C27.8877 31.3792 27.8517 31.2723 27.8157 31.1654C27.7796 31.0606 27.7436 30.9537 27.7099 30.8468C27.6738 30.7399 27.6401 30.635 27.604 30.5281C27.568 30.4233 27.532 30.3143 27.4982 30.2074C27.4622 30.1005 27.4284 29.9956 27.3924 29.8867L27.3879 29.8764C27.3519 29.7715 27.3181 29.6708 27.2844 29.568C27.2484 29.4611 27.2123 29.3542 27.1763 29.2494C27.1403 29.1445 27.1043 29.0355 27.0683 28.9307C27.0322 28.8238 26.9962 28.721 26.9602 28.6161C26.9242 28.5113 26.8881 28.4044 26.8521 28.3016C26.8161 28.1967 26.7801 28.0919 26.7441 27.9891C26.708 27.8842 26.6698 27.7815 26.6338 27.6787C26.5977 27.5759 26.5595 27.469 26.5234 27.3682C26.4852 27.2634 26.4492 27.1626 26.4131 27.0598C26.3749 26.957 26.3388 26.8543 26.3006 26.7535C26.2646 26.6507 26.2263 26.5459 26.188 26.4472C26.1497 26.3444 26.1137 26.2457 26.0754 26.1429C26.0372 26.0422 25.9989 25.9394 25.9629 25.8407C25.9246 25.74 25.8863 25.6392 25.8503 25.5385C25.8121 25.4377 25.7738 25.3391 25.7355 25.2383C25.6972 25.1396 25.659 25.0369 25.6207 24.9382C25.5914 24.8621 25.5622 24.7901 25.5329 24.7161C25.5036 24.6421 25.4744 24.5661 25.4451 24.4941C25.4158 24.4201 25.3866 24.344 25.3573 24.2721C25.328 24.196 25.2988 24.1261 25.2695 24.0521C25.2402 23.9781 25.211 23.9041 25.1817 23.8321C25.1569 23.7684 25.1299 23.7005 25.1029 23.6368C25.2425 23.4065 25.3798 23.1824 25.5171 22.9604C25.668 22.7137 25.8188 22.4732 25.9674 22.2367C26.1137 22.0044 26.2578 21.7783 26.4019 21.5542C26.5415 21.3363 26.681 21.1245 26.8206 20.9148C26.9557 20.7113 27.0885 20.5139 27.2213 20.3186C27.3497 20.1295 27.478 19.9465 27.6063 19.7656C27.7706 19.5353 27.9327 19.3112 28.0948 19.0954C28.1263 19.0522 28.1601 19.0049 28.1939 18.9638C28.3177 18.7993 28.4393 18.6431 28.5563 18.495C28.7049 18.3059 28.8512 18.1291 28.9908 17.9626C29.1326 17.796 29.2677 17.6398 29.4005 17.4938C29.5356 17.3458 29.6639 17.2101 29.7878 17.0826C29.9138 16.9531 30.0376 16.8339 30.1547 16.7249C30.2763 16.6118 30.3911 16.5111 30.5014 16.4186C30.6162 16.322 30.7265 16.2356 30.8301 16.1596C30.9404 16.0794 31.044 16.0074 31.1408 15.9457C31.2443 15.88 31.3434 15.8244 31.4357 15.7772C31.5347 15.7258 31.627 15.6846 31.7126 15.6518C31.8071 15.6147 31.8949 15.588 31.9737 15.5695C32.066 15.549 32.1471 15.5366 32.2169 15.5325C32.2371 15.5325 32.2596 15.5325 32.2776 15.5325C32.3272 15.5325 32.3812 15.5366 32.442 15.5448C32.5073 15.5531 32.5771 15.5675 32.6536 15.5901C32.7166 15.6086 32.7842 15.6312 32.8562 15.6579C32.9193 15.6826 32.9845 15.7114 33.0521 15.7443C33.1129 15.773 33.1759 15.8059 33.2434 15.845C33.3042 15.8779 33.365 15.9149 33.4303 15.956C33.4888 15.993 33.5496 16.0341 33.6126 16.0773C33.6712 16.1184 33.7297 16.1616 33.7927 16.2068C33.849 16.25 33.9098 16.2973 33.9683 16.3446C34.0246 16.3898 34.0831 16.4392 34.1417 16.4906C34.198 16.5378 34.2542 16.5892 34.3128 16.6427C34.369 16.692 34.4253 16.7455 34.4816 16.7989C34.5356 16.8503 34.5919 16.9058 34.6482 16.9613C34.7022 17.0148 34.7585 17.0703 34.8125 17.1279C34.8666 17.1834 34.9206 17.2409 34.9769 17.2985C35.0309 17.3561 35.0849 17.4136 35.139 17.4733C35.1908 17.5308 35.2448 17.5904 35.2988 17.6521C35.3506 17.7117 35.4046 17.7734 35.4587 17.8351C35.5104 17.8947 35.5645 17.9584 35.6162 18.0222C35.668 18.0839 35.7198 18.1455 35.7738 18.2113C35.8256 18.273 35.8774 18.3388 35.9292 18.4046C35.9809 18.4683 36.0305 18.5341 36.0845 18.5999C36.134 18.6636 36.1858 18.7315 36.2376 18.7973C36.2804 18.8528 36.3209 18.9062 36.3637 18.9617C36.3727 18.9741 36.3817 18.9864 36.3907 18.9967C36.4402 19.0625 36.492 19.1324 36.5415 19.2002C36.591 19.268 36.6428 19.3359 36.6923 19.4037C36.7419 19.4716 36.7914 19.5415 36.8409 19.6114C36.8905 19.6813 36.94 19.7512 36.9895 19.8211C37.039 19.891 37.0886 19.9609 37.1381 20.0308C37.1876 20.1007 37.2371 20.1726 37.2844 20.2446C37.334 20.3165 37.3835 20.3864 37.4308 20.4584C37.4803 20.5304 37.5276 20.6023 37.5771 20.6743C37.6244 20.7462 37.6739 20.8202 37.7234 20.8922C37.7729 20.9662 37.8202 21.0361 37.8697 21.1101C37.917 21.1821 37.9665 21.2581 38.0138 21.3322C38.0611 21.4062 38.1106 21.4802 38.1579 21.5542C38.2052 21.6282 38.2547 21.7022 38.302 21.7762C38.3493 21.8502 38.3965 21.9263 38.4461 22.0024C38.4933 22.0784 38.5406 22.1524 38.5879 22.2285C38.6352 22.3046 38.6824 22.3786 38.7297 22.4547C38.777 22.5307 38.8243 22.6068 38.8716 22.6829C38.9188 22.7589 38.9661 22.8329 39.0134 22.9111C39.0607 22.9871 39.1079 23.0653 39.1552 23.1413C39.2025 23.2174 39.2498 23.2955 39.297 23.3716C39.3443 23.4497 39.3916 23.5237 39.4389 23.6018C39.4434 23.6101 39.4501 23.6203 39.4546 23.6286C38.7815 25.2856 38.0093 27.3497 37.1719 29.8702L37.0728 30.1683C36.9242 30.6186 36.7801 31.0524 36.6383 31.4718C35.6365 34.4713 34.8598 36.6958 34.1034 38.0629C34.0786 38.1061 34.0561 38.1534 34.0314 38.1945C33.8535 38.5029 33.6937 38.7372 33.5451 38.9202C33.4123 39.0826 33.2885 39.2039 33.1736 39.2923C33.0723 39.3684 32.9755 39.4198 32.881 39.4568C32.7954 39.4897 32.7099 39.5082 32.6266 39.5205C32.5478 39.5308 32.469 39.5349 32.3902 39.537C32.3519 39.537 32.3137 39.537 32.2731 39.537C32.2371 39.537 32.1988 39.537 32.1606 39.537C32.0885 39.537 32.0165 39.5308 31.94 39.5164C31.8747 39.5041 31.8049 39.4835 31.7351 39.4548C31.6743 39.4301 31.6113 39.3972 31.5437 39.354C31.4875 39.317 31.4267 39.2718 31.3659 39.2183C31.3119 39.171 31.2556 39.1176 31.1993 39.0559C31.1475 39.0004 31.0957 38.9387 31.0417 38.8709C30.9922 38.8092 30.9426 38.7414 30.8909 38.6694C30.8436 38.6016 30.7941 38.5296 30.7445 38.4535C30.6995 38.3816 30.6522 38.3055 30.6027 38.2253C30.5847 38.1945 30.5667 38.1657 30.5464 38.1328C30.5194 38.0855 30.4924 38.0341 30.4654 37.9848C30.4204 37.9046 30.3753 37.8224 30.3303 37.736C30.2875 37.6517 30.2425 37.5695 30.1997 37.4811C30.157 37.3968 30.1142 37.3064 30.0714 37.2159C30.0309 37.1275 29.9881 37.037 29.9453 36.9445C29.9048 36.8541 29.8643 36.7636 29.8215 36.669C29.781 36.5765 29.7405 36.4819 29.7 36.3874C29.6594 36.2949 29.6212 36.1982 29.5806 36.0996C29.5424 36.0029 29.5019 35.9084 29.4636 35.8097C29.4253 35.713 29.387 35.6144 29.3465 35.5136C29.3082 35.4149 29.27 35.3163 29.2317 35.2155C29.1934 35.1168 29.1552 35.0161 29.1169 34.9154C29.0786 34.8167 29.0426 34.7139 29.0043 34.6111C28.9661 34.5104 28.93 34.4096 28.8918 34.3068C28.8557 34.2061 28.8175 34.1012 28.7815 33.9984C28.7454 33.8956 28.7072 33.7949 28.6711 33.6901C28.6351 33.5873 28.5991 33.4824 28.5608 33.3776C28.5248 33.2748 28.4888 33.1699 28.4505 33.0651C28.4145 32.9623 28.3785 32.8554 28.3425 32.7505C28.3064 32.6457 28.2704 32.5408 28.2344 32.436C28.1984 32.3311 28.1624 32.2263 28.1263 32.1194C28.0903 32.0145 28.0543 31.9097 28.0183 31.8028C27.9823 31.6979 27.9462 31.591 27.9102 31.4841H27.9237ZM50.6006 34.1465C50.569 34.093 50.5375 34.0416 50.506 33.9882C50.4745 33.9347 50.443 33.8833 50.4115 33.8299C50.3799 33.7764 50.3484 33.723 50.3169 33.6716C50.2854 33.6181 50.2539 33.5646 50.2224 33.5133C50.1908 33.4598 50.1593 33.4063 50.1278 33.355C50.0963 33.3015 50.0648 33.248 50.0332 33.1966C50.0017 33.1432 49.9702 33.0897 49.9387 33.0383C49.9072 32.9849 49.8757 32.9314 49.8441 32.878C49.8126 32.8245 49.7811 32.7711 49.7496 32.7176C49.7181 32.6642 49.6866 32.6107 49.655 32.5573C49.6235 32.5038 49.592 32.4504 49.5605 32.3969C49.529 32.3435 49.4975 32.29 49.4659 32.2366C49.4344 32.1831 49.4029 32.1296 49.3714 32.0762C49.3399 32.0227 49.3083 31.9693 49.2768 31.9158C49.2453 31.8624 49.2138 31.8089 49.1823 31.7555C49.1508 31.702 49.1192 31.6486 49.0877 31.5951C49.0562 31.5417 49.0247 31.4882 48.9932 31.4348C48.9617 31.3813 48.9301 31.3278 48.8986 31.2744C48.8671 31.2209 48.8356 31.1675 48.8041 31.114C48.7725 31.0606 48.7433 31.0071 48.7118 30.9516C48.6802 30.8982 48.6487 30.8447 48.6195 30.7892C48.5879 30.7358 48.5564 30.6823 48.5272 30.6268C48.4956 30.5733 48.4641 30.5199 48.4349 30.4644C48.4033 30.4109 48.3718 30.3575 48.3426 30.302C48.311 30.2485 48.2795 30.1951 48.2503 30.1396C48.221 30.084 48.1872 30.0326 48.158 29.9771C48.1264 29.9237 48.0949 29.8682 48.0657 29.8147C48.0341 29.7613 48.0026 29.7058 47.9734 29.6523C47.9418 29.5989 47.9103 29.5433 47.8811 29.4899C47.8495 29.4364 47.818 29.383 47.7887 29.3275C47.7572 29.272 47.728 29.2206 47.6965 29.1651C47.6649 29.1116 47.6357 29.0582 47.6041 29.0026C47.5726 28.9492 47.5411 28.8937 47.5118 28.8402C47.4803 28.7868 47.4488 28.7313 47.4195 28.6778C47.388 28.6244 47.3565 28.5689 47.3272 28.5154C47.2957 28.462 47.2642 28.4064 47.2349 28.353C47.2034 28.2995 47.1719 28.244 47.1426 28.1906C47.1111 28.1371 47.0796 28.0816 47.0503 28.0282C47.0211 27.9747 46.9873 27.9192 46.958 27.8657C46.9265 27.8123 46.895 27.7568 46.8657 27.7033C46.8342 27.6478 46.805 27.5964 46.7734 27.5409C46.7419 27.4854 46.7127 27.434 46.6811 27.3785C46.6496 27.325 46.6181 27.2695 46.5888 27.2161C46.5573 27.1626 46.5258 27.1071 46.4965 27.0537C46.4673 27.0002 46.4335 26.9447 46.4042 26.8913L46.3119 26.7288C46.2804 26.6754 46.2489 26.6199 46.2196 26.5664C46.1881 26.5109 46.1588 26.4595 46.1273 26.404C46.0958 26.3485 46.0643 26.2971 46.035 26.2416C46.0058 26.1861 45.972 26.1347 45.9427 26.0792C45.9135 26.0237 45.8797 25.9702 45.8504 25.9168C45.8189 25.8633 45.7874 25.8078 45.7581 25.7544C45.7289 25.7009 45.6951 25.6454 45.6658 25.5919C45.6343 25.5385 45.6028 25.483 45.5735 25.4295C45.542 25.374 45.5105 25.3226 45.4812 25.2692C45.4339 25.189 45.3889 25.1109 45.3439 25.0307C45.2989 24.9505 45.2516 24.8724 45.2066 24.7922C45.1615 24.712 45.1143 24.6318 45.0692 24.5537C45.0242 24.4756 44.9769 24.3934 44.9319 24.3152C44.8846 24.2351 44.8396 24.1569 44.7946 24.0788C44.7473 23.9986 44.7023 23.9205 44.6573 23.8424C44.6122 23.7643 44.565 23.6841 44.5177 23.606C44.4704 23.5278 44.4254 23.4477 44.3804 23.3695C44.3736 23.3572 44.3669 23.3449 44.3601 23.3346C44.4501 23.131 44.5334 22.9419 44.6167 22.7589C45.1098 21.6652 45.488 20.9251 45.7154 20.5016C45.8707 20.2096 45.9585 20.0678 45.9607 20.0616L46.0373 19.9239C46.1161 19.7697 46.2399 19.56 46.3975 19.3215C46.5348 19.1159 46.6991 18.8877 46.8838 18.6554C47.0121 18.495 47.1516 18.3326 47.3002 18.1723C47.4195 18.0427 47.5456 17.9132 47.6762 17.7919C47.7865 17.6891 47.9013 17.5925 48.0184 17.4979C48.1219 17.4157 48.23 17.3376 48.3381 17.2636C48.4371 17.1978 48.5362 17.1361 48.6375 17.0806C48.7028 17.0456 48.7658 17.0066 48.8333 16.9757C48.8941 16.947 48.9549 16.9264 49.0179 16.9017C49.0787 16.8791 49.1373 16.8544 49.198 16.8359C49.2543 16.8174 49.3129 16.803 49.3714 16.7907C49.4277 16.7784 49.4839 16.766 49.5402 16.7578C49.5943 16.7496 49.6483 16.7434 49.7023 16.7393C49.7316 16.7373 49.7608 16.7311 49.7901 16.729C49.8126 16.729 49.8374 16.7311 49.8599 16.7311C49.9094 16.7311 49.9612 16.7311 50.013 16.7373C50.0625 16.7414 50.112 16.7455 50.1616 16.7537C50.2088 16.7599 50.2584 16.7702 50.3079 16.7784C50.3552 16.7887 50.4025 16.7969 50.452 16.8113C50.497 16.8236 50.5443 16.838 50.5916 16.8524C50.6388 16.8668 50.6839 16.8791 50.7311 16.8956C50.7762 16.912 50.8212 16.9326 50.864 16.9511C50.909 16.9696 50.9518 16.986 50.9968 17.0066C51.0396 17.0271 51.0846 17.0477 51.1274 17.0703C51.1701 17.0909 51.2129 17.1155 51.2557 17.1382C51.2985 17.1608 51.3412 17.1813 51.384 17.206C51.4245 17.2307 51.4673 17.2595 51.5078 17.2841C51.5483 17.3108 51.5911 17.3355 51.6316 17.3622C51.6722 17.389 51.7149 17.4157 51.7555 17.4445C51.796 17.4712 51.8365 17.5041 51.877 17.5329C51.9175 17.5617 51.9581 17.5904 51.9986 17.6213C52.0391 17.6521 52.0774 17.6809 52.1179 17.7138C52.1562 17.7446 52.1967 17.7796 52.235 17.8104C52.2732 17.8433 52.3138 17.8742 52.352 17.9071C52.3903 17.9399 52.4308 17.9728 52.4691 18.0078C52.5074 18.0407 52.5456 18.0777 52.5839 18.1126C52.6222 18.1476 52.6605 18.1825 52.6987 18.2175C52.737 18.2524 52.7753 18.2874 52.8135 18.3244C52.8496 18.3593 52.8878 18.4005 52.9261 18.4375C52.9644 18.4745 53.0004 18.5115 53.0387 18.5505C53.0769 18.5896 53.113 18.6246 53.1512 18.6636C53.1872 18.7027 53.2233 18.7438 53.2615 18.7829C53.2976 18.8219 53.3336 18.863 53.3718 18.9021C53.4101 18.9412 53.4439 18.9802 53.4822 19.0213C53.5182 19.0625 53.5542 19.1015 53.5902 19.1447C53.6262 19.1858 53.6623 19.229 53.696 19.2701C53.7321 19.3112 53.7681 19.3544 53.8018 19.3955C53.8379 19.4387 53.8739 19.4777 53.9076 19.5209C53.9414 19.5641 53.9774 19.6093 54.0135 19.6525C54.0472 19.6957 54.0832 19.7409 54.117 19.7861C54.1508 19.8314 54.1868 19.8745 54.2206 19.9177C54.2543 19.9629 54.2904 20.0061 54.3241 20.0513C54.3579 20.0966 54.3917 20.1439 54.4254 20.1891C54.4592 20.2343 54.493 20.2816 54.5267 20.3268C54.5605 20.3741 54.5943 20.4173 54.628 20.4646C54.6618 20.5119 54.6956 20.5591 54.7294 20.6064C54.7631 20.6537 54.7969 20.7031 54.8284 20.7503C54.8599 20.7976 54.8959 20.847 54.9275 20.8942C54.959 20.9415 54.995 20.9888 55.0265 21.0382C55.0603 21.0875 55.0918 21.1368 55.1256 21.1862C55.1571 21.2355 55.1909 21.2869 55.2224 21.3363C55.2539 21.3856 55.2877 21.4349 55.3192 21.4863C55.3507 21.5377 55.3845 21.585 55.416 21.6364C55.4227 21.6467 55.4295 21.657 55.4362 21.6693C55.461 21.7104 55.4858 21.7495 55.5128 21.7906C55.5443 21.842 55.5758 21.8934 55.6096 21.9448C55.6411 21.9962 55.6749 22.0476 55.7064 22.099C55.7379 22.1504 55.7694 22.2038 55.8009 22.2552C55.8325 22.3087 55.864 22.3601 55.8955 22.4135C55.927 22.467 55.9585 22.5184 55.9901 22.5718C56.0216 22.6253 56.0531 22.6788 56.0846 22.7302C56.1161 22.7836 56.1476 22.8371 56.1769 22.8926C56.2084 22.946 56.2399 23.0015 56.2692 23.055C56.3007 23.1084 56.3322 23.1639 56.3615 23.2174C56.393 23.2729 56.4223 23.3284 56.4538 23.3839C56.4853 23.4394 56.5146 23.4949 56.5461 23.5504C56.5754 23.606 56.6069 23.6615 56.6384 23.717C56.6699 23.7745 56.6992 23.83 56.7285 23.8876C56.7577 23.9452 56.7892 24.0007 56.8185 24.0583C56.8478 24.1158 56.8793 24.1713 56.9086 24.2289C56.9378 24.2865 56.9671 24.344 56.9964 24.4036C57.0256 24.4612 57.0549 24.5208 57.0842 24.5784C57.1134 24.638 57.1427 24.6956 57.172 24.7552C57.2012 24.8148 57.2305 24.8744 57.2575 24.9341C57.2868 24.9937 57.316 25.0533 57.3431 25.1129C57.3723 25.1746 57.3993 25.2342 57.4286 25.2959C57.4579 25.3576 57.4849 25.4192 57.5142 25.4789C57.5434 25.5405 57.5704 25.6022 57.5997 25.6618C57.629 25.7256 57.6537 25.7872 57.683 25.851C57.71 25.9147 57.7393 25.9764 57.7663 26.0401C57.7933 26.1039 57.8203 26.1676 57.8473 26.2313C57.8744 26.2971 57.9014 26.3608 57.9284 26.4246C57.9554 26.4904 57.9824 26.5541 58.0094 26.6199C58.0364 26.6857 58.0612 26.7535 58.0882 26.8193C58.1152 26.8851 58.1423 26.9529 58.167 27.0187C58.194 27.0866 58.2188 27.1544 58.2436 27.2223C58.2683 27.2901 58.2953 27.36 58.3201 27.4278C58.3449 27.4977 58.3696 27.5676 58.3944 27.6375C58.4192 27.7074 58.4439 27.7794 58.4687 27.8472C58.4934 27.9192 58.5182 27.9912 58.5407 28.0631C58.5655 28.1351 58.5902 28.2091 58.6128 28.279C58.6375 28.353 58.66 28.427 58.6825 28.501C58.7051 28.575 58.7298 28.6511 58.7523 28.7251C58.7748 28.8012 58.7974 28.8772 58.8199 28.9554C58.8424 29.0314 58.8649 29.1096 58.8874 29.1856C58.9099 29.2658 58.9302 29.3439 58.9504 29.4241C58.9707 29.5043 58.9932 29.5845 59.0135 29.6646C59.0337 29.7469 59.054 29.8291 59.0743 29.9113C59.0945 29.9956 59.1148 30.0799 59.1328 30.1622C59.1531 30.2465 59.1711 30.3328 59.1891 30.4171C59.2071 30.5055 59.2251 30.5918 59.2431 30.6802C59.2611 30.7707 59.2791 30.8591 59.2949 30.9496C59.3129 31.0421 59.3287 31.1325 59.3444 31.2251C59.3602 31.3196 59.3759 31.4142 59.3917 31.5088C59.4074 31.6074 59.421 31.7041 59.4345 31.8007C59.448 31.9014 59.4615 32.0022 59.475 32.1009C59.4885 32.2057 59.4997 32.3085 59.511 32.4113C59.5223 32.5203 59.5335 32.6272 59.5425 32.7341C59.5515 32.8471 59.5605 32.9582 59.5695 33.0692C59.5785 33.1884 59.5853 33.3036 59.5898 33.4207C59.5966 33.5461 59.6011 33.6674 59.6033 33.7887C59.6078 33.9203 59.6078 34.0498 59.6101 34.1773C59.6101 34.3171 59.6101 34.4548 59.6056 34.5905C59.6011 34.7447 59.5966 34.8927 59.5876 35.0408C59.5785 35.2094 59.5673 35.3718 59.5538 35.5321C59.538 35.7233 59.5178 35.9084 59.4953 36.0872C59.466 36.3154 59.4345 36.5333 59.3984 36.743C59.3444 37.0596 59.2814 37.3536 59.2138 37.625C58.8649 39.0477 58.4034 39.8454 58.3494 39.9338L58.3088 40.0037C58.3088 40.0037 58.2998 40.016 58.2886 40.0325C58.2481 40.088 58.149 40.2236 58.0027 40.3737C57.9329 40.4436 57.8541 40.5156 57.7663 40.5834C57.701 40.6348 57.6312 40.6801 57.5569 40.7232C57.4961 40.7582 57.4331 40.789 57.3656 40.8137C57.3093 40.8363 57.2508 40.8528 57.19 40.8651C57.1359 40.8754 57.0819 40.8836 57.0256 40.8856C57.0166 40.8856 57.0076 40.8877 56.9964 40.8877H56.9896C56.9603 40.8877 56.9198 40.8856 56.8725 40.8795C56.8298 40.8754 56.7825 40.8671 56.7262 40.8548C56.6834 40.8466 56.6362 40.8343 56.5844 40.8199C56.5416 40.8075 56.4943 40.7931 56.4471 40.7746C56.4043 40.7602 56.3593 40.7417 56.312 40.7232C56.2692 40.7068 56.2242 40.6862 56.1792 40.6657C56.1364 40.6472 56.0936 40.6246 56.0486 40.6019C56.0058 40.5814 55.963 40.5567 55.9203 40.5341C55.8797 40.5115 55.837 40.4868 55.7942 40.4601C55.7537 40.4354 55.7109 40.4107 55.6681 40.382C55.6276 40.3573 55.5871 40.3285 55.5443 40.2997C55.5038 40.273 55.4633 40.2442 55.4227 40.2134C55.3822 40.1846 55.3417 40.1558 55.3012 40.125C55.2607 40.0962 55.2224 40.0653 55.1819 40.0325C55.1436 40.0016 55.1031 39.9708 55.0625 39.9379C55.0243 39.907 54.9837 39.8742 54.9455 39.8413C54.9072 39.8084 54.8689 39.7734 54.8284 39.7405C54.7901 39.7076 54.7519 39.6727 54.7113 39.6377C54.6731 39.6028 54.6348 39.5678 54.5965 39.5329C54.5583 39.4979 54.52 39.4609 54.4817 39.426C54.4434 39.391 54.4074 39.354 54.3692 39.315C54.3331 39.2779 54.2949 39.2409 54.2566 39.2019C54.2206 39.1649 54.1823 39.1258 54.1463 39.0867C54.1103 39.0497 54.072 39.0107 54.036 38.9696C53.9999 38.9305 53.9639 38.8914 53.9257 38.8503C53.8896 38.8113 53.8536 38.7722 53.8153 38.7311C53.7793 38.692 53.7433 38.6488 53.7073 38.6077C53.6713 38.5666 53.6353 38.5275 53.5992 38.4844C53.5632 38.4433 53.5272 38.4001 53.4934 38.3569C53.4597 38.3137 53.4236 38.2726 53.3876 38.2294C53.3516 38.1883 53.3178 38.1431 53.2818 38.0999C53.248 38.0568 53.212 38.0136 53.176 37.9683C53.14 37.9252 53.1062 37.882 53.0702 37.8368C53.0364 37.7936 53.0004 37.7463 52.9666 37.7031C52.9329 37.6579 52.8968 37.6147 52.8631 37.5695C52.8293 37.5243 52.7955 37.479 52.7595 37.4338C52.7257 37.3886 52.692 37.3413 52.6582 37.2961C52.6244 37.2488 52.5907 37.2056 52.5569 37.1583C52.5231 37.1131 52.4894 37.0638 52.4556 37.0165C52.4218 36.9692 52.3881 36.9219 52.3543 36.8746C52.3205 36.8273 52.2867 36.7821 52.253 36.7328C52.2192 36.6855 52.1877 36.6361 52.1539 36.5868C52.1202 36.5395 52.0886 36.4902 52.0549 36.4408C52.0211 36.3915 51.9896 36.3463 51.9558 36.2949C51.9243 36.2476 51.8905 36.1962 51.8568 36.1468C51.8252 36.0975 51.7915 36.0482 51.7577 35.9968C51.7239 35.9474 51.6924 35.8981 51.6586 35.8467C51.6271 35.7973 51.5934 35.7459 51.5618 35.6945C51.5303 35.6452 51.4966 35.5938 51.465 35.5424C51.4335 35.491 51.402 35.4417 51.3682 35.3903C51.3367 35.3389 51.3052 35.2875 51.2714 35.2361C51.2399 35.1847 51.2084 35.1312 51.1769 35.0798C51.1454 35.0284 51.1138 34.977 51.0823 34.9236C51.0553 34.8804 51.0306 34.8414 51.0058 34.7982C50.999 34.7879 50.9945 34.7776 50.9878 34.7673C50.9563 34.7139 50.9247 34.6625 50.8932 34.609C50.8617 34.5556 50.8302 34.5042 50.7987 34.4507C50.7672 34.3973 50.7356 34.3459 50.7041 34.2924C50.6726 34.239 50.6411 34.1876 50.6096 34.1341L50.6006 34.1465Z" fill="white"/>
<path d="M28.4055 4.23306C28.4235 4.32763 28.446 4.41809 28.4708 4.50855C28.4933 4.59078 28.5203 4.67302 28.5496 4.7532C28.5766 4.82721 28.6058 4.90122 28.6374 4.97318C28.6666 5.03897 28.7004 5.1027 28.7364 5.16643C28.7702 5.22811 28.8017 5.29184 28.8377 5.35146C28.8715 5.40697 28.9098 5.46248 28.948 5.51593C28.984 5.56938 29.0223 5.62078 29.0606 5.67218C29.0989 5.72152 29.1371 5.76881 29.1777 5.81609C29.2159 5.86132 29.2564 5.90655 29.2992 5.95178C29.3397 5.99495 29.3803 6.03607 29.423 6.07719C29.4636 6.1183 29.5063 6.15737 29.5491 6.19643C29.5919 6.23343 29.6347 6.27044 29.6797 6.30539C29.7225 6.34034 29.7675 6.37735 29.8125 6.41024C29.8575 6.44313 29.9026 6.47192 29.9498 6.50275C29.9949 6.53359 30.0399 6.56649 30.0872 6.59527C30.1322 6.62405 30.1817 6.64667 30.229 6.67339C30.2763 6.70012 30.3235 6.72685 30.3708 6.75152C30.4181 6.77619 30.4676 6.79675 30.5171 6.81936C30.5667 6.84197 30.6139 6.86459 30.6657 6.88515C30.7153 6.90571 30.7648 6.92627 30.8166 6.94477C30.8661 6.96327 30.9179 6.97972 30.9696 6.99617C31.0214 7.01261 31.0709 7.03112 31.1227 7.04551C31.1745 7.0599 31.2285 7.07018 31.2803 7.08251C31.3321 7.09485 31.3861 7.10924 31.4379 7.11952C31.4919 7.1298 31.546 7.13802 31.6 7.14625C31.654 7.15447 31.7081 7.16269 31.7643 7.16886C31.8184 7.17503 31.8746 7.18325 31.9309 7.18736C31.9872 7.19147 32.0435 7.19353 32.0998 7.19559C32.1561 7.19764 32.2123 7.20381 32.2686 7.20381C32.2731 7.20381 32.2799 7.20381 32.2844 7.20381C32.3384 7.20381 32.3902 7.19764 32.4442 7.19559C32.523 7.19353 32.6018 7.19147 32.6783 7.18531C32.7594 7.17708 32.8404 7.16475 32.9215 7.15241C33.0048 7.14008 33.0858 7.12774 33.1669 7.10924C33.2524 7.09074 33.3357 7.07223 33.419 7.04962C33.5091 7.02495 33.5946 6.99617 33.6801 6.96533C33.7724 6.93449 33.8625 6.89954 33.9503 6.86048C34.0449 6.81936 34.1394 6.77619 34.2295 6.7289C34.3308 6.6775 34.4276 6.622 34.5244 6.56032C34.6347 6.49042 34.7382 6.41641 34.8395 6.33828C34.9634 6.24166 35.0782 6.13886 35.1885 6.02785C35.3438 5.8716 35.4856 5.70507 35.6117 5.52621C35.9291 5.06981 36.1408 4.54761 36.206 3.98224C36.2218 3.85478 36.2286 3.72731 36.2286 3.59779C36.2286 3.51761 36.2218 3.43949 36.2151 3.35931C36.2038 3.20923 36.1858 3.06121 36.1565 2.9173C36.1318 2.79806 36.1002 2.68087 36.062 2.56574C36.0282 2.465 35.9899 2.36426 35.9472 2.26764C35.9089 2.17923 35.8639 2.09083 35.8188 2.00654C35.7761 1.92636 35.7288 1.84824 35.6793 1.77217C35.632 1.70021 35.5847 1.6262 35.5329 1.55836C35.4834 1.49257 35.4316 1.42884 35.3776 1.36716C35.3258 1.30754 35.2718 1.24998 35.2155 1.19241C35.1615 1.1369 35.1074 1.08139 35.0489 1.03C34.9926 0.980656 34.9341 0.93337 34.8756 0.886085C34.8328 0.851135 34.7878 0.816185 34.7427 0.783291C34.6977 0.750397 34.6527 0.719559 34.6054 0.690776C34.5604 0.659938 34.5154 0.6291 34.4681 0.600318C34.4208 0.571535 34.3735 0.546865 34.3263 0.522194C34.279 0.497523 34.2317 0.466685 34.1844 0.444071C34.1372 0.4194 34.0854 0.400897 34.0381 0.378282C33.9886 0.355668 33.9413 0.333053 33.8895 0.312494C33.84 0.291935 33.7905 0.273432 33.7387 0.254929C33.6892 0.236426 33.6374 0.219979 33.5856 0.203532C33.5338 0.187085 33.4843 0.168582 33.4325 0.154191C33.3807 0.1398 33.3267 0.129521 33.2749 0.117185C33.2231 0.10485 33.1691 0.0904588 33.1173 0.0801794C33.0633 0.0699 33.0093 0.0637323 32.9552 0.0555088C32.9012 0.0472853 32.8472 0.0390618 32.7909 0.0328941C32.7346 0.0267265 32.6806 0.0205588 32.6243 0.0164471C32.568 0.0123353 32.5117 0.0102794 32.4555 0.00822353C32.4014 0.00822353 32.3474 0 32.2934 0C32.2911 0 32.2889 0 32.2844 0C32.2258 0 32.1673 0.00616765 32.1088 0.00822353C32.0502 0.0102794 31.9917 0.0123353 31.9332 0.0164471C31.8724 0.0205588 31.8116 0.0308382 31.7531 0.0370059C31.6923 0.0452294 31.6315 0.0513971 31.5707 0.0616765C31.5077 0.0719559 31.4447 0.086347 31.3839 0.0986823C31.3208 0.113074 31.2556 0.127465 31.1948 0.143912C31.1295 0.162415 31.0642 0.180918 30.9989 0.201476C30.9314 0.222035 30.8661 0.242594 30.8008 0.267265C30.731 0.293991 30.6635 0.322773 30.5959 0.353612C30.5261 0.38445 30.4541 0.415288 30.3866 0.448182C30.3123 0.485188 30.238 0.528362 30.1659 0.569479C30.0872 0.614709 30.0106 0.666106 29.9363 0.715447C29.853 0.773012 29.772 0.830576 29.6954 0.894309C29.6054 0.966265 29.5176 1.04233 29.4343 1.12251C29.3285 1.22531 29.2294 1.33221 29.1371 1.44529C28.975 1.64471 28.8332 1.85852 28.7184 2.08672C28.6148 2.29025 28.5338 2.50406 28.473 2.7261C28.4077 2.96664 28.3695 3.2154 28.3582 3.47033C28.3582 3.51145 28.3514 3.55256 28.3514 3.59574C28.3514 3.69648 28.3582 3.79516 28.3672 3.89384C28.3762 4.00486 28.3942 4.11382 28.4145 4.22073L28.4055 4.23306Z" fill="white"/>
<path d="M44.8103 4.3089C44.8351 4.42814 44.8666 4.54327 44.9049 4.6584C44.9386 4.75914 44.9792 4.85782 45.0219 4.95444C45.0602 5.04285 45.1052 5.12919 45.1525 5.21349C45.1953 5.29366 45.2425 5.36973 45.2921 5.44786C45.3393 5.51981 45.3866 5.59177 45.4407 5.66167C45.4902 5.72746 45.542 5.79119 45.596 5.85286C45.6478 5.91249 45.7041 5.97005 45.7581 6.02556C45.8121 6.08107 45.8684 6.13452 45.9247 6.18797C45.981 6.23731 46.0395 6.2846 46.098 6.33189C46.1566 6.37711 46.2151 6.42234 46.2759 6.46346C46.3367 6.50458 46.3952 6.54775 46.4582 6.58681C46.519 6.62382 46.5843 6.65877 46.6473 6.69372C46.7104 6.72867 46.7734 6.76362 46.8387 6.79446C46.9017 6.8253 46.9693 6.85408 47.0345 6.88081C47.0998 6.90753 47.1674 6.93426 47.2349 6.95893C47.3024 6.9836 47.37 7.00621 47.4375 7.02677C47.5051 7.04733 47.5748 7.06583 47.6469 7.08228C47.7167 7.09873 47.7865 7.11723 47.8585 7.13162C47.9305 7.14601 48.0026 7.15424 48.0746 7.16452C48.1467 7.1748 48.2187 7.18713 48.293 7.1933C48.3673 7.19947 48.4438 7.20152 48.5181 7.20358C48.5699 7.20358 48.6239 7.2118 48.6757 7.2118C48.6982 7.2118 48.723 7.20975 48.7455 7.20769C48.8243 7.20769 48.9008 7.20152 48.9796 7.19741C49.0607 7.19124 49.1395 7.18302 49.2183 7.17274C49.2993 7.16246 49.3803 7.15424 49.4614 7.13985C49.5469 7.1234 49.6302 7.10284 49.7135 7.08228C49.8013 7.05967 49.8869 7.03705 49.9702 7.01033C50.0602 6.98154 50.148 6.95276 50.2358 6.91987C50.3304 6.88286 50.4227 6.84174 50.5127 6.79857C50.6118 6.75129 50.7086 6.69783 50.8031 6.64232C50.9089 6.58065 51.0102 6.51486 51.1093 6.4429C51.2241 6.36067 51.3367 6.27226 51.4402 6.17975C51.5798 6.05434 51.7081 5.9166 51.8252 5.77474C52.3002 5.19909 52.5884 4.49393 52.6131 3.72503C52.6131 3.68802 52.6199 3.65102 52.6199 3.61401C52.6199 3.4701 52.6086 3.32824 52.5906 3.1905C52.5726 3.05481 52.5456 2.92323 52.5141 2.79371C52.4848 2.68064 52.451 2.57168 52.4105 2.46272C52.3745 2.36609 52.3362 2.26946 52.2912 2.17695C52.2507 2.0906 52.2057 2.00631 52.1584 1.92613C52.1134 1.85006 52.0638 1.77605 52.0143 1.7041C51.967 1.6342 51.9153 1.56635 51.8635 1.50056C51.8117 1.43683 51.7622 1.3731 51.7059 1.31142C51.6541 1.25386 51.5956 1.2004 51.5393 1.1449C51.4853 1.09144 51.4267 1.04005 51.3682 0.990704C51.3119 0.941363 51.2534 0.892022 51.1948 0.846792C51.1363 0.801563 51.0755 0.762501 51.0125 0.721384C50.9517 0.680266 50.8909 0.639148 50.8279 0.602142C50.7671 0.565137 50.7018 0.530187 50.6388 0.497292C50.5758 0.464398 50.5105 0.43356 50.4452 0.402722C50.3799 0.371884 50.3146 0.343101 50.2493 0.316375C50.184 0.289648 50.1143 0.267034 50.0467 0.244419C49.9792 0.221804 49.9116 0.197134 49.8441 0.176575C49.7743 0.158072 49.7045 0.143681 49.6325 0.127234C49.5604 0.110787 49.4929 0.0943396 49.4209 0.0820043C49.3488 0.069669 49.2768 0.0614454 49.2025 0.051166C49.1282 0.0429425 49.0562 0.034719 48.9819 0.0285513C48.9076 0.0223837 48.831 0.0203278 48.7567 0.0182719C48.7297 0.0182719 48.7027 0.0141602 48.6735 0.0141602C48.6239 0.0141602 48.5744 0.0203278 48.5249 0.0203278C48.4461 0.0223837 48.3673 0.0244396 48.2907 0.0306072C48.2097 0.0367749 48.1286 0.051166 48.0499 0.0614454C47.9666 0.0737807 47.8855 0.086116 47.8045 0.102563C47.7189 0.11901 47.6356 0.139569 47.5523 0.162184C47.4645 0.186854 47.3767 0.215637 47.2912 0.244419C47.1989 0.275257 47.1111 0.310207 47.0233 0.347213C46.9287 0.388331 46.8342 0.429448 46.7441 0.476734C46.6428 0.528131 46.546 0.583639 46.4515 0.641204C46.3434 0.709048 46.2376 0.78306 46.1385 0.859128C46.0147 0.953698 45.9022 1.05649 45.7919 1.1634C45.6388 1.31348 45.5014 1.47178 45.3776 1.64242C45.0354 2.11733 44.8148 2.67036 44.7518 3.26657C44.7405 3.37964 44.7338 3.49477 44.7338 3.61195C44.7338 3.70036 44.7405 3.78876 44.7473 3.87511C44.7585 4.02313 44.7788 4.1691 44.8081 4.31301L44.8103 4.3089Z" fill="white"/>
<path d="M12.5454 5.50182C12.5814 5.55528 12.6174 5.60873 12.6579 5.66013C12.6962 5.70947 12.7345 5.75675 12.775 5.80404C12.8133 5.85132 12.8538 5.89655 12.8943 5.94178C12.9348 5.98496 12.9776 6.02607 13.0181 6.06719C13.0587 6.10831 13.1014 6.14943 13.1442 6.18643C13.187 6.22344 13.232 6.25839 13.2748 6.29539C13.3176 6.33034 13.3603 6.36735 13.4076 6.4023C13.4526 6.43519 13.4977 6.46398 13.5449 6.49481C13.59 6.52565 13.635 6.55855 13.6823 6.58733C13.7273 6.61611 13.7768 6.64078 13.8241 6.66751C13.8714 6.69423 13.9186 6.72096 13.9659 6.74563C14.0132 6.7703 14.0627 6.79292 14.1122 6.81553C14.1618 6.83815 14.2113 6.86076 14.2608 6.88132C14.3104 6.90188 14.3599 6.92244 14.4094 6.94094C14.4589 6.95944 14.5107 6.97589 14.5625 6.99234C14.6143 7.00878 14.6638 7.02934 14.7156 7.04373C14.7674 7.05813 14.8214 7.06841 14.8732 7.08074C14.925 7.09308 14.979 7.10747 15.0308 7.11775C15.0848 7.12803 15.1388 7.1383 15.1928 7.14653C15.2469 7.15475 15.3009 7.16298 15.3572 7.16914C15.4112 7.17531 15.4675 7.18353 15.5215 7.1897C15.5778 7.19381 15.6341 7.19587 15.6904 7.19793C15.7467 7.19998 15.8029 7.20615 15.8592 7.20615C15.8705 7.20615 15.8795 7.20615 15.8907 7.20615C15.938 7.20615 15.9853 7.20204 16.0326 7.19998C16.0911 7.19998 16.1496 7.19587 16.2082 7.19176C16.2689 7.18765 16.3275 7.18148 16.3883 7.17531C16.449 7.16914 16.5098 7.15886 16.5706 7.15064C16.6336 7.14036 16.6944 7.13008 16.7552 7.11775C16.8183 7.10541 16.8813 7.08896 16.9443 7.07252C17.0096 7.05607 17.0749 7.03962 17.1379 7.01906C17.2055 6.99851 17.2708 6.97589 17.336 6.95328C17.4058 6.92861 17.4734 6.90188 17.5387 6.8731C17.6084 6.84431 17.6782 6.81553 17.7458 6.78264C17.8201 6.74563 17.8921 6.70451 17.9641 6.6634C18.0407 6.62022 18.1172 6.57499 18.1893 6.52565C18.2703 6.4722 18.3491 6.41875 18.4256 6.35913C18.5134 6.29128 18.599 6.22138 18.68 6.14737C18.7813 6.05486 18.8759 5.95412 18.9659 5.85132C19.101 5.69713 19.2203 5.53472 19.3261 5.36202C19.5423 5.01047 19.6931 4.62191 19.7696 4.21073C19.8057 4.01336 19.8304 3.81189 19.8304 3.6063C19.8304 3.47472 19.8214 3.3452 19.8079 3.21774C19.7944 3.11289 19.7786 3.00804 19.7561 2.90524C19.7359 2.81479 19.7111 2.72844 19.6841 2.64209C19.6593 2.56191 19.6323 2.48379 19.603 2.40566C19.5738 2.33165 19.5468 2.2597 19.513 2.18774C19.4837 2.12401 19.4477 2.06028 19.4139 1.9986C19.3802 1.93898 19.3464 1.8773 19.3104 1.81974C19.2744 1.76423 19.2383 1.70872 19.2001 1.65527C19.1641 1.60387 19.1258 1.55247 19.0853 1.50313C19.047 1.45379 19.0087 1.40651 18.9682 1.35922C18.9299 1.31399 18.8871 1.27082 18.8466 1.22764C18.8061 1.18447 18.7656 1.14335 18.7228 1.10224C18.68 1.06317 18.6373 1.02617 18.5945 0.987106C18.5517 0.9501 18.5089 0.913094 18.4639 0.878144C18.4211 0.843194 18.3761 0.8103 18.3311 0.777406C18.2861 0.744512 18.241 0.713674 18.1938 0.684891C18.1487 0.654053 18.1037 0.623215 18.0564 0.596489C18.0092 0.567706 17.9619 0.543036 17.9146 0.518365C17.8673 0.493694 17.8223 0.462856 17.7728 0.440242C17.7255 0.415571 17.6737 0.397068 17.6242 0.374453C17.5747 0.351839 17.5274 0.329224 17.4756 0.308665C17.4261 0.288106 17.3743 0.271659 17.3248 0.253156C17.2753 0.234653 17.2235 0.218206 17.1717 0.201759C17.1199 0.185312 17.0704 0.168865 17.0164 0.154474C16.9646 0.140083 16.9106 0.129803 16.8588 0.117468C16.807 0.105133 16.753 0.0907416 16.7012 0.0804622C16.6472 0.0701828 16.5931 0.0640151 16.5368 0.0557916C16.4828 0.0475681 16.4288 0.0393445 16.3725 0.0331769C16.3162 0.0270092 16.2622 0.0228975 16.2059 0.0187857C16.1496 0.0146739 16.0933 0.0126181 16.0371 0.0105622C15.9875 0.0105622 15.9403 0.00439453 15.893 0.00439453C15.884 0.00439453 15.875 0.00439453 15.8682 0.00439453C15.8097 0.00439453 15.7512 0.0105622 15.6926 0.0126181C15.6341 0.0146739 15.5756 0.0167298 15.517 0.0208416C15.4562 0.0270092 15.3955 0.0352328 15.3347 0.0434563C15.2739 0.0516798 15.2131 0.0578475 15.1523 0.0681269C15.0893 0.0784063 15.0263 0.0927975 14.9655 0.107189C14.9024 0.12158 14.8372 0.133915 14.7764 0.152418C14.7111 0.170921 14.6458 0.19148 14.5805 0.212039C14.513 0.232597 14.4477 0.253156 14.3824 0.277827C12.9551 0.82058 11.951 2.10345 11.951 3.60424C11.951 4.23129 12.1266 4.82133 12.4373 5.3353C12.4711 5.39081 12.5094 5.44631 12.5476 5.49977L12.5454 5.50182Z" fill="white"/>
</svg>
