<svg width="24" height="23" viewBox="0 0 24 23" fill="none" xmlns="http://www.w3.org/2000/svg">
<path d="M10.9468 22.948C10.8742 22.948 10.8024 22.9324 10.7358 22.9021C10.6693 22.8718 10.6096 22.8275 10.5603 22.772L0.139831 11.0424C0.0703661 10.9642 0.0243148 10.8666 0.00731399 10.7616C-0.00968686 10.6566 0.00310004 10.5487 0.0441099 10.4511C0.0851197 10.3536 0.152574 10.2706 0.238216 10.2123C0.323858 10.154 0.423973 10.1229 0.526308 10.1229H5.54214C5.61745 10.1229 5.69188 10.1398 5.76041 10.1723C5.82894 10.2047 5.88998 10.2522 5.93941 10.3113L9.42196 14.4805C9.79834 13.6433 10.5269 12.2493 11.8055 10.5507C13.6956 8.03957 17.2113 4.34643 23.2263 1.01251C23.3426 0.94809 23.4778 0.931369 23.6053 0.965654C23.7329 0.999938 23.8434 1.08274 23.9151 1.1977C23.9868 1.31266 24.0145 1.45143 23.9927 1.5866C23.9709 1.72177 23.9012 1.84353 23.7974 1.92782C23.7744 1.94649 21.4552 3.84699 18.7861 7.32806C16.3297 10.5315 13.0643 15.7696 11.4575 22.532C11.4293 22.6508 11.3636 22.7563 11.271 22.8318C11.1784 22.9072 11.0642 22.9482 10.9466 22.9482L10.9468 22.948Z" fill="white"/>
</svg>
