<svg width="19" height="19" viewBox="0 0 19 19" fill="none" xmlns="http://www.w3.org/2000/svg">
<path d="M18.9955 18.2504L19 18.2496V11.5564C19 8.28207 18.2951 5.75977 14.4672 5.75977C12.627 5.75977 11.392 6.7696 10.8879 7.72696H10.8347V6.06545H7.20518V18.2496H10.9845V12.2165C10.9845 10.628 11.2856 9.09191 13.2528 9.09191C15.1911 9.09191 15.22 10.9047 15.22 12.3184V18.2504H18.9955Z" fill="#0077B5"/>
<path d="M1.05112 6.06592H4.83495V18.2501H1.05112V6.06592Z" fill="#0077B5"/>
<path d="M2.94152 0C1.7317 0 0.75 0.981699 0.75 2.19152C0.75 3.40135 1.7317 4.40358 2.94152 4.40358C4.15135 4.40358 5.13304 3.40135 5.13304 2.19152C5.13228 0.981699 4.15058 0 2.94152 0Z" fill="#0077B5"/>
</svg>
