<svg width="137" height="52" viewBox="0 0 137 52" fill="none" xmlns="http://www.w3.org/2000/svg">
<path d="M67.5988 38.7936C67.594 38.6295 67.5869 38.4653 67.5797 38.2988C67.5726 38.1417 67.563 37.9847 67.5511 37.8253C67.5416 37.6754 67.5297 37.5256 67.5178 37.3733C67.5059 37.2282 67.4916 37.083 67.4773 36.9379C67.4654 36.819 67.4535 36.7 67.4392 36.5787C67.4249 36.4621 67.413 36.3455 67.3987 36.2289C67.3845 36.1171 67.3678 36.0053 67.3535 35.8911C67.3392 35.7817 67.3226 35.6699 67.3059 35.5604C67.2892 35.4534 67.2725 35.3439 67.2559 35.2369C67.2392 35.1322 67.2202 35.0275 67.2011 34.9228C67.1821 34.8181 67.1654 34.7158 67.1464 34.6112C67.1273 34.5112 67.1083 34.4089 67.0892 34.309C67.0702 34.2091 67.0511 34.1092 67.0297 34.0092C67.0106 33.9117 66.9892 33.8142 66.9678 33.7166C66.9463 33.6214 66.9273 33.5263 66.9059 33.4287C66.8844 33.336 66.863 33.2408 66.8416 33.148C66.8201 33.0552 66.7987 32.9624 66.7749 32.8697C66.7535 32.7792 66.7297 32.6888 66.7058 32.5961C66.682 32.5056 66.6606 32.4152 66.6368 32.3248C66.613 32.2368 66.5892 32.1488 66.5654 32.0608C66.5416 31.9727 66.5177 31.8847 66.4939 31.7967C66.4701 31.711 66.4439 31.6254 66.4201 31.5421C66.3963 31.4565 66.3701 31.3732 66.3463 31.2875C66.3225 31.2043 66.2963 31.121 66.2701 31.0377C66.2439 30.9545 66.2201 30.8736 66.1939 30.7903C66.1677 30.7094 66.1415 30.6262 66.1153 30.5453C66.0892 30.4668 66.063 30.3859 66.0344 30.305C66.0177 30.2526 65.9987 30.2003 65.982 30.1456C65.9725 30.117 65.9653 30.0909 65.9558 30.0647C65.9296 29.9862 65.901 29.9077 65.8749 29.8292C65.8487 29.7507 65.8201 29.6745 65.7915 29.596C65.7629 29.5175 65.7368 29.4414 65.7082 29.3629C65.682 29.2867 65.651 29.2106 65.6225 29.1368C65.5939 29.0607 65.5677 28.987 65.5368 28.9108C65.5082 28.8371 65.4796 28.7609 65.451 28.6872C65.4225 28.6134 65.3939 28.5397 65.3653 28.4659C65.3367 28.3922 65.3082 28.3184 65.2796 28.2447C65.251 28.1709 65.2224 28.0996 65.1915 28.0258C65.1629 27.9544 65.132 27.8831 65.1034 27.8117C65.0748 27.7403 65.0439 27.6689 65.0153 27.5976C64.9867 27.5262 64.9558 27.4572 64.9248 27.3858C64.8939 27.3145 64.8629 27.2478 64.8343 27.1765C64.8034 27.1075 64.7748 27.0385 64.7438 26.9671C64.7129 26.8981 64.6843 26.8291 64.6534 26.7601C64.6224 26.6935 64.5915 26.6245 64.5605 26.5579C64.5295 26.4913 64.4986 26.4223 64.4676 26.3557C64.4367 26.2891 64.4057 26.2201 64.3748 26.1535C64.3438 26.0868 64.3105 26.0226 64.2795 25.956C64.2486 25.8894 64.2176 25.8251 64.1843 25.7585C64.1533 25.6919 64.1224 25.6277 64.0891 25.5611C64.0581 25.4968 64.0248 25.4326 63.9938 25.366C63.9629 25.3017 63.9295 25.2375 63.8962 25.1733C63.8628 25.109 63.8319 25.0448 63.7986 24.9806C63.7652 24.9163 63.7343 24.8521 63.7009 24.7878C63.67 24.726 63.6343 24.6618 63.6033 24.5999C63.57 24.538 63.539 24.4738 63.5057 24.4119C63.4723 24.3501 63.4414 24.2859 63.4081 24.224C63.3747 24.1621 63.3414 24.1003 63.3081 24.0384C63.2747 23.9766 63.2414 23.9171 63.208 23.8552C63.1747 23.7934 63.1414 23.7339 63.108 23.672C63.0747 23.6102 63.0414 23.5507 63.008 23.4889C62.9747 23.4294 62.9414 23.3699 62.908 23.308C62.8747 23.2486 62.8414 23.1891 62.8057 23.1296C62.7723 23.0701 62.739 23.0107 62.7033 22.9512C62.6699 22.8917 62.6366 22.8322 62.6009 22.7727C62.5961 22.7656 62.5937 22.7609 62.589 22.7537C62.558 22.7014 62.5271 22.649 62.4961 22.5967C62.4628 22.5372 62.4271 22.4801 62.3937 22.423C62.3604 22.3659 62.3247 22.3064 62.2913 22.2493C62.2556 22.1922 62.2223 22.1352 62.1866 22.0781C62.1509 22.021 62.1175 21.9639 62.0818 21.9068C62.0461 21.8497 62.0127 21.7926 61.977 21.7378C61.9413 21.6807 61.9056 21.626 61.8723 21.5713C61.8366 21.5166 61.8008 21.4595 61.7675 21.4048C61.7508 21.3762 61.7318 21.35 61.7151 21.3215C61.6984 21.2929 61.6794 21.2668 61.6627 21.2382C61.627 21.1835 61.5913 21.1312 61.5556 21.0764C61.5199 21.0217 61.4841 20.967 61.4484 20.9147C61.4127 20.86 61.377 20.8076 61.3413 20.7553C61.3056 20.7029 61.2699 20.6506 61.2318 20.5983C61.1937 20.5459 61.1603 20.4936 61.1222 20.4412C61.0865 20.3889 61.0484 20.3365 61.0127 20.2866C60.977 20.2342 60.9389 20.1843 60.9032 20.1343C60.8675 20.0844 60.8294 20.032 60.7936 19.9821C60.7555 19.9321 60.7198 19.8821 60.6817 19.8322C60.6436 19.7822 60.6079 19.7323 60.5698 19.6823C60.5317 19.6323 60.496 19.5824 60.4579 19.5348C60.4198 19.4848 60.3817 19.4396 60.3436 19.3897C60.3055 19.3421 60.2674 19.2921 60.2293 19.2445C60.1912 19.197 60.1531 19.1494 60.115 19.1018C60.0769 19.0542 60.0388 19.009 60.0007 18.9614C59.9626 18.9138 59.9245 18.8686 59.8864 18.8211C59.8484 18.7759 59.8079 18.7307 59.7698 18.6855C59.7317 18.6403 59.6912 18.595 59.6531 18.5498C59.615 18.5046 59.5745 18.4594 59.5364 18.4142C59.496 18.369 59.4579 18.3286 59.4174 18.2834C59.3769 18.2406 59.3388 18.1954 59.2983 18.1525C59.2578 18.1097 59.2197 18.0669 59.1793 18.0241C59.1388 17.9812 59.0983 17.9408 59.0578 17.9004C59.0174 17.8575 58.9769 17.8171 58.9364 17.7766C58.8959 17.7362 58.8554 17.6957 58.815 17.6553C58.7745 17.6149 58.734 17.5744 58.6935 17.5363C58.653 17.4959 58.6126 17.4555 58.5721 17.4174C58.5316 17.3769 58.4888 17.3413 58.4483 17.3032C58.4078 17.2651 58.3649 17.2271 58.3245 17.189C58.2816 17.1509 58.2411 17.1129 58.2006 17.0772C58.1578 17.0391 58.1173 17.0034 58.0744 16.9677C58.0316 16.9321 57.9911 16.894 57.9482 16.8583C57.9054 16.8226 57.8625 16.7893 57.8197 16.7536C57.7768 16.7179 57.734 16.6846 57.6911 16.6489C57.6482 16.6156 57.6054 16.58 57.5625 16.5466C57.5197 16.5133 57.4768 16.48 57.4339 16.4491C57.3911 16.4158 57.3482 16.3825 57.3054 16.3516C57.2625 16.3206 57.2173 16.2897 57.1744 16.2588C57.1315 16.2278 57.0863 16.1969 57.0434 16.166C56.9982 16.1351 56.9553 16.1065 56.9101 16.0756C56.8649 16.047 56.822 16.0185 56.7768 15.9876C56.7315 15.9566 56.6887 15.9281 56.6434 15.9019C56.5982 15.8734 56.5529 15.8472 56.5077 15.821C56.4625 15.7948 56.4172 15.7663 56.372 15.7401C56.3267 15.714 56.2815 15.6878 56.2339 15.664C56.1886 15.6378 56.141 15.614 56.0958 15.5879C56.0505 15.5641 56.0029 15.5379 55.9577 15.5141C55.91 15.4903 55.8648 15.4689 55.8172 15.4451C55.7696 15.4213 55.7243 15.3975 55.6767 15.3761C55.6291 15.3547 55.5815 15.3357 55.5338 15.3143C55.4862 15.2929 55.4386 15.2714 55.391 15.2524C55.3433 15.2334 55.2957 15.2143 55.2481 15.1953C55.2005 15.1763 55.1505 15.1572 55.1029 15.1406C55.0552 15.1216 55.0052 15.1049 54.9576 15.0883C54.9076 15.0716 54.86 15.0549 54.81 15.0383C54.76 15.0216 54.7124 15.005 54.6624 14.9907C54.6124 14.9764 54.5624 14.9622 54.5124 14.9479C54.4624 14.9336 54.4123 14.9193 54.3624 14.9051C54.3123 14.8932 54.2623 14.8813 54.21 14.8694C54.16 14.8575 54.1076 14.8456 54.0576 14.8337C54.0052 14.8218 53.9552 14.8147 53.9028 14.8028C53.8504 14.7932 53.8004 14.7837 53.748 14.7742C53.6956 14.7647 53.6433 14.7576 53.5909 14.7504C53.5385 14.7433 53.4861 14.7361 53.4337 14.729C53.3813 14.7219 53.329 14.7171 53.2766 14.7124C53.2242 14.7076 53.1694 14.7028 53.117 14.7005C53.0385 14.6957 52.9575 14.6909 52.8789 14.6886C52.798 14.6862 52.7194 14.6838 52.6384 14.6838C52.5575 14.6838 52.4765 14.6838 52.3932 14.6886C52.3718 14.6886 52.3527 14.6886 52.3313 14.6886C52.267 14.6909 52.2075 14.6981 52.1432 14.7028C52.0598 14.71 51.9765 14.7124 51.8932 14.7219C51.8074 14.7314 51.7217 14.7457 51.6384 14.7576C51.5527 14.7695 51.467 14.7837 51.3812 14.798C51.2931 14.8147 51.205 14.8337 51.1193 14.8527C51.0288 14.8741 50.9407 14.8955 50.8526 14.9193C50.7622 14.9431 50.6717 14.9669 50.5836 14.9955C50.4907 15.024 50.3979 15.0573 50.3074 15.0883C50.2121 15.1216 50.1193 15.1596 50.0264 15.1953C49.9312 15.2334 49.8335 15.2738 49.7407 15.3166C49.6431 15.3619 49.5454 15.4071 49.4502 15.4546C49.3478 15.5046 49.2502 15.5593 49.1502 15.614C49.0454 15.6711 48.9454 15.733 48.843 15.7948C48.7359 15.8615 48.6311 15.9281 48.5287 15.9971C48.4192 16.0708 48.312 16.147 48.2049 16.2255C48.0906 16.3087 47.9811 16.3944 47.8715 16.4824C47.7549 16.5776 47.6382 16.6751 47.5263 16.7727C47.4025 16.8821 47.2834 16.9939 47.1667 17.1081C47.0358 17.2342 46.912 17.3603 46.7905 17.4888C46.6524 17.6363 46.5191 17.7814 46.3929 17.9289C46.2429 18.1026 46.1 18.2762 45.9667 18.4499C45.7976 18.6664 45.6428 18.8782 45.5024 19.0828C45.3 19.373 45.1238 19.6466 44.9738 19.8964C44.6666 20.4032 44.4666 20.8029 44.3713 21.0027C44.3499 21.0408 44.3213 21.0979 44.288 21.1621C44.2047 21.3239 44.0832 21.5594 43.9261 21.8853C43.8975 21.8378 43.8689 21.7926 43.8404 21.745C43.788 21.6593 43.738 21.5761 43.6856 21.4928C43.6332 21.4095 43.5832 21.3263 43.5308 21.243C43.4784 21.1597 43.4261 21.0764 43.3761 20.9932C43.3237 20.9099 43.2713 20.829 43.2189 20.7458C43.1665 20.6625 43.1141 20.5816 43.0618 20.5007C43.0094 20.4198 42.957 20.3389 42.9046 20.258C42.8522 20.1772 42.7998 20.0963 42.7474 20.0154C42.6951 19.9345 42.6403 19.856 42.5879 19.7775C42.5355 19.699 42.4808 19.6181 42.4284 19.5396C42.3736 19.461 42.3212 19.3825 42.2689 19.3064C42.2141 19.2279 42.1617 19.1494 42.1069 19.0732C42.0522 18.9947 41.9998 18.921 41.945 18.8449C41.8903 18.7687 41.8355 18.6926 41.7831 18.6165C41.7284 18.5403 41.6736 18.4666 41.6188 18.3928C41.5641 18.3191 41.5093 18.2453 41.4545 18.1716C41.3998 18.0978 41.345 18.0241 41.2878 17.9527C41.2331 17.8789 41.1759 17.8099 41.1212 17.7386C41.0664 17.6672 41.0093 17.5958 40.9521 17.5268C40.895 17.4555 40.8378 17.3888 40.7831 17.3199C40.7259 17.2509 40.6688 17.1819 40.6116 17.1129C40.5545 17.0439 40.4973 16.9796 40.4402 16.913C40.383 16.8464 40.3259 16.7798 40.2664 16.7156C40.2092 16.6489 40.1497 16.5847 40.0925 16.5205C40.033 16.4562 39.9759 16.3944 39.9163 16.3301C39.8568 16.2683 39.7997 16.2041 39.7402 16.1422C39.6806 16.0803 39.6211 16.0209 39.5616 15.9614C39.502 15.9019 39.4425 15.8424 39.3806 15.783C39.3211 15.7235 39.2592 15.6664 39.1996 15.6093C39.1377 15.5522 39.0782 15.4975 39.0163 15.4427C38.9544 15.388 38.8925 15.3309 38.8306 15.2786C38.7687 15.2239 38.7044 15.1739 38.6425 15.1216C38.5806 15.0692 38.5163 15.0193 38.4544 14.9693C38.3901 14.9193 38.3282 14.8694 38.2639 14.8218C38.1996 14.7742 38.1353 14.7266 38.071 14.6814C38.0067 14.6338 37.9424 14.5886 37.8758 14.5434C37.8091 14.4982 37.7448 14.4554 37.6781 14.4126C37.6115 14.3698 37.5448 14.3293 37.4781 14.2889C37.4115 14.2484 37.3448 14.208 37.2781 14.1699C37.2114 14.1319 37.1424 14.0938 37.0733 14.0581C37.0043 14.0224 36.9352 13.9867 36.8662 13.9534C36.7971 13.9201 36.7281 13.8844 36.659 13.8535C36.59 13.8226 36.5186 13.7916 36.4471 13.7631C36.3757 13.7345 36.3043 13.706 36.2328 13.6798C36.1614 13.6537 36.09 13.6251 36.0161 13.6013C35.9423 13.5775 35.8709 13.5537 35.7971 13.5323C35.7233 13.5109 35.6495 13.4919 35.5756 13.4728C35.5018 13.4538 35.4256 13.4348 35.3518 13.4181C35.2756 13.4015 35.2018 13.3872 35.1256 13.3729C35.0494 13.3586 34.9732 13.3491 34.8947 13.3372C34.8161 13.3277 34.7399 13.3158 34.6613 13.3087C34.5827 13.3015 34.5042 13.2944 34.4256 13.2897C34.347 13.2849 34.2661 13.2825 34.1851 13.2825C34.1446 13.2825 34.1018 13.2801 34.0613 13.2801C34.0208 13.2801 33.9827 13.2825 33.9422 13.2825C33.8613 13.2825 33.7779 13.2849 33.697 13.2897C33.6136 13.2944 33.5303 13.3016 33.447 13.3111C33.3612 13.3206 33.2779 13.3301 33.1922 13.342C33.1065 13.3539 33.0207 13.3682 32.935 13.3848C32.8469 13.4015 32.7612 13.4181 32.6731 13.4395C32.585 13.461 32.4945 13.4824 32.4064 13.5062C32.3374 13.5252 32.2707 13.5466 32.2017 13.5704C32.1326 13.5918 32.0636 13.6156 31.9945 13.6394C31.9255 13.6632 31.854 13.6893 31.785 13.7179C31.7135 13.7464 31.6421 13.7774 31.5707 13.8083C31.4992 13.8392 31.4254 13.8725 31.354 13.9058C31.2802 13.9415 31.2064 13.9748 31.1326 14.0129C31.0564 14.051 30.9825 14.0938 30.9063 14.1342C30.8302 14.1771 30.754 14.2223 30.6778 14.2675C30.5992 14.315 30.523 14.3626 30.4444 14.4126C30.3658 14.4649 30.2849 14.5149 30.2063 14.5696C30.1254 14.6267 30.042 14.6862 29.9611 14.7457C29.8777 14.8075 29.7944 14.8718 29.7111 14.936C29.6253 15.0026 29.5396 15.0716 29.4563 15.143C29.3682 15.2167 29.2825 15.2905 29.1944 15.3666C29.1039 15.4451 29.0158 15.526 28.9253 15.6093C28.8324 15.6949 28.742 15.783 28.6491 15.8734C28.5538 15.9661 28.461 16.0613 28.3657 16.1588C28.2681 16.2588 28.1705 16.3635 28.0752 16.4681C27.9752 16.5776 27.8752 16.6894 27.7752 16.8036C27.6705 16.9225 27.5681 17.0439 27.4657 17.1676C27.3585 17.2961 27.2514 17.4269 27.1442 17.5601C27.0395 17.6934 26.9323 17.829 26.8252 17.967L26.8109 17.986C26.6966 18.1359 26.5823 18.2881 26.468 18.4452L26.4633 18.4499C26.3466 18.6093 26.2275 18.7735 26.1109 18.9376C25.987 19.1113 25.8656 19.2874 25.7418 19.4682C25.6132 19.6561 25.4846 19.8465 25.3561 20.0415C25.2227 20.2438 25.0894 20.4507 24.956 20.6601C24.8179 20.8766 24.6798 21.0955 24.5417 21.3215C24.4274 21.5071 24.3108 21.695 24.1965 21.8877C24.1893 21.8711 24.1822 21.8616 24.175 21.8449C24.1369 21.7664 24.1012 21.695 24.0679 21.6284C24.0298 21.5499 23.9941 21.4785 23.9607 21.4143C23.9203 21.3334 23.8846 21.2644 23.8536 21.2025C23.8107 21.1217 23.775 21.0503 23.7488 21.0051L23.7441 20.9956C23.7155 20.9385 23.6822 20.8671 23.6369 20.7791C23.606 20.7172 23.5679 20.6458 23.5274 20.5697C23.4941 20.5055 23.456 20.4389 23.4155 20.3651C23.3798 20.3009 23.3417 20.2366 23.3036 20.1653C23.2679 20.1034 23.2298 20.0368 23.1893 19.9702C23.1512 19.9083 23.1131 19.8441 23.0726 19.7798C23.0345 19.718 22.9964 19.6561 22.9559 19.5943C22.9178 19.5348 22.8797 19.4729 22.8369 19.4111C22.7988 19.3516 22.7583 19.2921 22.7178 19.2326C22.6797 19.1755 22.6369 19.1161 22.5964 19.0566C22.5559 18.9995 22.5154 18.9424 22.475 18.8829C22.4345 18.8282 22.394 18.7711 22.3511 18.714C22.3107 18.6593 22.2678 18.6046 22.2273 18.5498C22.1868 18.4951 22.144 18.4404 22.1011 18.3857C22.0606 18.3333 22.0154 18.281 21.9749 18.2287C21.9321 18.1763 21.8916 18.124 21.8463 18.074C21.8035 18.0241 21.7606 17.9717 21.7178 17.9218C21.6749 17.8718 21.6321 17.8218 21.5868 17.7719C21.544 17.7243 21.5011 17.6743 21.4559 17.6268C21.413 17.5792 21.3678 17.5316 21.3225 17.484C21.2773 17.4364 21.2344 17.3912 21.1892 17.3436C21.1439 17.2984 21.0987 17.2532 21.0535 17.208C21.0082 17.1628 20.963 17.1176 20.9177 17.0748C20.8725 17.032 20.8272 16.9892 20.7796 16.9463C20.7344 16.9035 20.6891 16.8607 20.6415 16.8202C20.5963 16.7798 20.5487 16.7394 20.501 16.6989C20.4534 16.6585 20.4082 16.618 20.3606 16.58C20.3129 16.5419 20.2653 16.5038 20.2177 16.4634C20.1701 16.4253 20.1224 16.3872 20.0748 16.3492C20.0272 16.3135 19.9796 16.2754 19.9296 16.2397C19.882 16.2041 19.832 16.1684 19.7843 16.1351C19.7367 16.0994 19.6867 16.0661 19.6391 16.0304C19.5915 15.9971 19.5415 15.9638 19.4915 15.9328C19.4415 15.8995 19.3938 15.8662 19.3438 15.8353C19.2938 15.8044 19.2438 15.7758 19.1938 15.7449C19.1438 15.714 19.0938 15.683 19.0438 15.6545C18.9938 15.6259 18.9414 15.5974 18.8914 15.5712C18.8414 15.5427 18.789 15.5165 18.7367 15.4903C18.6843 15.4642 18.6343 15.438 18.5819 15.4118C18.5295 15.3856 18.4771 15.3619 18.4247 15.3381C18.3724 15.3143 18.32 15.2881 18.2676 15.2643C18.2152 15.2405 18.1604 15.2215 18.1081 15.2001C18.0557 15.1787 18.0033 15.1549 17.9485 15.1358C17.8961 15.1144 17.8414 15.0954 17.7866 15.0764C17.7318 15.0573 17.6771 15.0383 17.6223 15.0216C17.5676 15.0026 17.5128 14.986 17.458 14.9693C17.4033 14.9526 17.3461 14.9384 17.2913 14.9241C17.2366 14.9098 17.1818 14.8932 17.1247 14.8789C17.0699 14.8646 17.0128 14.8527 16.9556 14.8408C16.8985 14.8289 16.8413 14.817 16.7866 14.8051C16.7294 14.7932 16.6723 14.7837 16.6151 14.7718C16.558 14.7623 16.4984 14.7552 16.4413 14.748C16.3842 14.7409 16.327 14.729 16.2675 14.7243C16.208 14.7171 16.1484 14.7147 16.0913 14.7076C16.0318 14.7028 15.9722 14.6981 15.9127 14.6933C15.8698 14.6909 15.8294 14.6862 15.7865 14.6838C15.7698 14.6838 15.7508 14.6838 15.7341 14.6838C15.6746 14.6838 15.6127 14.6814 15.5532 14.679C15.4913 14.679 15.4317 14.679 15.3698 14.679C15.3079 14.679 15.246 14.6814 15.1841 14.6838C15.1222 14.6862 15.0603 14.6909 14.9984 14.6957C14.9365 14.7005 14.8722 14.7052 14.8103 14.71C14.746 14.7171 14.6841 14.7243 14.6198 14.7314C14.5555 14.7385 14.4912 14.7457 14.4293 14.7552C14.365 14.7647 14.2983 14.779 14.234 14.7909C14.1698 14.8028 14.1031 14.8147 14.0388 14.8289C13.9721 14.8432 13.9055 14.8575 13.8412 14.8741C13.7745 14.8908 13.7078 14.9074 13.6388 14.9265C13.5721 14.9455 13.5031 14.9622 13.4364 14.9836C13.3673 15.005 13.2983 15.0288 13.2292 15.0526C13.1602 15.0764 13.0911 15.1002 13.0197 15.1263C12.9483 15.1525 12.8792 15.1787 12.8078 15.2072C12.7363 15.2358 12.6649 15.2667 12.5935 15.3C12.5221 15.3309 12.4482 15.3642 12.3768 15.3975C12.303 15.4332 12.2292 15.4689 12.1554 15.507C12.0792 15.545 12.0054 15.5855 11.9315 15.6259C11.8553 15.6664 11.7792 15.7092 11.703 15.7544C11.6268 15.7996 11.5482 15.8448 11.472 15.8924C11.3934 15.9424 11.3148 15.9947 11.2363 16.0447C11.1553 16.097 11.0767 16.1517 10.9958 16.2088C10.9148 16.2659 10.8315 16.323 10.7505 16.3849C10.6672 16.4467 10.5839 16.5086 10.5005 16.5752C10.4148 16.6418 10.3291 16.7132 10.2457 16.7822C10.1576 16.8535 10.0719 16.9297 9.98382 17.0058C9.89572 17.0843 9.80524 17.1628 9.71714 17.2461C9.62666 17.3294 9.5338 17.415 9.44332 17.5054C9.35046 17.5958 9.25521 17.6886 9.16235 17.7838C9.06711 17.8813 8.96948 17.9812 8.87424 18.0859C8.5266 18.4594 8.18135 18.8639 7.83847 19.2993C7.0551 20.2913 6.28363 21.4405 5.52644 22.749C4.00732 25.3755 2.90964 27.8474 2.13579 30.1408C0.578564 34.7491 0.330932 38.639 0.588089 41.6414C0.599994 41.7794 0.6119 41.9174 0.626186 42.0506C0.640472 42.1838 0.654759 42.3147 0.671427 42.4455C0.688094 42.574 0.702381 42.7001 0.721429 42.8262C0.738097 42.9499 0.757145 43.0736 0.776194 43.1926C0.795243 43.3115 0.814291 43.4305 0.83334 43.5471C0.852388 43.6636 0.873818 43.7778 0.895248 43.8896C0.916678 44.0015 0.938107 44.1133 0.961918 44.2227C0.983348 44.3322 1.00716 44.4392 1.03097 44.5463C1.05478 44.6533 1.07859 44.758 1.1024 44.8603C1.12621 44.965 1.1524 45.0649 1.1786 45.1648C1.20479 45.2671 1.23098 45.3647 1.25717 45.4622C1.28336 45.5598 1.31194 45.6573 1.33813 45.7501C1.3667 45.8453 1.39289 45.9404 1.42147 46.0308C1.45004 46.1236 1.47861 46.2164 1.50718 46.3044C1.53576 46.3972 1.56671 46.4852 1.59528 46.5709C1.62624 46.6613 1.65719 46.7469 1.68577 46.8326C1.71672 46.9206 1.74767 47.0063 1.77863 47.0872C1.81196 47.1728 1.84292 47.2537 1.87387 47.3346C1.90721 47.4179 1.94054 47.4987 1.97149 47.5749C2.00721 47.6581 2.04055 47.7343 2.0715 47.808C2.10722 47.8889 2.14293 47.965 2.17389 48.034C2.21198 48.1173 2.2477 48.1887 2.27865 48.2529C2.32389 48.3433 2.35961 48.4123 2.38818 48.4623L2.40485 48.4932C2.43342 48.5479 2.46676 48.605 2.50009 48.6621C2.53581 48.724 2.57391 48.7882 2.61677 48.8524C2.65486 48.9119 2.69296 48.9738 2.73582 49.0356C2.77392 49.0927 2.81678 49.1498 2.85726 49.2069C2.89773 49.2617 2.93821 49.3164 2.98107 49.3735C3.02155 49.4258 3.06441 49.4805 3.10727 49.5329C3.14775 49.5828 3.19299 49.6352 3.23585 49.6851C3.27871 49.7351 3.32157 49.7851 3.36681 49.835C3.40967 49.8826 3.45491 49.9302 3.50015 49.9754C3.54301 50.0206 3.58825 50.0682 3.63349 50.1134C3.67873 50.1586 3.72397 50.2014 3.76921 50.2442C3.81445 50.287 3.85969 50.3299 3.90731 50.3703C3.95255 50.4108 4.00017 50.4536 4.04779 50.494C4.09303 50.5345 4.14304 50.5725 4.19066 50.6106C4.23828 50.6487 4.28352 50.6891 4.33352 50.7272C4.38115 50.7629 4.43115 50.7962 4.47877 50.8319C4.52639 50.8675 4.57401 50.9032 4.62402 50.9365C4.67164 50.9698 4.72164 51.0032 4.77164 51.0341C4.82164 51.065 4.87165 51.0959 4.92165 51.1269C4.97165 51.1578 5.01927 51.1911 5.07166 51.2197C5.12166 51.2482 5.17404 51.2744 5.22643 51.3005C5.27643 51.3291 5.32881 51.3553 5.3812 51.3814C5.43358 51.4076 5.48358 51.4338 5.53597 51.4576C5.58835 51.4814 5.64074 51.5028 5.6955 51.5266C5.74788 51.5504 5.80027 51.5741 5.85503 51.5955C5.90742 51.617 5.96218 51.636 6.01695 51.655C6.07171 51.6741 6.12648 51.6931 6.18124 51.7097C6.23601 51.7288 6.28839 51.7478 6.34553 51.7645C6.4003 51.7811 6.45745 51.793 6.51221 51.8073C6.56697 51.8216 6.62412 51.8358 6.68127 51.8477C6.73841 51.8596 6.79318 51.8763 6.85032 51.8882C6.90747 51.9001 6.967 51.9048 7.02414 51.9144C7.08129 51.9239 7.13843 51.9334 7.19796 51.9405C7.25511 51.9477 7.31225 51.9596 7.37178 51.9643C7.43131 51.9714 7.49083 51.9715 7.55036 51.9738C7.60989 51.9786 7.66941 51.981 7.72894 51.9833C7.78132 51.9833 7.83133 51.9905 7.88609 51.9929H7.94562C7.99562 51.9929 8.04562 51.9905 8.09563 51.9881C8.15753 51.9881 8.21944 51.9881 8.28135 51.9833C8.34326 51.981 8.40755 51.9738 8.46946 51.9667C8.53136 51.9619 8.59565 51.9548 8.65756 51.9477C8.72185 51.9405 8.78614 51.931 8.85043 51.9215C8.91472 51.912 8.97901 51.9001 9.04568 51.8882C9.10997 51.8763 9.17664 51.8644 9.24093 51.8501C9.3076 51.8358 9.37427 51.8192 9.44094 51.8025C9.50761 51.7859 9.57428 51.7692 9.64333 51.7502C9.71238 51.7312 9.77905 51.7097 9.8481 51.6883C9.91715 51.6669 9.9862 51.6408 10.0553 51.617C10.1243 51.5908 10.1957 51.567 10.2648 51.5408C10.3362 51.5123 10.4077 51.4814 10.4791 51.4504C10.5505 51.4195 10.6243 51.3862 10.6958 51.3529C10.7696 51.3196 10.8434 51.2839 10.9148 51.2482C10.991 51.2101 11.0648 51.1697 11.1386 51.1292C11.2148 51.0864 11.291 51.0436 11.3672 50.9984C11.4434 50.9532 11.522 50.908 11.5982 50.858C11.6768 50.8081 11.7553 50.7581 11.8339 50.7058C11.9149 50.651 11.9958 50.594 12.0768 50.5369C12.1577 50.4774 12.2411 50.4179 12.322 50.356C12.4054 50.2918 12.4887 50.2276 12.5721 50.161C12.6578 50.092 12.7435 50.023 12.8292 49.9492C12.9173 49.8755 13.0054 49.797 13.0935 49.7184C13.184 49.6376 13.2745 49.5543 13.3626 49.471C13.4554 49.3854 13.5459 49.295 13.6388 49.2046C13.734 49.1118 13.8293 49.0142 13.9221 48.9167C14.0197 48.8144 14.1174 48.7121 14.215 48.605C14.315 48.4956 14.415 48.3838 14.515 48.2672C14.6198 48.1482 14.7222 48.0269 14.8269 47.9032C14.9341 47.7747 15.0412 47.6415 15.1484 47.5059C15.1984 47.4416 15.2508 47.375 15.3008 47.3108C15.3603 47.2323 15.4222 47.1561 15.4817 47.0753C15.5984 46.923 15.7127 46.766 15.8294 46.6066C15.9508 46.44 16.0722 46.2687 16.1913 46.0927C16.3175 45.9095 16.4437 45.7216 16.5723 45.5312C16.7056 45.329 16.8389 45.1244 16.9723 44.9127C17.1128 44.6914 17.2533 44.4654 17.3937 44.2322C17.5437 43.9824 17.6961 43.7255 17.8461 43.4638C18.0081 43.1854 18.17 42.8999 18.3295 42.6049C18.3438 42.5788 18.3605 42.5502 18.3747 42.524C18.5343 42.2314 18.689 41.9459 18.8462 41.6557C19.02 41.3369 19.1938 41.0157 19.3653 40.7017C19.5438 40.371 19.72 40.0426 19.8939 39.7143C20.0724 39.3789 20.2534 39.0434 20.4296 38.7103C20.613 38.3678 20.7939 38.0252 20.9725 37.6873C21.0844 37.4756 21.1939 37.2662 21.3058 37.0569C21.3773 36.9213 21.4511 36.7833 21.5225 36.6477C21.7082 36.2956 21.8916 35.9458 22.0749 35.5961C22.2607 35.2416 22.4464 34.8871 22.6297 34.5374C22.6845 34.4327 22.7393 34.328 22.794 34.2234C22.9274 33.9712 23.0559 33.7237 23.1869 33.4739C23.2774 33.3026 23.3679 33.129 23.456 32.9601C23.4702 33.0053 23.4869 33.0528 23.5012 33.1004C23.5298 33.1885 23.5607 33.2812 23.5893 33.3693C23.6179 33.4597 23.6464 33.5477 23.6774 33.6381C23.706 33.7285 23.7345 33.8189 23.7655 33.9093C23.7941 33.9997 23.8226 34.0901 23.8512 34.1829C23.8798 34.2733 23.9084 34.3637 23.9369 34.4565C23.9655 34.5469 23.9941 34.6397 24.0227 34.7325C24.0512 34.8229 24.0798 34.9157 24.1084 35.0085C24.1369 35.0989 24.1655 35.1917 24.1941 35.2844C24.2227 35.3748 24.2512 35.47 24.2798 35.5628C24.3084 35.6556 24.337 35.746 24.3655 35.8411C24.3727 35.8697 24.3822 35.8959 24.3893 35.922C24.4108 35.9887 24.4298 36.0529 24.4489 36.1195C24.487 36.2432 24.5251 36.3669 24.5608 36.4906C24.5989 36.6144 24.637 36.7404 24.6727 36.8618C24.7108 36.9879 24.7489 37.1068 24.7846 37.2305C24.8227 37.3543 24.8608 37.478 24.8965 37.5993C24.9346 37.723 24.9727 37.8443 25.0108 37.9681C25.0489 38.0918 25.087 38.2155 25.1251 38.3368C25.1632 38.4605 25.2013 38.5819 25.2394 38.7032C25.2775 38.8269 25.3156 38.9483 25.3537 39.0696C25.3918 39.1933 25.4299 39.3146 25.468 39.4336C25.5061 39.5549 25.5442 39.6763 25.5823 39.7976C25.6204 39.9189 25.6585 40.0403 25.6989 40.1592C25.737 40.2806 25.7775 40.3995 25.8156 40.5185C25.8537 40.6398 25.8942 40.7588 25.9323 40.8777C25.9728 40.999 26.0109 41.1156 26.049 41.2322C26.0894 41.3511 26.1275 41.4701 26.168 41.5867C26.2085 41.7056 26.249 41.8222 26.2871 41.9364C26.3275 42.053 26.368 42.1696 26.4085 42.2838C26.4252 42.3313 26.4418 42.3789 26.4585 42.4265C26.4823 42.4931 26.5061 42.5621 26.5299 42.6287C26.5704 42.7453 26.6133 42.8571 26.6537 42.9689C26.6942 43.0831 26.7371 43.1973 26.7776 43.3068C26.8204 43.421 26.8609 43.528 26.9038 43.6375C26.9466 43.7493 26.9895 43.8587 27.03 43.9658C27.0728 44.0728 27.1157 44.1799 27.1562 44.2846V44.2893C27.2014 44.3964 27.2443 44.5035 27.2895 44.6081C27.3347 44.7128 27.3776 44.8199 27.4228 44.9222C27.4681 45.0269 27.5133 45.1268 27.5586 45.2267C27.6038 45.329 27.649 45.4289 27.6967 45.5265C27.7419 45.6264 27.7895 45.7239 27.8371 45.8191C27.8848 45.9166 27.9324 46.0094 27.98 46.1022C28.0133 46.1688 28.0491 46.2378 28.0824 46.3044C28.0967 46.3306 28.111 46.3568 28.1253 46.3806C28.1729 46.4686 28.2205 46.559 28.2729 46.6518C28.3205 46.7374 28.3729 46.8255 28.4253 46.9111C28.4753 46.9944 28.5277 47.0776 28.58 47.1633C28.63 47.2442 28.6824 47.3251 28.7372 47.406C28.7896 47.4845 28.842 47.563 28.8991 47.6391C28.9515 47.7129 29.0086 47.7866 29.0634 47.8604C29.1182 47.9317 29.1729 48.0055 29.2301 48.0769C29.2848 48.1459 29.3444 48.2125 29.4015 48.2791C29.4587 48.3457 29.5158 48.4099 29.5753 48.4742C29.6325 48.536 29.692 48.5979 29.7539 48.6597C29.8134 48.7192 29.8753 48.7763 29.9349 48.8334C29.9944 48.8905 30.0563 48.9476 30.1182 49.0023C30.1801 49.0547 30.2444 49.1046 30.3063 49.1546C30.3682 49.2046 30.4301 49.2569 30.4968 49.3045C30.5611 49.3497 30.6278 49.3925 30.6921 49.4377C30.7563 49.4805 30.8206 49.5281 30.8897 49.5686C30.954 49.609 31.0254 49.6447 31.0921 49.6828C31.1587 49.7208 31.2254 49.7589 31.2945 49.7946C31.3611 49.8279 31.4326 49.8612 31.504 49.8921C31.5731 49.923 31.6421 49.954 31.7135 49.9849C31.7826 50.0134 31.854 50.042 31.9278 50.0682C31.9993 50.0943 32.0731 50.1181 32.1445 50.1395C32.2183 50.1633 32.2874 50.1871 32.3636 50.2085C32.4374 50.2276 32.5136 50.2418 32.5874 50.2609C32.6612 50.2775 32.735 50.2989 32.8112 50.3132C32.885 50.3275 32.9636 50.337 33.0422 50.3489C33.1184 50.3608 33.1946 50.3703 33.2731 50.3798C33.3517 50.3893 33.4279 50.3989 33.5065 50.406C33.5851 50.4131 33.666 50.4131 33.7446 50.4155C33.8232 50.4179 33.9017 50.425 33.9827 50.425C34.0041 50.425 34.0256 50.4274 34.0494 50.4274C34.1113 50.4274 34.1684 50.4203 34.228 50.4203C34.3113 50.4203 34.3923 50.4155 34.4756 50.4108C34.5589 50.406 34.6423 50.4036 34.7232 50.3965C34.8113 50.3893 34.8923 50.3751 34.978 50.3632C35.0637 50.3513 35.1494 50.3441 35.2328 50.3299C35.3232 50.3156 35.409 50.2942 35.4947 50.2752C35.5828 50.2561 35.6733 50.2395 35.759 50.2157C35.8518 50.1919 35.9399 50.1633 36.0304 50.1348C36.1233 50.1062 36.2162 50.0801 36.3043 50.0468C36.4019 50.0111 36.4947 49.9682 36.59 49.9278C36.6876 49.885 36.7852 49.8422 36.8781 49.7969C36.9805 49.747 37.0805 49.6923 37.1781 49.6376C37.2853 49.5757 37.3876 49.5091 37.49 49.4425C37.6019 49.3687 37.7091 49.2902 37.8139 49.2117C37.9329 49.1213 38.0472 49.0261 38.1567 48.931C38.2853 48.8168 38.4067 48.7002 38.5234 48.5812C38.6639 48.4361 38.7972 48.2862 38.9234 48.1363C39.0901 47.9341 39.2425 47.7248 39.383 47.5178C39.602 47.1942 39.7925 46.873 39.9616 46.5638C39.9949 46.5019 40.0306 46.44 40.0616 46.3806C40.1664 46.1807 40.2711 45.969 40.3735 45.7501C40.5973 45.2767 40.8164 44.7628 41.0355 44.1989C41.2378 43.6803 41.4402 43.1212 41.6474 42.5193C41.7855 42.1196 41.926 41.6985 42.0688 41.2584C42.5355 39.8261 43.0356 38.1798 43.6142 36.2718L43.7189 35.9268C43.7618 35.784 43.8046 35.6484 43.8475 35.5081C44.1237 34.6088 44.3928 33.7594 44.6523 32.9672C44.669 33.0005 44.688 33.0338 44.7047 33.0671C44.7523 33.1575 44.8023 33.2527 44.8499 33.3455C44.8976 33.4383 44.9476 33.531 44.9952 33.6238C45.0428 33.7166 45.0928 33.8094 45.1404 33.9022C45.1881 33.995 45.2357 34.0854 45.2857 34.1805C45.2952 34.1972 45.3047 34.2162 45.3119 34.2329C45.35 34.3066 45.3904 34.3828 45.4309 34.4589C45.4785 34.5517 45.5285 34.6445 45.5762 34.7372C45.6238 34.83 45.6738 34.9228 45.7214 35.0156C45.769 35.1084 45.819 35.2012 45.8667 35.294C45.9 35.3558 45.9333 35.42 45.9643 35.4819C45.9976 35.5438 46.0286 35.608 46.0619 35.6699C46.0952 35.7317 46.1262 35.7936 46.1595 35.8578C46.1929 35.9197 46.2238 35.9815 46.2572 36.0457C46.2905 36.1076 46.3214 36.1695 46.3548 36.2337C46.3881 36.2956 46.4215 36.3598 46.4524 36.4216C46.4857 36.4835 46.5191 36.5477 46.55 36.6096C46.5834 36.6715 46.6167 36.7333 46.6477 36.7975C46.681 36.8594 46.7143 36.9213 46.7453 36.9855L46.7905 37.0735C46.8072 37.1068 46.8262 37.1401 46.8429 37.1734C46.8762 37.2353 46.9096 37.2972 46.9405 37.3614C46.9739 37.4232 47.0072 37.4851 47.0382 37.5493C47.0715 37.6112 47.1048 37.6731 47.1358 37.7373C47.1667 37.8015 47.2001 37.861 47.2334 37.9252C47.2667 37.9871 47.2977 38.049 47.331 38.1132C47.3644 38.1774 47.3953 38.2369 47.4286 38.3011C47.462 38.363 47.4953 38.4249 47.5287 38.4867C47.562 38.5486 47.5953 38.6104 47.6287 38.6723C47.662 38.7341 47.6953 38.796 47.7287 38.8578C47.762 38.9197 47.7953 38.9816 47.8287 39.0434C47.862 39.1053 47.8953 39.1671 47.9287 39.229L48.0287 39.4146C48.062 39.4764 48.0954 39.5383 48.1287 39.6001C48.162 39.662 48.1954 39.7238 48.2287 39.7857C48.262 39.8476 48.2954 39.9094 48.3287 39.9713C48.362 40.0331 48.3954 40.095 48.4287 40.1568C48.462 40.2187 48.493 40.2806 48.5287 40.3424C48.562 40.4043 48.5954 40.4661 48.6287 40.5256C48.662 40.5851 48.6954 40.6493 48.7287 40.7088C48.7621 40.7706 48.7954 40.8325 48.8287 40.892C48.8621 40.9515 48.8954 41.0157 48.9287 41.0752C48.9621 41.137 48.9954 41.1989 49.0287 41.2584C49.0621 41.3178 49.0954 41.3797 49.1287 41.4416C49.1621 41.5034 49.1954 41.5629 49.2287 41.6247C49.2621 41.6866 49.2954 41.7461 49.3288 41.8079C49.3621 41.8698 49.3954 41.9293 49.4288 41.9911C49.4621 42.053 49.4954 42.1125 49.5288 42.1743C49.5621 42.2362 49.5954 42.2956 49.6288 42.3575C49.6621 42.4194 49.6931 42.4788 49.7288 42.5407C49.7621 42.6026 49.7954 42.662 49.8288 42.7239C49.8621 42.7857 49.8954 42.8452 49.9288 42.9047C49.9621 42.9642 49.9954 43.026 50.0288 43.0855C50.0621 43.145 50.0955 43.2045 50.1312 43.2639C50.1645 43.3234 50.2002 43.3829 50.2336 43.4424C50.2669 43.5019 50.3026 43.5613 50.3359 43.6208C50.3693 43.6803 50.405 43.7374 50.4383 43.7969C50.4717 43.8563 50.5074 43.9134 50.5407 43.9705C50.5741 44.0276 50.6098 44.0871 50.6431 44.1442C50.6788 44.2013 50.7122 44.2584 50.7479 44.3155C50.7836 44.3726 50.8169 44.4297 50.8526 44.4844C50.8884 44.5415 50.9217 44.5986 50.9574 44.6533C50.9931 44.7104 51.0265 44.7675 51.0622 44.8222C51.0979 44.8793 51.1336 44.9317 51.1669 44.9888C51.2003 45.0459 51.2384 45.1006 51.2717 45.1553C51.3074 45.21 51.3431 45.2671 51.3789 45.3219C51.4146 45.3766 51.4503 45.4289 51.486 45.4836C51.5217 45.5384 51.5574 45.5931 51.5932 45.6454C51.6289 45.6978 51.6646 45.7549 51.7003 45.8072C51.736 45.8619 51.7717 45.9119 51.8098 45.9642C51.8456 46.0166 51.8813 46.0713 51.9194 46.1212C51.9551 46.1736 51.9932 46.2259 52.0289 46.2783C52.0646 46.3306 52.1027 46.3806 52.1384 46.4329C52.1741 46.4852 52.2122 46.5352 52.248 46.5875C52.2837 46.6375 52.3218 46.6898 52.3575 46.7398C52.3956 46.7898 52.4313 46.8397 52.4694 46.8897C52.5075 46.9396 52.5432 46.9896 52.5813 47.0396C52.6194 47.0895 52.6551 47.1395 52.6932 47.1871C52.7313 47.237 52.7694 47.2846 52.8075 47.3322C52.8456 47.3798 52.8837 47.4297 52.9218 47.4773C52.9599 47.5249 52.998 47.5725 53.0361 47.6201C53.0742 47.6677 53.1123 47.7129 53.1504 47.7604C53.1885 47.808 53.2266 47.8556 53.2647 47.9008C53.3028 47.9484 53.3409 47.9936 53.3813 48.0388C53.4194 48.084 53.4599 48.1292 53.498 48.1744C53.5361 48.2196 53.5766 48.2672 53.6147 48.31C53.6552 48.3552 53.6933 48.398 53.7314 48.4432C53.7718 48.4884 53.8099 48.5313 53.8504 48.5741C53.8909 48.6169 53.929 48.6621 53.9695 48.7049C54.0099 48.7478 54.0504 48.7882 54.0885 48.831C54.129 48.8739 54.1695 48.9167 54.2076 48.9571C54.2481 49 54.2885 49.0404 54.329 49.0808C54.3695 49.1213 54.41 49.1617 54.4504 49.2022C54.4909 49.2426 54.5314 49.2831 54.5719 49.3235C54.6124 49.364 54.6528 49.402 54.6957 49.4401C54.7362 49.4781 54.779 49.5186 54.8195 49.5567C54.86 49.5947 54.9029 49.6352 54.9433 49.6709C54.9862 49.7089 55.0267 49.7446 55.0695 49.7803C55.1124 49.8184 55.1529 49.8541 55.1957 49.8897C55.2386 49.9254 55.2791 49.9611 55.3219 49.9968C55.3648 50.0325 55.4076 50.0658 55.4505 50.1015C55.4934 50.1372 55.5362 50.1728 55.5791 50.2062C55.6219 50.2395 55.6648 50.2728 55.7077 50.3061C55.7505 50.3394 55.7934 50.3727 55.8362 50.406C55.8791 50.4393 55.9243 50.4702 55.9672 50.5012C56.0101 50.5321 56.0553 50.563 56.0982 50.594C56.141 50.6249 56.1863 50.6582 56.2291 50.6867C56.2744 50.7177 56.3172 50.7438 56.3625 50.7748C56.4077 50.8057 56.4506 50.8342 56.4958 50.8604C56.541 50.889 56.5863 50.9175 56.6315 50.9437C56.6768 50.9722 56.722 50.9984 56.7672 51.0246C56.8125 51.0507 56.8577 51.0793 56.903 51.1031C56.9482 51.1293 56.9958 51.153 57.0411 51.1768C57.0863 51.2006 57.1339 51.2268 57.1792 51.2506C57.2268 51.2744 57.272 51.2958 57.3196 51.3196C57.3673 51.3434 57.4125 51.3648 57.4601 51.3862C57.5078 51.4076 57.5554 51.429 57.603 51.4504C57.6506 51.4718 57.6982 51.4909 57.7459 51.5099C57.7935 51.5289 57.8411 51.5503 57.8887 51.5694C57.9363 51.5884 57.9863 51.6051 58.034 51.6217C58.0816 51.6384 58.1316 51.6574 58.1792 51.6741C58.2292 51.6907 58.2792 51.705 58.3268 51.7193C58.3768 51.7335 58.4268 51.7502 58.4745 51.7645C58.5245 51.7787 58.5745 51.7906 58.6245 51.8049C58.6745 51.8168 58.7245 51.8311 58.7745 51.843C58.8245 51.8549 58.8769 51.8668 58.9269 51.8763C58.9793 51.8858 59.0293 51.8977 59.0816 51.9072C59.134 51.9167 59.184 51.9262 59.2364 51.9334C59.2888 51.9405 59.3412 51.9477 59.3936 51.9548C59.4459 51.9619 59.4983 51.9691 59.5507 51.9738C59.6031 51.9786 59.6579 51.9833 59.7102 51.9881C59.7626 51.9929 59.8174 51.9952 59.8698 52C59.9245 52.0024 59.9793 52.0024 60.0317 52.0048C60.0722 52.0048 60.115 52.0071 60.1555 52.0071H60.2127C60.2627 52.0071 60.3103 52 60.3603 51.9976C60.4174 51.9976 60.4722 51.9929 60.527 51.9881C60.5817 51.9833 60.6389 51.9833 60.6936 51.9786C60.7508 51.9738 60.8079 51.9643 60.8651 51.9572C60.9246 51.95 60.9817 51.9405 61.0389 51.931C61.096 51.9215 61.1556 51.9167 61.2127 51.9048C61.2746 51.8929 61.3318 51.8763 61.3913 51.8644C61.4508 51.8501 61.5127 51.8358 61.5699 51.8216C61.6294 51.8049 61.6913 51.793 61.7508 51.774C61.8151 51.7549 61.8746 51.7312 61.9366 51.7121C61.9985 51.6907 62.0627 51.6717 62.1223 51.6503C62.1866 51.6265 62.2509 51.5979 62.3128 51.5718C62.389 51.5408 62.4675 51.5075 62.5413 51.4742C62.6223 51.4362 62.6985 51.3981 62.7771 51.3576C62.8556 51.3172 62.939 51.2768 63.0152 51.2339C63.1009 51.1863 63.1819 51.1316 63.2628 51.0817C63.3485 51.0269 63.4342 50.9722 63.5152 50.9127C63.6033 50.8509 63.6914 50.789 63.7747 50.7248C63.8676 50.6534 63.9581 50.5773 64.0462 50.5035C64.1438 50.4203 64.2391 50.3346 64.3295 50.2466C64.4343 50.1467 64.5343 50.0468 64.6296 49.9468C64.7438 49.8255 64.851 49.7065 64.951 49.5852C65.0843 49.4234 65.2034 49.264 65.3129 49.107C65.4606 48.8953 65.5867 48.6907 65.6868 48.5051C65.7106 48.4623 65.7439 48.4004 65.7844 48.3195C66.0296 47.839 66.5582 46.6732 66.9821 44.9127C67.0821 44.5011 67.1749 44.0562 67.2559 43.5804C67.3083 43.2735 67.3559 42.9547 67.3987 42.6216C67.4321 42.3623 67.463 42.0934 67.4868 41.8174C67.5083 41.5867 67.5273 41.3511 67.5416 41.1109C67.5559 40.8991 67.5654 40.6874 67.575 40.4685C67.5821 40.2758 67.5869 40.0783 67.5892 39.8785C67.5892 39.6977 67.5916 39.5121 67.5892 39.3265C67.5892 39.1552 67.5845 38.9816 67.5797 38.8055L67.5988 38.7936ZM15.1722 38.6104C15.0008 38.9268 14.8269 39.2456 14.6531 39.5644C14.5222 39.8024 14.3983 40.0379 14.265 40.2782C14.2221 40.3543 14.1817 40.4257 14.1412 40.5018C13.9793 40.7944 13.8197 41.0728 13.6626 41.3416C13.5126 41.5986 13.365 41.8436 13.2197 42.0791C13.0792 42.3052 12.9435 42.5217 12.8078 42.7286C12.6768 42.9309 12.5459 43.126 12.4197 43.3115C12.2958 43.4947 12.172 43.6708 12.053 43.8349C11.9339 43.9991 11.8196 44.1514 11.7053 44.3012C11.5934 44.4487 11.4815 44.5891 11.3744 44.7223C11.2672 44.8556 11.1601 44.984 11.0577 45.103C10.9553 45.2219 10.8529 45.3385 10.7553 45.4456C10.6553 45.555 10.56 45.6549 10.4648 45.7501C10.3696 45.8476 10.2767 45.9381 10.1862 46.0237C10.0934 46.1117 10.0053 46.1926 9.91715 46.2687C9.82905 46.3473 9.74095 46.4186 9.65761 46.4852C9.57189 46.5542 9.48856 46.6161 9.4076 46.6732C9.32426 46.7327 9.24331 46.7898 9.16711 46.8397C9.08616 46.8921 9.00996 46.9373 8.93615 46.9801C8.85757 47.0253 8.78138 47.0634 8.71233 47.0967C8.63613 47.1324 8.5647 47.1633 8.49803 47.1895C8.42183 47.218 8.35278 47.2418 8.29088 47.2585C8.21468 47.2799 8.14801 47.2941 8.09325 47.3013C8.02896 47.3108 7.97657 47.3132 7.94086 47.3155H7.93609C7.93609 47.3155 7.91705 47.3155 7.90752 47.3155C7.84799 47.3155 7.79085 47.306 7.7337 47.2941C7.67656 47.2822 7.62179 47.2656 7.56941 47.2442C7.51464 47.2228 7.46226 47.199 7.41226 47.1728C7.35987 47.1443 7.30987 47.1133 7.26225 47.08C7.21225 47.0443 7.16463 47.0086 7.11938 46.9682C7.07176 46.9278 7.02414 46.8849 6.98128 46.8421C6.93366 46.7945 6.88842 46.7469 6.84794 46.7017C6.80032 46.647 6.75746 46.5947 6.71936 46.5471C6.66698 46.4781 6.6265 46.421 6.59555 46.3782C6.56459 46.333 6.54555 46.3021 6.54316 46.2973L6.54793 46.3044L6.50745 46.2354C6.50745 46.2354 6.49316 46.2069 6.47888 46.1831C6.45506 46.1355 6.41697 46.0618 6.37173 45.9666C6.34077 45.9024 6.30744 45.8239 6.26934 45.7358C6.23839 45.6645 6.20505 45.5836 6.17172 45.4955C6.14076 45.417 6.10981 45.3361 6.07647 45.2457C6.04552 45.1648 6.01695 45.0768 5.98599 44.9864C5.95742 44.9008 5.92647 44.8104 5.89789 44.7176C5.86932 44.6272 5.84075 44.5368 5.81217 44.4392C5.78598 44.3464 5.75741 44.2489 5.73122 44.149C5.70502 44.0514 5.67883 43.9515 5.65502 43.8492C5.63121 43.7493 5.60502 43.6446 5.58121 43.5375C5.5574 43.4329 5.53597 43.3234 5.51216 43.214C5.49073 43.1045 5.4693 42.9927 5.44787 42.8785C5.42644 42.7643 5.40739 42.6478 5.38834 42.5288C5.36929 42.4098 5.35262 42.2861 5.33358 42.1624C5.31691 42.0363 5.30024 41.9102 5.28595 41.7794C5.27167 41.6485 5.25738 41.5153 5.2431 41.3797C5.23119 41.2417 5.21929 41.099 5.20976 40.9562C5.20024 40.8111 5.19071 40.6612 5.18357 40.5089C5.17643 40.3543 5.17166 40.1973 5.1669 40.0355C5.16214 39.869 5.16214 39.7 5.16214 39.5264C5.16214 39.3479 5.16452 39.1671 5.17166 38.9816C5.17643 38.7865 5.18595 38.589 5.19785 38.3868C5.20976 38.1727 5.22643 37.9562 5.24548 37.7349C5.26691 37.4946 5.2931 37.2472 5.32167 36.9974C5.35501 36.7167 5.39548 36.4312 5.44072 36.1385C5.49549 35.7912 5.55978 35.4367 5.63121 35.0751C5.7336 34.5731 5.85265 34.0568 5.99313 33.5239C6.3622 32.1298 6.87413 30.6357 7.56941 29.0441C7.79799 28.5183 8.04562 27.983 8.31707 27.4382C8.49803 27.0694 8.6909 26.6983 8.89329 26.3224C9.05282 26.0226 9.22188 25.7205 9.3957 25.4136C9.45522 25.3089 9.51237 25.2066 9.57428 25.0995C9.66714 24.9377 9.76238 24.7831 9.85524 24.6284C9.99573 24.3953 10.1362 24.1693 10.2767 23.9504C10.4077 23.7482 10.5362 23.5507 10.6672 23.3604C10.7886 23.182 10.9101 23.0083 11.0339 22.8394C11.1505 22.68 11.2648 22.5253 11.3791 22.3778C11.4887 22.2351 11.5982 22.0971 11.7077 21.9639C11.8125 21.8354 11.9173 21.7093 12.022 21.5903C12.122 21.4761 12.222 21.3667 12.322 21.2596C12.4173 21.1573 12.5125 21.0622 12.6078 20.967C12.7006 20.8742 12.7911 20.7862 12.884 20.7029C12.9745 20.6197 13.0626 20.5388 13.1507 20.4626C13.2364 20.3913 13.3197 20.3247 13.4054 20.258C13.4888 20.1938 13.5697 20.1343 13.6531 20.0772C13.734 20.0201 13.815 19.963 13.8936 19.9131C13.9697 19.8655 14.0459 19.8227 14.1221 19.7798C14.1959 19.7394 14.2721 19.7013 14.346 19.6656C14.4198 19.63 14.4912 19.5943 14.5626 19.5657C14.6317 19.5372 14.7007 19.5181 14.7698 19.4967C14.8388 19.4753 14.9055 19.4539 14.9722 19.4372C15.0388 19.4206 15.1031 19.4087 15.1674 19.3992C15.2317 19.3897 15.2936 19.3849 15.3579 19.3802C15.4198 19.3754 15.4817 19.3706 15.5436 19.373C15.5484 19.373 15.5555 19.373 15.5603 19.373C15.6127 19.373 15.6651 19.3873 15.7198 19.392C15.777 19.3992 15.8365 19.4016 15.8937 19.4135C15.9484 19.4254 16.0056 19.4444 16.0603 19.461C16.1151 19.4777 16.1722 19.4896 16.227 19.5086C16.2818 19.5277 16.3318 19.5538 16.3865 19.5752C16.4389 19.599 16.4913 19.6181 16.5437 19.6442C16.5961 19.6704 16.6461 19.699 16.6961 19.7299C16.7461 19.7584 16.7985 19.787 16.8485 19.8179C16.8985 19.8488 16.9461 19.8821 16.9961 19.9178C17.0461 19.9511 17.0937 19.9868 17.1413 20.0225C17.189 20.0582 17.2366 20.0963 17.2842 20.1343C17.3318 20.1724 17.3794 20.2128 17.4247 20.2533C17.4723 20.2937 17.5176 20.3342 17.5628 20.377C17.608 20.4198 17.6533 20.465 17.6985 20.5078C17.7438 20.553 17.789 20.5959 17.8342 20.6411C17.8795 20.6887 17.9223 20.7362 17.9676 20.7838C18.0128 20.8314 18.0557 20.879 18.0985 20.9289C18.1438 20.9789 18.1843 21.0312 18.2271 21.0812C18.27 21.1335 18.3128 21.1835 18.3557 21.2359C18.3985 21.2906 18.439 21.3429 18.4819 21.3976C18.5247 21.4523 18.5652 21.5071 18.6057 21.5618C18.6486 21.6189 18.689 21.676 18.7295 21.7331C18.7724 21.7926 18.8105 21.8497 18.851 21.9091C18.8914 21.9686 18.9319 22.0305 18.97 22.0876C19.0105 22.1518 19.0486 22.2137 19.0867 22.2731C19.1272 22.3398 19.1653 22.4016 19.2034 22.4635C19.2438 22.5301 19.2819 22.5967 19.3176 22.6586C19.3581 22.7299 19.3962 22.7989 19.4296 22.8632C19.4677 22.9345 19.4986 22.9988 19.5272 23.0582L19.5367 23.0773L19.6081 23.2176C19.6081 23.2176 19.6224 23.2438 19.6439 23.2866C19.6677 23.3318 19.7058 23.4032 19.7534 23.496C19.7843 23.5579 19.8201 23.6292 19.8605 23.7101C19.8939 23.7767 19.9272 23.8481 19.9677 23.929C20.001 23.998 20.0367 24.0717 20.0724 24.1502C20.1058 24.2192 20.1415 24.2954 20.1772 24.3739C20.2106 24.4453 20.2439 24.5214 20.2796 24.5999C20.3129 24.6713 20.3463 24.7498 20.382 24.8283C20.4153 24.902 20.4487 24.9782 20.4844 25.0567C20.5177 25.1328 20.551 25.2089 20.5868 25.2875C20.6201 25.3612 20.6534 25.4421 20.6868 25.5206C20.7201 25.5967 20.7534 25.6753 20.7868 25.7561C20.8201 25.8323 20.8534 25.9132 20.8868 25.9917C20.9201 26.0702 20.9534 26.1487 20.9868 26.2296C21.0201 26.3081 21.0511 26.3866 21.0844 26.4675C21.1154 26.546 21.1487 26.6269 21.182 26.7078C21.2154 26.7887 21.2463 26.8672 21.2797 26.9504C21.2868 26.9719 21.2963 26.9909 21.3035 27.0099C21.2606 27.0908 21.2154 27.1765 21.1701 27.2597C20.9939 27.5904 20.8153 27.9235 20.6344 28.2637C20.4534 28.6015 20.2725 28.9465 20.0891 29.2962C19.9082 29.6412 19.7224 29.9909 19.5367 30.3454C19.3534 30.6928 19.1676 31.0473 18.9819 31.4041C18.8652 31.6254 18.7533 31.8419 18.6343 32.0655C18.5652 32.1964 18.4938 32.332 18.4247 32.4652C18.2414 32.8173 18.0557 33.1694 17.8699 33.5239C17.6866 33.8713 17.5033 34.221 17.3175 34.5731C17.1366 34.9181 16.9532 35.2654 16.7699 35.6128C16.5913 35.9506 16.4103 36.2908 16.2294 36.6334C16.0532 36.9665 15.8746 37.2995 15.6936 37.6374C15.5198 37.9633 15.3436 38.2892 15.1674 38.6176L15.1722 38.6104ZM29.442 36.4264C29.4039 36.3051 29.3658 36.1814 29.3277 36.0576C29.2896 35.9363 29.2515 35.8126 29.2158 35.6889C29.1777 35.5652 29.142 35.4438 29.1039 35.3201C29.0658 35.1988 29.0277 35.0727 28.992 34.949C28.9539 34.8253 28.9182 34.7039 28.8801 34.5778L28.8753 34.5659C28.8372 34.4446 28.8015 34.328 28.7658 34.2091C28.7277 34.0854 28.6896 33.9617 28.6515 33.8403C28.6134 33.719 28.5753 33.5929 28.5372 33.4716C28.4991 33.3479 28.461 33.2289 28.4229 33.1076C28.3848 32.9862 28.3467 32.8625 28.3086 32.7436C28.2705 32.6222 28.2324 32.5009 28.1943 32.3819C28.1562 32.2606 28.1157 32.1416 28.0776 32.0227C28.0395 31.9037 27.9991 31.78 27.961 31.6634C27.9205 31.5421 27.8824 31.4255 27.8443 31.3066C27.8038 31.1876 27.7657 31.0687 27.7252 30.9521C27.6871 30.8331 27.6467 30.7118 27.6062 30.5976C27.5657 30.4787 27.5276 30.3645 27.4871 30.2455C27.4466 30.1289 27.4062 30.01 27.3681 29.8958C27.3276 29.7792 27.2871 29.6626 27.249 29.546C27.2085 29.4295 27.1681 29.3153 27.1276 29.1987C27.0871 29.0845 27.0466 28.9655 27.0061 28.8513C26.9752 28.7633 26.9442 28.6801 26.9133 28.5944C26.8823 28.5088 26.8514 28.4207 26.8204 28.3375C26.7895 28.2518 26.7585 28.1638 26.7276 28.0805C26.6966 27.9925 26.6657 27.9116 26.6347 27.826C26.6037 27.7403 26.5728 27.6547 26.5418 27.5714C26.5156 27.4976 26.4871 27.4191 26.4585 27.3454C26.6061 27.0789 26.7514 26.8196 26.8966 26.5627C27.0561 26.2772 27.2157 25.9988 27.3728 25.7252C27.5276 25.4564 27.68 25.1947 27.8324 24.9354C27.98 24.6832 28.1276 24.4381 28.2753 24.1955C28.4181 23.9599 28.5586 23.7315 28.6991 23.5055C28.8348 23.2866 28.9705 23.0749 29.1063 22.8655C29.2801 22.5991 29.4515 22.3398 29.6229 22.0899C29.6563 22.04 29.692 21.9853 29.7277 21.9377C29.8587 21.7474 29.9873 21.5665 30.1111 21.3953C30.2682 21.1764 30.423 20.9718 30.5706 20.7791C30.7206 20.5864 30.8635 20.4055 31.004 20.2366C31.1468 20.0653 31.2826 19.9083 31.4135 19.7608C31.5469 19.6109 31.6778 19.4729 31.8016 19.3468C31.9302 19.216 32.0516 19.0994 32.1683 18.9924C32.2898 18.8805 32.4064 18.7806 32.516 18.6926C32.6326 18.5998 32.7422 18.5165 32.8445 18.4452C32.9541 18.369 33.0588 18.3048 33.1565 18.2501C33.2612 18.1906 33.3589 18.143 33.4493 18.105C33.5493 18.0621 33.6422 18.0312 33.7255 18.0098C33.8232 17.986 33.9089 17.9717 33.9827 17.967C34.0041 17.967 34.0279 17.967 34.047 17.967C34.0994 17.967 34.1565 17.9717 34.2208 17.9812C34.2899 17.9908 34.3637 18.0074 34.4446 18.0336C34.5113 18.055 34.5827 18.0812 34.6589 18.1121C34.7256 18.1406 34.7947 18.1739 34.8661 18.212C34.9304 18.2453 34.997 18.2834 35.0685 18.3286C35.1328 18.3667 35.1971 18.4095 35.2661 18.4571C35.328 18.4999 35.3923 18.5475 35.459 18.5974C35.5209 18.645 35.5828 18.695 35.6495 18.7473C35.709 18.7973 35.7733 18.852 35.8352 18.9067C35.8947 18.9591 35.9566 19.0161 36.0185 19.0756C36.0781 19.1303 36.1376 19.1898 36.1995 19.2517C36.259 19.3088 36.3185 19.3706 36.3781 19.4325C36.4352 19.492 36.4947 19.5562 36.5543 19.6204C36.6114 19.6823 36.6709 19.7465 36.7281 19.8131C36.7852 19.8774 36.8424 19.944 36.9019 20.0106C36.9591 20.0772 37.0162 20.1438 37.0733 20.2128C37.1281 20.2795 37.1853 20.3484 37.2424 20.4198C37.2972 20.4888 37.3543 20.5602 37.4115 20.6316C37.4662 20.7006 37.5234 20.7743 37.5781 20.8481C37.6329 20.9194 37.6877 20.9908 37.7448 21.0669C37.7996 21.1383 37.8543 21.2144 37.9091 21.2906C37.9639 21.3643 38.0163 21.4405 38.0734 21.5166C38.1258 21.5903 38.1805 21.6688 38.2353 21.745C38.2805 21.8092 38.3234 21.8711 38.3686 21.9353C38.3782 21.9496 38.3877 21.9639 38.3972 21.9758C38.4496 22.0519 38.5044 22.1328 38.5568 22.2113C38.6091 22.2898 38.6639 22.3683 38.7163 22.4468C38.7687 22.5253 38.8211 22.6062 38.8734 22.6871C38.9258 22.768 38.9782 22.8489 39.0306 22.9298C39.083 23.0107 39.1354 23.0915 39.1877 23.1724C39.2401 23.2533 39.2925 23.3366 39.3425 23.4199C39.3949 23.5031 39.4473 23.584 39.4973 23.6673C39.5497 23.7506 39.5997 23.8338 39.652 23.9171C39.702 24.0004 39.7544 24.086 39.8068 24.1693C39.8592 24.2549 39.9092 24.3358 39.9616 24.4215C40.0116 24.5047 40.064 24.5928 40.114 24.6784C40.164 24.7641 40.2164 24.8497 40.2664 24.9354C40.3164 25.021 40.3688 25.1066 40.4188 25.1923C40.4688 25.2779 40.5188 25.366 40.5711 25.454C40.6211 25.542 40.6712 25.6277 40.7212 25.7157C40.7712 25.8037 40.8212 25.8894 40.8712 25.9774C40.9212 26.0654 40.9712 26.1535 41.0212 26.2415C41.0712 26.3295 41.1212 26.4152 41.1712 26.5056C41.2212 26.5936 41.2712 26.684 41.3212 26.772C41.3712 26.86 41.4212 26.9504 41.4712 27.0385C41.5212 27.1289 41.5712 27.2145 41.6212 27.3049C41.626 27.3145 41.6331 27.3263 41.6379 27.3359C40.9259 29.2534 40.1092 31.642 39.2235 34.5588L39.1187 34.9038C38.9615 35.4248 38.8091 35.9268 38.6591 36.4121C37.5996 39.8832 36.7781 42.4574 35.978 44.0395C35.9519 44.0895 35.928 44.1442 35.9019 44.1918C35.7137 44.5487 35.5447 44.8199 35.3875 45.0316C35.2471 45.2196 35.1161 45.3599 34.9947 45.4622C34.8875 45.5503 34.7851 45.6097 34.6851 45.6526C34.5946 45.6906 34.5042 45.712 34.4161 45.7263C34.3327 45.7382 34.2494 45.743 34.166 45.7453C34.1256 45.7453 34.0851 45.7453 34.0422 45.7453C34.0041 45.7453 33.9637 45.7453 33.9232 45.7453C33.847 45.7453 33.7708 45.7382 33.6898 45.7215C33.6208 45.7073 33.547 45.6835 33.4732 45.6502C33.4089 45.6216 33.3422 45.5836 33.2708 45.5336C33.2112 45.4908 33.1469 45.4384 33.0827 45.3766C33.0255 45.3219 32.966 45.26 32.9065 45.1886C32.8517 45.1244 32.7969 45.053 32.7398 44.9745C32.6874 44.9031 32.635 44.8246 32.5802 44.7414C32.5302 44.6628 32.4779 44.5796 32.4255 44.4916C32.3779 44.4083 32.3279 44.3203 32.2755 44.2275C32.2564 44.1918 32.2374 44.1585 32.2159 44.1204C32.1874 44.0657 32.1588 44.0062 32.1302 43.9491C32.0826 43.8563 32.035 43.7612 31.9874 43.6613C31.9421 43.5637 31.8945 43.4685 31.8493 43.3662C31.804 43.2687 31.7588 43.164 31.7135 43.0593C31.6707 42.957 31.6254 42.8524 31.5802 42.7453C31.5373 42.6406 31.4945 42.5359 31.4492 42.4265C31.4064 42.3194 31.3635 42.21 31.3207 42.1006C31.2778 41.9935 31.2373 41.8817 31.1945 41.7675C31.154 41.6557 31.1111 41.5462 31.0706 41.432C31.0302 41.3202 30.9897 41.206 30.9468 41.0894C30.9064 40.9752 30.8659 40.861 30.8254 40.7445C30.7849 40.6303 30.7444 40.5137 30.704 40.3971C30.6635 40.2829 30.6254 40.164 30.5849 40.045C30.5444 39.9284 30.5063 39.8119 30.4659 39.6929C30.4278 39.5763 30.3873 39.455 30.3492 39.336C30.3111 39.2171 30.2706 39.1005 30.2325 38.9792C30.1944 38.8602 30.1563 38.7389 30.1158 38.6176C30.0777 38.4986 30.0396 38.3773 29.9992 38.2559C29.9611 38.137 29.923 38.0133 29.8849 37.8919C29.8468 37.7706 29.8087 37.6493 29.7706 37.5279C29.7325 37.4066 29.6944 37.2853 29.6563 37.1615C29.6182 37.0402 29.5801 36.9189 29.542 36.7952C29.5039 36.6738 29.4658 36.5501 29.4277 36.4264H29.442ZM53.4266 39.5073C53.3932 39.4455 53.3599 39.386 53.3266 39.3242C53.2932 39.2623 53.2599 39.2028 53.2266 39.141C53.1932 39.0791 53.1599 39.0172 53.1266 38.9578C53.0932 38.8959 53.0599 38.8341 53.0266 38.7746C52.9932 38.7127 52.9599 38.6509 52.9266 38.5914C52.8932 38.5295 52.8599 38.4677 52.8265 38.4082C52.7932 38.3463 52.7599 38.2845 52.7265 38.225C52.6932 38.1631 52.6599 38.1013 52.6265 38.0394C52.5932 37.9776 52.5599 37.9157 52.5265 37.8539C52.4932 37.792 52.4599 37.7302 52.4265 37.6683C52.3932 37.6064 52.3599 37.5446 52.3265 37.4827C52.2932 37.4209 52.2599 37.359 52.2265 37.2972C52.1932 37.2353 52.1599 37.1734 52.1265 37.1116C52.0932 37.0497 52.0598 36.9879 52.0265 36.926C51.9932 36.8642 51.9598 36.8023 51.9265 36.7404C51.8932 36.6786 51.8598 36.6167 51.8265 36.5549C51.7932 36.493 51.7598 36.4312 51.7265 36.3693C51.6932 36.3075 51.6598 36.2456 51.6265 36.1837C51.5932 36.1219 51.5598 36.06 51.5265 35.9982C51.4931 35.9363 51.4622 35.8745 51.4289 35.8102C51.3955 35.7484 51.3622 35.6865 51.3312 35.6223C51.2979 35.5604 51.2646 35.4986 51.2336 35.4343C51.2003 35.3725 51.1669 35.3106 51.136 35.2464C51.1027 35.1845 51.0693 35.1227 51.0384 35.0584C51.005 34.9966 50.9717 34.9347 50.9407 34.8705C50.9098 34.8062 50.8741 34.7468 50.8431 34.6825C50.8098 34.6207 50.7764 34.5564 50.7455 34.4946C50.7122 34.4327 50.6788 34.3685 50.6479 34.3066C50.6145 34.2448 50.5812 34.1805 50.5502 34.1187C50.5169 34.0568 50.4836 33.995 50.4526 33.9307C50.4193 33.8665 50.3883 33.807 50.355 33.7428C50.3217 33.6809 50.2907 33.6191 50.2574 33.5548C50.224 33.493 50.1907 33.4287 50.1597 33.3669C50.1264 33.305 50.0931 33.2408 50.0621 33.1789C50.0288 33.1171 49.9955 33.0528 49.9645 32.991C49.9312 32.9291 49.8978 32.8649 49.8669 32.803C49.8335 32.7412 49.8002 32.6769 49.7692 32.6151C49.7359 32.5532 49.7026 32.489 49.6716 32.4271C49.6407 32.3653 49.605 32.301 49.574 32.2392C49.5407 32.1773 49.5073 32.1131 49.4764 32.0512C49.443 31.987 49.4121 31.9275 49.3787 31.8633C49.3454 31.7991 49.3145 31.7396 49.2811 31.6753C49.2478 31.6135 49.2145 31.5493 49.1835 31.4874C49.1502 31.4255 49.1168 31.3613 49.0859 31.2994C49.0549 31.2376 49.0192 31.1734 48.9883 31.1115L48.8906 30.9235C48.8573 30.8617 48.824 30.7975 48.793 30.7356C48.7597 30.6714 48.7287 30.6119 48.6954 30.5476C48.662 30.4834 48.6287 30.4239 48.5978 30.3597C48.5668 30.2955 48.5311 30.236 48.5001 30.1718C48.4692 30.1075 48.4335 30.0457 48.4025 29.9838C48.3692 29.9219 48.3358 29.8577 48.3049 29.7959C48.2739 29.734 48.2382 29.6698 48.2073 29.6079C48.1739 29.546 48.1406 29.4818 48.1096 29.42C48.0763 29.3557 48.043 29.2962 48.012 29.2344C47.962 29.1416 47.9144 29.0512 47.8668 28.9584C47.8191 28.8656 47.7691 28.7752 47.7215 28.6824C47.6739 28.5896 47.6239 28.4969 47.5763 28.4065C47.5287 28.3161 47.4787 28.2209 47.431 28.1305C47.381 28.0377 47.3334 27.9473 47.2858 27.8569C47.2358 27.7641 47.1882 27.6737 47.1405 27.5833C47.0929 27.4929 47.0429 27.4001 46.9929 27.3097C46.9429 27.2193 46.8953 27.1265 46.8477 27.0361C46.8405 27.0218 46.8334 27.0075 46.8262 26.9957C46.9215 26.7601 47.0096 26.5412 47.0977 26.3295C47.6191 25.0638 48.0192 24.2073 48.2596 23.7173C48.4239 23.3794 48.5168 23.2153 48.5192 23.2081L48.6001 23.0487C48.6835 22.8703 48.8144 22.6276 48.9811 22.3516C49.1264 22.1137 49.3002 21.8497 49.4954 21.5808C49.6311 21.3952 49.7788 21.2073 49.9359 21.0217C50.0621 20.8718 50.1955 20.722 50.3336 20.5816C50.4502 20.4626 50.5717 20.3508 50.6955 20.2414C50.805 20.1462 50.9193 20.0558 51.0336 19.9702C51.1384 19.894 51.2431 19.8227 51.3503 19.7584C51.4193 19.718 51.486 19.6728 51.5574 19.6371C51.6217 19.6038 51.686 19.58 51.7527 19.5514C51.817 19.5253 51.8789 19.4967 51.9432 19.4753C52.0027 19.4539 52.0646 19.4373 52.1265 19.423C52.186 19.4087 52.2456 19.3944 52.3051 19.3849C52.3622 19.3754 52.4194 19.3683 52.4765 19.3635C52.5075 19.3611 52.5384 19.354 52.5694 19.3516C52.5932 19.3516 52.6194 19.354 52.6432 19.354C52.6956 19.354 52.7504 19.354 52.8051 19.3611C52.8575 19.3659 52.9099 19.3706 52.9623 19.3802C53.0123 19.3873 53.0647 19.3992 53.117 19.4087C53.167 19.4206 53.217 19.4301 53.2694 19.4468C53.3171 19.461 53.3671 19.4777 53.4171 19.4943C53.4671 19.511 53.5147 19.5253 53.5647 19.5443C53.6123 19.5633 53.6599 19.5871 53.7052 19.6085C53.7528 19.63 53.798 19.649 53.8457 19.6728C53.8909 19.6966 53.9385 19.7204 53.9838 19.7465C54.029 19.7703 54.0742 19.7989 54.1195 19.825C54.1647 19.8512 54.21 19.875 54.2552 19.9036C54.2981 19.9321 54.3433 19.9654 54.3862 19.994C54.429 20.0249 54.4743 20.0534 54.5171 20.0844C54.56 20.1153 54.6052 20.1462 54.6481 20.1795C54.6909 20.2105 54.7338 20.2485 54.7767 20.2818C54.8195 20.3151 54.8624 20.3484 54.9052 20.3841C54.9481 20.4198 54.9886 20.4531 55.0314 20.4912C55.0719 20.5269 55.1148 20.5673 55.1552 20.603C55.1957 20.6411 55.2386 20.6768 55.2791 20.7148C55.3195 20.7529 55.3624 20.791 55.4029 20.8314C55.4434 20.8695 55.4838 20.9123 55.5243 20.9527C55.5648 20.9932 55.6053 21.0336 55.6457 21.0741C55.6862 21.1145 55.7267 21.155 55.7672 21.1978C55.8053 21.2382 55.8458 21.2858 55.8862 21.3286C55.9267 21.3715 55.9648 21.4143 56.0053 21.4595C56.0458 21.5047 56.0839 21.5451 56.1243 21.5903C56.1624 21.6355 56.2005 21.6831 56.241 21.7283C56.2791 21.7735 56.3172 21.8211 56.3577 21.8663C56.3982 21.9115 56.4339 21.9567 56.4744 22.0043C56.5125 22.0519 56.5506 22.0971 56.5887 22.147C56.6268 22.1946 56.6648 22.2446 56.7006 22.2922C56.7387 22.3398 56.7768 22.3897 56.8125 22.4373C56.8506 22.4873 56.8887 22.5325 56.9244 22.5824C56.9601 22.6324 56.9982 22.6847 57.0363 22.7347C57.072 22.7846 57.1101 22.837 57.1458 22.8893C57.1815 22.9417 57.2196 22.9916 57.2554 23.0416C57.2911 23.0939 57.3292 23.1439 57.3649 23.1962C57.4006 23.2486 57.4363 23.3033 57.472 23.3556C57.5078 23.408 57.5435 23.4627 57.5792 23.515C57.6149 23.5697 57.6506 23.6197 57.6863 23.6744C57.722 23.7291 57.7578 23.7839 57.7935 23.8386C57.8292 23.8933 57.8649 23.9504 57.8982 24.0051C57.9316 24.0598 57.9697 24.1169 58.003 24.1717C58.0364 24.2264 58.0744 24.2811 58.1078 24.3382C58.1435 24.3953 58.1768 24.4524 58.2126 24.5095C58.2459 24.5666 58.2816 24.6261 58.3149 24.6832C58.3483 24.7403 58.384 24.7974 58.4173 24.8568C58.4507 24.9163 58.4864 24.971 58.5197 25.0305C58.5269 25.0424 58.534 25.0543 58.5411 25.0686C58.5673 25.1162 58.5935 25.1614 58.6221 25.2089C58.6554 25.2684 58.6888 25.3279 58.7245 25.3874C58.7578 25.4469 58.7935 25.5063 58.8269 25.5658C58.8602 25.6253 58.8935 25.6871 58.9269 25.7466C58.9602 25.8085 58.9935 25.868 59.0269 25.9298C59.0602 25.9917 59.0935 26.0512 59.1269 26.113C59.1602 26.1749 59.1936 26.2367 59.2269 26.2962C59.2602 26.3581 59.2936 26.4199 59.3245 26.4841C59.3578 26.546 59.3912 26.6102 59.4221 26.6721C59.4555 26.734 59.4888 26.7982 59.5198 26.86C59.5531 26.9243 59.584 26.9885 59.6174 27.0528C59.6507 27.117 59.6817 27.1812 59.715 27.2455C59.746 27.3097 59.7793 27.3739 59.8126 27.4382C59.846 27.5048 59.8769 27.569 59.9079 27.6356C59.9388 27.7022 59.9722 27.7665 60.0031 27.8331C60.0341 27.8997 60.0674 27.9639 60.0984 28.0306C60.1293 28.0972 60.1603 28.1638 60.1912 28.2328C60.2222 28.2994 60.2531 28.3684 60.2841 28.435C60.315 28.504 60.346 28.5706 60.3769 28.6396C60.4079 28.7086 60.4389 28.7776 60.4674 28.8466C60.4984 28.9156 60.5293 28.9846 60.5579 29.0536C60.5889 29.1249 60.6174 29.1939 60.6484 29.2653C60.6793 29.3367 60.7079 29.4081 60.7389 29.4771C60.7698 29.5484 60.7984 29.6198 60.8294 29.6888C60.8603 29.7625 60.8865 29.8339 60.9175 29.9077C60.946 29.9814 60.977 30.0528 61.0056 30.1265C61.0341 30.2003 61.0627 30.2741 61.0913 30.3478C61.1198 30.4239 61.1484 30.4977 61.177 30.5714C61.2056 30.6476 61.2341 30.7213 61.2627 30.7975C61.2913 30.8736 61.3175 30.9521 61.346 31.0282C61.3746 31.1044 61.4032 31.1829 61.4294 31.259C61.458 31.3375 61.4842 31.416 61.5103 31.4945C61.5365 31.573 61.5651 31.6539 61.5913 31.7324C61.6175 31.8133 61.6437 31.8942 61.6699 31.9751C61.6961 32.056 61.7223 32.1393 61.7485 32.2178C61.7746 32.301 61.8008 32.3843 61.8246 32.4676C61.8508 32.5509 61.877 32.6365 61.9008 32.7174C61.927 32.803 61.9508 32.8887 61.9747 32.9743C61.9985 33.06 62.0247 33.148 62.0485 33.2337C62.0723 33.3217 62.0961 33.4097 62.1199 33.5001C62.1437 33.5881 62.1675 33.6785 62.1913 33.7666C62.2151 33.8594 62.2366 33.9498 62.258 34.0425C62.2794 34.1353 62.3032 34.2281 62.3247 34.3209C62.3461 34.4161 62.3675 34.5112 62.389 34.6064C62.4104 34.7039 62.4318 34.8015 62.4509 34.8966C62.4723 34.9942 62.4913 35.0941 62.5104 35.1917C62.5294 35.294 62.5485 35.3939 62.5675 35.4962C62.5866 35.6009 62.6056 35.7032 62.6223 35.8078C62.6414 35.9149 62.658 36.0196 62.6747 36.1266C62.6914 36.2361 62.708 36.3455 62.7247 36.455C62.7414 36.5692 62.7556 36.681 62.7699 36.7928C62.7842 36.9094 62.7985 37.0259 62.8128 37.1401C62.8271 37.2615 62.839 37.3804 62.8509 37.4994C62.8628 37.6255 62.8747 37.7492 62.8842 37.8729C62.8937 38.0037 62.9033 38.1322 62.9128 38.2607C62.9223 38.3987 62.9295 38.5319 62.9342 38.6675C62.9414 38.8126 62.9461 38.953 62.9485 39.0934C62.9533 39.2456 62.9533 39.3955 62.9557 39.543C62.9557 39.7048 62.9557 39.8642 62.9509 40.0212C62.9461 40.1997 62.9414 40.371 62.9319 40.5423C62.9223 40.7373 62.9104 40.9253 62.8961 41.1109C62.8795 41.3321 62.858 41.5462 62.8342 41.7532C62.8033 42.0173 62.7699 42.2695 62.7318 42.5121C62.6747 42.8785 62.608 43.2187 62.5366 43.5328C62.1675 45.1791 61.6794 46.1022 61.6223 46.2045L61.5794 46.2854C61.5794 46.2854 61.5699 46.2997 61.558 46.3187C61.5151 46.3829 61.4103 46.54 61.2556 46.7136C61.1818 46.7945 61.0984 46.8778 61.0056 46.9563C60.9365 47.0158 60.8627 47.0681 60.7841 47.1181C60.7198 47.1585 60.6532 47.1942 60.5817 47.2228C60.5222 47.2489 60.4603 47.268 60.396 47.2822C60.3389 47.2941 60.2817 47.3037 60.2222 47.306C60.2127 47.306 60.2031 47.3084 60.1912 47.3084H60.1841C60.1531 47.3084 60.1103 47.306 60.0603 47.2989C60.015 47.2941 59.965 47.2846 59.9055 47.2703C59.8603 47.2608 59.8103 47.2466 59.7555 47.2299C59.7102 47.2156 59.6602 47.199 59.6102 47.1776C59.565 47.1609 59.5174 47.1395 59.4674 47.1181C59.4221 47.0991 59.3745 47.0753 59.3269 47.0515C59.2817 47.0301 59.2364 47.0039 59.1888 46.9777C59.1436 46.9539 59.0983 46.9254 59.0531 46.8992C59.0102 46.873 58.965 46.8445 58.9197 46.8136C58.8769 46.785 58.8316 46.7565 58.7864 46.7232C58.7435 46.6946 58.7007 46.6613 58.6554 46.628C58.6126 46.5971 58.5697 46.5638 58.5269 46.5281C58.484 46.4948 58.4411 46.4615 58.3983 46.4258C58.3554 46.3925 58.3149 46.3568 58.2721 46.3187C58.2316 46.283 58.1887 46.2473 58.1459 46.2093C58.1054 46.1736 58.0625 46.1355 58.0221 46.0975C57.9816 46.0594 57.9411 46.0189 57.8982 45.9809C57.8578 45.9428 57.8173 45.9024 57.7744 45.8619C57.734 45.8215 57.6935 45.781 57.653 45.7406C57.6125 45.7001 57.572 45.6573 57.5316 45.6169C57.4911 45.5764 57.453 45.5336 57.4125 45.4884C57.3744 45.4456 57.3339 45.4028 57.2935 45.3575C57.2554 45.3147 57.2149 45.2695 57.1768 45.2243C57.1387 45.1815 57.0982 45.1363 57.0601 45.0887C57.022 45.0435 56.9839 44.9983 56.9434 44.9507C56.9053 44.9055 56.8672 44.8603 56.8268 44.8127C56.7887 44.7675 56.7506 44.7176 56.7125 44.67C56.6744 44.6224 56.6363 44.5772 56.5982 44.5272C56.5601 44.4797 56.522 44.4297 56.4863 44.3797C56.4506 44.3298 56.4125 44.2822 56.3744 44.2322C56.3363 44.1847 56.3005 44.1323 56.2624 44.0824C56.2267 44.0324 56.1886 43.9824 56.1505 43.9301C56.1124 43.8801 56.0767 43.8302 56.0386 43.7778C56.0029 43.7279 55.9648 43.6731 55.9291 43.6232C55.8934 43.5708 55.8553 43.5209 55.8196 43.4685C55.7839 43.4162 55.7481 43.3639 55.71 43.3115C55.6743 43.2592 55.6386 43.2045 55.6029 43.1521C55.5672 43.0974 55.5315 43.0474 55.4957 42.9927C55.46 42.9404 55.4243 42.8833 55.3886 42.8286C55.3529 42.7738 55.3172 42.7191 55.2814 42.6644C55.2457 42.6097 55.21 42.5573 55.1743 42.5002C55.1386 42.4455 55.1052 42.3884 55.0695 42.3313C55.0338 42.2766 55.0005 42.2195 54.9648 42.1624C54.929 42.1053 54.8957 42.053 54.86 41.9935C54.8267 41.9388 54.7909 41.8793 54.7552 41.8222C54.7219 41.7651 54.6862 41.708 54.6505 41.6485C54.6147 41.5914 54.5814 41.5343 54.5457 41.4749C54.5124 41.4178 54.4766 41.3583 54.4433 41.2988C54.41 41.2417 54.3743 41.1822 54.3409 41.1228C54.3076 41.0633 54.2742 41.0062 54.2385 40.9467C54.2052 40.8872 54.1719 40.8277 54.1361 40.7683C54.1028 40.7088 54.0695 40.6469 54.0361 40.5875C54.0028 40.528 53.9695 40.4685 53.9361 40.4066C53.9076 40.3567 53.8814 40.3115 53.8552 40.2615C53.848 40.2496 53.8433 40.2377 53.8361 40.2258C53.8028 40.164 53.7695 40.1045 53.7361 40.0426C53.7028 39.9808 53.6695 39.9213 53.6361 39.8594C53.6028 39.7976 53.5695 39.7381 53.5361 39.6763C53.5028 39.6144 53.4694 39.5549 53.4361 39.4931L53.4266 39.5073Z" fill="url(#paint0_linear_270_480)"/>
<path d="M29.9515 4.89143C29.9706 5.00087 29.9944 5.10555 30.0206 5.21023C30.0444 5.30539 30.073 5.40056 30.1039 5.49334C30.1325 5.57899 30.1634 5.66464 30.1968 5.74791C30.2277 5.82404 30.2634 5.89779 30.3015 5.97154C30.3373 6.04292 30.3706 6.11667 30.4087 6.18566C30.4444 6.2499 30.4849 6.31413 30.5254 6.37599C30.5635 6.43785 30.6039 6.49732 30.6444 6.5568C30.6849 6.6139 30.7254 6.66862 30.7682 6.72334C30.8087 6.77568 30.8516 6.82802 30.8968 6.88036C30.9397 6.93032 30.9825 6.9779 31.0278 7.02548C31.0706 7.07307 31.1159 7.11827 31.1611 7.16347C31.2064 7.2063 31.2516 7.24912 31.2992 7.28956C31.3445 7.33001 31.3921 7.37283 31.4397 7.4109C31.4873 7.44896 31.5349 7.48227 31.5849 7.51796C31.6326 7.55364 31.6802 7.59171 31.7302 7.62502C31.7778 7.65832 31.8302 7.68449 31.8802 7.71542C31.9302 7.74635 31.9802 7.77728 32.0302 7.80583C32.0802 7.83438 32.1326 7.85817 32.185 7.88434C32.2374 7.91051 32.2874 7.93668 32.3421 7.96047C32.3945 7.98426 32.4469 8.00805 32.5017 8.02946C32.554 8.05088 32.6088 8.06991 32.6636 8.08894C32.7183 8.10797 32.7707 8.12939 32.8255 8.14604C32.8802 8.16269 32.9374 8.17459 32.9922 8.18886C33.0469 8.20314 33.1041 8.21979 33.1588 8.23169C33.216 8.24358 33.2731 8.2531 33.3303 8.26262C33.3874 8.27213 33.4446 8.28165 33.5041 8.28879C33.5612 8.29592 33.6208 8.30544 33.6803 8.3102C33.7398 8.31496 33.7993 8.31734 33.8589 8.31971C33.9184 8.32209 33.9779 8.32923 34.0375 8.32923C34.0422 8.32923 34.0494 8.32923 34.0541 8.32923C34.1113 8.32923 34.166 8.32209 34.2232 8.31971C34.3065 8.31734 34.3899 8.31496 34.4708 8.30782C34.5565 8.2983 34.6422 8.28403 34.728 8.26975C34.8161 8.25548 34.9018 8.2412 34.9875 8.21979C35.078 8.19838 35.1661 8.17697 35.2542 8.1508C35.3494 8.12225 35.4399 8.08894 35.5304 8.05325C35.628 8.01757 35.7233 7.97712 35.8161 7.93192C35.9161 7.88434 36.0161 7.83438 36.1114 7.77966C36.2185 7.72018 36.3209 7.65595 36.4233 7.58457C36.54 7.50368 36.6495 7.41804 36.7566 7.32763C36.8876 7.21581 37.009 7.09686 37.1257 6.96839C37.29 6.78757 37.44 6.59487 37.5734 6.38789C37.9091 5.85972 38.1329 5.25543 38.202 4.60118C38.2186 4.45368 38.2258 4.30617 38.2258 4.15629C38.2258 4.0635 38.2186 3.9731 38.2115 3.88031C38.1996 3.70664 38.1805 3.53534 38.1496 3.36881C38.1234 3.23082 38.09 3.09521 38.0496 2.96198C38.0139 2.8454 37.9734 2.72883 37.9281 2.61701C37.8877 2.51471 37.84 2.41241 37.7924 2.31486C37.7472 2.22208 37.6972 2.13167 37.6448 2.04365C37.5948 1.96038 37.5448 1.87473 37.49 1.79622C37.4376 1.72009 37.3829 1.64634 37.3257 1.57496C37.271 1.50597 37.2138 1.43936 37.1543 1.37274C37.0971 1.30851 37.04 1.24427 36.9781 1.18479C36.9186 1.12769 36.8566 1.07297 36.7947 1.01826C36.7495 0.97781 36.7019 0.937366 36.6543 0.8993C36.6066 0.861234 36.559 0.825548 36.509 0.79224C36.4614 0.756554 36.4138 0.720867 36.3638 0.68756C36.3138 0.654253 36.2638 0.625703 36.2138 0.597154C36.1638 0.568605 36.1138 0.532919 36.0638 0.506748C36.0137 0.478199 35.959 0.456787 35.909 0.430617C35.8566 0.404447 35.8066 0.378277 35.7518 0.354486C35.6994 0.330695 35.6471 0.309283 35.5923 0.287871C35.5399 0.266459 35.4851 0.247426 35.4304 0.228394C35.3756 0.209361 35.3232 0.187949 35.2685 0.171295C35.2137 0.154642 35.1566 0.142746 35.1018 0.128471C35.047 0.114197 34.9899 0.0975431 34.9351 0.0856476C34.878 0.0737521 34.8208 0.0666148 34.7637 0.0570984C34.7065 0.047582 34.6494 0.0380656 34.5899 0.0309283C34.5303 0.023791 34.4732 0.0166537 34.4137 0.0118955C34.3541 0.0071373 34.2946 0.0047582 34.2351 0.0023791C34.1779 0.0023791 34.1208 -0.0071373 34.0636 -0.0071373C34.0613 -0.0071373 34.0589 -0.0071373 34.0541 -0.0071373C33.9922 -0.0071373 33.9303 2.79397e-09 33.8684 0.0023791C33.8065 0.0047582 33.7446 0.0071373 33.6827 0.0118955C33.6184 0.0166537 33.5541 0.0285492 33.4922 0.0356865C33.4279 0.0452029 33.3636 0.0523402 33.2993 0.0642357C33.2326 0.0761312 33.166 0.0927849 33.1017 0.10706C33.035 0.123713 32.966 0.140367 32.9017 0.1594C32.8326 0.180812 32.7636 0.202224 32.6945 0.226015C32.6231 0.249806 32.554 0.273597 32.485 0.302146C32.4112 0.333074 32.3397 0.366381 32.2683 0.402068C32.1945 0.437755 32.1183 0.473441 32.0469 0.511507C31.9683 0.55433 31.8897 0.604291 31.8135 0.651874C31.7302 0.704214 31.6492 0.763691 31.5707 0.82079C31.4826 0.887405 31.3968 0.954019 31.3159 1.02777C31.2206 1.11104 31.1278 1.19907 31.0397 1.29185C30.9278 1.41081 30.823 1.53452 30.7254 1.66537C30.5539 1.89614 30.4039 2.14357 30.2825 2.40765C30.173 2.64318 30.0872 2.89061 30.023 3.14755C29.9539 3.4259 29.9134 3.71378 29.9015 4.00878C29.9015 4.05637 29.8944 4.10395 29.8944 4.15391C29.8944 4.27049 29.9015 4.38468 29.911 4.49888C29.9206 4.62735 29.9396 4.75344 29.9611 4.87716L29.9515 4.89143Z" fill="url(#paint1_linear_270_480)"/>
<path d="M47.3025 4.97946C47.3286 5.11745 47.362 5.25068 47.4025 5.38391C47.4382 5.50048 47.481 5.61468 47.5263 5.7265C47.5668 5.8288 47.6144 5.92872 47.6644 6.02626C47.7096 6.11905 47.7596 6.20707 47.812 6.29748C47.862 6.38075 47.912 6.46402 47.9692 6.54491C48.0215 6.62104 48.0763 6.69479 48.1334 6.76616C48.1882 6.83516 48.2477 6.90177 48.3049 6.96601C48.362 7.03024 48.4216 7.0921 48.4811 7.15396C48.5406 7.21105 48.6025 7.26577 48.6644 7.32049C48.7263 7.37283 48.7882 7.42517 48.8525 7.47276C48.9168 7.52034 48.9787 7.5703 49.0454 7.6155C49.1097 7.65833 49.1787 7.69877 49.2454 7.73921C49.3121 7.77966 49.3788 7.8201 49.4478 7.85579C49.5145 7.89148 49.5859 7.92478 49.655 7.95571C49.724 7.98664 49.7954 8.01757 49.8669 8.04612C49.9383 8.07467 50.0097 8.10084 50.0812 8.12463C50.1526 8.14842 50.2264 8.16983 50.3026 8.18886C50.3764 8.2079 50.4502 8.22931 50.5264 8.24596C50.6026 8.26262 50.6788 8.27213 50.755 8.28403C50.8312 8.29592 50.9074 8.3102 50.986 8.31734C51.0646 8.32447 51.1455 8.32685 51.2241 8.32923C51.2789 8.32923 51.336 8.33875 51.3908 8.33875C51.4146 8.33875 51.4408 8.33637 51.4646 8.33399C51.5479 8.33399 51.6289 8.32685 51.7122 8.32209C51.7979 8.31496 51.8813 8.30544 51.9646 8.29355C52.0503 8.28165 52.136 8.27213 52.2218 8.25548C52.3122 8.23645 52.4003 8.21266 52.4884 8.18886C52.5813 8.16269 52.6718 8.13652 52.7599 8.1056C52.8551 8.07229 52.948 8.03898 53.0409 8.00092C53.1409 7.95809 53.2385 7.91051 53.3337 7.86055C53.4385 7.80583 53.5409 7.74397 53.6409 7.67974C53.7528 7.60836 53.8599 7.53223 53.9647 7.44896C54.0861 7.3538 54.2052 7.2515 54.3147 7.14444C54.4624 6.99931 54.5981 6.83991 54.7219 6.67576C55.2243 6.00961 55.5291 5.19358 55.5553 4.30379C55.5553 4.26097 55.5624 4.21815 55.5624 4.17532C55.5624 4.00879 55.5505 3.84463 55.5315 3.68523C55.5124 3.52821 55.4838 3.37594 55.4505 3.22606C55.4195 3.09521 55.3838 2.96912 55.341 2.84303C55.3029 2.73121 55.2624 2.61939 55.2148 2.51233C55.1719 2.41241 55.1243 2.31487 55.0743 2.22208C55.0267 2.13405 54.9743 2.04841 54.9219 1.96514C54.8719 1.88425 54.8171 1.80574 54.7624 1.72961C54.7076 1.65586 54.6552 1.5821 54.5957 1.51073C54.5409 1.44412 54.479 1.38226 54.4195 1.31802C54.3623 1.25617 54.3004 1.19669 54.2385 1.13959C54.179 1.08249 54.1171 1.02539 54.0552 0.973053C53.9933 0.920713 53.929 0.87551 53.8623 0.827928C53.798 0.780346 53.7337 0.732764 53.6671 0.68994C53.6028 0.647117 53.5337 0.606672 53.4671 0.568606C53.4004 0.530541 53.3313 0.494854 53.2623 0.459168C53.1932 0.423481 53.1242 0.390174 53.0551 0.359245C52.9861 0.328317 52.9123 0.302147 52.8408 0.275977C52.7694 0.249807 52.698 0.221258 52.6265 0.197467C52.5527 0.176055 52.4789 0.159401 52.4027 0.140368C52.3265 0.121335 52.2551 0.102303 52.1789 0.088028C52.1027 0.0737534 52.0265 0.064237 51.9479 0.0523415C51.8694 0.0428251 51.7932 0.0333087 51.7146 0.0261714C51.636 0.0190341 51.5551 0.016655 51.4765 0.0142759C51.4479 0.0142759 51.4193 0.00951767 51.3884 0.00951767C51.336 0.00951767 51.2836 0.016655 51.2312 0.016655C51.1479 0.0190341 51.0646 0.0214132 50.9836 0.0285505C50.8979 0.0356878 50.8122 0.0523415 50.7288 0.064237C50.6407 0.0785116 50.555 0.0927862 50.4693 0.111819C50.3788 0.130852 50.2907 0.154643 50.2026 0.180813C50.1097 0.209362 50.0169 0.24267 49.9264 0.275977C49.8288 0.311663 49.7359 0.352108 49.6431 0.394932C49.543 0.442514 49.443 0.490096 49.3478 0.544815C49.2406 0.604293 49.1383 0.668528 49.0383 0.735143C48.924 0.813654 48.8121 0.899301 48.7073 0.987328C48.5763 1.09677 48.4573 1.21572 48.3406 1.33943C48.1787 1.51311 48.0334 1.6963 47.9025 1.89377C47.5406 2.44334 47.3072 3.08332 47.2405 3.77325C47.2286 3.90411 47.2215 4.03733 47.2215 4.17294C47.2215 4.27524 47.2286 4.37755 47.2358 4.47747C47.2477 4.64876 47.2691 4.81768 47.3001 4.98422L47.3025 4.97946Z" fill="url(#paint2_linear_270_480)"/>
<path d="M13.1769 6.35933C13.215 6.42119 13.253 6.48305 13.2959 6.54253C13.3364 6.59962 13.3769 6.65434 13.4197 6.70906C13.4602 6.76378 13.5031 6.81612 13.5459 6.86846C13.5888 6.91842 13.634 6.96601 13.6769 7.01359C13.7197 7.06117 13.765 7.10875 13.8102 7.15158C13.8555 7.1944 13.9031 7.23484 13.9483 7.27767C13.9936 7.31811 14.0388 7.36094 14.0888 7.40138C14.1364 7.43945 14.184 7.47275 14.2341 7.50844C14.2817 7.54413 14.3293 7.58219 14.3793 7.6155C14.4269 7.64881 14.4793 7.67736 14.5293 7.70828C14.5793 7.73921 14.6293 7.77014 14.6793 7.79869C14.7293 7.82724 14.7817 7.85341 14.8341 7.87958C14.8865 7.90575 14.9389 7.93192 14.9912 7.95571C15.0436 7.9795 15.096 8.00329 15.1484 8.0247C15.2008 8.04612 15.2555 8.06515 15.3103 8.08418C15.3651 8.10322 15.4174 8.12701 15.4722 8.14366C15.527 8.16031 15.5841 8.17221 15.6389 8.18648C15.6937 8.20076 15.7508 8.21741 15.8056 8.22931C15.8627 8.2412 15.9199 8.2531 15.977 8.26261C16.0341 8.27213 16.0913 8.28165 16.1508 8.28878C16.208 8.29592 16.2675 8.30544 16.3246 8.31258C16.3842 8.31733 16.4437 8.31971 16.5032 8.32209C16.5627 8.32447 16.6223 8.33161 16.6818 8.33161C16.6937 8.33161 16.7032 8.33161 16.7151 8.33161C16.7651 8.33161 16.8151 8.32685 16.8651 8.32447C16.9271 8.32447 16.989 8.31971 17.0509 8.31495C17.1152 8.3102 17.1771 8.30306 17.2414 8.29592C17.3056 8.28878 17.3699 8.27689 17.4342 8.26737C17.5009 8.25548 17.5652 8.24358 17.6295 8.22931C17.6961 8.21503 17.7628 8.196 17.8295 8.17697C17.8985 8.15793 17.9676 8.1389 18.0343 8.11511C18.1057 8.09132 18.1747 8.06515 18.2438 8.03898C18.3176 8.01043 18.389 7.9795 18.4581 7.94619C18.5319 7.91289 18.6057 7.87958 18.6771 7.84151C18.7557 7.79869 18.8319 7.75111 18.9081 7.70353C18.9891 7.65357 19.07 7.60122 19.1462 7.54413C19.2319 7.48227 19.3153 7.42041 19.3962 7.35142C19.4891 7.27291 19.5796 7.19202 19.6653 7.10637C19.7724 6.99931 19.8724 6.88274 19.9677 6.76378C20.1105 6.58535 20.2367 6.3974 20.3487 6.19756C20.5772 5.79073 20.7368 5.34108 20.8177 4.86526C20.8558 4.63687 20.882 4.40371 20.882 4.1658C20.882 4.01354 20.8725 3.86366 20.8582 3.71615C20.8439 3.59482 20.8273 3.47349 20.8034 3.35453C20.782 3.24985 20.7558 3.14993 20.7272 3.05001C20.7011 2.95722 20.6725 2.86682 20.6415 2.77641C20.6106 2.69076 20.582 2.60749 20.5463 2.52422C20.5153 2.45047 20.4772 2.37672 20.4415 2.30535C20.4058 2.23635 20.3701 2.16498 20.332 2.09837C20.2939 2.03413 20.2558 1.96989 20.2153 1.90804C20.1772 1.84856 20.1367 1.78908 20.0939 1.73198C20.0534 1.67489 20.0129 1.62017 19.9701 1.56545C19.9296 1.51311 19.8843 1.46315 19.8415 1.41318C19.7986 1.36322 19.7558 1.31564 19.7105 1.26806C19.6653 1.22286 19.62 1.18003 19.5748 1.13483C19.5296 1.09201 19.4843 1.04918 19.4367 1.00874C19.3915 0.968293 19.3438 0.930227 19.2962 0.892161C19.2486 0.854096 19.201 0.818409 19.151 0.785102C19.1034 0.749415 19.0557 0.713729 19.0057 0.682801C18.9557 0.649493 18.9057 0.620944 18.8557 0.592395C18.8057 0.563846 18.7581 0.528159 18.7057 0.501989C18.6557 0.47344 18.6009 0.452028 18.5486 0.425858C18.4962 0.399688 18.4462 0.373518 18.3914 0.349727C18.339 0.325936 18.2843 0.306903 18.2319 0.285491C18.1795 0.264079 18.1247 0.245046 18.07 0.226013C18.0152 0.20698 17.9628 0.187948 17.9057 0.171294C17.8509 0.15464 17.7938 0.142745 17.739 0.12847C17.6842 0.114196 17.6271 0.0975419 17.5723 0.0856464C17.5152 0.0737508 17.458 0.0666135 17.3985 0.0570971C17.3414 0.0475807 17.2842 0.0380643 17.2247 0.030927C17.1652 0.0237897 17.108 0.0190315 17.0485 0.0142733C16.989 0.00951513 16.9294 0.00713603 16.8699 0.00475693C16.8175 0.00475693 16.7675 -0.00238037 16.7175 -0.00238037C16.708 -0.00238037 16.6985 -0.00238037 16.6913 -0.00238037C16.6294 -0.00238037 16.5675 0.00475693 16.5056 0.00713603C16.4437 0.00951513 16.3818 0.0118942 16.3199 0.0166524C16.2556 0.0237897 16.1913 0.0333061 16.127 0.0428225C16.0627 0.0523389 15.9984 0.0594762 15.9341 0.0713717C15.8675 0.0832672 15.8008 0.099921 15.7365 0.116575C15.6698 0.133228 15.6008 0.147503 15.5365 0.168915C15.4674 0.190327 15.3984 0.214118 15.3293 0.237909C15.2579 0.2617 15.1889 0.285491 15.1198 0.31404C13.6102 0.942123 12.5482 2.42668 12.5482 4.16342C12.5482 4.88905 12.734 5.57185 13.0626 6.16663C13.0983 6.23086 13.1388 6.2951 13.1792 6.35696L13.1769 6.35933Z" fill="url(#paint3_linear_270_480)"/>
<path d="M84.5925 23.3199C83.8091 23.3199 83.14 23.0678 82.5805 22.5658C82.0209 22.0638 81.7424 21.4214 81.7424 20.6387C81.7424 19.9321 82.0209 19.3183 82.5805 18.7973C83.14 18.2762 83.8091 18.0169 84.5925 18.0169C85.3759 18.0169 85.9807 18.2786 86.5212 18.7973C87.0617 19.3183 87.3307 19.9321 87.3307 20.6387C87.3307 21.4214 87.0593 22.0614 86.5212 22.5658C85.9807 23.0678 85.3378 23.3199 84.5925 23.3199ZM84.5925 43.1378C83.8853 43.1378 83.2877 42.9332 82.8043 42.524C82.321 42.1148 82.0781 41.5938 82.0781 40.961V28.2875C82.0781 27.6927 82.3114 27.1812 82.7757 26.753C83.2401 26.3247 83.8472 26.1106 84.5925 26.1106C85.3378 26.1106 85.9235 26.3247 86.3521 26.753C86.7807 27.1812 86.995 27.7118 86.995 28.3446V40.9063C86.995 41.5391 86.7617 42.0696 86.2974 42.4979C85.8307 42.9261 85.264 43.1402 84.5925 43.1402V43.1378Z" fill="black"/>
<path d="M93.4192 43.1378C92.6739 43.1378 92.05 42.8595 91.5476 42.3004C91.0452 41.7413 90.85 41.0918 90.9619 40.3472L93.3096 22.4254C93.4215 21.607 93.7573 20.9456 94.3144 20.4436C94.874 19.9416 95.5431 19.6894 96.3265 19.6894C97.9265 19.6894 98.9718 20.3794 99.4552 21.7545L103.255 32.696C103.441 33.0695 103.627 33.2551 103.815 33.2551C104.074 33.2551 104.263 33.0695 104.374 32.696L108.175 21.7545C108.658 20.377 109.684 19.6894 111.249 19.6894C112.106 19.6894 112.804 19.9416 113.344 20.4436C113.885 20.9456 114.211 21.607 114.323 22.4254L116.67 40.3472C116.782 41.0918 116.587 41.7437 116.085 42.3004C115.582 42.8595 114.958 43.1378 114.213 43.1378C113.542 43.1378 112.975 42.9237 112.508 42.4955C112.042 42.0673 111.773 41.5177 111.699 40.8492L110.861 29.182C110.822 28.7348 110.675 28.5111 110.413 28.5111C110.151 28.5111 109.965 28.6967 109.853 29.0702L106.613 38.1703C106.091 39.5478 105.16 40.2353 103.82 40.2353C103.298 40.2353 102.786 40.0498 102.284 39.6763C101.781 39.3051 101.381 38.8198 101.081 38.225L97.8408 29.1797C97.7289 28.8442 97.5432 28.6777 97.2813 28.6777C97.0574 28.6777 96.9074 28.9013 96.8336 29.3486L95.9407 40.8492C95.9026 41.5201 95.6431 42.0696 95.1573 42.4955C94.674 42.9237 94.0954 43.1378 93.4263 43.1378H93.4192Z" fill="black"/>
<path d="M128.452 43.1378C125.918 43.1378 123.787 42.3837 122.054 40.8777C120.323 39.3694 119.456 37.2948 119.456 34.6516C119.456 32.0084 120.304 29.7388 121.999 28.1757C123.695 26.6126 125.826 25.8299 128.397 25.8299C130.221 25.8299 131.731 26.1653 132.924 26.8339C134.114 27.5048 135.009 28.3613 135.605 29.4009C136.2 30.443 136.498 31.5421 136.498 32.696C136.498 34.6326 135.64 35.5985 133.928 35.5985H124.654C124.356 35.5985 124.206 35.784 124.206 36.1576C124.206 37.014 124.68 37.6921 125.63 38.1965C126.58 38.6984 127.65 38.9506 128.842 38.9506C129.588 38.9506 130.333 38.8483 131.078 38.6437C131.824 38.4391 132.476 38.1322 133.033 37.723C133.405 37.4637 133.795 37.3328 134.207 37.3328C134.767 37.3328 135.24 37.5374 135.631 37.9467C136.021 38.3559 136.217 38.8388 136.217 39.3979C136.217 40.0688 135.862 40.7016 135.155 41.2964C134.483 41.8555 133.507 42.3004 132.221 42.6359C130.935 42.9713 129.678 43.1378 128.45 43.1378H128.452ZM131.357 32.3629C131.431 32.3629 131.533 32.3439 131.664 32.3082C131.795 32.2725 131.859 32.1416 131.859 31.918C131.859 31.3589 131.514 30.8474 130.826 30.3835C130.135 29.9196 129.252 29.6864 128.171 29.6864C127.016 29.6864 126.076 29.9386 125.349 30.4406C124.623 30.9426 124.259 31.4541 124.259 31.9751C124.259 32.2368 124.407 32.3653 124.707 32.3653H131.357V32.3629Z" fill="black"/>
<defs>
<linearGradient id="paint0_linear_270_480" x1="5.09547" y1="12.8448" x2="61.0142" y2="57.8908" gradientUnits="userSpaceOnUse">
<stop stop-color="#E8C504"/>
<stop offset="0.23" stop-color="#C74D46"/>
<stop offset="0.46" stop-color="#B71C9D"/>
<stop offset="0.69" stop-color="#55A3F4"/>
<stop offset="0.84" stop-color="#37C6A9"/>
<stop offset="1" stop-color="#7BB214"/>
</linearGradient>
<linearGradient id="paint1_linear_270_480" x1="20.7225" y1="-6.55442" x2="76.6412" y2="38.4916" gradientUnits="userSpaceOnUse">
<stop stop-color="#E8C504"/>
<stop offset="0.23" stop-color="#C74D46"/>
<stop offset="0.46" stop-color="#B71C9D"/>
<stop offset="0.69" stop-color="#55A3F4"/>
<stop offset="0.84" stop-color="#37C6A9"/>
<stop offset="1" stop-color="#7BB214"/>
</linearGradient>
<linearGradient id="paint2_linear_270_480" x1="27.5395" y1="-15.0169" x2="83.4583" y2="30.0292" gradientUnits="userSpaceOnUse">
<stop stop-color="#E8C504"/>
<stop offset="0.23" stop-color="#C74D46"/>
<stop offset="0.46" stop-color="#B71C9D"/>
<stop offset="0.69" stop-color="#55A3F4"/>
<stop offset="0.84" stop-color="#37C6A9"/>
<stop offset="1" stop-color="#7BB214"/>
</linearGradient>
<linearGradient id="paint3_linear_270_480" x1="13.9055" y1="1.90566" x2="69.8266" y2="46.9517" gradientUnits="userSpaceOnUse">
<stop stop-color="#E8C504"/>
<stop offset="0.23" stop-color="#C74D46"/>
<stop offset="0.46" stop-color="#B71C9D"/>
<stop offset="0.69" stop-color="#55A3F4"/>
<stop offset="0.84" stop-color="#37C6A9"/>
<stop offset="1" stop-color="#7BB214"/>
</linearGradient>
</defs>
</svg>
