<svg width="739" height="856" viewBox="0 0 739 856" fill="none" xmlns="http://www.w3.org/2000/svg">
<path d="M200.104 202.483C217.135 202.483 230.942 188.678 230.942 171.648C230.942 154.619 217.135 140.814 200.104 140.814C183.073 140.814 169.266 154.619 169.266 171.648C169.266 188.678 183.073 202.483 200.104 202.483Z" fill="#FDFDFF"/>
<path d="M717.674 385.969C729.176 385.969 738.5 376.646 738.5 365.145C738.5 353.645 729.176 344.322 717.674 344.322C706.172 344.322 696.848 353.645 696.848 365.145C696.848 376.646 706.172 385.969 717.674 385.969Z" fill="#FDFDFF"/>
<path d="M21.3258 587.628C32.8276 587.628 42.1517 578.305 42.1517 566.804C42.1517 555.304 32.8276 545.981 21.3258 545.981C9.82404 545.981 0.5 555.304 0.5 566.804C0.5 578.305 9.82404 587.628 21.3258 587.628Z" fill="#FDFDFF"/>
<path d="M552.573 178.028C564.074 178.028 573.398 168.705 573.398 157.204C573.398 145.704 564.074 136.381 552.573 136.381C541.071 136.381 531.747 145.704 531.747 157.204C531.747 168.705 541.071 178.028 552.573 178.028Z" fill="#FDFDFF"/>
<path d="M136.136 237.353C137.819 229.972 133.2 222.623 125.818 220.94C118.437 219.256 111.087 223.875 109.403 231.256C107.72 238.637 112.339 245.985 119.721 247.669C127.102 249.352 134.452 244.734 136.136 237.353Z" fill="#FDFDFF"/>
<path d="M616.817 383.057C654.006 383.057 684.153 352.913 684.153 315.728C684.153 278.543 654.006 248.399 616.817 248.399C579.628 248.399 549.481 278.543 549.481 315.728C549.481 352.913 579.628 383.057 616.817 383.057Z" fill="url(#paint0_linear_248_592)"/>
<path d="M649.045 243.999C684.579 254.975 704.472 292.68 693.495 328.209" stroke="#868686" stroke-linecap="round" stroke-linejoin="round"/>
<path d="M612.792 391.056C571.501 391.056 538.029 357.588 538.029 316.301C538.029 275.013 571.501 241.545 612.792 241.545" stroke="#868686" stroke-linecap="round" stroke-linejoin="round"/>
<path d="M616.817 373.095C647.717 373.095 672.767 347.425 672.767 315.761C672.767 284.096 647.717 258.427 616.817 258.427C585.917 258.427 560.867 284.096 560.867 315.761C560.867 347.425 585.917 373.095 616.817 373.095Z" fill="#FDFDFF"/>
<path d="M619.86 263.661H616.817V272.969H619.86V263.661Z" fill="url(#paint1_linear_248_592)"/>
<path d="M619.86 355.805H616.817V365.112H619.86V355.805Z" fill="url(#paint2_linear_248_592)"/>
<path d="M667.548 315.908V312.865H658.24V315.908H667.548Z" fill="url(#paint3_linear_248_592)"/>
<path d="M575.394 315.924V312.882H566.086V315.924H575.394Z" fill="url(#paint4_linear_248_592)"/>
<path d="M653.672 280.188L651.554 278.002L644.868 284.478L646.986 286.664L653.672 280.188Z" fill="url(#paint5_linear_248_592)"/>
<path d="M587.497 344.29L585.38 342.105L578.694 348.581L580.811 350.766L587.497 344.29Z" fill="url(#paint6_linear_248_592)"/>
<path d="M587.514 285.961L589.631 283.776L582.945 277.3L580.828 279.485L587.514 285.961Z" fill="url(#paint7_linear_248_592)"/>
<path d="M653.706 350.055L655.823 347.869L649.137 341.393L647.02 343.579L653.706 350.055Z" fill="url(#paint8_linear_248_592)"/>
<path d="M620.514 318.934C620.514 321.061 618.78 322.795 616.653 322.795C614.527 322.795 612.792 321.061 612.792 318.934C612.792 316.808 614.527 315.074 616.653 315.074C618.78 315.074 620.514 316.808 620.514 318.934Z" fill="url(#paint9_linear_248_592)"/>
<path d="M616.653 288.083V319.523L630.952 331.628" stroke="url(#paint10_linear_248_592)" stroke-miterlimit="10"/>
<path d="M616.653 281.671C615.541 284.697 613.627 288.443 611.598 290.766L616.653 288.934L621.709 290.766C619.68 288.443 617.766 284.697 616.653 281.671Z" fill="url(#paint11_linear_248_592)"/>
<path d="M635.86 335.783C632.833 334.687 628.743 333.722 625.651 333.771L630.314 331.088L632.179 326.05C632.637 329.092 634.273 332.969 635.843 335.783H635.86Z" fill="url(#paint12_linear_248_592)"/>
<path d="M116.948 654.809L94.3553 679.052L208.644 743.289L257.886 674.684L146.314 638.304L116.948 654.809Z" fill="#DDA983"/>
<path d="M82.0692 663.79C82.0692 663.79 122.87 631.908 140.669 623.304L257.87 663.79L205.585 724.984L82.0528 663.79H82.0692Z" fill="#FFD0AA"/>
<path d="M104.449 663.332L150.731 632.481" stroke="#9C897A" stroke-miterlimit="10"/>
<path d="M115.099 667.094L161.381 636.26" stroke="#9C897A" stroke-miterlimit="10"/>
<path d="M125.733 670.856L172.015 640.022" stroke="#9C897A" stroke-miterlimit="10"/>
<path d="M136.383 674.619L182.665 643.784" stroke="#9C897A" stroke-miterlimit="10"/>
<path d="M147.033 678.381L193.298 647.546" stroke="#9C897A" stroke-miterlimit="10"/>
<path d="M157.667 682.16L203.949 651.309" stroke="#9C897A" stroke-miterlimit="10"/>
<path d="M168.317 685.922L214.582 655.071" stroke="#9C897A" stroke-miterlimit="10"/>
<path d="M208.333 696.195C208.333 702.132 200.775 706.942 191.45 706.942C182.125 706.942 174.567 702.132 174.567 696.195C174.567 690.257 182.125 685.448 191.45 685.448C200.775 685.448 208.333 690.257 208.333 696.195Z" fill="#DC911B"/>
<path d="M149.978 323.236C149.978 323.236 135.336 269.108 179.965 234.528C218.132 204.936 266.181 214.588 334.139 244.326C402.097 274.065 505.31 279.021 507.404 188.235" stroke="#868686" stroke-miterlimit="10"/>
<path d="M507.404 194.86C513.954 194.86 519.264 189.55 519.264 183.001C519.264 176.451 513.954 171.141 507.404 171.141C500.853 171.141 495.543 176.451 495.543 183.001C495.543 189.55 500.853 194.86 507.404 194.86Z" fill="#868686"/>
<path d="M96.0403 282.931L90.9198 391.334C90.7398 395.26 93.8972 398.515 97.8235 398.45L167.843 397.305C171.295 397.256 174.158 394.622 174.501 391.187L185.528 282.162C185.937 278.089 182.697 274.588 178.607 274.686L102.699 276.469C99.1323 276.551 96.2367 279.381 96.0567 282.947L96.0403 282.931Z" fill="#868686"/>
<path d="M175.581 282.096L172.62 316.382V316.399L168.039 369.235L166.387 388.308L153.692 388.749L96.7111 390.696L100.016 328.487L102.388 283.732L102.47 282.08L126.796 282.342L127.811 285.826L142.436 285.941L144.399 282.456L144.596 282.096H175.581Z" fill="#AED7FF"/>
<path opacity="0.22" d="M175.581 282.096L172.62 316.382L144.399 282.456L144.596 282.096H175.581Z" fill="#DEF0FF"/>
<path d="M111.353 295.412L106.756 375.189H161.25" stroke="#4570B4" stroke-miterlimit="10"/>
<path d="M122.772 299.239L118.322 370.036" stroke="#68A8DE" stroke-width="3" stroke-miterlimit="10"/>
<path d="M132.113 311.148L128.383 370.036" stroke="#68A8DE" stroke-width="3" stroke-miterlimit="10"/>
<path d="M145.512 303.738L141.16 369.398" stroke="#68A8DE" stroke-width="3" stroke-miterlimit="10"/>
<path d="M154.641 306.044L150.943 369.365" stroke="#68A8DE" stroke-width="3" stroke-miterlimit="10"/>
<path d="M111.206 374.665C111.206 377.217 109.144 379.278 106.592 379.278C104.04 379.278 101.979 377.217 101.979 374.665C101.979 372.114 104.04 370.052 106.592 370.052C109.144 370.052 111.206 372.114 111.206 374.665Z" stroke="#4570B4" stroke-miterlimit="10"/>
<path opacity="0.22" d="M168.039 369.235L166.387 388.308L153.692 388.749L100.016 328.487L102.388 283.732L168.039 369.235Z" fill="#DEF0FF"/>
<path d="M378.882 577.633C378.882 577.633 451.257 713.959 592.392 710.344C733.527 706.729 681.372 580.071 681.372 580.071" stroke="#868686" stroke-miterlimit="10"/>
<path d="M474.177 710.361C474.177 710.361 504.41 736.108 562.045 737.008" stroke="#868686" stroke-miterlimit="10"/>
<path d="M578.241 719.603C586.192 719.603 592.637 713.158 592.637 705.208C592.637 697.258 586.192 690.813 578.241 690.813C570.29 690.813 563.844 697.258 563.844 705.208C563.844 713.158 570.29 719.603 578.241 719.603Z" fill="#868686"/>
<path d="M569.619 424.311L534.692 475.38C534.692 475.38 496.115 442.796 472.083 408.052C474.095 427.419 470.971 442.992 465.13 450.402C465.13 450.402 472.427 466.727 471.036 478.554C471.036 478.554 467.208 486.193 451.912 494.895C451.912 494.895 419.569 488.434 384.297 487.731V488.287C380.322 488.009 376.297 487.812 372.257 487.731C368.216 487.812 364.175 488.009 360.2 488.287V487.731C343.676 488.058 327.791 489.644 315.57 491.264H315.423C301.648 493.08 292.585 494.895 292.585 494.895C277.289 486.193 273.461 478.554 273.461 478.554C272.07 466.727 279.383 450.402 279.383 450.402C273.592 443.074 270.467 427.73 272.365 408.575C248.316 443.123 210.133 475.38 210.133 475.38L195 453.248L175.188 424.311C175.188 424.311 194.035 388.471 206.435 367.566C206.55 367.386 206.648 367.206 206.746 367.043C219.147 346.186 239.547 321.453 239.547 321.453C239.547 321.453 239.58 321.142 239.645 320.603C239.956 318.214 241.167 311.115 245.126 304.212C247.04 300.891 249.576 297.62 252.962 294.954C261.355 288.28 270.451 284.795 275.162 283.307C275.178 283.209 275.195 283.143 275.195 283.143L338.245 261.224L344.92 262.598H344.936L372.257 268.241L399.43 262.631L406.268 261.224L469.302 283.143C469.302 283.143 469.318 283.176 469.318 283.192C473.915 284.615 483.24 288.116 491.878 294.954C503.886 304.49 505.261 321.453 505.261 321.453C505.261 321.453 525.677 346.186 538.078 367.043C538.602 367.926 539.141 368.842 539.698 369.774V369.807C552.065 390.941 569.619 424.311 569.619 424.311Z" fill="url(#paint13_linear_248_592)"/>
<path opacity="0.2" d="M371.177 299.174C371.177 299.174 365.631 373.864 364.159 388.782C362.67 403.684 368.216 485.113 368.216 485.113L375.103 485.081V287.429L369.541 287.723L371.193 299.19L371.177 299.174Z" fill="#2D2C2C"/>
<path opacity="0.2" d="M330.605 330.974C330.605 330.974 411.503 335.423 427.16 334.131C427.16 334.131 381.647 353.106 330.605 330.974Z" fill="#2D2C2C"/>
<path opacity="0.2" d="M279.563 353.613L238.418 319.196C238.729 316.808 239.94 309.708 243.899 302.822C247.678 305.848 255.727 312.98 264.643 325.33C277.027 342.44 279.547 353.613 279.547 353.613H279.563Z" fill="#2D2C2C"/>
<path opacity="0.2" d="M323.243 488.221L314.343 489.857H314.196C300.421 491.673 291.375 493.489 291.375 493.489C276.078 484.786 272.25 477.147 272.25 477.147C270.86 465.32 278.156 448.995 278.156 448.995C272.365 441.683 269.24 426.323 271.154 407.185C247.089 441.732 208.906 473.99 208.906 473.99L193.773 451.858L191.139 434.928L209.609 442.698C209.609 442.698 213.355 428.63 215.809 427.943C218.263 427.272 215.809 462.163 215.809 462.163C215.809 462.163 225.576 450.189 224.889 435.68C224.889 435.68 229.78 432.916 246.729 418.733C263.661 404.567 281.788 373.062 281.788 373.062L279.236 394.475C279.236 394.475 278.729 413.99 282.786 425.882C286.843 437.757 290.573 441.487 290.573 441.487C290.573 441.487 282.606 446.738 281.591 459.939C280.577 473.156 323.227 488.205 323.227 488.205L323.243 488.221Z" fill="#2D2C2C"/>
<path d="M456.149 516.357L448.542 506.182L291.375 503.058L281.575 518.091C245.747 509.634 163.099 490.79 138.248 490.79L170.918 595.202C170.918 595.202 268.291 612.492 313.771 613.784C327.66 614.177 338.392 614.324 346.621 614.357V616.728C346.621 616.728 358.4 618.004 403.88 616.728C449.36 615.453 546.732 598.146 546.732 598.146L579.402 493.734C558.478 493.734 496.59 507.098 456.149 516.357Z" fill="#3F3E3E"/>
<path d="M182.894 518.205C182.894 518.205 207.728 518.909 234.721 525.223C261.714 531.537 278.892 551.51 278.892 551.51L276.782 538.195C276.782 538.195 303.023 551.87 316.896 560.621C316.896 560.621 332.192 574.296 363.913 578.844C395.635 583.408 421.336 545.899 444.599 532.927L439.102 550.806C439.102 550.806 496.034 529.77 538.029 528.38C580.024 526.973 427.634 630.535 348.012 622.928C268.389 615.322 182.894 518.222 182.894 518.222V518.205Z" fill="#2D2C2C"/>
<path d="M344.723 614.356L371.03 624.678L360.527 662.252L331.914 651.571L344.723 614.356Z" fill="#5E4F45"/>
<path d="M347.995 657.574L363.079 679.33C363.079 679.33 374.187 712.634 377.165 726.735L380.158 740.819C380.158 740.819 400.657 746.364 407.07 740.819C413.483 735.274 421.156 716.478 421.156 716.478C421.156 716.478 416.035 686.167 412.616 675.486C409.197 664.804 407.07 658.621 407.07 658.621L402.375 655.415L404.943 651.145C404.943 651.145 398.53 626.38 395.127 619.967H389.582L361.525 620.932C361.525 620.932 362.817 658.686 348.012 657.574H347.995Z" fill="#5F3E1B"/>
<path d="M353.476 610.578L349.828 621.538L337.46 658.621C337.46 658.621 138.183 608.648 118.322 595.202C111.222 590.392 103.124 583.113 95.6477 575.768C80.5477 560.916 77.3085 537.769 87.8114 519.383L93.6845 509.061L138.232 490.79C138.232 490.79 139.033 491.117 140.489 491.706C155.066 497.644 236.03 531.046 259.31 549.122C284.929 569.029 353.476 610.578 353.476 610.578Z" fill="#3F3E3E"/>
<path d="M372.911 617.285L346.605 627.606L357.108 665.18L385.721 654.499L372.911 617.285Z" fill="#4C3E36"/>
<path d="M369.639 660.502L354.555 682.258C354.555 682.258 343.447 715.562 340.47 729.663C338.834 737.4 335.48 745.808 335.48 745.808C335.48 745.808 313.231 755.067 301.714 735.421C296.348 726.26 296.839 716.986 298.785 706.549C300.585 696.947 303.072 684.499 305.018 678.414C308.438 667.732 310.564 661.549 310.564 661.549L315.26 658.343L312.691 654.073C312.691 654.073 319.104 629.308 322.507 622.895H328.053L356.11 623.86C356.11 623.86 354.817 661.614 369.623 660.502H369.639Z" fill="#5F3E1B"/>
<path d="M634.224 565.937C622.87 579.236 608.13 595.316 597.431 602.546C577.57 616.009 380.175 661.549 380.175 661.549L369.508 629.537H369.492L364.159 613.506C364.159 613.506 432.706 571.957 458.325 552.05C480.607 534.759 555.665 503.434 574.887 495.55C577.783 494.372 579.402 493.718 579.402 493.718L580.989 494.126L593.357 497.316L640.898 509.601L644.039 520.479C648.604 536.33 644.923 553.391 634.224 565.937Z" fill="#3F3E3E"/>
<path d="M598.592 490.79L593.357 497.316L589.447 502.191C589.447 502.191 577.914 501.635 511.314 530.605C444.697 559.558 369.508 629.537 369.508 629.537H369.492L364.159 613.506C364.159 613.506 432.706 571.957 458.325 552.05C480.607 534.759 555.665 503.434 574.887 495.55C577.063 495.026 579.092 494.552 580.989 494.127C592.294 491.591 598.592 490.79 598.592 490.79Z" fill="#494949"/>
<path d="M533.465 473.974C536.851 477.114 541.235 480.19 546.241 483.15C575.869 500.637 627.68 514.05 627.68 514.05L632.162 510.795L651.156 496.973C651.156 496.973 606.821 454.606 595.337 445.724C594.47 445.053 593.554 444.382 592.588 443.712C588.384 440.734 583.296 437.676 578.47 434.927C569.521 429.873 561.44 425.914 561.44 425.914L533.448 473.99L533.465 473.974Z" fill="#FFB994"/>
<path d="M353.476 610.578L349.828 621.538C339.488 612.999 281.771 566.346 227.228 542.366C167.058 515.882 130.101 503.401 130.101 503.401L140.489 491.706C155.066 497.643 236.03 531.046 259.31 549.122C284.929 569.029 353.476 610.578 353.476 610.578Z" fill="#494949"/>
<path d="M546.241 483.15C575.869 500.637 627.68 514.05 627.68 514.05L632.162 510.795L571.566 489.006C571.566 489.006 559.64 479.355 568.523 463.456C573.775 454.05 581.971 443.826 592.605 443.728C588.4 440.751 583.312 437.692 578.486 434.944C573.268 435.827 565.186 439.36 556.761 451.482C545.473 467.709 545.653 479.061 546.241 483.167V483.15Z" fill="#E5906A"/>
<path d="M627.631 514.001L657.552 532.911H676.955C682.91 532.993 690.043 533.647 690.043 533.647L693.707 529.705C693.707 529.705 692.987 529.247 691.613 528.609C690.403 528.036 688.685 527.3 686.525 526.613C685.838 526.384 685.118 526.155 684.333 525.959H688.44C694.394 526.057 701.527 526.695 701.527 526.695L702.542 525.599L705.192 522.769C705.192 522.769 700.693 519.939 692.742 518.271C692.022 518.124 691.286 517.993 690.517 517.878H697.388C703.343 517.96 710.476 518.614 710.476 518.614L711.621 517.387L714.14 514.688C714.14 514.688 709.642 511.842 701.674 510.19C699.286 509.683 696.57 509.388 693.904 509.209L700.48 497.496C699.27 494.192 692.48 478.734 692.48 478.734L690.37 479.405L688.129 480.124C684.301 485.163 689.683 496.122 689.683 496.122L683.433 501.161C681.176 501.161 668.301 497.333 668.301 497.333L675.27 491.248C675.27 491.248 685.004 489.334 686.035 485.163C687.082 480.991 686.035 477.687 686.035 477.687H685.986L672.309 483.085C672.309 483.085 664.653 483.772 661.184 486.553C657.7 489.334 646.919 496.286 646.919 496.286L631.443 510.517H631.426L627.631 514.018V514.001Z" fill="#FFB994"/>
<path d="M627.68 514.05L657.602 532.96H677.004C682.959 533.042 690.092 533.696 690.092 533.696L693.756 529.754C693.756 529.754 693.037 529.296 691.662 528.658C691.662 528.658 690.026 530.997 686.624 531.651C683.237 532.306 661.07 531.782 657.683 529.967C654.281 528.134 631.508 510.55 631.508 510.55H631.492L627.696 514.05H627.68Z" fill="#E5906A"/>
<path d="M631.426 508.93C630.984 509.11 630.739 509.241 630.739 509.241C630.739 509.241 630.952 509.094 631.426 508.93Z" fill="#E5906A"/>
<path d="M646.117 507.867C647.017 508.145 647.868 508.554 648.686 509.061C650.845 505.626 656.833 498.478 661.462 496.04C666.943 493.162 671.769 490.953 671.769 490.953L670.935 486.782L674.288 488.745C674.288 488.745 678.411 487.175 680.75 485.751C682.55 484.639 685.037 479.83 686.051 477.736H686.1C686.1 477.736 687.147 481.008 686.1 485.179C685.069 489.35 675.335 491.264 675.335 491.264L668.366 497.349C668.366 497.349 681.225 501.177 683.499 501.177L689.748 496.139C689.748 496.139 684.366 485.179 688.194 480.141L690.435 479.421C690.141 480.582 689.994 482.398 690.55 484.95C691.662 490.168 693.135 498.511 693.135 498.511L681.65 504.497C681.65 504.497 681.618 504.497 681.585 504.53C681.601 504.53 681.634 504.53 681.65 504.514L679.114 508.194C682.926 507.36 688.963 506.722 693.92 509.241H678.395L674.141 515.425C677.053 514.999 681.503 514.672 685.822 515.621C689.012 515.114 694.443 514.508 699.646 515.048C705.11 515.604 709.413 516.733 711.605 517.371L710.46 518.598C710.46 518.598 703.31 517.96 697.372 517.862H691.335L691.155 517.829L673.569 516.275L668.661 523.407C670.002 522.965 672.113 522.54 675.057 522.72C676.84 522.835 678.427 523.211 679.769 523.669C681.487 523.653 684.006 523.669 687.572 523.783C693.429 523.963 699.482 524.994 702.525 525.583L701.511 526.679C701.511 526.679 694.362 526.041 688.423 525.943H684.317C685.102 526.155 685.806 526.368 686.509 526.597H686.345L684.235 525.959C683.106 525.746 674.501 524.094 668.137 524.16L666.877 525.975L658.878 522.671V522.687C658.878 522.687 648.8 511.695 640.882 509.601C635.32 508.129 632.555 508.554 631.393 508.93C633.422 508.08 639.655 505.872 646.084 507.867H646.117Z" fill="#E5906A"/>
<path d="M208.906 473.974C205.519 477.114 201.151 480.19 196.129 483.15C195.311 483.641 194.46 484.115 193.609 484.59C188.62 487.387 183.123 490.053 177.397 492.589C148.718 505.233 114.69 514.05 114.69 514.05L110.208 510.779H110.191L91.2142 496.956C91.2142 496.956 135.549 454.59 147.017 445.707C147.884 445.037 148.8 444.382 149.765 443.712C153.97 440.734 159.058 437.676 163.884 434.927C172.833 429.857 180.914 425.898 180.914 425.898L208.906 473.974Z" fill="#FFB994"/>
<path d="M196.129 483.15C166.501 500.637 114.69 514.05 114.69 514.05L110.208 510.795L170.804 489.006C170.804 489.006 182.73 479.355 173.847 463.456C168.595 454.05 160.416 443.826 149.782 443.728C153.986 440.751 159.074 437.692 163.9 434.944C169.119 435.827 177.201 439.36 185.626 451.482C196.914 467.709 196.734 479.061 196.145 483.167L196.129 483.15Z" fill="#E5906A"/>
<path d="M329.623 188.251C329.623 188.251 322.72 182.837 318.417 182.837L313.984 190.394C313.984 190.394 314.245 200.569 318.81 209.697C323.374 218.824 333.811 216.354 333.811 216.354L329.64 188.268L329.623 188.251Z" fill="#E5906A"/>
<path d="M416.722 188.251C416.722 188.251 423.626 182.837 427.928 182.837L432.362 190.394C432.362 190.394 432.1 200.569 427.536 209.697C422.971 218.824 412.534 216.354 412.534 216.354L416.706 188.268L416.722 188.251Z" fill="#E5906A"/>
<path d="M401.606 228.459L398.367 252.227L396.125 268.879L373.222 285.842L347.603 268.356L345.705 248.841L343.709 228.459H401.606Z" fill="#FFB994"/>
<path d="M398.367 252.227L401.589 228.459H343.693L345.689 248.841C349.435 250.886 354.49 253.159 360.38 254.533C361.639 257.56 363.439 261.404 365.762 265.051C370.637 272.707 372.633 272.527 372.633 272.527L370.801 255.826C370.981 255.826 371.144 255.826 371.324 255.826C382.187 255.826 392.052 253.846 398.35 252.211L398.367 252.227Z" fill="#E5906A"/>
<path d="M344.772 239.452C344.772 239.452 357.926 249.381 368.788 251.131C379.668 252.881 399.724 242.151 399.724 242.151L401.573 234.299L344.298 234.79L344.756 239.452H344.772Z" fill="#C16E4D"/>
<path d="M424.28 160.427C413.908 143.333 379.913 131.719 373.222 132.16C366.531 131.719 332.535 143.333 322.163 160.427L332.601 220.313C333.811 227.249 338.752 232.974 345.443 235.182C345.443 235.182 362.899 244.342 373.222 244.342C384.559 244.342 401.001 235.182 401.001 235.182C407.692 232.974 412.632 227.265 413.843 220.313L424.28 160.427Z" fill="#FFB994"/>
<path d="M337.443 152.935C337.443 152.935 340.388 163.011 339.341 168.753C339.341 168.753 334.122 172.924 331.865 178.666C330.834 181.283 331.145 184.391 331.783 187.008C332.666 190.623 331.423 194.435 328.495 196.725C328.495 196.725 310.842 164.058 311.889 148.584C311.889 148.584 314.671 143.546 321.28 141.812L313.116 137.46C313.116 137.46 315.031 132.929 320.413 132.161C325.795 131.375 328.936 135.563 328.936 135.563C328.936 135.563 328.233 121.822 336.593 114.003C344.952 106.184 352.936 108.262 352.936 108.262L348.421 115.214C348.421 115.214 361.116 106.168 381.107 109.129C401.099 112.089 423.004 127.041 430.317 126.157C430.317 126.157 428.583 131.015 424.313 132.144C424.313 132.144 435.699 141.354 438.317 152.362C438.317 152.362 425.818 188.317 417.458 199.735C413.957 196.807 412.518 192.096 413.794 187.712C414.743 184.44 415.495 180.727 415.021 178.306C413.974 173.088 410.146 169.096 410.146 169.096C410.146 169.096 409.278 160.296 411.356 153.867C411.356 153.867 405.27 154.832 384.232 156.059C363.193 157.286 337.46 152.935 337.46 152.935H337.443Z" fill="#5E4F45"/>
<path d="M358.825 170.127C358.825 170.127 364.306 169.146 367.561 173.971C370.817 178.797 366.514 204.609 366.514 204.609C366.514 204.609 368.723 205.918 371.733 206.834C374.727 207.75 378.768 206.31 378.768 206.31C378.768 206.31 375.741 211.267 373.222 211.921C370.686 212.576 365.991 210.351 362.997 206.441C362.997 206.441 366.809 181.61 366.776 179.451C366.711 175.476 358.825 170.127 358.825 170.127Z" fill="#E5906A"/>
<path d="M430.006 194.189C430.006 194.189 429.254 189.413 426.62 186.714C426.62 186.714 420.632 194.304 419.209 197.755C417.786 201.207 420.894 201.665 420.943 203.824C420.992 205.983 419.012 206.916 418.26 207.799C417.507 208.682 415.462 212.821 417.098 213.344C418.734 213.868 419.438 212.821 422.35 210.596C425.278 208.372 423.511 203.497 422.284 200.847C421.057 198.213 423.037 195.351 423.217 195.285C423.397 195.22 425.491 200.373 425.491 200.373C425.491 200.373 426.309 198.393 426.194 196.807C426.08 195.22 425.082 194.173 425.311 192.832C425.54 191.49 425.834 191.032 425.834 191.032C425.834 191.032 427.994 195.972 427.699 199.718C427.405 203.464 426.702 205.395 426.702 205.395C426.702 205.395 429.973 199.735 429.973 194.173L430.006 194.189Z" fill="#C16E4D"/>
<path d="M383.856 217.516C379.749 218.105 376.428 217.123 373.156 217.908C372.829 217.99 372.551 218.072 372.273 218.17C371.995 218.072 371.717 217.99 371.39 217.908C368.134 217.123 364.797 218.105 360.69 217.516C356.584 216.927 354.49 215.487 354.49 215.487L355.014 217.516C355.014 217.516 356.061 218.432 362.179 219.724C365.762 220.493 369.639 220.607 372.257 220.575C374.874 220.607 378.751 220.493 382.334 219.724C388.469 218.415 389.5 217.516 389.5 217.516L390.023 215.487C390.023 215.487 387.929 216.927 383.823 217.516H383.856Z" fill="#C16E4D"/>
<path d="M359.872 223.683C359.872 223.683 364.486 225.776 370.915 226.725C377.344 227.674 384.559 224.55 384.559 224.55C384.559 224.55 380.387 230.373 373.86 230.716C367.332 231.06 359.856 223.683 359.856 223.683H359.872Z" fill="#E5906A"/>
<path d="M339.341 182.117C339.341 182.117 340.83 184.735 348.748 185.618C358.825 186.73 363.177 181.708 363.177 181.708L360.216 180.236C360.216 180.236 354.572 183.426 349.517 183.001C344.478 182.575 340.83 180.58 340.83 180.58L339.341 182.134V182.117Z" fill="#5E4F45"/>
<path d="M193.609 484.59C188.62 487.387 183.123 490.054 177.397 492.589C180.325 486.013 183.434 475.021 180.407 461.493C176.039 441.929 169.004 439.361 167.319 439.017C169.642 439.393 182.321 441.945 188.669 454.868C193.953 465.599 193.936 478.75 193.609 484.59Z" fill="#C16E4D"/>
<path d="M383.741 182.117C383.741 182.117 385.23 184.735 393.148 185.618C403.225 186.73 407.577 181.708 407.577 181.708L404.616 180.236C404.616 180.236 398.972 183.426 393.917 183.001C388.878 182.575 385.23 180.58 385.23 180.58L383.741 182.134V182.117Z" fill="#5E4F45"/>
<path d="M383.103 175.852C383.103 175.852 388.502 172.335 395.422 172.139C402.326 171.943 407.217 174.413 407.217 174.413C407.217 174.413 406.039 170.634 398.481 168.54C390.923 166.447 383.103 171.338 383.103 171.338V175.836V175.852Z" fill="#5E4F45"/>
<path d="M365.075 175.852C365.075 175.852 359.676 172.335 352.756 172.139C345.852 171.943 340.961 174.413 340.961 174.413C340.961 174.413 342.139 170.634 349.697 168.54C357.255 166.447 365.075 171.338 365.075 171.338V175.836V175.852Z" fill="#5E4F45"/>
<path d="M367.692 293.907L364.208 296.001C360.658 293.939 358.04 291.355 356.159 288.918C352.952 284.73 351.872 280.968 351.872 280.968L359.774 278.874C360.232 281.426 362.146 285.041 363.946 288.1C365.86 291.322 367.692 293.907 367.692 293.907Z" fill="#4570B4"/>
<path d="M393.082 282.178C392.15 285.368 390.318 287.985 388.305 290.03C384.33 294.087 379.635 296.001 379.635 296.001L376.641 292.435C378.015 290.913 379.16 288.754 380.06 286.611C380.747 285.008 381.303 283.405 381.712 282.096C382.301 280.199 382.612 278.874 382.612 278.874L385.033 279.643L393.082 282.178Z" fill="#4570B4"/>
<path d="M363.357 287.184C360.919 286.987 357.811 287.511 355.57 288.001C352.363 283.814 351.284 280.052 351.284 280.052L359.185 277.958C359.643 280.51 361.557 284.125 363.357 287.184Z" fill="#396099"/>
<path d="M393.753 280.461C392.821 283.65 391.479 286.726 389.467 288.77C386.62 287.118 383.021 285.548 380.731 284.893C381.418 283.29 381.974 281.687 382.383 280.379C383.136 279.806 384.395 278.857 385.704 277.925L393.753 280.461Z" fill="#396099"/>
<path d="M410.44 291.649C410.44 291.649 397.221 283.487 391.316 282.26C385.41 281.049 371.995 289.147 371.995 289.147C371.995 289.147 359.169 281.049 353.263 282.26C347.357 283.487 334.139 291.649 334.139 291.649L337.263 257.151L345.868 250.493C345.868 250.493 347.701 258.623 352.74 265.395C356.911 271.022 368.216 281.344 371.962 284.714H371.978C372.093 284.828 372.191 284.926 372.289 285.008C372.567 284.763 372.911 284.452 373.304 284.092C377.59 280.215 387.896 270.711 391.839 265.395C396.878 258.623 398.71 250.493 398.71 250.493L407.315 257.151L410.44 291.649Z" fill="#FDFDFF"/>
<path d="M450.685 493.489L449.9 498.134L448.542 506.182C448.542 506.182 427.127 508.947 393.017 508.832C394.62 508.603 395.847 507.196 395.847 505.528V499.492C385.328 499.443 373.075 499.263 358.825 498.919C357.353 498.887 355.897 498.854 354.474 498.805V505.528C354.474 506.346 354.768 507.115 355.275 507.687C314.458 505.642 291.358 503.042 291.358 503.042V493.489C314.834 488.663 336.691 486.291 356.224 485.441C370.228 484.835 383.038 484.999 394.391 485.62C429.417 487.485 450.685 493.489 450.685 493.489Z" fill="#5E4F45"/>
<path opacity="0.2" d="M371.962 284.714C371.242 284.403 348.437 274.294 345.869 267.391C343.251 260.39 345.869 250.493 345.869 250.493C345.869 250.493 347.701 258.623 352.74 265.395C356.911 271.022 368.216 281.344 371.962 284.714Z" fill="#2D2C2C"/>
<path opacity="0.2" d="M397.205 266.524C393.491 273.803 377.95 281.818 373.304 284.092C377.59 280.215 387.896 270.711 391.839 265.395C396.878 258.623 398.71 250.493 398.71 250.493C398.71 250.493 401.589 257.936 397.205 266.524Z" fill="#2D2C2C"/>
<path d="M214.566 478.439C212.995 479.486 207.008 480.304 207.008 480.304C207.008 480.304 204.685 484.148 202.574 485.359C195.18 489.53 189.65 486.733 189.65 486.733C189.65 486.733 190.305 456.144 176.399 446.231C162.493 436.334 153.904 440.931 153.904 440.931L150.06 443.499C150.06 443.499 149.7 440.391 150.518 437.479C150.894 436.138 151.532 434.829 152.579 433.897C155.884 430.936 161.283 429.726 161.283 429.726C161.283 429.726 160.955 426.52 162.264 423.739C162.869 422.463 163.802 421.269 165.274 420.516C169.97 418.079 176.088 418.881 176.088 418.881C176.088 418.881 187.883 420.516 203.343 442.24C212.734 455.44 215.433 465.566 215.76 471.716C215.973 475.708 215.188 478.03 214.566 478.439Z" fill="url(#paint14_linear_248_592)"/>
<path d="M114.739 514.001L84.8176 532.911H65.4151C59.4602 532.993 52.3274 533.647 52.3274 533.647L48.6628 529.705C48.6628 529.705 49.3826 529.247 50.7568 528.609C51.9674 528.036 53.6852 527.3 55.8447 526.613C56.5318 526.384 57.2516 526.155 58.0369 525.959H53.9306C47.9757 526.057 40.8429 526.695 40.8429 526.695L39.8286 525.599L37.1783 522.769C37.1783 522.769 41.6772 519.939 49.628 518.271C50.3478 518.124 51.084 517.993 51.8529 517.878H44.9819C39.027 517.96 31.8942 518.614 31.8942 518.614L30.749 517.387L28.2296 514.688C28.2296 514.688 32.7285 511.842 40.6956 510.19C43.0842 509.683 45.7999 509.388 48.4665 509.209L41.8899 497.496C43.1005 494.192 49.8898 478.734 49.8898 478.734L52.0002 479.405L54.2414 480.124C58.0696 485.163 52.6873 496.122 52.6873 496.122L58.9367 501.161C61.1943 501.161 74.0693 497.333 74.0693 497.333L67.1001 491.248C67.1001 491.248 57.3661 489.334 56.3355 485.163C55.2885 480.991 56.3355 477.687 56.3355 477.687H56.3846L70.0612 483.085C70.0612 483.085 77.7175 483.772 81.1858 486.553C84.6704 489.334 95.4514 496.286 95.4514 496.286L110.928 510.517H110.944L114.739 514.018V514.001Z" fill="#FFB994"/>
<path d="M114.69 514.05L84.7685 532.96H65.366C59.4111 533.042 52.2783 533.696 52.2783 533.696L48.6137 529.754C48.6137 529.754 49.3335 529.296 50.7078 528.658C50.7078 528.658 52.3437 530.997 55.7465 531.651C59.133 532.306 81.3003 531.782 84.6867 529.967C88.0896 528.134 110.862 510.55 110.862 510.55H110.879L114.674 514.05H114.69Z" fill="#E5906A"/>
<path d="M110.944 508.93C111.386 509.11 111.631 509.241 111.631 509.241C111.631 509.241 111.418 509.094 110.944 508.93Z" fill="#E5906A"/>
<path d="M110.944 508.93C109.799 508.554 107.034 508.129 101.472 509.601C93.5537 511.695 83.4761 522.687 83.4761 522.687H83.4598L75.4763 525.992L74.2166 524.176C67.8527 524.111 59.2475 525.746 58.1187 525.975L56.0083 526.581H55.8447C56.5481 526.368 57.268 526.155 58.0369 525.943H53.947C47.992 526.041 40.8429 526.679 40.8429 526.679L39.8286 525.583C42.8715 524.994 48.9245 523.963 54.7813 523.783C58.3477 523.669 60.8671 523.653 62.6012 523.669C63.9427 523.211 65.5296 522.835 67.2964 522.736C70.2412 522.54 72.3516 522.965 73.6931 523.407L68.7852 516.275L51.1985 517.829L51.0186 517.862H44.9819C39.027 517.944 31.8942 518.598 31.8942 518.598L30.749 517.371C32.9248 516.717 37.2274 515.604 42.6915 515.048C47.8939 514.508 53.3417 515.114 56.5154 515.621C60.8344 514.688 65.3006 515.016 68.1962 515.425L63.9427 509.241H48.4174C53.3744 506.722 59.4111 507.36 63.2229 508.194L60.6871 504.514L49.219 498.527C49.219 498.527 50.6914 490.184 51.8038 484.966C52.3764 482.398 52.2292 480.599 51.9347 479.421L54.176 480.141C57.9878 485.179 52.6218 496.139 52.6218 496.139L58.8712 501.161C59.4929 501.161 60.8998 500.882 62.6176 500.457C67.1983 499.361 74.0039 497.349 74.0039 497.349L67.0347 491.264C67.0347 491.264 57.3007 489.35 56.27 485.179C55.223 481.008 56.27 477.703 56.27 477.703L56.3191 477.736C57.3334 479.83 59.8201 484.623 61.6196 485.751C63.9591 487.175 68.0817 488.745 68.0817 488.745L71.4354 486.782L70.6011 490.953C70.6011 490.953 75.4272 493.178 80.9077 496.041C85.5374 498.478 91.5251 505.626 93.6845 509.061C94.5025 508.554 95.3532 508.145 96.253 507.867C102.682 505.872 108.915 508.08 110.944 508.93Z" fill="#E5906A"/>
<path opacity="0.2" d="M268.275 291.666C268.275 291.666 274.802 307.042 279.219 336.175C283.62 365.309 279.219 394.524 279.219 394.524C279.219 394.524 290.736 363.28 288.708 333.133C286.679 302.985 268.291 291.682 268.291 291.682L268.275 291.666Z" fill="#2D2C2C"/>
<path opacity="0.2" d="M240.774 320.75C240.774 320.75 252.291 326.672 262.794 335.308C273.297 343.945 278.614 353.597 278.614 353.597C278.614 353.597 250.083 338.008 240.774 320.734V320.75Z" fill="#2D2C2C"/>
<path opacity="0.2" d="M180.407 417.228C180.407 417.228 191.695 410.227 213.388 407.512L235.065 404.796C235.065 404.796 218.345 401.181 205.699 402.768C193.053 404.355 180.407 417.228 180.407 417.228Z" fill="#2D2C2C"/>
<path opacity="0.2" d="M272.675 357.457C265.379 357.032 250.377 355.445 238.238 349.72L276.602 350.407L278.63 353.613C277.698 356.05 275.293 357.604 272.692 357.457H272.675Z" fill="#2D2C2C"/>
<path opacity="0.2" d="M222.484 425.914C222.484 425.914 220.979 447.278 215.809 461.509C215.809 461.509 221.977 456.422 224.349 445.92C226.721 435.418 222.484 425.914 222.484 425.914Z" fill="#2D2C2C"/>
<path opacity="0.2" d="M316.323 346.89C318.401 346.219 320.38 345.777 322.147 345.646L286.319 381.208L289.722 372.392C294.352 360.352 304.037 350.816 316.323 346.89Z" fill="#2D2C2C"/>
<path opacity="0.2" d="M346.605 485.98C346.605 485.98 335.398 471.651 323.227 467.251C311.055 462.85 319.48 477.752 323.227 480.795C326.973 483.838 331.734 484.181 331.734 484.181C331.734 484.181 326.466 479.912 327.137 476.198C327.807 472.485 342.727 485.964 342.727 485.964H346.588L346.605 485.98Z" fill="#2D2C2C"/>
<path opacity="0.2" d="M462.905 353.613L504.05 319.196C503.739 316.808 502.528 309.708 498.569 302.822C494.79 305.848 486.741 312.98 477.825 325.33C465.441 342.44 462.922 353.613 462.922 353.613H462.905Z" fill="#2D2C2C"/>
<path opacity="0.2" d="M419.225 488.221L428.125 489.857H428.272C442.047 491.673 451.094 493.489 451.094 493.489C466.39 484.786 470.218 477.147 470.218 477.147C471.609 465.32 464.312 448.995 464.312 448.995C470.104 441.683 473.228 426.323 471.314 407.185C495.379 441.732 533.563 473.99 533.563 473.99L548.695 451.858L551.329 434.928L532.859 442.698C532.859 442.698 529.113 428.63 526.659 427.943C524.205 427.272 526.659 462.163 526.659 462.163C526.659 462.163 516.892 450.189 517.579 435.68C517.579 435.68 512.688 432.916 495.739 418.733C478.807 404.567 460.681 373.062 460.681 373.062L463.233 394.475C463.233 394.475 463.74 413.99 459.683 425.882C455.625 437.757 451.895 441.487 451.895 441.487C451.895 441.487 459.863 446.738 460.877 459.939C461.891 473.156 419.242 488.205 419.242 488.205L419.225 488.221Z" fill="#2D2C2C"/>
<path opacity="0.2" d="M474.177 291.666C474.177 291.666 467.65 307.042 463.233 336.175C458.832 365.309 463.233 394.524 463.233 394.524C463.233 394.524 451.715 363.28 453.744 333.133C455.773 302.985 474.161 291.682 474.161 291.682L474.177 291.666Z" fill="#2D2C2C"/>
<path opacity="0.2" d="M501.694 320.75C501.694 320.75 490.177 326.672 479.674 335.308C469.171 343.945 463.854 353.597 463.854 353.597C463.854 353.597 492.385 338.008 501.694 320.734V320.75Z" fill="#2D2C2C"/>
<path opacity="0.2" d="M562.061 417.228C562.061 417.228 550.773 410.227 529.08 407.512L507.404 404.796C507.404 404.796 524.123 401.181 536.769 402.768C549.415 404.355 562.061 417.228 562.061 417.228Z" fill="#2D2C2C"/>
<path opacity="0.2" d="M469.793 357.457C477.089 357.032 492.091 355.445 504.23 349.72L465.866 350.407L463.838 353.613C464.77 356.05 467.175 357.604 469.776 357.457H469.793Z" fill="#2D2C2C"/>
<path opacity="0.2" d="M519.984 425.914C519.984 425.914 521.489 447.278 526.659 461.509C526.659 461.509 520.491 456.422 518.119 445.92C515.747 435.418 519.984 425.914 519.984 425.914Z" fill="#2D2C2C"/>
<path opacity="0.2" d="M395.847 485.98C395.847 485.98 407.054 471.651 419.225 467.251C431.397 462.85 422.971 477.752 419.225 480.795C415.479 483.838 410.718 484.181 410.718 484.181C410.718 484.181 415.986 479.912 415.315 476.198C414.644 472.485 399.724 485.964 399.724 485.964H395.864L395.847 485.98Z" fill="#2D2C2C"/>
<path d="M383.07 295.559L376.461 306.748L376.036 307.467C376.036 307.467 372.993 305.128 367.692 307.909L366.792 306.339L360.903 296.001C360.903 296.001 366.302 290.439 372.208 290.439C378.13 290.423 383.07 295.559 383.07 295.559Z" fill="#4570B4"/>
<path opacity="0.2" d="M282.05 449.748C282.05 449.748 300.929 437.332 316.896 435.287C316.896 435.287 297.182 429.873 283.178 439.344L282.05 449.731V449.748Z" fill="#2D2C2C"/>
<path opacity="0.2" d="M462.006 449.748C462.006 449.748 443.127 437.332 427.16 435.287C427.16 435.287 446.873 429.873 460.877 439.344L462.006 449.731V449.748Z" fill="#2D2C2C"/>
<path d="M332.503 623.059C332.503 623.059 325.304 643.735 321.918 656.282C318.532 668.812 310.057 699.466 308.372 712.683C306.671 725.901 311.595 733 317.354 737.416C323.112 741.817 335.235 742.324 338.834 737.416L354.572 682.274L371.046 660.682C371.046 660.682 361.05 657.803 358.678 649.837C356.306 641.87 356.142 623.86 356.142 623.86L332.503 623.042V623.059Z" fill="#724925"/>
<path d="M353.476 680.328C353.476 680.328 341.582 673.997 331.914 672.656L351.464 685.464L353.476 680.344V680.328Z" fill="#5F3E1B"/>
<path d="M326.908 144.805C326.908 144.805 321.656 145.967 317.681 148.895C313.705 151.823 313.967 155.094 313.967 155.094L319.317 154.505C319.317 154.505 317.337 156.485 319.317 165.727C321.296 174.953 327.546 189.446 327.546 189.446C327.546 189.446 326.335 182.559 330.196 174.953C334.057 167.363 336.265 166.659 336.265 166.659L334.629 156.256L326.924 144.805H326.908Z" fill="#473830"/>
<path d="M337.95 150.53C337.95 150.53 344.429 143.873 360.559 139.489C376.69 135.105 392.984 141.239 405.957 141.239C418.931 141.239 422.448 139.832 422.448 139.832L417.867 145.787C417.867 145.787 421.728 145.607 426.8 146.13C431.888 146.654 436.795 151.381 436.795 151.381L429.286 153.884C429.286 153.884 431.789 154.669 434.636 154.636C434.636 154.636 423.92 184.604 418.931 191.032C418.931 191.032 416.559 187.139 417.916 179.745C419.274 172.352 412.518 166.905 412.518 166.905C412.518 166.905 410.489 156.648 411.307 153.867C411.307 153.867 383.937 156.779 373.696 157.008C363.471 157.237 337.411 152.919 337.411 152.919L337.934 150.481L337.95 150.53Z" fill="#473830"/>
<path d="M368.805 114.543C368.805 114.543 363.733 113.84 354.146 117.34C344.56 120.841 342.351 124.587 342.351 124.587L345.852 112.547C345.852 112.547 336.38 115.59 332.764 125.977C330.54 132.373 329.901 136.675 329.738 139.064C328.707 137.837 327.611 136.773 326.466 136.054C321.051 132.717 316.667 137.101 316.667 137.101L326.924 142.188L336.265 150.514C336.265 150.514 334.695 146.539 332.274 142.63C333.321 140.421 335.676 136.577 340.977 131.228C349.664 122.46 368.805 114.527 368.805 114.527V114.543Z" fill="#473830"/>
<path d="M338.359 145.149C338.359 145.149 340.584 140.585 348.061 136.741C355.537 132.88 364.42 134.058 364.42 134.058L338.359 145.165V145.149Z" fill="#473830"/>
<path d="M430.284 126.19C430.284 126.19 427.52 128.922 417.475 128.676C407.43 128.447 402.048 126.19 402.048 126.19C402.048 126.19 412.534 135.628 424.28 132.177C431.364 130.099 430.284 126.19 430.284 126.19Z" fill="#473830"/>
<path d="M549.726 485.064C554.716 487.862 560.213 490.528 565.938 493.063C563.01 486.487 559.902 475.495 562.928 461.967C567.296 442.403 574.331 439.835 576.016 439.491C573.693 439.868 561.014 442.42 554.667 455.342C549.382 466.073 549.399 479.225 549.726 485.064Z" fill="#C16E4D"/>
<path d="M316.748 194.189C316.748 194.189 317.501 189.413 320.135 186.714C320.135 186.714 326.122 194.304 327.546 197.755C328.969 201.207 325.861 201.665 325.812 203.824C325.746 205.983 327.742 206.916 328.495 207.799C329.247 208.682 331.292 212.821 329.656 213.344C328.02 213.868 327.317 212.821 324.405 210.596C321.476 208.372 323.243 203.497 324.47 200.847C325.697 198.213 323.718 195.351 323.538 195.285C323.358 195.22 321.264 200.373 321.264 200.373C321.264 200.373 320.446 198.393 320.56 196.807C320.675 195.236 321.673 194.173 321.444 192.832C321.215 191.49 320.92 191.032 320.92 191.032C320.92 191.032 318.761 195.972 319.055 199.718C319.35 203.464 320.053 205.395 320.053 205.395C320.053 205.395 316.781 199.735 316.781 194.173L316.748 194.189Z" fill="#C16E4D"/>
<path d="M353.476 510.026C353.476 510.026 353.198 543.674 357.402 558.625C361.606 573.577 376.33 574.705 376.33 574.705L380.077 513.053L371.03 565.169C371.03 565.169 352.821 531.046 353.476 510.026Z" fill="#2D2C2C"/>
<path d="M281.559 518.091L328.2 551.15C328.2 551.15 321.476 538.882 307.276 526.27C293.076 513.658 284.782 513.151 284.782 513.151L281.559 518.107V518.091Z" fill="#2D2C2C"/>
<path d="M456.345 516.553L409.704 549.612C409.704 549.612 416.428 537.344 430.628 524.732C444.828 512.12 453.122 511.613 453.122 511.613L456.345 516.569V516.553Z" fill="#2D2C2C"/>
<path d="M326.335 528.952C326.335 528.952 345.034 532.453 366.76 533.631C388.502 534.792 406.726 530.605 406.726 530.605C406.726 530.605 387.406 538.62 369.508 538.996C351.611 539.372 326.335 528.952 326.335 528.952Z" fill="#2D2C2C"/>
<path d="M583.869 530.604C583.869 530.604 585.014 541.515 591.689 554.045C598.363 566.575 630.723 560.179 630.723 560.179L585.276 522.131L583.869 530.621V530.604Z" fill="#2D2C2C"/>
<path d="M150.698 535.152C150.698 535.152 151.401 546.095 146.935 559.574C142.469 573.053 109.488 572.17 109.488 572.17L147.9 527.022L150.714 535.152H150.698Z" fill="#2D2C2C"/>
<path opacity="0.2" d="M191.123 444.562C190.943 444.333 189.176 442.289 179.098 435.942C168.334 429.153 161.283 429.726 161.283 429.726C161.283 429.726 160.955 426.52 162.264 423.739C184.497 426.912 190.894 443.892 191.123 444.562Z" fill="#2D2C2C"/>
<path d="M588.466 440.931C588.466 440.931 579.877 436.334 565.955 446.247C552.049 456.16 552.703 486.733 552.703 486.733C552.703 486.733 547.174 489.53 539.796 485.359C537.669 484.165 535.362 480.321 535.362 480.321C535.362 480.321 529.358 479.503 527.804 478.456C526.234 477.409 523.551 463.979 539.01 442.256C554.487 420.533 566.266 418.897 566.266 418.897C566.266 418.897 572.384 418.095 577.079 420.516C581.775 422.954 581.071 429.726 581.071 429.726C581.071 429.726 586.453 430.936 589.758 433.897C593.063 436.858 592.277 443.499 592.277 443.499L588.433 440.931H588.466Z" fill="url(#paint15_linear_248_592)"/>
<path opacity="0.2" d="M551.329 444.759C551.509 444.53 553.276 442.485 563.354 436.138C574.118 429.35 581.169 429.922 581.169 429.922C581.169 429.922 581.497 426.716 580.188 423.935C557.955 427.108 551.558 444.088 551.329 444.759Z" fill="#2D2C2C"/>
<path d="M367.692 508.26C376.739 508.652 385.213 508.832 393.017 508.832C392.853 508.865 392.673 508.881 392.51 508.881H357.827C356.797 508.881 355.881 508.423 355.275 507.687C359.251 507.884 363.39 508.08 367.692 508.26Z" fill="#AA7000"/>
<path d="M395.847 488.385V499.492C385.328 499.443 373.075 499.263 358.825 498.919C357.353 498.887 355.897 498.854 354.474 498.805V488.385C354.474 487.109 355.177 486.013 356.224 485.44C356.715 485.179 357.255 485.031 357.827 485.031H392.51C393.197 485.031 393.868 485.244 394.391 485.62C395.275 486.226 395.847 487.24 395.847 488.385Z" fill="#AA7000"/>
<path d="M395.847 499.492V505.528C395.847 507.196 394.62 508.603 393.017 508.832C385.213 508.832 376.739 508.652 367.692 508.26C363.39 508.08 359.251 507.884 355.275 507.687C354.768 507.115 354.474 506.346 354.474 505.528V498.805C355.897 498.854 357.353 498.887 358.825 498.919C373.075 499.263 385.328 499.443 395.847 499.492Z" fill="#996200"/>
<path d="M354.474 505.528C354.474 506.346 354.768 507.115 355.275 507.687C314.458 505.642 291.358 503.041 291.358 503.041V494.961C306.54 496.596 327.039 498.052 354.474 498.805V505.528Z" fill="#4C3E36"/>
<path d="M367.692 508.26C376.739 508.652 385.213 508.832 393.017 508.832C392.853 508.865 392.673 508.881 392.51 508.881H357.827C356.797 508.881 355.881 508.423 355.275 507.687C359.251 507.884 363.39 508.08 367.692 508.26Z" fill="#AA7000"/>
<path d="M449.9 498.134L448.542 506.182C448.542 506.182 427.127 508.947 393.017 508.832C394.62 508.603 395.847 507.197 395.847 505.528V499.492C425.638 499.656 441.589 498.87 449.9 498.134Z" fill="#4C3E36"/>
<path d="M86.3064 514.05L62.6176 500.457C67.1983 499.361 74.0039 497.349 74.0039 497.349C83.1817 502.436 86.3064 514.05 86.3064 514.05Z" fill="#C16E4D"/>
<path d="M657.029 514.525L680.718 500.931C676.137 499.836 669.331 497.823 669.331 497.823C660.154 502.911 657.029 514.525 657.029 514.525Z" fill="#C16E4D"/>
<path opacity="0.2" d="M274.737 341.672L250.246 308.465L243.261 323.236L205.208 366.159C205.323 365.979 205.421 365.799 205.519 365.636C217.92 344.78 238.32 320.047 238.32 320.047C238.32 320.047 238.353 319.736 238.418 319.196C238.729 316.808 239.94 309.708 243.899 302.805C245.813 299.485 248.349 296.213 251.735 293.547C260.128 286.873 269.224 283.389 273.935 281.9C273.951 281.802 273.968 281.737 273.968 281.737L337.018 259.817L343.693 261.191C314.327 266.589 253.649 300.172 253.649 300.172C264.676 308.678 274.442 340.674 274.737 341.672Z" fill="#2D2C2C"/>
<path opacity="0.2" d="M538.471 368.368L498.455 323.236L491.469 308.465L466.979 341.672C467.273 340.674 477.04 308.678 488.067 300.172C488.067 300.172 427.634 266.704 398.203 261.224L405.041 259.817L468.075 281.737C468.075 281.737 468.091 281.769 468.091 281.786C472.688 283.209 482.013 286.709 490.651 293.547C502.659 303.083 504.034 320.047 504.034 320.047C504.034 320.047 524.45 344.78 536.851 365.636C537.375 366.519 537.914 367.435 538.471 368.368Z" fill="#2D2C2C"/>
<path d="M487.658 339.807L472.787 358.062C472.787 358.062 466.537 354.414 456.1 357.539C445.662 360.663 441.752 373.193 422.203 378.133C417.327 379.36 412.305 379.802 407.364 379.474C392.444 378.526 378.359 370.592 371.995 356.492C363.521 337.729 367.692 307.909 367.692 307.909C371.34 304.686 376.036 307.467 376.036 307.467C376.036 307.467 376.559 319.736 379.422 332.249C382.301 344.763 397.418 358.324 417.769 347.626C438.104 336.944 449.065 325.723 462.366 327.555C475.257 329.321 486.905 339.169 487.625 339.79C487.641 339.807 487.658 339.807 487.658 339.807Z" fill="#4570B4"/>
<path d="M376.461 306.748L376.036 307.467C376.036 307.467 372.993 305.128 367.692 307.909L366.792 306.339C367.905 305.03 369.672 303.689 371.995 304.016C374.302 304.343 375.692 305.619 376.461 306.748Z" fill="#396099"/>
<path d="M371.995 305.946C371.995 305.946 369.508 325.903 377.753 341.704C385.999 357.49 401.246 356.263 403.7 358.716C406.154 361.17 397.941 362.92 390.923 360.467C383.905 358.013 382.318 356.083 382.318 356.083L389.86 357.13C389.86 357.13 376.592 351.666 373.238 341.688C369.884 331.71 367.709 307.909 367.709 307.909L371.995 305.93V305.946Z" fill="#396099"/>
<path d="M487.658 339.807L472.787 358.062C472.787 358.062 466.537 354.414 456.1 357.539C445.662 360.663 441.752 373.193 422.203 378.133C417.327 379.36 412.305 379.802 407.364 379.475C415.397 376.792 426.178 371.198 434.881 359.518C450.914 337.991 453.171 334.409 462.905 333.787C472.345 333.182 486.758 339.414 487.625 339.791C487.641 339.807 487.658 339.807 487.658 339.807Z" fill="#396099"/>
<path d="M339.881 191.032C339.881 191.032 354.834 190.623 356.126 191.065C357.418 191.507 357.288 195.482 349.108 195.482C340.928 195.482 337.427 192.423 339.881 191.032Z" fill="#FFD0BB"/>
<path d="M391.594 191.032C391.594 191.032 406.546 190.623 407.839 191.065C409.131 191.507 409 195.482 400.821 195.482C392.641 195.482 389.14 192.423 391.594 191.032Z" fill="#FFD0BB"/>
<g opacity="0.1" filter="url(#filter0_f_248_592)">
<ellipse cx="369" cy="809.5" rx="230" ry="21.5" fill="#0A0A0A"/>
</g>
<defs>
<filter id="filter0_f_248_592" x="119" y="768" width="500" height="83" filterUnits="userSpaceOnUse" color-interpolation-filters="sRGB">
<feFlood flood-opacity="0" result="BackgroundImageFix"/>
<feBlend mode="normal" in="SourceGraphic" in2="BackgroundImageFix" result="shape"/>
<feGaussianBlur stdDeviation="10" result="effect1_foregroundBlur_248_592"/>
</filter>
<linearGradient id="paint0_linear_248_592" x1="562.438" y1="228.05" x2="697.088" y2="445.165" gradientUnits="userSpaceOnUse">
<stop offset="0.04" stop-color="#EEC02E"/>
<stop offset="0.13" stop-color="#C7221D"/>
<stop offset="0.23" stop-color="#AA2359"/>
<stop offset="0.27" stop-color="#A02471"/>
<stop offset="0.35" stop-color="#962587"/>
<stop offset="0.42" stop-color="#A83392"/>
<stop offset="0.47" stop-color="#BF44A0"/>
<stop offset="0.54" stop-color="#A55AAD"/>
<stop offset="0.65" stop-color="#73B9C8"/>
<stop offset="0.78" stop-color="#81B951"/>
</linearGradient>
<linearGradient id="paint1_linear_248_592" x1="618.338" y1="255.188" x2="618.338" y2="362.773" gradientUnits="userSpaceOnUse">
<stop offset="0.04" stop-color="#EEC02E"/>
<stop offset="0.13" stop-color="#C7221D"/>
<stop offset="0.23" stop-color="#AA2359"/>
<stop offset="0.27" stop-color="#A02471"/>
<stop offset="0.35" stop-color="#962587"/>
<stop offset="0.42" stop-color="#A83392"/>
<stop offset="0.47" stop-color="#BF44A0"/>
<stop offset="0.54" stop-color="#A55AAD"/>
<stop offset="0.65" stop-color="#73B9C8"/>
<stop offset="0.78" stop-color="#81B951"/>
</linearGradient>
<linearGradient id="paint2_linear_248_592" x1="618.338" y1="255.188" x2="618.338" y2="362.773" gradientUnits="userSpaceOnUse">
<stop offset="0.04" stop-color="#EEC02E"/>
<stop offset="0.13" stop-color="#C7221D"/>
<stop offset="0.23" stop-color="#AA2359"/>
<stop offset="0.27" stop-color="#A02471"/>
<stop offset="0.35" stop-color="#962587"/>
<stop offset="0.42" stop-color="#A83392"/>
<stop offset="0.47" stop-color="#BF44A0"/>
<stop offset="0.54" stop-color="#A55AAD"/>
<stop offset="0.65" stop-color="#73B9C8"/>
<stop offset="0.78" stop-color="#81B951"/>
</linearGradient>
<linearGradient id="paint3_linear_248_592" x1="662.886" y1="255.187" x2="662.886" y2="362.774" gradientUnits="userSpaceOnUse">
<stop offset="0.04" stop-color="#EEC02E"/>
<stop offset="0.13" stop-color="#C7221D"/>
<stop offset="0.23" stop-color="#AA2359"/>
<stop offset="0.27" stop-color="#A02471"/>
<stop offset="0.35" stop-color="#962587"/>
<stop offset="0.42" stop-color="#A83392"/>
<stop offset="0.47" stop-color="#BF44A0"/>
<stop offset="0.54" stop-color="#A55AAD"/>
<stop offset="0.65" stop-color="#73B9C8"/>
<stop offset="0.78" stop-color="#81B951"/>
</linearGradient>
<linearGradient id="paint4_linear_248_592" x1="570.748" y1="255.188" x2="570.748" y2="362.773" gradientUnits="userSpaceOnUse">
<stop offset="0.04" stop-color="#EEC02E"/>
<stop offset="0.13" stop-color="#C7221D"/>
<stop offset="0.23" stop-color="#AA2359"/>
<stop offset="0.27" stop-color="#A02471"/>
<stop offset="0.35" stop-color="#962587"/>
<stop offset="0.42" stop-color="#A83392"/>
<stop offset="0.47" stop-color="#BF44A0"/>
<stop offset="0.54" stop-color="#A55AAD"/>
<stop offset="0.65" stop-color="#73B9C8"/>
<stop offset="0.78" stop-color="#81B951"/>
</linearGradient>
<linearGradient id="paint5_linear_248_592" x1="649.263" y1="255.198" x2="649.263" y2="362.783" gradientUnits="userSpaceOnUse">
<stop offset="0.04" stop-color="#EEC02E"/>
<stop offset="0.13" stop-color="#C7221D"/>
<stop offset="0.23" stop-color="#AA2359"/>
<stop offset="0.27" stop-color="#A02471"/>
<stop offset="0.35" stop-color="#962587"/>
<stop offset="0.42" stop-color="#A83392"/>
<stop offset="0.47" stop-color="#BF44A0"/>
<stop offset="0.54" stop-color="#A55AAD"/>
<stop offset="0.65" stop-color="#73B9C8"/>
<stop offset="0.78" stop-color="#81B951"/>
</linearGradient>
<linearGradient id="paint6_linear_248_592" x1="583.076" y1="255.223" x2="583.076" y2="362.808" gradientUnits="userSpaceOnUse">
<stop offset="0.04" stop-color="#EEC02E"/>
<stop offset="0.13" stop-color="#C7221D"/>
<stop offset="0.23" stop-color="#AA2359"/>
<stop offset="0.27" stop-color="#A02471"/>
<stop offset="0.35" stop-color="#962587"/>
<stop offset="0.42" stop-color="#A83392"/>
<stop offset="0.47" stop-color="#BF44A0"/>
<stop offset="0.54" stop-color="#A55AAD"/>
<stop offset="0.65" stop-color="#73B9C8"/>
<stop offset="0.78" stop-color="#81B951"/>
</linearGradient>
<linearGradient id="paint7_linear_248_592" x1="585.228" y1="255.102" x2="585.227" y2="362.687" gradientUnits="userSpaceOnUse">
<stop offset="0.04" stop-color="#EEC02E"/>
<stop offset="0.13" stop-color="#C7221D"/>
<stop offset="0.23" stop-color="#AA2359"/>
<stop offset="0.27" stop-color="#A02471"/>
<stop offset="0.35" stop-color="#962587"/>
<stop offset="0.42" stop-color="#A83392"/>
<stop offset="0.47" stop-color="#BF44A0"/>
<stop offset="0.54" stop-color="#A55AAD"/>
<stop offset="0.65" stop-color="#73B9C8"/>
<stop offset="0.78" stop-color="#81B951"/>
</linearGradient>
<linearGradient id="paint8_linear_248_592" x1="651.433" y1="255.094" x2="651.434" y2="362.68" gradientUnits="userSpaceOnUse">
<stop offset="0.04" stop-color="#EEC02E"/>
<stop offset="0.13" stop-color="#C7221D"/>
<stop offset="0.23" stop-color="#AA2359"/>
<stop offset="0.27" stop-color="#A02471"/>
<stop offset="0.35" stop-color="#962587"/>
<stop offset="0.42" stop-color="#A83392"/>
<stop offset="0.47" stop-color="#BF44A0"/>
<stop offset="0.54" stop-color="#A55AAD"/>
<stop offset="0.65" stop-color="#73B9C8"/>
<stop offset="0.78" stop-color="#81B951"/>
</linearGradient>
<linearGradient id="paint9_linear_248_592" x1="618.846" y1="313.225" x2="611.78" y2="331.677" gradientUnits="userSpaceOnUse">
<stop offset="0.04" stop-color="#EEC02E"/>
<stop offset="0.13" stop-color="#C7221D"/>
<stop offset="0.23" stop-color="#AA2359"/>
<stop offset="0.27" stop-color="#A02471"/>
<stop offset="0.35" stop-color="#962587"/>
<stop offset="0.42" stop-color="#A83392"/>
<stop offset="0.47" stop-color="#BF44A0"/>
<stop offset="0.54" stop-color="#A55AAD"/>
<stop offset="0.65" stop-color="#73B9C8"/>
<stop offset="0.78" stop-color="#81B951"/>
</linearGradient>
<linearGradient id="paint10_linear_248_592" x1="623.655" y1="281.671" x2="623.655" y2="336.404" gradientUnits="userSpaceOnUse">
<stop offset="0.04" stop-color="#EEC02E"/>
<stop offset="0.13" stop-color="#C7221D"/>
<stop offset="0.23" stop-color="#AA2359"/>
<stop offset="0.27" stop-color="#A02471"/>
<stop offset="0.35" stop-color="#962587"/>
<stop offset="0.42" stop-color="#A83392"/>
<stop offset="0.47" stop-color="#BF44A0"/>
<stop offset="0.54" stop-color="#A55AAD"/>
<stop offset="0.65" stop-color="#73B9C8"/>
<stop offset="0.78" stop-color="#81B951"/>
</linearGradient>
<linearGradient id="paint11_linear_248_592" x1="616.653" y1="281.671" x2="616.653" y2="336.404" gradientUnits="userSpaceOnUse">
<stop offset="0.04" stop-color="#EEC02E"/>
<stop offset="0.13" stop-color="#C7221D"/>
<stop offset="0.23" stop-color="#AA2359"/>
<stop offset="0.27" stop-color="#A02471"/>
<stop offset="0.35" stop-color="#962587"/>
<stop offset="0.42" stop-color="#A83392"/>
<stop offset="0.47" stop-color="#BF44A0"/>
<stop offset="0.54" stop-color="#A55AAD"/>
<stop offset="0.65" stop-color="#73B9C8"/>
<stop offset="0.78" stop-color="#81B951"/>
</linearGradient>
<linearGradient id="paint12_linear_248_592" x1="630.755" y1="281.671" x2="630.755" y2="336.404" gradientUnits="userSpaceOnUse">
<stop offset="0.04" stop-color="#EEC02E"/>
<stop offset="0.13" stop-color="#C7221D"/>
<stop offset="0.23" stop-color="#AA2359"/>
<stop offset="0.27" stop-color="#A02471"/>
<stop offset="0.35" stop-color="#962587"/>
<stop offset="0.42" stop-color="#A83392"/>
<stop offset="0.47" stop-color="#BF44A0"/>
<stop offset="0.54" stop-color="#A55AAD"/>
<stop offset="0.65" stop-color="#73B9C8"/>
<stop offset="0.78" stop-color="#81B951"/>
</linearGradient>
<linearGradient id="paint13_linear_248_592" x1="157.536" y1="360.369" x2="910.553" y2="429.79" gradientUnits="userSpaceOnUse">
<stop offset="0.04" stop-color="#EEC02E"/>
<stop offset="0.13" stop-color="#C7221D"/>
<stop offset="0.23" stop-color="#AA2359"/>
<stop offset="0.27" stop-color="#A02471"/>
<stop offset="0.35" stop-color="#962587"/>
<stop offset="0.42" stop-color="#A83392"/>
<stop offset="0.47" stop-color="#BF44A0"/>
<stop offset="0.54" stop-color="#A55AAD"/>
<stop offset="0.65" stop-color="#73B9C8"/>
<stop offset="0.78" stop-color="#81B951"/>
</linearGradient>
<linearGradient id="paint14_linear_248_592" x1="182.894" y1="401.623" x2="182.894" y2="572.824" gradientUnits="userSpaceOnUse">
<stop offset="0.04" stop-color="#EEC02E"/>
<stop offset="0.13" stop-color="#C7221D"/>
<stop offset="0.23" stop-color="#AA2359"/>
<stop offset="0.27" stop-color="#A02471"/>
<stop offset="0.35" stop-color="#962587"/>
<stop offset="0.42" stop-color="#A83392"/>
<stop offset="0.47" stop-color="#BF44A0"/>
<stop offset="0.54" stop-color="#A55AAD"/>
<stop offset="0.65" stop-color="#73B9C8"/>
<stop offset="0.78" stop-color="#81B951"/>
</linearGradient>
<linearGradient id="paint15_linear_248_592" x1="559.476" y1="401.623" x2="559.476" y2="572.824" gradientUnits="userSpaceOnUse">
<stop offset="0.04" stop-color="#EEC02E"/>
<stop offset="0.13" stop-color="#C7221D"/>
<stop offset="0.23" stop-color="#AA2359"/>
<stop offset="0.27" stop-color="#A02471"/>
<stop offset="0.35" stop-color="#962587"/>
<stop offset="0.42" stop-color="#A83392"/>
<stop offset="0.47" stop-color="#BF44A0"/>
<stop offset="0.54" stop-color="#A55AAD"/>
<stop offset="0.65" stop-color="#73B9C8"/>
<stop offset="0.78" stop-color="#81B951"/>
</linearGradient>
</defs>
</svg>
