<svg width="80" height="80" viewBox="0 0 80 80" fill="none" xmlns="http://www.w3.org/2000/svg">
<circle cx="40" cy="40" r="40" fill="#FF97B8" fill-opacity="0.16"/>
<g clip-path="url(#clip0_407_462)">
<path opacity="0.35" d="M43.1249 52.1163L43.1242 55.7298H36.556L36.5552 52.1163H43.1249Z" fill="#FF749F"/>
<path opacity="0.35" d="M29.7739 37.232V43.5035V46.7995H26.1719V40.7409C26.1719 38.8059 27.7412 37.232 29.6697 37.2312H29.7739V37.232Z" fill="#FF749F"/>
<path opacity="0.35" d="M52.4836 38.2599C53.1435 38.9221 53.5081 39.8042 53.5073 40.7409V46.7995H49.9053V43.5175C49.9053 43.5128 49.9053 43.5089 49.9053 43.5043C49.9053 43.4996 49.9053 43.4957 49.9053 43.491V37.2312H50.0094C50.9438 37.2312 51.8213 37.5962 52.4828 38.2599H52.4836Z" fill="#FF749F"/>
<path opacity="0.35" d="M39.84 15.4911C35.0541 18.1265 32.1058 23.1049 32.1058 28.6198V36.062V42.3343H30.9399C30.2955 42.3343 29.7739 42.8584 29.7739 43.5042C29.7739 44.1508 30.2963 44.6741 30.9399 44.6741H32.1058V47.9702C32.1058 47.9764 32.1058 47.9842 32.1058 47.9905V49.7773H35.3907H44.2908C44.2971 49.7773 44.304 49.7773 44.3103 49.7773H47.5749V47.9702V44.6749H48.7409C49.0627 44.6749 49.3542 44.5439 49.5648 44.3325C49.7724 44.1235 49.9022 43.8357 49.9061 43.5183C49.9061 43.5136 49.9061 43.5097 49.9061 43.505C49.9061 43.5003 49.9061 43.4964 49.9061 43.4918C49.8991 42.8514 49.3798 42.3343 48.7401 42.3343H47.5749V36.062V28.6198C47.5749 23.1049 44.6266 18.1273 39.8408 15.4911H39.84ZM41.6402 25.6428C41.6402 26.6396 40.8326 27.4499 39.84 27.4491C38.8474 27.4491 38.0398 26.6388 38.0398 25.6428C38.0398 25.1444 38.2419 24.6928 38.5676 24.3653C38.8932 24.0377 39.3441 23.8349 39.8408 23.8357C40.3219 23.8357 40.7743 24.0229 41.114 24.3645C41.4545 24.7061 41.6418 25.16 41.641 25.642L41.6402 25.6428Z" fill="#FF749F"/>
<path d="M40.3617 13.1233C40.0329 12.9587 39.6473 12.9587 39.3185 13.1233C36.4479 14.5639 34.0399 16.7719 32.3531 19.511C30.6656 22.2494 29.774 25.3996 29.774 28.62V34.8922H29.6699C26.4549 34.8915 23.8401 37.516 23.8401 40.7418V47.9695C23.8401 48.6145 24.3624 49.1386 25.006 49.1394H29.7732V50.9458C29.7732 51.5916 30.2956 52.1157 30.9392 52.1157H34.2241V56.8991C34.2241 57.2095 34.3469 57.5066 34.5661 57.7266C34.7853 57.9465 35.0814 58.069 35.3908 58.0697H36.1184C35.8494 58.6258 35.7087 59.2397 35.7087 59.8761C35.7087 60.4525 35.8782 61.5124 37.3488 64.0566C38.1051 65.3645 38.8506 66.4487 38.8817 66.4947C39.0993 66.8113 39.4577 67.0001 39.8409 66.9993C40.1526 66.9993 40.4487 66.8745 40.6656 66.6577C40.7153 66.6078 40.7604 66.5539 40.8001 66.4947C40.8319 66.4494 41.5766 65.3645 42.3329 64.0566C43.8036 61.5132 43.9738 60.4525 43.9738 59.8761C43.9738 59.2287 43.8245 58.6149 43.5603 58.069H44.2909C44.6127 58.069 44.9042 57.9387 45.1156 57.7274C45.3271 57.516 45.4569 57.2227 45.4569 56.8998V52.1165H48.7418C49.0503 52.1165 49.3473 51.9932 49.5657 51.7741C49.7841 51.5549 49.9077 51.257 49.9077 50.9465V49.1402H54.6749C54.9835 49.1402 55.2804 49.017 55.4996 48.797C55.7188 48.5771 55.8409 48.2799 55.8416 47.9695V40.7418C55.8416 39.1788 55.2346 37.7102 54.1331 36.605C53.0325 35.5006 51.5688 34.8922 50.0111 34.8922H49.9077V28.62C49.9077 25.3996 49.0154 22.2502 47.3286 19.511C45.6419 16.7719 43.233 14.5639 40.3632 13.1233H40.3617ZM26.172 46.7996V40.741C26.172 38.806 27.7414 37.2321 29.6706 37.2313H29.7748V43.5036V46.7996H26.1728H26.172ZM41.6403 59.8769C41.6403 60.4564 40.8187 62.0864 39.8401 63.6853C38.8607 62.0872 38.0391 60.4571 38.0399 59.8769C38.0399 59.3941 38.2264 58.9402 38.5669 58.5993C38.9073 58.2585 39.3597 58.0697 39.8401 58.0705C40.8335 58.0705 41.6411 58.8809 41.6403 59.8769ZM43.1242 55.7299H36.556V52.1157H43.125V55.7299H43.1242ZM53.5082 40.7418V46.8004H49.9062V43.5184C49.9062 43.5137 49.9062 43.5098 49.9062 43.5051C49.9062 43.5004 49.9062 43.4965 49.9062 43.4919V37.2321H50.0103C50.9446 37.2321 51.8222 37.5971 52.4837 38.2608C53.1436 38.923 53.5082 39.8051 53.5074 40.7418H53.5082ZM47.5742 28.62V36.0622V42.3344V44.6743V47.9695V49.7766H44.3088C44.3026 49.7766 44.2964 49.7766 44.2894 49.7766H35.3893H32.1044V47.9898C32.1044 47.9836 32.1044 47.9757 32.1044 47.9695V44.6743V36.0629V28.6207C32.1044 23.1058 35.0535 18.1274 39.8385 15.492C44.6244 18.1282 47.5727 23.1058 47.5727 28.6207L47.5742 28.62Z" fill="url(#paint0_linear_407_462)"/>
<path d="M41.6403 59.8768C41.6403 60.4563 40.8187 62.0864 39.84 63.6852C38.8606 62.0871 38.039 60.4571 38.0398 59.8768C38.0398 59.394 38.2263 58.9401 38.5668 58.5992C38.9073 58.2584 39.3597 58.0697 39.84 58.0704C40.8334 58.0704 41.641 58.8808 41.6403 59.8768Z" fill="url(#paint1_linear_407_462)"/>
</g>
<defs>
<linearGradient id="paint0_linear_407_462" x1="39.8401" y1="67.0001" x2="39.8401" y2="11" gradientUnits="userSpaceOnUse">
<stop stop-color="#FF759F" stop-opacity="0"/>
<stop offset="1" stop-color="#FF196E"/>
</linearGradient>
<linearGradient id="paint1_linear_407_462" x1="39.8395" y1="55.5367" x2="39.8395" y2="68.0172" gradientUnits="userSpaceOnUse">
<stop stop-color="#FF759F"/>
<stop offset="1" stop-color="#FF196E"/>
</linearGradient>
<clipPath id="clip0_407_462">
<rect width="32" height="54" fill="white" transform="translate(23.8401 13)"/>
</clipPath>
</defs>
</svg>
