<svg width="25" height="23" viewBox="0 0 25 23" fill="none" xmlns="http://www.w3.org/2000/svg">
<path d="M11.4468 22.948C11.3742 22.948 11.3024 22.9324 11.2358 22.9021C11.1693 22.8718 11.1096 22.8275 11.0603 22.772L0.639831 11.0424C0.570366 10.9642 0.524315 10.8666 0.507314 10.7616C0.490313 10.6566 0.5031 10.5487 0.54411 10.4511C0.58512 10.3536 0.652574 10.2706 0.738216 10.2123C0.823858 10.154 0.923973 10.1229 1.02631 10.1229H6.04214C6.11745 10.1229 6.19188 10.1398 6.26041 10.1723C6.32894 10.2047 6.38998 10.2522 6.43941 10.3113L9.92196 14.4805C10.2983 13.6433 11.0269 12.2493 12.3055 10.5507C14.1956 8.03957 17.7113 4.34643 23.7263 1.01251C23.8426 0.94809 23.9778 0.931369 24.1053 0.965654C24.2329 0.999938 24.3434 1.08274 24.4151 1.1977C24.4868 1.31266 24.5145 1.45143 24.4927 1.5866C24.4709 1.72177 24.4012 1.84353 24.2974 1.92782C24.2744 1.94649 21.9552 3.84699 19.2861 7.32806C16.8297 10.5315 13.5643 15.7696 11.9575 22.532C11.9293 22.6508 11.8636 22.7563 11.771 22.8318C11.6784 22.9072 11.5642 22.9482 11.4466 22.9482L11.4468 22.948Z" fill="#7BB214"/>
</svg>
