<svg width="63" height="45" viewBox="0 0 63 45" fill="none" xmlns="http://www.w3.org/2000/svg">
<path d="M63 33.5297C62.9956 33.3878 62.9889 33.246 62.9823 33.1021C62.9756 32.9664 62.9667 32.8307 62.9556 32.693C62.9468 32.5634 62.9357 32.4339 62.9246 32.3023C62.9135 32.1769 62.9002 32.0515 62.8869 31.9261C62.8758 31.8233 62.8647 31.7205 62.8514 31.6157C62.8381 31.5149 62.827 31.4142 62.8137 31.3135C62.8004 31.2168 62.7849 31.1202 62.7716 31.0215C62.7583 30.927 62.7427 30.8303 62.7272 30.7358C62.7117 30.6432 62.6961 30.5487 62.6806 30.4562C62.6651 30.3657 62.6474 30.2752 62.6296 30.1848C62.6119 30.0943 62.5963 30.0059 62.5786 29.9155C62.5609 29.8291 62.5431 29.7407 62.5254 29.6544C62.5076 29.568 62.4899 29.4817 62.4699 29.3953C62.4522 29.311 62.4322 29.2267 62.4123 29.1424C62.3923 29.0602 62.3746 28.978 62.3546 28.8937C62.3346 28.8135 62.3147 28.7313 62.2947 28.6511C62.2747 28.5709 62.2548 28.4907 62.2326 28.4106C62.2127 28.3324 62.1905 28.2543 62.1683 28.1741C62.1461 28.096 62.1262 28.0179 62.104 27.9398C62.0818 27.8637 62.0596 27.7876 62.0374 27.7116C62.0153 27.6355 61.9931 27.5594 61.9709 27.4833C61.9487 27.4093 61.9243 27.3353 61.9021 27.2634C61.88 27.1894 61.8556 27.1174 61.8334 27.0434C61.8112 26.9714 61.7868 26.8995 61.7624 26.8275C61.738 26.7556 61.7158 26.6857 61.6914 26.6137C61.667 26.5438 61.6427 26.4719 61.6183 26.402C61.5939 26.3341 61.5695 26.2642 61.5429 26.1943C61.5273 26.1491 61.5096 26.1039 61.4941 26.0566C61.4852 26.0319 61.4785 26.0093 61.4697 25.9867C61.4453 25.9188 61.4186 25.851 61.3942 25.7831C61.3699 25.7153 61.3432 25.6495 61.3166 25.5817C61.29 25.5138 61.2656 25.448 61.239 25.3802C61.2146 25.3144 61.1858 25.2486 61.1592 25.1849C61.1325 25.1191 61.1081 25.0554 61.0793 24.9896C61.0527 24.9258 61.0261 24.86 60.9995 24.7963C60.9728 24.7326 60.9462 24.6688 60.9196 24.6051C60.893 24.5414 60.8664 24.4777 60.8398 24.4139C60.8132 24.3502 60.7865 24.2885 60.7577 24.2248C60.7311 24.1631 60.7023 24.1014 60.6757 24.0397C60.649 23.9781 60.6202 23.9164 60.5936 23.8547C60.567 23.793 60.5381 23.7334 60.5093 23.6717C60.4805 23.6101 60.4516 23.5525 60.425 23.4908C60.3962 23.4312 60.3696 23.3716 60.3407 23.3099C60.3119 23.2503 60.2853 23.1907 60.2565 23.131C60.2276 23.0735 60.1988 23.0139 60.17 22.9563C60.1411 22.8987 60.1123 22.8391 60.0835 22.7815C60.0546 22.724 60.0258 22.6644 59.997 22.6068C59.9681 22.5492 59.9371 22.4937 59.9083 22.4362C59.8794 22.3786 59.8506 22.3231 59.8195 22.2655C59.7907 22.208 59.7619 22.1524 59.7308 22.0949C59.702 22.0394 59.6709 21.9839 59.6421 21.9263C59.6133 21.8708 59.5822 21.8153 59.5512 21.7598C59.5201 21.7043 59.4913 21.6488 59.4602 21.5932C59.4292 21.5377 59.4004 21.4822 59.3693 21.4267C59.3405 21.3733 59.3072 21.3178 59.2784 21.2643C59.2473 21.2109 59.2185 21.1553 59.1874 21.1019C59.1564 21.0484 59.1276 20.9929 59.0965 20.9395C59.0655 20.886 59.0344 20.8326 59.0034 20.7791C58.9723 20.7257 58.9413 20.6743 58.9102 20.6208C58.8792 20.5674 58.8481 20.516 58.8171 20.4625C58.786 20.4091 58.755 20.3577 58.7239 20.3042C58.6929 20.2528 58.6618 20.2014 58.6308 20.148C58.5997 20.0966 58.5687 20.0452 58.5354 19.9938C58.5043 19.9424 58.4733 19.891 58.44 19.8396C58.409 19.7882 58.3779 19.7368 58.3446 19.6854C58.3402 19.6792 58.338 19.6751 58.3336 19.6689C58.3047 19.6237 58.2759 19.5785 58.2471 19.5333C58.216 19.4819 58.1827 19.4325 58.1517 19.3832C58.1206 19.3338 58.0874 19.2824 58.0563 19.2331C58.0231 19.1838 57.992 19.1344 57.9587 19.0851C57.9255 19.0357 57.8944 18.9864 57.8611 18.9371C57.8279 18.8877 57.7968 18.8384 57.7636 18.7911C57.7303 18.7417 57.697 18.6945 57.666 18.6472C57.6327 18.5999 57.5994 18.5505 57.5684 18.5033C57.5529 18.4786 57.5351 18.456 57.5196 18.4313C57.5041 18.4066 57.4863 18.384 57.4708 18.3593C57.4375 18.3121 57.4043 18.2668 57.371 18.2195C57.3377 18.1723 57.3045 18.125 57.2712 18.0797C57.2379 18.0325 57.2047 17.9872 57.1714 17.942C57.1381 17.8968 57.1048 17.8515 57.0694 17.8063C57.0339 17.7611 57.0028 17.7159 56.9673 17.6706C56.9341 17.6254 56.8986 17.5802 56.8653 17.537C56.832 17.4918 56.7966 17.4486 56.7633 17.4054C56.73 17.3622 56.6945 17.317 56.6613 17.2738C56.6258 17.2307 56.5925 17.1875 56.557 17.1443C56.5215 17.1011 56.4883 17.058 56.4528 17.0148C56.4173 16.9716 56.384 16.9285 56.3485 16.8873C56.3131 16.8442 56.2776 16.8051 56.2421 16.7619C56.2066 16.7208 56.1711 16.6776 56.1356 16.6365C56.1001 16.5954 56.0647 16.5543 56.0292 16.5132C55.9937 16.472 55.9582 16.433 55.9227 16.3919C55.8872 16.3507 55.8517 16.3117 55.8162 16.2706C55.7808 16.2315 55.7431 16.1924 55.7076 16.1534C55.6721 16.1143 55.6344 16.0753 55.5989 16.0362C55.5634 15.9971 55.5257 15.9581 55.4902 15.919C55.4525 15.88 55.417 15.845 55.3793 15.8059C55.3416 15.7689 55.3061 15.7299 55.2684 15.6929C55.2307 15.6559 55.1952 15.6189 55.1575 15.5819C55.1198 15.5448 55.0821 15.5099 55.0444 15.4749C55.0067 15.4379 54.969 15.403 54.9313 15.368C54.8936 15.3331 54.8559 15.2981 54.8182 15.2632C54.7805 15.2282 54.7428 15.1933 54.7051 15.1604C54.6674 15.1254 54.6297 15.0905 54.592 15.0576C54.5543 15.0227 54.5143 14.9918 54.4766 14.9589C54.4389 14.926 54.399 14.8931 54.3613 14.8602C54.3214 14.8273 54.2837 14.7944 54.246 14.7636C54.2061 14.7307 54.1684 14.6999 54.1284 14.669C54.0885 14.6382 54.0508 14.6053 54.0109 14.5745C53.971 14.5436 53.931 14.5148 53.8911 14.484C53.8512 14.4532 53.8113 14.4244 53.7714 14.3936C53.7314 14.3648 53.6915 14.3339 53.6516 14.3051C53.6117 14.2764 53.5717 14.2476 53.5318 14.2209C53.4919 14.1921 53.452 14.1633 53.4121 14.1366C53.3721 14.1098 53.33 14.0831 53.2901 14.0564C53.2501 14.0297 53.208 14.0029 53.1681 13.9762C53.1259 13.9495 53.086 13.9248 53.0439 13.8981C53.0017 13.8734 52.9618 13.8487 52.9197 13.822C52.8775 13.7953 52.8376 13.7706 52.7955 13.748C52.7533 13.7233 52.7112 13.7007 52.6691 13.6781C52.6269 13.6555 52.5848 13.6308 52.5426 13.6082C52.5005 13.5856 52.4584 13.563 52.414 13.5424C52.3719 13.5198 52.3275 13.4992 52.2854 13.4766C52.2432 13.4561 52.1989 13.4335 52.1567 13.4129C52.1124 13.3923 52.0702 13.3738 52.0259 13.3533C51.9815 13.3327 51.9394 13.3122 51.895 13.2937C51.8507 13.2752 51.8063 13.2587 51.7619 13.2402C51.7176 13.2217 51.6732 13.2032 51.6289 13.1867C51.5845 13.1703 51.5401 13.1539 51.4958 13.1374C51.4514 13.121 51.4049 13.1045 51.3605 13.0901C51.3161 13.0737 51.2696 13.0593 51.2252 13.0449C51.1786 13.0305 51.1343 13.0161 51.0877 13.0017C51.0411 12.9873 50.9968 12.9729 50.9502 12.9606C50.9036 12.9483 50.857 12.9359 50.8105 12.9236C50.7639 12.9113 50.7173 12.8989 50.6707 12.8866C50.6242 12.8763 50.5776 12.866 50.5288 12.8558C50.4822 12.8455 50.4334 12.8352 50.3868 12.8249C50.3381 12.8146 50.2915 12.8085 50.2427 12.7982C50.1939 12.79 50.1473 12.7817 50.0985 12.7735C50.0497 12.7653 50.0009 12.7591 49.9521 12.753C49.9033 12.7468 49.8546 12.7406 49.8058 12.7345C49.757 12.7283 49.7082 12.7242 49.6594 12.7201C49.6106 12.716 49.5596 12.7118 49.5108 12.7098C49.4376 12.7057 49.3622 12.7016 49.289 12.6995C49.2136 12.6974 49.1404 12.6954 49.065 12.6954C48.9896 12.6954 48.9142 12.6954 48.8365 12.6995C48.8166 12.6995 48.7988 12.6995 48.7789 12.6995C48.719 12.7016 48.6635 12.7077 48.6037 12.7118C48.526 12.718 48.4484 12.7201 48.3708 12.7283C48.2909 12.7365 48.2111 12.7488 48.1335 12.7591C48.0536 12.7694 47.9738 12.7817 47.8939 12.7941C47.8119 12.8085 47.7298 12.8249 47.65 12.8414C47.5657 12.8599 47.4836 12.8784 47.4016 12.8989C47.3173 12.9195 47.233 12.94 47.1509 12.9647C47.0644 12.9894 46.9779 13.0182 46.8937 13.0449C46.805 13.0737 46.7185 13.1066 46.632 13.1374C46.5432 13.1703 46.4523 13.2053 46.3658 13.2423C46.2749 13.2813 46.1839 13.3204 46.0952 13.3615C45.9999 13.4047 45.9089 13.452 45.8158 13.4992C45.7182 13.5486 45.625 13.602 45.5297 13.6555C45.4299 13.7131 45.3323 13.7706 45.2369 13.8302C45.1349 13.894 45.0351 13.9598 44.9353 14.0276C44.8288 14.0996 44.7268 14.1736 44.6248 14.2496C44.5161 14.3319 44.4074 14.4162 44.3032 14.5005C44.1878 14.595 44.0769 14.6917 43.9683 14.7903C43.8463 14.8993 43.731 15.0083 43.6178 15.1193C43.4892 15.2467 43.365 15.3722 43.2475 15.4996C43.1077 15.6497 42.9747 15.7998 42.8504 15.9499C42.693 16.1369 42.5488 16.3199 42.418 16.4967C42.2294 16.7475 42.0653 16.984 41.9256 17.1998C41.6395 17.6377 41.4532 17.9831 41.3645 18.1558C41.3445 18.1887 41.3179 18.238 41.2868 18.2936C41.2092 18.4334 41.0961 18.6369 40.9497 18.9185C40.9231 18.8774 40.8965 18.8384 40.8699 18.7973C40.8211 18.7232 40.7745 18.6513 40.7257 18.5793C40.6769 18.5074 40.6303 18.4354 40.5815 18.3635C40.5328 18.2915 40.484 18.2195 40.4374 18.1476C40.3886 18.0756 40.3398 18.0057 40.291 17.9338C40.2422 17.8618 40.1934 17.7919 40.1446 17.722C40.0958 17.6521 40.047 17.5822 39.9982 17.5123C39.9494 17.4424 39.9007 17.3725 39.8519 17.3026C39.8031 17.2327 39.7521 17.1649 39.7033 17.097C39.6545 17.0292 39.6035 16.9593 39.5547 16.8914C39.5036 16.8236 39.4549 16.7558 39.4061 16.69C39.355 16.6221 39.3063 16.5543 39.2552 16.4885C39.2042 16.4207 39.1554 16.3569 39.1044 16.2911C39.0534 16.2253 39.0024 16.1596 38.9536 16.0938C38.9026 16.028 38.8516 15.9642 38.8006 15.9005C38.7496 15.8368 38.6986 15.773 38.6475 15.7093C38.5965 15.6456 38.5455 15.5819 38.4923 15.5202C38.4413 15.4564 38.3881 15.3968 38.337 15.3351C38.286 15.2735 38.2328 15.2118 38.1796 15.1522C38.1263 15.0905 38.0731 15.0329 38.0221 14.9733C37.9689 14.9137 37.9156 14.8541 37.8624 14.7944C37.8092 14.7348 37.756 14.6793 37.7027 14.6218C37.6495 14.5642 37.5963 14.5066 37.5408 14.4511C37.4876 14.3936 37.4321 14.338 37.3789 14.2825C37.3235 14.227 37.2702 14.1736 37.2148 14.1181C37.1593 14.0646 37.1061 14.0091 37.0507 13.9556C36.9952 13.9022 36.9398 13.8508 36.8843 13.7994C36.8289 13.748 36.7734 13.6966 36.7158 13.6452C36.6603 13.5938 36.6026 13.5445 36.5472 13.4951C36.4895 13.4458 36.4341 13.3985 36.3764 13.3512C36.3188 13.3039 36.2611 13.2546 36.2034 13.2094C36.1458 13.1621 36.0859 13.1189 36.0282 13.0737C35.9705 13.0284 35.9107 12.9853 35.853 12.9421C35.7931 12.8989 35.7355 12.8558 35.6756 12.8146C35.6157 12.7735 35.5558 12.7324 35.4959 12.6933C35.436 12.6522 35.3762 12.6132 35.314 12.5741C35.2519 12.535 35.1921 12.498 35.13 12.461C35.0679 12.424 35.0058 12.3891 34.9437 12.3541C34.8816 12.3192 34.8195 12.2842 34.7574 12.2513C34.6953 12.2184 34.6309 12.1855 34.5666 12.1547C34.5023 12.1239 34.438 12.093 34.3737 12.0642C34.3093 12.0355 34.245 12.0046 34.1807 11.9779C34.1164 11.9512 34.0499 11.9244 33.9833 11.8998C33.9168 11.8751 33.8502 11.8504 33.7837 11.8278C33.7172 11.8052 33.6506 11.7805 33.5819 11.76C33.5131 11.7394 33.4466 11.7188 33.3778 11.7003C33.3091 11.6818 33.2403 11.6654 33.1716 11.6489C33.1028 11.6325 33.0318 11.6161 32.9631 11.6017C32.8921 11.5873 32.8234 11.5749 32.7524 11.5626C32.6814 11.5503 32.6104 11.542 32.5372 11.5318C32.4641 11.5235 32.3931 11.5133 32.3199 11.5071C32.2467 11.5009 32.1735 11.4948 32.1003 11.4906C32.0271 11.4865 31.9517 11.4845 31.8763 11.4845C31.8386 11.4845 31.7987 11.4824 31.761 11.4824C31.7233 11.4824 31.6878 11.4845 31.6501 11.4845C31.5747 11.4845 31.4971 11.4865 31.4216 11.4906C31.344 11.4948 31.2664 11.5009 31.1888 11.5091C31.1089 11.5174 31.0313 11.5256 30.9515 11.5359C30.8716 11.5462 30.7918 11.5585 30.7119 11.5729C30.6299 11.5873 30.55 11.6017 30.468 11.6202C30.3859 11.6387 30.3016 11.6572 30.2196 11.6777C30.1552 11.6942 30.0931 11.7127 30.0288 11.7332C29.9645 11.7517 29.9002 11.7723 29.8359 11.7929C29.7715 11.8134 29.705 11.836 29.6407 11.8607C29.5741 11.8854 29.5076 11.9121 29.4411 11.9388C29.3745 11.9656 29.3058 11.9943 29.2392 12.0231C29.1705 12.054 29.1017 12.0827 29.033 12.1156C28.962 12.1485 28.8932 12.1855 28.8223 12.2205C28.7513 12.2575 28.6803 12.2966 28.6094 12.3356C28.5362 12.3767 28.4652 12.4178 28.392 12.461C28.3188 12.5063 28.2434 12.5494 28.1702 12.5967C28.0948 12.6461 28.0172 12.6974 27.9418 12.7488C27.8641 12.8023 27.7865 12.8578 27.7089 12.9133C27.6291 12.9709 27.5492 13.0305 27.4716 13.0922C27.3895 13.1559 27.3097 13.2196 27.2276 13.2854C27.1433 13.3533 27.0613 13.4232 26.977 13.4951C26.8905 13.5691 26.8062 13.6452 26.7197 13.7233C26.631 13.8035 26.5445 13.8857 26.4558 13.97C26.3649 14.0564 26.2739 14.1468 26.1852 14.2373C26.0921 14.3319 25.9989 14.4285 25.9058 14.5272C25.8082 14.63 25.7128 14.7348 25.6174 14.8417C25.5176 14.9528 25.4178 15.0658 25.318 15.181C25.2204 15.2961 25.1206 15.4133 25.0208 15.5325L25.0075 15.549C24.901 15.6785 24.7946 15.8101 24.6881 15.9457L24.6837 15.9499C24.575 16.0876 24.4641 16.2295 24.3554 16.3713C24.2401 16.5214 24.127 16.6735 24.0117 16.8298C23.8919 16.9922 23.7721 17.1567 23.6524 17.3252C23.5282 17.5 23.404 17.6788 23.2798 17.8598C23.1511 18.0469 23.0225 18.236 22.8939 18.4313C22.7874 18.5917 22.6787 18.7541 22.5723 18.9206C22.5656 18.9062 22.559 18.898 22.5523 18.8836C22.5168 18.8158 22.4835 18.7541 22.4525 18.6965C22.417 18.6287 22.3837 18.567 22.3527 18.5115C22.315 18.4416 22.2817 18.382 22.2529 18.3285C22.213 18.2586 22.1797 18.1969 22.1553 18.1579L22.1509 18.1496C22.1242 18.1003 22.0932 18.0386 22.0511 17.9626C22.0222 17.9091 21.9867 17.8474 21.949 17.7816C21.918 17.7261 21.8825 17.6686 21.8448 17.6048C21.8115 17.5493 21.776 17.4938 21.7405 17.4321C21.7073 17.3787 21.6718 17.3211 21.6341 17.2636C21.5986 17.2101 21.5631 17.1546 21.5254 17.0991C21.4899 17.0456 21.4544 16.9922 21.4167 16.9387C21.3812 16.8873 21.3458 16.8339 21.3058 16.7804C21.2704 16.729 21.2326 16.6776 21.1949 16.6262C21.1595 16.5769 21.1195 16.5255 21.0818 16.4741C21.0441 16.4248 21.0064 16.3754 20.9687 16.324C20.931 16.2767 20.8933 16.2274 20.8534 16.1781C20.8157 16.1308 20.7758 16.0835 20.7381 16.0362C20.7004 15.9889 20.6604 15.9416 20.6205 15.8943C20.5828 15.8491 20.5407 15.8039 20.503 15.7587C20.463 15.7134 20.4253 15.6682 20.3832 15.625C20.3433 15.5819 20.3034 15.5366 20.2634 15.4934C20.2235 15.4503 20.1836 15.4071 20.1414 15.3639C20.1015 15.3228 20.0616 15.2796 20.0195 15.2385C19.9795 15.1974 19.9374 15.1563 19.8953 15.1152C19.8531 15.074 19.8132 15.035 19.7711 14.9939C19.7289 14.9548 19.6868 14.9157 19.6446 14.8767C19.6025 14.8376 19.5604 14.7986 19.5182 14.7616C19.4761 14.7245 19.4339 14.6875 19.3896 14.6505C19.3474 14.6135 19.3053 14.5765 19.2609 14.5416C19.2188 14.5066 19.1744 14.4717 19.1301 14.4367C19.0857 14.4018 19.0436 14.3668 18.9992 14.3339C18.9549 14.301 18.9105 14.2681 18.8662 14.2332C18.8218 14.2003 18.7774 14.1674 18.7331 14.1345C18.6887 14.1037 18.6444 14.0708 18.5978 14.0399C18.5534 14.0091 18.5069 13.9783 18.4625 13.9495C18.4181 13.9186 18.3716 13.8899 18.3272 13.859C18.2829 13.8302 18.2363 13.8015 18.1897 13.7747C18.1431 13.7459 18.0988 13.7172 18.0522 13.6904C18.0056 13.6637 17.959 13.639 17.9125 13.6123C17.8659 13.5856 17.8193 13.5589 17.7727 13.5342C17.7262 13.5095 17.6774 13.4849 17.6308 13.4622C17.5842 13.4376 17.5354 13.415 17.4866 13.3923C17.4378 13.3697 17.3913 13.3471 17.3425 13.3245C17.2937 13.3019 17.2449 13.2813 17.1961 13.2608C17.1473 13.2402 17.0985 13.2176 17.0497 13.197C17.0009 13.1765 16.9499 13.16 16.9011 13.1415C16.8523 13.123 16.8035 13.1025 16.7525 13.086C16.7037 13.0675 16.6527 13.0511 16.6017 13.0346C16.5507 13.0182 16.4997 13.0017 16.4487 12.9873C16.3976 12.9709 16.3466 12.9565 16.2956 12.9421C16.2446 12.9277 16.1914 12.9154 16.1404 12.903C16.0894 12.8907 16.0383 12.8763 15.9851 12.864C15.9341 12.8516 15.8809 12.8414 15.8276 12.8311C15.7744 12.8208 15.7212 12.8105 15.6702 12.8002C15.6169 12.79 15.5637 12.7817 15.5105 12.7715C15.4573 12.7632 15.4018 12.7571 15.3486 12.7509C15.2954 12.7447 15.2421 12.7345 15.1867 12.7303C15.1312 12.7242 15.0758 12.7221 15.0226 12.716C14.9671 12.7118 14.9117 12.7077 14.8562 12.7036C14.8163 12.7016 14.7786 12.6974 14.7387 12.6954C14.7231 12.6954 14.7054 12.6954 14.6899 12.6954C14.6344 12.6954 14.5768 12.6933 14.5213 12.6913C14.4636 12.6913 14.4082 12.6913 14.3505 12.6913C14.2929 12.6913 14.2352 12.6933 14.1775 12.6954C14.1199 12.6974 14.0622 12.7016 14.0045 12.7057C13.9469 12.7098 13.887 12.7139 13.8293 12.718C13.7694 12.7242 13.7118 12.7303 13.6519 12.7365C13.592 12.7427 13.5321 12.7488 13.4745 12.7571C13.4146 12.7653 13.3525 12.7776 13.2926 12.7879C13.2327 12.7982 13.1706 12.8085 13.1107 12.8208C13.0486 12.8331 12.9865 12.8455 12.9266 12.8599C12.8645 12.8743 12.8024 12.8886 12.7381 12.9051C12.676 12.9215 12.6117 12.9359 12.5496 12.9544C12.4853 12.9729 12.421 12.9935 12.3566 13.0141C12.2923 13.0346 12.228 13.0552 12.1615 13.0778C12.0949 13.1004 12.0306 13.123 11.9641 13.1477C11.8975 13.1724 11.831 13.1991 11.7645 13.2279C11.6979 13.2546 11.6292 13.2834 11.5626 13.3122C11.4939 13.343 11.4251 13.3738 11.3564 13.4067C11.2854 13.4396 11.2166 13.4746 11.1479 13.5095C11.0769 13.5445 11.0059 13.5815 10.935 13.6205C10.864 13.6596 10.7908 13.6987 10.7198 13.7398C10.6467 13.783 10.5735 13.8282 10.5003 13.8714C10.4249 13.9166 10.3517 13.9639 10.2763 14.0132C10.2009 14.0626 10.1232 14.1119 10.0478 14.1653C9.97019 14.2188 9.89257 14.2723 9.81494 14.3298C9.7351 14.3874 9.65525 14.4491 9.57763 14.5087C9.49556 14.5704 9.41572 14.6361 9.33366 14.7019C9.2516 14.7698 9.16731 14.8376 9.08525 14.9096C9.00097 14.9815 8.91448 15.0555 8.8302 15.1337C8.7437 15.2118 8.65498 15.292 8.56848 15.3742C8.47977 15.4585 8.38883 15.5448 8.30012 15.6353C7.97631 15.9581 7.65471 16.3076 7.33534 16.6838C6.60565 17.5411 5.88705 18.5341 5.18176 19.6648C3.76675 21.9345 2.7443 24.0706 2.02348 26.0525C0.572981 30.0347 0.34232 33.3961 0.581853 35.9906C0.592942 36.1098 0.604032 36.2291 0.617339 36.3442C0.630646 36.4593 0.643954 36.5724 0.659479 36.6855C0.675004 36.7965 0.688312 36.9055 0.706055 37.0144C0.72158 37.1213 0.739323 37.2282 0.757066 37.331C0.774809 37.4338 0.792553 37.5366 0.810296 37.6374C0.828039 37.7381 0.848 37.8368 0.867961 37.9334C0.887922 38.03 0.907883 38.1267 0.930062 38.2212C0.950023 38.3158 0.972202 38.4083 0.994381 38.5008C1.01656 38.5933 1.03874 38.6838 1.06092 38.7722C1.0831 38.8627 1.10749 38.949 1.13189 39.0353C1.15629 39.1238 1.18068 39.208 1.20508 39.2923C1.22948 39.3766 1.25609 39.4609 1.28049 39.5411C1.3071 39.6233 1.3315 39.7056 1.35812 39.7837C1.38473 39.8639 1.41134 39.944 1.43796 40.0201C1.46457 40.1003 1.49341 40.1764 1.52002 40.2504C1.54885 40.3285 1.57769 40.4025 1.6043 40.4765C1.63313 40.5526 1.66197 40.6266 1.6908 40.6965C1.72185 40.7705 1.75068 40.8404 1.77951 40.9103C1.81057 40.9823 1.84162 41.0522 1.87045 41.118C1.90372 41.1899 1.93477 41.2557 1.9636 41.3194C1.99687 41.3893 2.03014 41.4551 2.05897 41.5147C2.09446 41.5867 2.12772 41.6484 2.15656 41.7039C2.1987 41.782 2.23196 41.8416 2.25858 41.8848L2.2741 41.9115C2.30072 41.9588 2.33177 42.0082 2.36282 42.0575C2.39609 42.111 2.43158 42.1665 2.4715 42.222C2.50698 42.2734 2.54247 42.3268 2.58239 42.3803C2.61788 42.4296 2.6578 42.479 2.6955 42.5283C2.73321 42.5756 2.77091 42.6229 2.81083 42.6722C2.84854 42.7174 2.88846 42.7647 2.92838 42.81C2.96609 42.8531 3.00823 42.8984 3.04815 42.9415C3.08807 42.9847 3.12799 43.0279 3.17013 43.071C3.21006 43.1122 3.2522 43.1533 3.29434 43.1923C3.33426 43.2314 3.3764 43.2725 3.41854 43.3116C3.46068 43.3506 3.50282 43.3877 3.54496 43.4247C3.5871 43.4617 3.62924 43.4987 3.67359 43.5336C3.71573 43.5686 3.76009 43.6056 3.80445 43.6405C3.84659 43.6755 3.89317 43.7084 3.93752 43.7413C3.98188 43.7742 4.02402 43.8091 4.0706 43.842C4.11496 43.8728 4.16153 43.9016 4.20589 43.9325C4.25025 43.9633 4.2946 43.9941 4.34118 44.0229C4.38554 44.0517 4.43211 44.0805 4.47869 44.1072C4.52527 44.1339 4.57184 44.1607 4.61842 44.1874C4.66499 44.2141 4.70935 44.2429 4.75814 44.2676C4.80472 44.2922 4.85351 44.3149 4.90231 44.3375C4.94888 44.3621 4.99768 44.3848 5.04647 44.4074C5.09526 44.43 5.14184 44.4526 5.19063 44.4732C5.23943 44.4937 5.28822 44.5122 5.33923 44.5328C5.38803 44.5533 5.43682 44.5739 5.48783 44.5924C5.53662 44.6109 5.58764 44.6273 5.63865 44.6438C5.68966 44.6602 5.74067 44.6767 5.79168 44.6911C5.84269 44.7075 5.89149 44.724 5.94472 44.7384C5.99573 44.7528 6.04896 44.763 6.09997 44.7754C6.15098 44.7877 6.20421 44.8 6.25744 44.8103C6.31067 44.8206 6.36168 44.835 6.41491 44.8453C6.46814 44.8556 6.52359 44.8597 6.57682 44.8679C6.63005 44.8761 6.68327 44.8843 6.73872 44.8905C6.79195 44.8967 6.84518 44.907 6.90063 44.9111C6.95608 44.9172 7.01152 44.9172 7.06697 44.9193C7.12242 44.9234 7.17787 44.9255 7.23331 44.9275C7.28211 44.9275 7.32868 44.9337 7.37969 44.9357H7.43514C7.48172 44.9357 7.52829 44.9337 7.57487 44.9316C7.63253 44.9316 7.6902 44.9316 7.74786 44.9275C7.80553 44.9255 7.86541 44.9193 7.92308 44.9131C7.98074 44.909 8.04063 44.9028 8.09829 44.8967C8.15817 44.8905 8.21806 44.8823 8.27794 44.8741C8.33782 44.8658 8.39771 44.8556 8.45981 44.8453C8.51969 44.835 8.58179 44.8247 8.64167 44.8124C8.70378 44.8 8.76588 44.7857 8.82798 44.7713C8.89008 44.7569 8.95218 44.7425 9.0165 44.726C9.08082 44.7096 9.14292 44.6911 9.20724 44.6726C9.27156 44.6541 9.33588 44.6315 9.40019 44.6109C9.46451 44.5883 9.53105 44.5677 9.59537 44.5451C9.6619 44.5204 9.72844 44.4937 9.79498 44.467C9.86152 44.4403 9.93027 44.4115 9.99681 44.3827C10.0656 44.3539 10.1343 44.3231 10.2009 44.2922C10.2718 44.2593 10.3406 44.2244 10.4093 44.1894C10.4803 44.1524 10.5513 44.1154 10.6223 44.0764C10.6932 44.0373 10.7664 43.9983 10.8374 43.9551C10.9106 43.9119 10.9838 43.8687 11.057 43.8235C11.1324 43.7762 11.2078 43.7269 11.2832 43.6775C11.3586 43.6261 11.4362 43.5747 11.5116 43.5213C11.5893 43.4658 11.6669 43.4103 11.7445 43.3527C11.8244 43.2931 11.9042 43.2335 11.984 43.1697C12.0661 43.106 12.1482 43.0382 12.2302 42.9703C12.3145 42.9004 12.3988 42.8285 12.4808 42.7565C12.5673 42.6825 12.6516 42.6044 12.7381 42.5262C12.8268 42.4461 12.9156 42.3618 13.0021 42.2775C13.093 42.1891 13.1839 42.1007 13.2749 42.0082C13.368 41.9136 13.4612 41.817 13.5543 41.7162C13.6519 41.6134 13.7473 41.5086 13.8449 41.4017C13.9447 41.2907 14.0445 41.1755 14.1443 41.0583C14.1908 41.0028 14.2396 40.9453 14.2862 40.8898C14.3417 40.8219 14.3993 40.7561 14.4548 40.6862C14.5634 40.5546 14.6699 40.419 14.7786 40.2812C14.8917 40.1373 15.0048 39.9893 15.1157 39.8371C15.2333 39.6788 15.3508 39.5164 15.4706 39.352C15.5948 39.1772 15.719 39.0004 15.8432 38.8174C15.974 38.6262 16.1049 38.4309 16.2357 38.2294C16.3755 38.0136 16.5174 37.7915 16.6571 37.5654C16.808 37.3249 16.9588 37.0782 17.1074 36.8232C17.1207 36.8006 17.1362 36.7759 17.1495 36.7533C17.2981 36.5005 17.4423 36.2537 17.5887 36.0029C17.7506 35.7274 17.9125 35.4499 18.0722 35.1785C18.2385 34.8927 18.4026 34.609 18.5645 34.3253C18.7309 34.0354 18.8994 33.7456 19.0636 33.4577C19.2343 33.1617 19.4029 32.8657 19.5692 32.5737C19.6735 32.3907 19.7755 32.2098 19.8797 32.0289C19.9463 31.9117 20.015 31.7925 20.0816 31.6753C20.2546 31.371 20.4253 31.0688 20.5961 30.7666C20.7691 30.4603 20.9421 30.1539 21.1129 29.8517C21.1639 29.7613 21.2149 29.6708 21.2659 29.5804C21.3901 29.3624 21.5099 29.1486 21.6319 28.9327C21.7162 28.7847 21.8004 28.6346 21.8825 28.4887C21.8958 28.5277 21.9113 28.5689 21.9246 28.61C21.9512 28.686 21.9801 28.7662 22.0067 28.8423C22.0333 28.9204 22.0599 28.9965 22.0888 29.0746C22.1154 29.1527 22.142 29.2309 22.1708 29.309C22.1974 29.3871 22.224 29.4652 22.2507 29.5454C22.2773 29.6235 22.3039 29.7016 22.3305 29.7818C22.3571 29.86 22.3837 29.9401 22.4104 30.0203C22.437 30.0984 22.4636 30.1786 22.4902 30.2588C22.5168 30.3369 22.5434 30.4171 22.57 30.4973C22.5967 30.5754 22.6233 30.6576 22.6499 30.7378C22.6765 30.818 22.7031 30.8961 22.7297 30.9783C22.7364 31.003 22.7453 31.0256 22.7519 31.0483C22.7719 31.1058 22.7896 31.1613 22.8074 31.2189C22.8428 31.3258 22.8783 31.4327 22.9116 31.5396C22.9471 31.6465 22.9826 31.7555 23.0158 31.8603C23.0513 31.9693 23.0868 32.0721 23.1201 32.179C23.1556 32.2859 23.191 32.3928 23.2243 32.4976C23.2598 32.6046 23.2953 32.7094 23.3308 32.8163C23.3663 32.9232 23.4017 33.0301 23.4372 33.135C23.4727 33.2419 23.5082 33.3467 23.5437 33.4516C23.5792 33.5585 23.6147 33.6633 23.6502 33.7682C23.6856 33.8751 23.7211 33.9799 23.7566 34.0827C23.7921 34.1876 23.8276 34.2924 23.8631 34.3973C23.8986 34.5021 23.934 34.607 23.9717 34.7098C24.0072 34.8146 24.0449 34.9174 24.0804 35.0202C24.1159 35.1251 24.1536 35.2279 24.1891 35.3307C24.2268 35.4355 24.2623 35.5362 24.2978 35.637C24.3355 35.7398 24.371 35.8426 24.4087 35.9433C24.4464 36.0461 24.4841 36.1468 24.5196 36.2455C24.5573 36.3463 24.595 36.447 24.6327 36.5457C24.6482 36.5868 24.6637 36.6279 24.6793 36.669C24.7014 36.7266 24.7236 36.7862 24.7458 36.8438C24.7835 36.9445 24.8234 37.0411 24.8611 37.1378C24.8988 37.2365 24.9387 37.3351 24.9765 37.4297C25.0164 37.5284 25.0541 37.6209 25.094 37.7155C25.1339 37.8121 25.1738 37.9067 25.2115 37.9992C25.2515 38.0917 25.2914 38.1842 25.3291 38.2747V38.2788C25.3712 38.3713 25.4112 38.4638 25.4533 38.5543C25.4954 38.6447 25.5354 38.7372 25.5775 38.8257C25.6196 38.9161 25.6618 39.0025 25.7039 39.0888C25.7461 39.1772 25.7882 39.2636 25.8326 39.3478C25.8747 39.4342 25.9191 39.5185 25.9634 39.6007C26.0078 39.685 26.0521 39.7652 26.0965 39.8454C26.1275 39.9029 26.1608 39.9626 26.1919 40.0201C26.2052 40.0427 26.2185 40.0653 26.2318 40.0859C26.2761 40.162 26.3205 40.2401 26.3693 40.3203C26.4136 40.3943 26.4624 40.4704 26.5112 40.5444C26.5578 40.6163 26.6066 40.6883 26.6554 40.7623C26.702 40.8322 26.7508 40.9021 26.8018 40.972C26.8506 41.0398 26.8994 41.1077 26.9526 41.1735C27.0014 41.2372 27.0546 41.3009 27.1056 41.3647C27.1566 41.4263 27.2077 41.4901 27.2609 41.5518C27.3119 41.6114 27.3673 41.6689 27.4206 41.7265C27.4738 41.7841 27.527 41.8396 27.5825 41.8951C27.6357 41.9485 27.6912 42.002 27.7488 42.0554C27.8043 42.1068 27.8619 42.1562 27.9174 42.2055C27.9728 42.2549 28.0305 42.3042 28.0882 42.3515C28.1458 42.3967 28.2057 42.4399 28.2634 42.4831C28.321 42.5262 28.3787 42.5715 28.4408 42.6126C28.5007 42.6516 28.5628 42.6887 28.6227 42.7277C28.6826 42.7647 28.7424 42.8058 28.8068 42.8408C28.8666 42.8757 28.9332 42.9066 28.9953 42.9395C29.0574 42.9724 29.1195 43.0053 29.1838 43.0361C29.2459 43.0649 29.3124 43.0937 29.379 43.1204C29.4433 43.1471 29.5076 43.1738 29.5741 43.2006C29.6385 43.2252 29.705 43.2499 29.7738 43.2725C29.8403 43.2951 29.909 43.3157 29.9756 43.3342C30.0443 43.3548 30.1087 43.3753 30.1796 43.3938C30.2484 43.4103 30.3194 43.4226 30.3881 43.4391C30.4569 43.4534 30.5256 43.4719 30.5966 43.4843C30.6653 43.4966 30.7385 43.5048 30.8117 43.5151C30.8827 43.5254 30.9537 43.5336 31.0269 43.5418C31.1001 43.5501 31.171 43.5583 31.2442 43.5645C31.3174 43.5706 31.3928 43.5706 31.466 43.5727C31.5392 43.5747 31.6124 43.5809 31.6878 43.5809C31.7078 43.5809 31.7277 43.583 31.7499 43.583C31.8076 43.583 31.8608 43.5768 31.9162 43.5768C31.9939 43.5768 32.0693 43.5727 32.1469 43.5686C32.2245 43.5645 32.3022 43.5624 32.3776 43.5562C32.4596 43.5501 32.535 43.5377 32.6149 43.5275C32.6947 43.5172 32.7746 43.511 32.8522 43.4987C32.9365 43.4863 33.0163 43.4678 33.0962 43.4514C33.1782 43.4349 33.2625 43.4205 33.3423 43.4C33.4288 43.3794 33.5109 43.3548 33.5952 43.3301C33.6817 43.3054 33.7682 43.2828 33.8502 43.254C33.9412 43.2232 34.0277 43.1862 34.1164 43.1512C34.2073 43.1142 34.2983 43.0772 34.3848 43.0382C34.4801 42.995 34.5733 42.9477 34.6642 42.9004C34.764 42.847 34.8594 42.7894 34.9548 42.7318C35.059 42.6681 35.1588 42.6003 35.2564 42.5324C35.3673 42.4543 35.4737 42.372 35.5758 42.2898C35.6955 42.1911 35.8086 42.0904 35.9173 41.9876C36.0482 41.8622 36.1724 41.7327 36.2899 41.6031C36.4452 41.4284 36.5871 41.2475 36.718 41.0686C36.922 40.789 37.0995 40.5115 37.2569 40.2442C37.288 40.1908 37.3212 40.1373 37.3501 40.0859C37.4477 39.9132 37.5452 39.7302 37.6406 39.5411C37.8491 39.132 38.0531 38.6879 38.2572 38.2007C38.4457 37.7525 38.6342 37.2693 38.8272 36.7492C38.9558 36.4038 39.0867 36.0399 39.2198 35.6596C39.6545 34.422 40.1202 32.9993 40.6592 31.3505L40.7568 31.0524C40.7967 30.929 40.8366 30.8118 40.8765 30.6905C41.1338 29.9134 41.3844 29.1795 41.6262 28.4948C41.6417 28.5236 41.6594 28.5524 41.675 28.5812C41.7193 28.6593 41.7659 28.7416 41.8103 28.8217C41.8546 28.9019 41.9012 28.9821 41.9455 29.0623C41.9899 29.1424 42.0365 29.2226 42.0808 29.3028C42.1252 29.383 42.1696 29.4611 42.2161 29.5433C42.225 29.5577 42.2339 29.5742 42.2405 29.5886C42.276 29.6523 42.3137 29.7181 42.3514 29.7839C42.3958 29.8641 42.4424 29.9442 42.4867 30.0244C42.5311 30.1046 42.5776 30.1848 42.622 30.265C42.6664 30.3451 42.7129 30.4253 42.7573 30.5055C42.7883 30.559 42.8194 30.6145 42.8482 30.6679C42.8793 30.7214 42.9081 30.7769 42.9392 30.8303C42.9702 30.8838 42.999 30.9372 43.0301 30.9927C43.0611 31.0462 43.09 31.0996 43.121 31.1552C43.1521 31.2086 43.1809 31.2621 43.212 31.3176C43.243 31.371 43.2741 31.4265 43.3029 31.48C43.334 31.5334 43.365 31.5889 43.3938 31.6424C43.4249 31.6959 43.4559 31.7493 43.4848 31.8048C43.5158 31.8583 43.5469 31.9117 43.5757 31.9672L43.6178 32.0433C43.6334 32.0721 43.6511 32.1009 43.6666 32.1296C43.6977 32.1831 43.7287 32.2365 43.7576 32.2921C43.7886 32.3455 43.8197 32.399 43.8485 32.4545C43.8796 32.5079 43.9106 32.5614 43.9394 32.6169C43.9683 32.6724 43.9993 32.7238 44.0304 32.7793C44.0614 32.8328 44.0902 32.8862 44.1213 32.9417C44.1524 32.9972 44.1812 33.0486 44.2122 33.1041C44.2433 33.1576 44.2743 33.211 44.3054 33.2645C44.3364 33.3179 44.3675 33.3714 44.3985 33.4249C44.4296 33.4783 44.4606 33.5318 44.4917 33.5852C44.5227 33.6387 44.5538 33.6921 44.5848 33.7456C44.6159 33.799 44.6469 33.8525 44.678 33.9059L44.7711 34.0663C44.8022 34.1197 44.8332 34.1732 44.8643 34.2266C44.8953 34.2801 44.9264 34.3335 44.9574 34.387C44.9885 34.4405 45.0195 34.4939 45.0506 34.5474C45.0816 34.6008 45.1127 34.6543 45.1437 34.7077C45.1748 34.7612 45.2036 34.8146 45.2369 34.8681C45.268 34.9215 45.299 34.975 45.3301 35.0264C45.3611 35.0778 45.3922 35.1333 45.4232 35.1847C45.4543 35.2381 45.4853 35.2916 45.5164 35.343C45.5474 35.3944 45.5785 35.4499 45.6095 35.5013C45.6406 35.5547 45.6716 35.6082 45.7027 35.6596C45.7337 35.711 45.7648 35.7644 45.7958 35.8179C45.8269 35.8713 45.8579 35.9227 45.889 35.9762C45.92 36.0297 45.9511 36.081 45.9821 36.1345C46.0132 36.188 46.0442 36.2394 46.0753 36.2928C46.1063 36.3463 46.1374 36.3977 46.1684 36.4511C46.1995 36.5046 46.2305 36.556 46.2616 36.6094C46.2926 36.6629 46.3214 36.7143 46.3547 36.7677C46.3858 36.8212 46.4168 36.8726 46.4479 36.926C46.4789 36.9795 46.51 37.0309 46.541 37.0823C46.5721 37.1337 46.6031 37.1871 46.6342 37.2385C46.6652 37.2899 46.6963 37.3413 46.7295 37.3927C46.7606 37.4441 46.7939 37.4955 46.8249 37.5469C46.856 37.5983 46.8892 37.6497 46.9203 37.7011C46.9513 37.7525 46.9846 37.8018 47.0157 37.8532C47.0467 37.9046 47.08 37.954 47.111 38.0033C47.1421 38.0526 47.1753 38.104 47.2064 38.1534C47.2397 38.2027 47.2707 38.2521 47.304 38.3014C47.3372 38.3507 47.3683 38.4001 47.4016 38.4474C47.4348 38.4967 47.4659 38.5461 47.4992 38.5933C47.5324 38.6427 47.5635 38.692 47.5967 38.7393C47.63 38.7886 47.6633 38.8339 47.6943 38.8832C47.7254 38.9326 47.7609 38.9798 47.7919 39.0271C47.8252 39.0744 47.8584 39.1238 47.8917 39.171C47.925 39.2183 47.9583 39.2636 47.9915 39.3108C48.0248 39.3581 48.0581 39.4054 48.0913 39.4506C48.1246 39.4959 48.1579 39.5452 48.1911 39.5904C48.2244 39.6377 48.2577 39.6809 48.2932 39.7261C48.3264 39.7714 48.3597 39.8186 48.3952 39.8618C48.4284 39.907 48.4639 39.9523 48.4972 39.9975C48.5305 40.0427 48.566 40.0859 48.5992 40.1311C48.6325 40.1764 48.668 40.2195 48.7012 40.2648C48.7345 40.3079 48.77 40.3532 48.8033 40.3963C48.8388 40.4395 48.872 40.4827 48.9075 40.5259C48.943 40.569 48.9763 40.6122 49.0118 40.6554C49.0472 40.6986 49.0805 40.7417 49.116 40.7828C49.1515 40.826 49.187 40.8671 49.2225 40.9083C49.2579 40.9494 49.2934 40.9925 49.3289 41.0337C49.3644 41.0748 49.3999 41.1159 49.4354 41.157C49.4709 41.1981 49.5063 41.2372 49.5418 41.2783C49.5773 41.3194 49.6128 41.3606 49.6483 41.3996C49.6838 41.4407 49.7193 41.4798 49.757 41.5189C49.7924 41.5579 49.8302 41.597 49.8656 41.636C49.9011 41.6751 49.9388 41.7162 49.9743 41.7532C50.012 41.7923 50.0475 41.8293 50.083 41.8684C50.1207 41.9074 50.1562 41.9444 50.1939 41.9814C50.2316 42.0184 50.2671 42.0575 50.3048 42.0945C50.3425 42.1315 50.3802 42.1665 50.4157 42.2035C50.4534 42.2405 50.4911 42.2775 50.5266 42.3124C50.5643 42.3494 50.602 42.3844 50.6397 42.4193C50.6774 42.4543 50.7151 42.4892 50.7528 42.5242C50.7905 42.5591 50.8282 42.5941 50.8659 42.629C50.9036 42.664 50.9413 42.6969 50.9812 42.7298C51.0189 42.7627 51.0589 42.7976 51.0966 42.8305C51.1343 42.8634 51.1742 42.8984 51.2119 42.9292C51.2518 42.9621 51.2895 42.9929 51.3294 43.0238C51.3694 43.0567 51.4071 43.0875 51.447 43.1183C51.4869 43.1492 51.5246 43.18 51.5645 43.2108C51.6045 43.2417 51.6444 43.2705 51.6843 43.3013C51.7242 43.3321 51.7642 43.363 51.8041 43.3918C51.844 43.4205 51.8839 43.4493 51.9238 43.4781C51.9638 43.5069 52.0037 43.5357 52.0436 43.5645C52.0835 43.5932 52.1257 43.62 52.1656 43.6467C52.2055 43.6734 52.2477 43.7001 52.2876 43.7269C52.3275 43.7536 52.3696 43.7824 52.4096 43.8071C52.4517 43.8338 52.4916 43.8564 52.5338 43.8831C52.5759 43.9098 52.6158 43.9345 52.658 43.9571C52.7001 43.9818 52.7423 44.0065 52.7844 44.0291C52.8265 44.0538 52.8687 44.0764 52.9108 44.099C52.9529 44.1216 52.9951 44.1463 53.0372 44.1668C53.0794 44.1894 53.1237 44.21 53.1659 44.2306C53.208 44.2511 53.2524 44.2737 53.2945 44.2943C53.3389 44.3149 53.381 44.3334 53.4254 44.3539C53.4697 44.3745 53.5119 44.393 53.5562 44.4115C53.6006 44.43 53.6449 44.4485 53.6893 44.467C53.7337 44.4855 53.778 44.5019 53.8224 44.5184C53.8667 44.5348 53.9111 44.5533 53.9554 44.5698C53.9998 44.5862 54.0464 44.6006 54.0907 44.615C54.1351 44.6294 54.1817 44.6459 54.226 44.6602C54.2726 44.6746 54.3192 44.687 54.3635 44.6993C54.4101 44.7116 54.4567 44.726 54.501 44.7384C54.5476 44.7507 54.5942 44.761 54.6408 44.7733C54.6873 44.7836 54.7339 44.7959 54.7805 44.8062C54.8271 44.8165 54.8759 44.8268 54.9224 44.835C54.9712 44.8432 55.0178 44.8535 55.0666 44.8617C55.1154 44.8699 55.162 44.8782 55.2108 44.8843C55.2596 44.8905 55.3083 44.8967 55.3571 44.9028C55.4059 44.909 55.4547 44.9152 55.5035 44.9193C55.5523 44.9234 55.6033 44.9275 55.6521 44.9316C55.7009 44.9357 55.7519 44.9378 55.8007 44.9419C55.8517 44.944 55.9027 44.944 55.9515 44.946C55.9892 44.946 56.0292 44.9481 56.0669 44.9481H56.1201C56.1667 44.9481 56.211 44.9419 56.2576 44.9398C56.3108 44.9398 56.3619 44.9357 56.4129 44.9316C56.4639 44.9275 56.5171 44.9275 56.5681 44.9234C56.6213 44.9193 56.6746 44.9111 56.7278 44.9049C56.7832 44.8987 56.8365 44.8905 56.8897 44.8823C56.9429 44.8741 56.9984 44.8699 57.0516 44.8597C57.1093 44.8494 57.1625 44.835 57.218 44.8247C57.2734 44.8124 57.3311 44.8 57.3843 44.7877C57.4397 44.7733 57.4974 44.763 57.5529 44.7466C57.6127 44.7301 57.6682 44.7096 57.7259 44.6931C57.7835 44.6746 57.8434 44.6582 57.8988 44.6397C57.9587 44.6191 58.0186 44.5945 58.0763 44.5718C58.1473 44.5451 58.2204 44.5163 58.2892 44.4876C58.3646 44.4547 58.4356 44.4218 58.5088 44.3868C58.582 44.3519 58.6596 44.3169 58.7306 44.2799C58.8104 44.2388 58.8858 44.1915 58.9612 44.1483C59.0411 44.101 59.1209 44.0538 59.1963 44.0024C59.2784 43.9489 59.3604 43.8955 59.4381 43.84C59.5246 43.7783 59.6088 43.7125 59.6909 43.6488C59.7818 43.5768 59.8706 43.5028 59.9548 43.4267C60.0524 43.3404 60.1456 43.254 60.2343 43.1677C60.3407 43.0628 60.4406 42.96 60.5337 42.8552C60.6579 42.7154 60.7688 42.5776 60.8708 42.4419C61.0083 42.259 61.1259 42.0822 61.219 41.9218C61.2412 41.8848 61.2723 41.8314 61.31 41.7614C61.5384 41.3462 62.0308 40.3388 62.4256 38.8174C62.5187 38.4618 62.6052 38.0773 62.6806 37.6661C62.7294 37.4009 62.7738 37.1254 62.8137 36.8376C62.8447 36.6135 62.8736 36.3812 62.8958 36.1427C62.9157 35.9433 62.9335 35.7398 62.9468 35.5321C62.9601 35.3492 62.969 35.1662 62.9778 34.977C62.9845 34.8105 62.9889 34.6399 62.9911 34.4672C62.9911 34.3109 62.9934 34.1506 62.9911 33.9902C62.9911 33.8422 62.9867 33.6921 62.9823 33.54L63 33.5297ZM14.1664 33.3714C14.0068 33.6448 13.8449 33.9203 13.6829 34.1958C13.561 34.4014 13.4456 34.6049 13.3214 34.8126C13.2815 34.8784 13.2438 34.94 13.2061 35.0058C13.0553 35.2587 12.9067 35.4992 12.7603 35.7316C12.6206 35.9536 12.4831 36.1653 12.3478 36.3689C12.2169 36.5642 12.0905 36.7513 11.9641 36.9301C11.8421 37.1049 11.7201 37.2735 11.6026 37.4338C11.4872 37.5921 11.3719 37.7443 11.261 37.8861C11.1501 38.028 11.0437 38.1595 10.9372 38.2891C10.833 38.4165 10.7287 38.5378 10.6289 38.653C10.5291 38.7681 10.4293 38.8791 10.3339 38.9819C10.2386 39.0847 10.1432 39.1854 10.0523 39.2779C9.9591 39.3725 9.87039 39.4589 9.78167 39.5411C9.69296 39.6254 9.60646 39.7035 9.52218 39.7775C9.43568 39.8536 9.35362 39.9235 9.27156 39.9893C9.18949 40.0571 9.10743 40.1188 9.02981 40.1764C8.94996 40.236 8.87234 40.2894 8.79693 40.3388C8.7193 40.3902 8.64389 40.4395 8.57292 40.4827C8.49751 40.5279 8.42654 40.567 8.35778 40.604C8.28459 40.643 8.21362 40.6759 8.1493 40.7047C8.07833 40.7356 8.01179 40.7623 7.94969 40.7849C7.87872 40.8096 7.8144 40.8301 7.75674 40.8445C7.68576 40.863 7.62366 40.8754 7.57265 40.8815C7.51277 40.8898 7.46397 40.8918 7.43071 40.8939H7.42627C7.42627 40.8939 7.40853 40.8939 7.39965 40.8939C7.34421 40.8939 7.29098 40.8856 7.23775 40.8754C7.18452 40.8651 7.13351 40.8507 7.08471 40.8322C7.0337 40.8137 6.98491 40.7931 6.93833 40.7705C6.88954 40.7458 6.84296 40.7191 6.79861 40.6903C6.75203 40.6595 6.70767 40.6287 6.66553 40.5937C6.62117 40.5588 6.57682 40.5218 6.53689 40.4847C6.49254 40.4436 6.4504 40.4025 6.41269 40.3635C6.36833 40.3162 6.32841 40.2709 6.29293 40.2298C6.24413 40.1702 6.20643 40.1209 6.1776 40.0839C6.14876 40.0448 6.13102 40.0181 6.1288 40.014L6.13324 40.0201L6.09553 39.9605C6.09553 39.9605 6.08223 39.9358 6.06892 39.9153C6.04674 39.8741 6.01125 39.8104 5.96911 39.7282C5.94028 39.6727 5.90923 39.6048 5.87374 39.5288C5.84491 39.4671 5.81386 39.3972 5.78281 39.3211C5.75398 39.2533 5.72515 39.1834 5.6941 39.1052C5.66526 39.0353 5.63865 38.9593 5.60982 38.8812C5.5832 38.8071 5.55437 38.729 5.52775 38.6488C5.50114 38.5707 5.47452 38.4926 5.44791 38.4083C5.42351 38.3281 5.3969 38.2438 5.3725 38.1575C5.3481 38.0732 5.32371 37.9868 5.30153 37.8984C5.27935 37.8121 5.25495 37.7216 5.23277 37.6291C5.21059 37.5387 5.19063 37.4441 5.16845 37.3495C5.14849 37.255 5.12853 37.1583 5.10857 37.0596C5.08861 36.961 5.07087 36.8602 5.05312 36.7574C5.03538 36.6546 5.01986 36.5477 5.00211 36.4408C4.98659 36.3319 4.97106 36.2229 4.95775 36.1098C4.94445 35.9968 4.93114 35.8816 4.91783 35.7644C4.90674 35.6452 4.89565 35.5218 4.88678 35.3985C4.87791 35.2731 4.86904 35.1436 4.86239 35.012C4.85573 34.8784 4.8513 34.7427 4.84686 34.6029C4.84242 34.459 4.84242 34.313 4.84242 34.1629C4.84242 34.0087 4.84464 33.8525 4.8513 33.6921C4.85573 33.5235 4.8646 33.3529 4.87569 33.1781C4.88678 32.9931 4.90231 32.806 4.92005 32.6148C4.94001 32.4072 4.96441 32.1934 4.99102 31.9775C5.02207 31.7349 5.05978 31.4882 5.10192 31.2353C5.15293 30.9352 5.21281 30.6288 5.27935 30.3164C5.37472 29.8826 5.48561 29.4364 5.61647 28.9759C5.96024 27.7712 6.43709 26.4801 7.08471 25.1047C7.29763 24.6503 7.52829 24.1878 7.78113 23.717C7.94969 23.3983 8.12934 23.0776 8.31786 22.7528C8.46646 22.4937 8.62393 22.2326 8.78584 21.9674C8.84128 21.877 8.89451 21.7886 8.95218 21.696C9.03868 21.5562 9.12739 21.4226 9.21389 21.289C9.34475 21.0875 9.4756 20.8922 9.60646 20.7031C9.72844 20.5283 9.84821 20.3577 9.97019 20.1932C10.0833 20.039 10.1964 19.8889 10.3117 19.743C10.4204 19.6052 10.5269 19.4716 10.6333 19.3441C10.7354 19.2208 10.8374 19.1015 10.9394 18.9864C11.037 18.8754 11.1346 18.7664 11.2322 18.6636C11.3253 18.5649 11.4185 18.4704 11.5116 18.3779C11.6003 18.2894 11.6891 18.2072 11.7778 18.125C11.8643 18.0448 11.9486 17.9687 12.035 17.8968C12.1193 17.8248 12.2014 17.7549 12.2835 17.6891C12.3633 17.6275 12.4409 17.5699 12.5208 17.5123C12.5984 17.4568 12.6738 17.4054 12.7514 17.3561C12.8268 17.3067 12.9022 17.2574 12.9754 17.2142C13.0464 17.1731 13.1174 17.1361 13.1884 17.0991C13.2571 17.0641 13.3281 17.0312 13.3968 17.0004C13.4656 16.9696 13.5321 16.9387 13.5987 16.9141C13.663 16.8894 13.7273 16.8729 13.7916 16.8544C13.8559 16.8359 13.918 16.8174 13.9801 16.803C14.0422 16.7887 14.1021 16.7784 14.162 16.7702C14.2219 16.7619 14.2796 16.7578 14.3394 16.7537C14.3971 16.7496 14.4548 16.7455 14.5124 16.7475C14.5169 16.7475 14.5235 16.7475 14.528 16.7475C14.5768 16.7475 14.6255 16.7599 14.6766 16.764C14.7298 16.7702 14.7852 16.7722 14.8385 16.7825C14.8895 16.7928 14.9427 16.8092 14.9937 16.8236C15.0447 16.838 15.098 16.8483 15.149 16.8647C15.2 16.8812 15.2466 16.9038 15.2976 16.9223C15.3464 16.9428 15.3952 16.9593 15.4439 16.9819C15.4927 17.0045 15.5393 17.0292 15.5859 17.0559C15.6325 17.0806 15.6813 17.1053 15.7278 17.132C15.7744 17.1587 15.8188 17.1875 15.8653 17.2183C15.9119 17.2471 15.9563 17.278 16.0006 17.3088C16.045 17.3396 16.0894 17.3725 16.1337 17.4054C16.1781 17.4383 16.2224 17.4733 16.2646 17.5082C16.3089 17.5432 16.3511 17.5781 16.3932 17.6151C16.4353 17.6521 16.4775 17.6912 16.5196 17.7282C16.5618 17.7673 16.6039 17.8043 16.646 17.8433C16.6882 17.8844 16.7281 17.9256 16.7703 17.9667C16.8124 18.0078 16.8523 18.0489 16.8922 18.0921C16.9344 18.1353 16.9721 18.1805 17.012 18.2237C17.0519 18.2689 17.0918 18.3121 17.1318 18.3573C17.1717 18.4046 17.2094 18.4498 17.2493 18.4971C17.2892 18.5444 17.3269 18.5917 17.3646 18.6389C17.4046 18.6883 17.4423 18.7376 17.48 18.787C17.5199 18.8384 17.5554 18.8877 17.5931 18.9391C17.6308 18.9905 17.6685 19.044 17.704 19.0933C17.7417 19.1488 17.7772 19.2023 17.8127 19.2537C17.8504 19.3112 17.8859 19.3647 17.9213 19.4181C17.959 19.4757 17.9945 19.5333 18.0278 19.5867C18.0655 19.6484 18.101 19.708 18.132 19.7635C18.1675 19.8252 18.1964 19.8807 18.223 19.9321L18.2318 19.9485L18.2984 20.0698C18.2984 20.0698 18.3117 20.0925 18.3316 20.1295C18.3538 20.1685 18.3893 20.2302 18.4337 20.3104C18.4625 20.3638 18.4958 20.4255 18.5335 20.4954C18.5645 20.553 18.5956 20.6146 18.6333 20.6845C18.6643 20.7442 18.6976 20.8079 18.7309 20.8757C18.7619 20.9354 18.7952 21.0012 18.8285 21.069C18.8595 21.1307 18.8906 21.1965 18.9238 21.2643C18.9549 21.326 18.9859 21.3938 19.0192 21.4617C19.0502 21.5254 19.0813 21.5912 19.1146 21.659C19.1456 21.7248 19.1767 21.7906 19.2099 21.8585C19.241 21.9222 19.272 21.9921 19.3031 22.0599C19.3341 22.1257 19.3652 22.1936 19.3962 22.2635C19.4273 22.3293 19.4583 22.3992 19.4894 22.467C19.5204 22.5348 19.5515 22.6027 19.5825 22.6726C19.6136 22.7404 19.6424 22.8083 19.6735 22.8782C19.7023 22.946 19.7334 23.0159 19.7644 23.0858C19.7955 23.1557 19.8243 23.2236 19.8553 23.2955C19.862 23.314 19.8709 23.3305 19.8775 23.3469C19.8376 23.4168 19.7955 23.4908 19.7533 23.5628C19.5892 23.8486 19.4228 24.1364 19.2543 24.4304C19.0857 24.7223 18.9172 25.0204 18.7464 25.3226C18.5778 25.6207 18.4048 25.9229 18.2318 26.2293C18.0611 26.5294 17.8881 26.8357 17.7151 27.1441C17.6064 27.3353 17.5022 27.5224 17.3913 27.7157C17.3269 27.8287 17.2604 27.9459 17.1961 28.0611C17.0253 28.3653 16.8523 28.6696 16.6793 28.9759C16.5085 29.2761 16.3378 29.5783 16.1648 29.8826C15.9962 30.1807 15.8254 30.4808 15.6547 30.781C15.4883 31.0729 15.3197 31.3669 15.1512 31.663C14.9871 31.9508 14.8207 32.2386 14.6522 32.5305C14.4903 32.8122 14.3261 33.0939 14.162 33.3776L14.1664 33.3714ZM27.4583 31.4841C27.4228 31.3792 27.3873 31.2723 27.3518 31.1654C27.3163 31.0606 27.2808 30.9537 27.2476 30.8468C27.2121 30.7399 27.1788 30.635 27.1433 30.5281C27.1078 30.4233 27.0724 30.3143 27.0391 30.2074C27.0036 30.1005 26.9703 29.9956 26.9349 29.8867L26.9304 29.8764C26.8949 29.7715 26.8617 29.6708 26.8284 29.568C26.7929 29.4611 26.7574 29.3542 26.7219 29.2494C26.6864 29.1445 26.651 29.0355 26.6155 28.9307C26.58 28.8238 26.5445 28.721 26.509 28.6161C26.4735 28.5113 26.438 28.4044 26.4026 28.3016C26.3671 28.1967 26.3316 28.0919 26.2961 27.9891C26.2606 27.8842 26.2229 27.7815 26.1874 27.6787C26.1519 27.5759 26.1142 27.469 26.0787 27.3682C26.041 27.2634 26.0056 27.1626 25.9701 27.0598C25.9324 26.957 25.8969 26.8543 25.8592 26.7535C25.8237 26.6507 25.786 26.5459 25.7483 26.4472C25.7106 26.3444 25.6751 26.2457 25.6374 26.1429C25.5997 26.0422 25.562 25.9394 25.5265 25.8407C25.4888 25.74 25.4511 25.6392 25.4156 25.5385C25.3779 25.4377 25.3402 25.3391 25.3025 25.2383C25.2648 25.1396 25.2271 25.0369 25.1894 24.9382C25.1605 24.8621 25.1317 24.7901 25.1029 24.7161C25.074 24.6421 25.0452 24.5661 25.0164 24.4941C24.9875 24.4201 24.9587 24.344 24.9299 24.2721C24.901 24.196 24.8722 24.1261 24.8434 24.0521C24.8145 23.9781 24.7857 23.9041 24.7569 23.8321C24.7325 23.7684 24.7059 23.7005 24.6793 23.6368C24.8168 23.4065 24.9521 23.1824 25.0873 22.9604C25.2359 22.7137 25.3845 22.4732 25.5309 22.2367C25.6751 22.0044 25.817 21.7783 25.959 21.5542C26.0965 21.3363 26.234 21.1245 26.3715 20.9148C26.5046 20.7113 26.6354 20.5139 26.7663 20.3186C26.8927 20.1295 27.0191 19.9465 27.1456 19.7656C27.3075 19.5353 27.4671 19.3112 27.6268 19.0954C27.6579 19.0522 27.6912 19.0049 27.7244 18.9638C27.8464 18.7993 27.9662 18.6431 28.0815 18.495C28.2279 18.3059 28.372 18.1291 28.5096 17.9626C28.6493 17.796 28.7824 17.6398 28.9132 17.4938C29.0463 17.3458 29.1727 17.2101 29.2947 17.0826C29.4189 16.9531 29.5409 16.8339 29.6562 16.7249C29.776 16.6118 29.8891 16.5111 29.9978 16.4186C30.1109 16.322 30.2196 16.2356 30.3216 16.1596C30.4303 16.0794 30.5323 16.0074 30.6276 15.9457C30.7297 15.88 30.8273 15.8244 30.9182 15.7772C31.0158 15.7258 31.1067 15.6846 31.191 15.6518C31.2841 15.6147 31.3706 15.588 31.4483 15.5695C31.5392 15.549 31.619 15.5366 31.6878 15.5325C31.7078 15.5325 31.7299 15.5325 31.7477 15.5325C31.7965 15.5325 31.8497 15.5366 31.9096 15.5448C31.9739 15.5531 32.0427 15.5675 32.1181 15.5901C32.1802 15.6086 32.2467 15.6312 32.3177 15.6579C32.3798 15.6826 32.4441 15.7114 32.5106 15.7443C32.5705 15.773 32.6326 15.8059 32.6992 15.845C32.759 15.8779 32.8189 15.9149 32.8832 15.956C32.9409 15.993 33.0008 16.0341 33.0629 16.0773C33.1206 16.1184 33.1782 16.1616 33.2403 16.2068C33.2958 16.25 33.3556 16.2973 33.4133 16.3446C33.4688 16.3898 33.5264 16.4392 33.5841 16.4906C33.6395 16.5378 33.695 16.5892 33.7527 16.6427C33.8081 16.692 33.8635 16.7455 33.919 16.7989C33.9722 16.8503 34.0277 16.9058 34.0831 16.9613C34.1363 17.0148 34.1918 17.0703 34.245 17.1279C34.2983 17.1834 34.3515 17.2409 34.4069 17.2985C34.4602 17.3561 34.5134 17.4136 34.5666 17.4733C34.6176 17.5308 34.6709 17.5904 34.7241 17.6521C34.7751 17.7117 34.8283 17.7734 34.8816 17.8351C34.9326 17.8947 34.9858 17.9584 35.0368 18.0222C35.0878 18.0839 35.1388 18.1455 35.1921 18.2113C35.2431 18.273 35.2941 18.3388 35.3451 18.4046C35.3961 18.4683 35.4449 18.5341 35.4981 18.5999C35.5469 18.6636 35.5979 18.7315 35.6489 18.7973C35.6911 18.8528 35.731 18.9062 35.7732 18.9617C35.782 18.9741 35.7909 18.9864 35.7998 18.9967C35.8486 19.0625 35.8996 19.1324 35.9484 19.2002C35.9972 19.268 36.0482 19.3359 36.097 19.4037C36.1458 19.4716 36.1946 19.5415 36.2433 19.6114C36.2921 19.6813 36.3409 19.7512 36.3897 19.8211C36.4385 19.891 36.4873 19.9609 36.5361 20.0308C36.5849 20.1007 36.6337 20.1726 36.6803 20.2446C36.7291 20.3165 36.7779 20.3864 36.8244 20.4584C36.8732 20.5304 36.9198 20.6023 36.9686 20.6743C37.0152 20.7462 37.064 20.8202 37.1128 20.8922C37.1616 20.9662 37.2081 21.0361 37.2569 21.1101C37.3035 21.1821 37.3523 21.2581 37.3989 21.3322C37.4454 21.4062 37.4942 21.4802 37.5408 21.5542C37.5874 21.6282 37.6362 21.7022 37.6828 21.7762C37.7293 21.8502 37.7759 21.9263 37.8247 22.0024C37.8713 22.0784 37.9179 22.1524 37.9644 22.2285C38.011 22.3046 38.0576 22.3786 38.1042 22.4547C38.1507 22.5307 38.1973 22.6068 38.2439 22.6829C38.2905 22.7589 38.337 22.8329 38.3836 22.9111C38.4302 22.9871 38.4768 23.0653 38.5233 23.1413C38.5699 23.2174 38.6165 23.2955 38.6631 23.3716C38.7096 23.4497 38.7562 23.5237 38.8028 23.6018C38.8072 23.6101 38.8139 23.6203 38.8183 23.6286C38.1552 25.2856 37.3944 27.3497 36.5694 29.8702L36.4718 30.1683C36.3254 30.6186 36.1835 31.0524 36.0437 31.4718C35.0568 34.4713 34.2916 36.6958 33.5464 38.0629C33.522 38.1061 33.4998 38.1534 33.4754 38.1945C33.3002 38.5029 33.1427 38.7372 32.9964 38.9202C32.8655 39.0826 32.7435 39.2039 32.6304 39.2923C32.5306 39.3684 32.4352 39.4198 32.3421 39.4568C32.2578 39.4897 32.1735 39.5082 32.0915 39.5205C32.0138 39.5308 31.9362 39.5349 31.8586 39.537C31.8209 39.537 31.7832 39.537 31.7432 39.537C31.7078 39.537 31.6701 39.537 31.6323 39.537C31.5614 39.537 31.4904 39.5308 31.415 39.5164C31.3507 39.5041 31.2819 39.4835 31.2132 39.4548C31.1533 39.4301 31.0912 39.3972 31.0246 39.354C30.9692 39.317 30.9093 39.2718 30.8494 39.2183C30.7962 39.171 30.7408 39.1176 30.6853 39.0559C30.6343 39.0004 30.5833 38.9387 30.5301 38.8709C30.4813 38.8092 30.4325 38.7414 30.3815 38.6694C30.3349 38.6016 30.2861 38.5296 30.2373 38.4535C30.1929 38.3816 30.1464 38.3055 30.0976 38.2253C30.0798 38.1945 30.0621 38.1657 30.0421 38.1328C30.0155 38.0855 29.9889 38.0341 29.9623 37.9848C29.9179 37.9046 29.8736 37.8224 29.8292 37.736C29.7871 37.6517 29.7427 37.5695 29.7006 37.4811C29.6584 37.3968 29.6163 37.3064 29.5741 37.2159C29.5342 37.1275 29.4921 37.037 29.4499 36.9445C29.41 36.8541 29.3701 36.7636 29.328 36.669C29.288 36.5765 29.2481 36.4819 29.2082 36.3874C29.1683 36.2949 29.1306 36.1982 29.0906 36.0996C29.0529 36.0029 29.013 35.9084 28.9753 35.8097C28.9376 35.713 28.8999 35.6144 28.86 35.5136C28.8223 35.4149 28.7846 35.3163 28.7469 35.2155C28.7092 35.1168 28.6715 35.0161 28.6338 34.9154C28.5961 34.8167 28.5606 34.7139 28.5229 34.6111C28.4852 34.5104 28.4497 34.4096 28.412 34.3068C28.3765 34.2061 28.3388 34.1012 28.3033 33.9984C28.2678 33.8956 28.2301 33.7949 28.1946 33.6901C28.1591 33.5873 28.1236 33.4824 28.0859 33.3776C28.0505 33.2748 28.015 33.1699 27.9773 33.0651C27.9418 32.9623 27.9063 32.8554 27.8708 32.7505C27.8353 32.6457 27.7998 32.5408 27.7643 32.436C27.7289 32.3311 27.6934 32.2263 27.6579 32.1194C27.6224 32.0145 27.5869 31.9097 27.5514 31.8028C27.5159 31.6979 27.4805 31.591 27.445 31.4841H27.4583ZM49.7991 34.1465C49.7681 34.093 49.737 34.0416 49.706 33.9882C49.6749 33.9347 49.6439 33.8833 49.6128 33.8299C49.5818 33.7764 49.5507 33.723 49.5197 33.6716C49.4886 33.6181 49.4576 33.5646 49.4265 33.5133C49.3955 33.4598 49.3644 33.4063 49.3333 33.355C49.3023 33.3015 49.2712 33.248 49.2402 33.1966C49.2091 33.1432 49.1781 33.0897 49.147 33.0383C49.116 32.9849 49.0849 32.9314 49.0539 32.878C49.0228 32.8245 48.9918 32.7711 48.9607 32.7176C48.9297 32.6642 48.8986 32.6107 48.8676 32.5573C48.8365 32.5038 48.8055 32.4504 48.7744 32.3969C48.7434 32.3435 48.7123 32.29 48.6813 32.2366C48.6502 32.1831 48.6192 32.1296 48.5881 32.0762C48.5571 32.0227 48.526 31.9693 48.495 31.9158C48.4639 31.8624 48.4329 31.8089 48.4018 31.7555C48.3708 31.702 48.3397 31.6486 48.3087 31.5951C48.2776 31.5417 48.2466 31.4882 48.2155 31.4348C48.1845 31.3813 48.1534 31.3278 48.1224 31.2744C48.0913 31.2209 48.0603 31.1675 48.0292 31.114C47.9982 31.0606 47.9693 31.0071 47.9383 30.9516C47.9072 30.8982 47.8762 30.8447 47.8474 30.7892C47.8163 30.7358 47.7853 30.6823 47.7564 30.6268C47.7254 30.5733 47.6943 30.5199 47.6655 30.4644C47.6344 30.4109 47.6034 30.3575 47.5746 30.302C47.5435 30.2485 47.5125 30.1951 47.4836 30.1396C47.4548 30.084 47.4215 30.0326 47.3927 29.9771C47.3616 29.9237 47.3306 29.8682 47.3018 29.8147C47.2707 29.7613 47.2397 29.7058 47.2108 29.6523C47.1798 29.5989 47.1487 29.5433 47.1199 29.4899C47.0888 29.4364 47.0578 29.383 47.029 29.3275C46.9979 29.272 46.9691 29.2206 46.938 29.1651C46.907 29.1116 46.8781 29.0582 46.8471 29.0026C46.816 28.9492 46.785 28.8937 46.7562 28.8402C46.7251 28.7868 46.6941 28.7313 46.6652 28.6778C46.6342 28.6244 46.6031 28.5689 46.5743 28.5154C46.5432 28.462 46.5122 28.4064 46.4834 28.353C46.4523 28.2995 46.4213 28.244 46.3924 28.1906C46.3614 28.1371 46.3303 28.0816 46.3015 28.0282C46.2727 27.9747 46.2394 27.9192 46.2106 27.8657C46.1795 27.8123 46.1485 27.7568 46.1196 27.7033C46.0886 27.6478 46.0597 27.5964 46.0287 27.5409C45.9976 27.4854 45.9688 27.434 45.9378 27.3785C45.9067 27.325 45.8757 27.2695 45.8468 27.2161C45.8158 27.1626 45.7847 27.1071 45.7559 27.0537C45.7271 27.0002 45.6938 26.9447 45.665 26.8913L45.574 26.7288C45.543 26.6754 45.5119 26.6199 45.4831 26.5664C45.452 26.5109 45.4232 26.4595 45.3922 26.404C45.3611 26.3485 45.3301 26.2971 45.3012 26.2416C45.2724 26.1861 45.2391 26.1347 45.2103 26.0792C45.1815 26.0237 45.1482 25.9702 45.1194 25.9168C45.0883 25.8633 45.0573 25.8078 45.0284 25.7544C44.9996 25.7009 44.9663 25.6454 44.9375 25.5919C44.9064 25.5385 44.8754 25.483 44.8465 25.4295C44.8155 25.374 44.7845 25.3226 44.7556 25.2692C44.709 25.189 44.6647 25.1109 44.6203 25.0307C44.576 24.9505 44.5294 24.8724 44.485 24.7922C44.4407 24.712 44.3941 24.6318 44.3497 24.5537C44.3054 24.4756 44.2588 24.3934 44.2145 24.3152C44.1679 24.2351 44.1235 24.1569 44.0792 24.0788C44.0326 23.9986 43.9882 23.9205 43.9439 23.8424C43.8995 23.7643 43.8529 23.6841 43.8064 23.606C43.7598 23.5278 43.7154 23.4477 43.6711 23.3695C43.6644 23.3572 43.6578 23.3449 43.6511 23.3346C43.7398 23.131 43.8219 22.9419 43.9039 22.7589C44.3897 21.6652 44.7623 20.9251 44.9863 20.5016C45.1393 20.2096 45.2258 20.0678 45.228 20.0616L45.3034 19.9239C45.3811 19.7697 45.503 19.56 45.6583 19.3215C45.7936 19.1159 45.9555 18.8877 46.1374 18.6554C46.2638 18.495 46.4013 18.3326 46.5477 18.1723C46.6652 18.0427 46.7894 17.9132 46.9181 17.7919C47.0267 17.6891 47.1399 17.5925 47.2552 17.4979C47.3572 17.4157 47.4637 17.3376 47.5701 17.2636C47.6677 17.1978 47.7653 17.1361 47.8651 17.0806C47.9294 17.0456 47.9915 17.0066 48.0581 16.9757C48.1179 16.947 48.1778 16.9264 48.2399 16.9017C48.2998 16.8791 48.3575 16.8544 48.4174 16.8359C48.4728 16.8174 48.5305 16.803 48.5881 16.7907C48.6436 16.7784 48.699 16.766 48.7545 16.7578C48.8077 16.7496 48.8609 16.7434 48.9142 16.7393C48.943 16.7373 48.9718 16.7311 49.0007 16.729C49.0228 16.729 49.0472 16.7311 49.0694 16.7311C49.1182 16.7311 49.1692 16.7311 49.2202 16.7373C49.269 16.7414 49.3178 16.7455 49.3666 16.7537C49.4132 16.7599 49.462 16.7702 49.5108 16.7784C49.5574 16.7887 49.6039 16.7969 49.6527 16.8113C49.6971 16.8236 49.7437 16.838 49.7902 16.8524C49.8368 16.8668 49.8812 16.8791 49.9277 16.8956C49.9721 16.912 50.0165 16.9326 50.0586 16.9511C50.103 16.9696 50.1451 16.986 50.1895 17.0066C50.2316 17.0271 50.276 17.0477 50.3181 17.0703C50.3602 17.0909 50.4024 17.1155 50.4445 17.1382C50.4867 17.1608 50.5288 17.1813 50.5709 17.206C50.6109 17.2307 50.653 17.2595 50.6929 17.2841C50.7328 17.3108 50.775 17.3355 50.8149 17.3622C50.8548 17.389 50.897 17.4157 50.9369 17.4445C50.9768 17.4712 51.0167 17.5041 51.0567 17.5329C51.0966 17.5617 51.1365 17.5904 51.1764 17.6213C51.2163 17.6521 51.254 17.6809 51.294 17.7138C51.3317 17.7446 51.3716 17.7796 51.4093 17.8104C51.447 17.8433 51.4869 17.8742 51.5246 17.9071C51.5623 17.9399 51.6023 17.9728 51.64 18.0078C51.6777 18.0407 51.7154 18.0777 51.7531 18.1126C51.7908 18.1476 51.8285 18.1825 51.8662 18.2175C51.9039 18.2524 51.9416 18.2874 51.9793 18.3244C52.0148 18.3593 52.0525 18.4005 52.0902 18.4375C52.1279 18.4745 52.1634 18.5115 52.2011 18.5505C52.2388 18.5896 52.2743 18.6246 52.312 18.6636C52.3475 18.7027 52.383 18.7438 52.4207 18.7829C52.4561 18.8219 52.4916 18.863 52.5293 18.9021C52.567 18.9412 52.6003 18.9802 52.638 19.0213C52.6735 19.0625 52.709 19.1015 52.7445 19.1447C52.78 19.1858 52.8154 19.229 52.8487 19.2701C52.8842 19.3112 52.9197 19.3544 52.9529 19.3955C52.9884 19.4387 53.0239 19.4777 53.0572 19.5209C53.0905 19.5641 53.1259 19.6093 53.1614 19.6525C53.1947 19.6957 53.2302 19.7409 53.2635 19.7861C53.2967 19.8314 53.3322 19.8745 53.3655 19.9177C53.3987 19.9629 53.4342 20.0061 53.4675 20.0513C53.5008 20.0966 53.534 20.1439 53.5673 20.1891C53.6006 20.2343 53.6338 20.2816 53.6671 20.3268C53.7004 20.3741 53.7336 20.4173 53.7669 20.4646C53.8002 20.5119 53.8335 20.5591 53.8667 20.6064C53.9 20.6537 53.9333 20.7031 53.9643 20.7503C53.9954 20.7976 54.0308 20.847 54.0619 20.8942C54.0929 20.9415 54.1284 20.9888 54.1595 21.0382C54.1928 21.0875 54.2238 21.1368 54.2571 21.1862C54.2881 21.2355 54.3214 21.2869 54.3524 21.3363C54.3835 21.3856 54.4168 21.4349 54.4478 21.4863C54.4789 21.5377 54.5121 21.585 54.5432 21.6364C54.5498 21.6467 54.5565 21.657 54.5631 21.6693C54.5875 21.7104 54.6119 21.7495 54.6385 21.7906C54.6696 21.842 54.7006 21.8934 54.7339 21.9448C54.765 21.9962 54.7982 22.0476 54.8293 22.099C54.8603 22.1504 54.8914 22.2038 54.9224 22.2552C54.9535 22.3087 54.9845 22.3601 55.0156 22.4135C55.0466 22.467 55.0777 22.5184 55.1087 22.5718C55.1398 22.6253 55.1708 22.6788 55.2019 22.7302C55.2329 22.7836 55.264 22.8371 55.2928 22.8926C55.3239 22.946 55.3549 23.0015 55.3838 23.055C55.4148 23.1084 55.4459 23.1639 55.4747 23.2174C55.5057 23.2729 55.5346 23.3284 55.5656 23.3839C55.5967 23.4394 55.6255 23.4949 55.6566 23.5504C55.6854 23.606 55.7164 23.6615 55.7475 23.717C55.7785 23.7745 55.8074 23.83 55.8362 23.8876C55.865 23.9452 55.8961 24.0007 55.9249 24.0583C55.9538 24.1158 55.9848 24.1713 56.0136 24.2289C56.0425 24.2865 56.0713 24.344 56.1001 24.4036C56.129 24.4612 56.1578 24.5208 56.1866 24.5784C56.2155 24.638 56.2443 24.6956 56.2731 24.7552C56.302 24.8148 56.3308 24.8744 56.3574 24.9341C56.3862 24.9937 56.4151 25.0533 56.4417 25.1129C56.4705 25.1746 56.4971 25.2342 56.526 25.2959C56.5548 25.3576 56.5814 25.4192 56.6103 25.4789C56.6391 25.5405 56.6657 25.6022 56.6945 25.6618C56.7234 25.7256 56.7478 25.7872 56.7766 25.851C56.8032 25.9147 56.832 25.9764 56.8587 26.0401C56.8853 26.1039 56.9119 26.1676 56.9385 26.2313C56.9651 26.2971 56.9917 26.3608 57.0183 26.4246C57.045 26.4904 57.0716 26.5541 57.0982 26.6199C57.1248 26.6857 57.1492 26.7535 57.1758 26.8193C57.2024 26.8851 57.229 26.9529 57.2534 27.0187C57.2801 27.0866 57.3045 27.1544 57.3289 27.2223C57.3532 27.2901 57.3799 27.36 57.4043 27.4278C57.4287 27.4977 57.4531 27.5676 57.4774 27.6375C57.5018 27.7074 57.5262 27.7794 57.5506 27.8472C57.575 27.9192 57.5994 27.9912 57.6216 28.0631C57.646 28.1351 57.6704 28.2091 57.6926 28.279C57.717 28.353 57.7392 28.427 57.7613 28.501C57.7835 28.575 57.8079 28.6511 57.8301 28.7251C57.8523 28.8012 57.8745 28.8772 57.8966 28.9554C57.9188 29.0314 57.941 29.1096 57.9632 29.1856C57.9853 29.2658 58.0053 29.3439 58.0253 29.4241C58.0452 29.5043 58.0674 29.5845 58.0874 29.6646C58.1073 29.7469 58.1273 29.8291 58.1473 29.9113C58.1672 29.9956 58.1872 30.0799 58.2049 30.1622C58.2249 30.2465 58.2426 30.3328 58.2604 30.4171C58.2781 30.5055 58.2959 30.5918 58.3136 30.6802C58.3313 30.7707 58.3491 30.8591 58.3646 30.9496C58.3823 31.0421 58.3979 31.1325 58.4134 31.2251C58.4289 31.3196 58.4444 31.4142 58.46 31.5088C58.4755 31.6074 58.4888 31.7041 58.5021 31.8007C58.5154 31.9014 58.5287 32.0022 58.542 32.1009C58.5553 32.2057 58.5664 32.3085 58.5775 32.4113C58.5886 32.5203 58.5997 32.6272 58.6086 32.7341C58.6174 32.8471 58.6263 32.9582 58.6352 33.0692C58.6441 33.1884 58.6507 33.3036 58.6551 33.4207C58.6618 33.5461 58.6662 33.6674 58.6685 33.7887C58.6729 33.9203 58.6729 34.0498 58.6751 34.1773C58.6751 34.3171 58.6751 34.4548 58.6707 34.5905C58.6662 34.7447 58.6618 34.8927 58.6529 35.0408C58.6441 35.2094 58.633 35.3718 58.6197 35.5321C58.6041 35.7233 58.5842 35.9084 58.562 36.0872C58.5332 36.3154 58.5021 36.5333 58.4666 36.743C58.4134 37.0596 58.3513 37.3536 58.2848 37.625C57.941 39.0477 57.4863 39.8454 57.4331 39.9338L57.3932 40.0037C57.3932 40.0037 57.3843 40.016 57.3732 40.0325C57.3333 40.088 57.2357 40.2236 57.0915 40.3737C57.0228 40.4436 56.9452 40.5156 56.8587 40.5834C56.7943 40.6348 56.7256 40.6801 56.6524 40.7232C56.5925 40.7582 56.5304 40.789 56.4639 40.8137C56.4084 40.8363 56.3508 40.8528 56.2909 40.8651C56.2376 40.8754 56.1844 40.8836 56.129 40.8856C56.1201 40.8856 56.1112 40.8877 56.1001 40.8877H56.0935C56.0647 40.8877 56.0247 40.8856 55.9782 40.8795C55.936 40.8754 55.8894 40.8671 55.834 40.8548C55.7919 40.8466 55.7453 40.8343 55.6943 40.8199C55.6521 40.8075 55.6055 40.7931 55.559 40.7746C55.5168 40.7602 55.4725 40.7417 55.4259 40.7232C55.3838 40.7068 55.3394 40.6862 55.295 40.6657C55.2529 40.6472 55.2108 40.6246 55.1664 40.6019C55.1243 40.5814 55.0821 40.5567 55.04 40.5341C55.0001 40.5115 54.9579 40.4868 54.9158 40.4601C54.8759 40.4354 54.8337 40.4107 54.7916 40.382C54.7517 40.3573 54.7117 40.3285 54.6696 40.2997C54.6297 40.273 54.5898 40.2442 54.5498 40.2134C54.5099 40.1846 54.47 40.1558 54.4301 40.125C54.3901 40.0962 54.3524 40.0653 54.3125 40.0325C54.2748 40.0016 54.2349 39.9708 54.195 39.9379C54.1573 39.907 54.1173 39.8742 54.0796 39.8413C54.0419 39.8084 54.0042 39.7734 53.9643 39.7405C53.9266 39.7076 53.8889 39.6727 53.849 39.6377C53.8113 39.6028 53.7736 39.5678 53.7359 39.5329C53.6982 39.4979 53.6605 39.4609 53.6228 39.426C53.585 39.391 53.5496 39.354 53.5119 39.315C53.4764 39.2779 53.4387 39.2409 53.401 39.2019C53.3655 39.1649 53.3278 39.1258 53.2923 39.0867C53.2568 39.0497 53.2191 39.0107 53.1836 38.9696C53.1481 38.9305 53.1126 38.8914 53.0749 38.8503C53.0394 38.8113 53.004 38.7722 52.9663 38.7311C52.9308 38.692 52.8953 38.6488 52.8598 38.6077C52.8243 38.5666 52.7888 38.5275 52.7533 38.4844C52.7179 38.4433 52.6824 38.4001 52.6491 38.3569C52.6158 38.3137 52.5803 38.2726 52.5449 38.2294C52.5094 38.1883 52.4761 38.1431 52.4406 38.0999C52.4073 38.0568 52.3719 38.0136 52.3364 37.9683C52.3009 37.9252 52.2676 37.882 52.2321 37.8368C52.1989 37.7936 52.1634 37.7463 52.1301 37.7031C52.0968 37.6579 52.0614 37.6147 52.0281 37.5695C51.9948 37.5243 51.9616 37.479 51.9261 37.4338C51.8928 37.3886 51.8595 37.3413 51.8263 37.2961C51.793 37.2488 51.7597 37.2056 51.7265 37.1583C51.6932 37.1131 51.6599 37.0638 51.6267 37.0165C51.5934 36.9692 51.5601 36.9219 51.5268 36.8746C51.4936 36.8273 51.4603 36.7821 51.427 36.7328C51.3938 36.6855 51.3627 36.6361 51.3294 36.5868C51.2962 36.5395 51.2651 36.4902 51.2319 36.4408C51.1986 36.3915 51.1675 36.3463 51.1343 36.2949C51.1032 36.2476 51.07 36.1962 51.0367 36.1468C51.0056 36.0975 50.9724 36.0482 50.9391 35.9968C50.9058 35.9474 50.8748 35.8981 50.8415 35.8467C50.8105 35.7973 50.7772 35.7459 50.7461 35.6945C50.7151 35.6452 50.6818 35.5938 50.6508 35.5424C50.6197 35.491 50.5887 35.4417 50.5554 35.3903C50.5244 35.3389 50.4933 35.2875 50.46 35.2361C50.429 35.1847 50.3979 35.1312 50.3669 35.0798C50.3358 35.0284 50.3048 34.977 50.2737 34.9236C50.2471 34.8804 50.2227 34.8414 50.1983 34.7982C50.1917 34.7879 50.1872 34.7776 50.1806 34.7673C50.1495 34.7139 50.1185 34.6625 50.0874 34.609C50.0564 34.5556 50.0253 34.5042 49.9943 34.4507C49.9632 34.3973 49.9322 34.3459 49.9011 34.2924C49.8701 34.239 49.839 34.1876 49.808 34.1341L49.7991 34.1465Z" fill="url(#paint0_linear_329_787)"/>
<path d="M27.9329 4.23306C27.9506 4.32763 27.9728 4.41809 27.9972 4.50855C28.0194 4.59078 28.046 4.67302 28.0748 4.7532C28.1015 4.82721 28.1303 4.90122 28.1613 4.97318C28.1902 5.03897 28.2234 5.1027 28.2589 5.16643C28.2922 5.22811 28.3232 5.29184 28.3587 5.35146C28.392 5.40697 28.4297 5.46248 28.4674 5.51593C28.5029 5.56938 28.5406 5.62078 28.5783 5.67218C28.616 5.72152 28.6537 5.76881 28.6936 5.81609C28.7313 5.86132 28.7713 5.90655 28.8134 5.95178C28.8533 5.99495 28.8932 6.03607 28.9354 6.07719C28.9753 6.1183 29.0174 6.15737 29.0596 6.19643C29.1017 6.23343 29.1439 6.27044 29.1882 6.30539C29.2304 6.34034 29.2747 6.37735 29.3191 6.41024C29.3634 6.44313 29.4078 6.47192 29.4544 6.50275C29.4987 6.53359 29.5431 6.56649 29.5897 6.59527C29.634 6.62405 29.6828 6.64667 29.7294 6.67339C29.776 6.70012 29.8225 6.72685 29.8691 6.75152C29.9157 6.77619 29.9645 6.79675 30.0133 6.81936C30.0621 6.84197 30.1087 6.86459 30.1597 6.88515C30.2085 6.90571 30.2572 6.92627 30.3083 6.94477C30.3571 6.96327 30.4081 6.97972 30.4591 6.99617C30.5101 7.01261 30.5589 7.03112 30.6099 7.04551C30.6609 7.0599 30.7141 7.07018 30.7651 7.08251C30.8162 7.09485 30.8694 7.10924 30.9204 7.11952C30.9736 7.1298 31.0269 7.13802 31.0801 7.14625C31.1333 7.15447 31.1865 7.16269 31.242 7.16886C31.2952 7.17503 31.3507 7.18325 31.4061 7.18736C31.4616 7.19147 31.517 7.19353 31.5725 7.19559C31.6279 7.19764 31.6834 7.20381 31.7388 7.20381C31.7432 7.20381 31.7499 7.20381 31.7543 7.20381C31.8076 7.20381 31.8586 7.19764 31.9118 7.19559C31.9894 7.19353 32.067 7.19147 32.1425 7.18531C32.2223 7.17708 32.3021 7.16475 32.382 7.15241C32.4641 7.14008 32.5439 7.12774 32.6237 7.10924C32.708 7.09074 32.7901 7.07223 32.8721 7.04962C32.9609 7.02495 33.0451 6.99617 33.1294 6.96533C33.2204 6.93449 33.3091 6.89954 33.3956 6.86048C33.4887 6.81936 33.5819 6.77619 33.6706 6.7289C33.7704 6.6775 33.8658 6.622 33.9611 6.56032C34.0698 6.49042 34.1718 6.41641 34.2716 6.33828C34.3936 6.24166 34.5067 6.13886 34.6154 6.02785C34.7684 5.8716 34.9082 5.70507 35.0324 5.52621C35.3451 5.06981 35.5536 4.54761 35.6179 3.98224C35.6334 3.85478 35.6401 3.72731 35.6401 3.59779C35.6401 3.51761 35.6334 3.43949 35.6268 3.35931C35.6157 3.20923 35.5979 3.06121 35.5691 2.9173C35.5447 2.79806 35.5137 2.68087 35.476 2.56574C35.4427 2.465 35.405 2.36426 35.3628 2.26764C35.3251 2.17923 35.2808 2.09083 35.2364 2.00654C35.1943 1.92636 35.1477 1.84824 35.0989 1.77217C35.0523 1.70021 35.0058 1.6262 34.9547 1.55836C34.906 1.49257 34.8549 1.42884 34.8017 1.36716C34.7507 1.30754 34.6975 1.24998 34.642 1.19241C34.5888 1.1369 34.5356 1.08139 34.4779 1.03C34.4225 0.980656 34.3648 0.93337 34.3071 0.886085C34.265 0.851135 34.2206 0.816185 34.1763 0.783291C34.1319 0.750397 34.0875 0.719559 34.041 0.690776C33.9966 0.659938 33.9523 0.6291 33.9057 0.600318C33.8591 0.571535 33.8125 0.546865 33.766 0.522194C33.7194 0.497523 33.6728 0.466685 33.6262 0.444071C33.5797 0.4194 33.5286 0.400897 33.4821 0.378282C33.4333 0.355668 33.3867 0.333053 33.3357 0.312494C33.2869 0.291935 33.2381 0.273432 33.1871 0.254929C33.1383 0.236426 33.0873 0.219979 33.0363 0.203532C32.9853 0.187085 32.9365 0.168582 32.8855 0.154191C32.8344 0.1398 32.7812 0.129521 32.7302 0.117185C32.6792 0.10485 32.626 0.0904588 32.5749 0.0801794C32.5217 0.0699 32.4685 0.0637323 32.4153 0.0555088C32.362 0.0472853 32.3088 0.0390618 32.2534 0.0328941C32.1979 0.0267265 32.1447 0.0205588 32.0892 0.0164471C32.0338 0.0123353 31.9783 0.0102794 31.9229 0.00822353C31.8697 0.00822353 31.8164 0 31.7632 0C31.761 0 31.7588 0 31.7543 0C31.6967 0 31.639 0.00616765 31.5813 0.00822353C31.5237 0.0102794 31.466 0.0123353 31.4083 0.0164471C31.3485 0.0205588 31.2886 0.0308382 31.2309 0.0370059C31.171 0.0452294 31.1111 0.0513971 31.0513 0.0616765C30.9892 0.0719559 30.9271 0.086347 30.8672 0.0986823C30.8051 0.113074 30.7408 0.127465 30.6809 0.143912C30.6165 0.162415 30.5522 0.180918 30.4879 0.201476C30.4214 0.222035 30.3571 0.242594 30.2927 0.267265C30.224 0.293991 30.1574 0.322773 30.0909 0.353612C30.0222 0.38445 29.9512 0.415288 29.8846 0.448182C29.8115 0.485188 29.7383 0.528362 29.6673 0.569479C29.5897 0.614709 29.5143 0.666106 29.4411 0.715447C29.359 0.773012 29.2792 0.830576 29.2038 0.894309C29.115 0.966265 29.0285 1.04233 28.9465 1.12251C28.8422 1.22531 28.7446 1.33221 28.6537 1.44529C28.494 1.64471 28.3543 1.85852 28.2412 2.08672C28.1392 2.29025 28.0593 2.50406 27.9994 2.7261C27.9351 2.96664 27.8974 3.2154 27.8863 3.47033C27.8863 3.51145 27.8797 3.55256 27.8797 3.59574C27.8797 3.69648 27.8863 3.79516 27.8952 3.89384C27.9041 4.00486 27.9218 4.11382 27.9418 4.22073L27.9329 4.23306Z" fill="url(#paint1_linear_329_787)"/>
<path d="M44.0947 4.3089C44.1191 4.42814 44.1501 4.54327 44.1878 4.6584C44.2211 4.75914 44.261 4.85782 44.3031 4.95444C44.3409 5.04285 44.3852 5.12919 44.4318 5.21349C44.4739 5.29366 44.5205 5.36973 44.5693 5.44786C44.6159 5.51981 44.6624 5.59177 44.7157 5.66167C44.7645 5.72746 44.8155 5.79119 44.8687 5.85286C44.9197 5.91249 44.9752 5.97005 45.0284 6.02556C45.0816 6.08107 45.1371 6.13452 45.1925 6.18797C45.248 6.23731 45.3056 6.2846 45.3633 6.33189C45.421 6.37711 45.4786 6.42234 45.5385 6.46346C45.5984 6.50458 45.6561 6.54775 45.7182 6.58681C45.778 6.62382 45.8424 6.65877 45.9045 6.69372C45.9666 6.72867 46.0287 6.76362 46.093 6.79446C46.1551 6.8253 46.2216 6.85408 46.2859 6.88081C46.3503 6.90753 46.4168 6.93426 46.4833 6.95893C46.5499 6.9836 46.6164 7.00621 46.6829 7.02677C46.7495 7.04733 46.8182 7.06583 46.8892 7.08228C46.958 7.09873 47.0267 7.11723 47.0977 7.13162C47.1687 7.14601 47.2396 7.15424 47.3106 7.16452C47.3816 7.1748 47.4526 7.18713 47.5257 7.1933C47.5989 7.19947 47.6743 7.20152 47.7475 7.20358C47.7985 7.20358 47.8518 7.2118 47.9028 7.2118C47.925 7.2118 47.9494 7.20975 47.9715 7.20769C48.0492 7.20769 48.1246 7.20152 48.2022 7.19741C48.282 7.19124 48.3597 7.18302 48.4373 7.17274C48.5171 7.16246 48.597 7.15424 48.6768 7.13985C48.7611 7.1234 48.8432 7.10284 48.9252 7.08228C49.0117 7.05967 49.096 7.03705 49.1781 7.01033C49.2668 6.98154 49.3533 6.95276 49.4398 6.91987C49.5329 6.88286 49.6239 6.84174 49.7126 6.79857C49.8102 6.75129 49.9055 6.69783 49.9987 6.64232C50.1029 6.58065 50.2027 6.51486 50.3003 6.4429C50.4134 6.36067 50.5243 6.27226 50.6264 6.17975C50.7639 6.05434 50.8903 5.9166 51.0056 5.77474C51.4736 5.19909 51.7575 4.49393 51.7819 3.72503C51.7819 3.68802 51.7885 3.65102 51.7885 3.61401C51.7885 3.4701 51.7774 3.32824 51.7597 3.1905C51.742 3.05481 51.7153 2.92323 51.6843 2.79371C51.6555 2.68064 51.6222 2.57168 51.5823 2.46272C51.5468 2.36609 51.5091 2.26946 51.4647 2.17695C51.4248 2.0906 51.3804 2.00631 51.3339 1.92613C51.2895 1.85006 51.2407 1.77605 51.1919 1.7041C51.1453 1.6342 51.0943 1.56635 51.0433 1.50056C50.9923 1.43683 50.9435 1.3731 50.8881 1.31142C50.8371 1.25386 50.7794 1.2004 50.7239 1.1449C50.6707 1.09144 50.6131 1.04005 50.5554 0.990704C50.4999 0.941363 50.4423 0.892022 50.3846 0.846792C50.3269 0.801563 50.2671 0.762501 50.205 0.721384C50.1451 0.680266 50.0852 0.639148 50.0231 0.602142C49.9632 0.565137 49.8989 0.530187 49.8368 0.497292C49.7747 0.464398 49.7104 0.43356 49.646 0.402722C49.5817 0.371884 49.5174 0.343101 49.4531 0.316375C49.3888 0.289648 49.32 0.267034 49.2535 0.244419C49.1869 0.221804 49.1204 0.197134 49.0539 0.176575C48.9851 0.158072 48.9164 0.143681 48.8454 0.127234C48.7744 0.110787 48.7079 0.0943396 48.6369 0.0820043C48.5659 0.069669 48.495 0.0614454 48.4218 0.051166C48.3486 0.0429425 48.2776 0.034719 48.2044 0.0285513C48.1312 0.0223837 48.0558 0.0203278 47.9826 0.0182719C47.956 0.0182719 47.9294 0.0141602 47.9006 0.0141602C47.8518 0.0141602 47.803 0.0203278 47.7542 0.0203278C47.6766 0.0223837 47.5989 0.0244396 47.5235 0.0306072C47.4437 0.0367749 47.3638 0.051166 47.2862 0.0614454C47.2041 0.0737807 47.1243 0.086116 47.0445 0.102563C46.9602 0.11901 46.8781 0.139569 46.7961 0.162184C46.7096 0.186854 46.6231 0.215637 46.5388 0.244419C46.4478 0.275257 46.3614 0.310207 46.2749 0.347213C46.1817 0.388331 46.0885 0.429448 45.9998 0.476734C45.9 0.528131 45.8047 0.583639 45.7115 0.641204C45.6051 0.709048 45.5008 0.78306 45.4032 0.859128C45.2812 0.953698 45.1703 1.05649 45.0617 1.1634C44.9108 1.31348 44.7756 1.47178 44.6536 1.64242C44.3165 2.11733 44.0991 2.67036 44.037 3.26657C44.0259 3.37964 44.0193 3.49477 44.0193 3.61195C44.0193 3.70036 44.0259 3.78876 44.0326 3.87511C44.0437 4.02313 44.0636 4.1691 44.0924 4.31301L44.0947 4.3089Z" fill="url(#paint2_linear_329_787)"/>
<path d="M12.3078 5.50182C12.3433 5.55528 12.3788 5.60873 12.4187 5.66013C12.4564 5.70947 12.4941 5.75675 12.534 5.80404C12.5717 5.85132 12.6117 5.89655 12.6516 5.94178C12.6915 5.98496 12.7336 6.02607 12.7736 6.06719C12.8135 6.10831 12.8556 6.14943 12.8978 6.18643C12.9399 6.22344 12.9843 6.25839 13.0264 6.29539C13.0685 6.33034 13.1107 6.36735 13.1573 6.4023C13.2016 6.43519 13.246 6.46398 13.2925 6.49481C13.3369 6.52565 13.3813 6.55855 13.4278 6.58733C13.4722 6.61611 13.521 6.64078 13.5676 6.66751C13.6141 6.69423 13.6607 6.72096 13.7073 6.74563C13.7539 6.7703 13.8027 6.79292 13.8515 6.81553C13.9002 6.83815 13.949 6.86076 13.9978 6.88132C14.0466 6.90188 14.0954 6.92244 14.1442 6.94094C14.193 6.95944 14.244 6.97589 14.295 6.99234C14.346 7.00878 14.3948 7.02934 14.4458 7.04373C14.4969 7.05813 14.5501 7.06841 14.6011 7.08074C14.6521 7.09308 14.7053 7.10747 14.7564 7.11775C14.8096 7.12803 14.8628 7.1383 14.916 7.14653C14.9693 7.15475 15.0225 7.16298 15.0779 7.16914C15.1312 7.17531 15.1866 7.18353 15.2399 7.1897C15.2953 7.19381 15.3507 7.19587 15.4062 7.19793C15.4616 7.19998 15.5171 7.20615 15.5725 7.20615C15.5836 7.20615 15.5925 7.20615 15.6036 7.20615C15.6502 7.20615 15.6967 7.20204 15.7433 7.19998C15.801 7.19998 15.8586 7.19587 15.9163 7.19176C15.9762 7.18765 16.0339 7.18148 16.0937 7.17531C16.1536 7.16914 16.2135 7.15886 16.2734 7.15064C16.3355 7.14036 16.3954 7.13008 16.4553 7.11775C16.5174 7.10541 16.5795 7.08896 16.6416 7.07252C16.7059 7.05607 16.7702 7.03962 16.8323 7.01906C16.8988 6.99851 16.9632 6.97589 17.0275 6.95328C17.0962 6.92861 17.1628 6.90188 17.2271 6.8731C17.2958 6.84431 17.3646 6.81553 17.4311 6.78264C17.5043 6.74563 17.5753 6.70451 17.6463 6.6634C17.7217 6.62022 17.7971 6.57499 17.8681 6.52565C17.9479 6.4722 18.0255 6.41875 18.1009 6.35913C18.1874 6.29128 18.2717 6.22138 18.3516 6.14737C18.4514 6.05486 18.5445 5.95412 18.6332 5.85132C18.7663 5.69713 18.8838 5.53472 18.9881 5.36202C19.201 5.01047 19.3496 4.62191 19.425 4.21073C19.4605 4.01336 19.4849 3.81189 19.4849 3.6063C19.4849 3.47472 19.476 3.3452 19.4627 3.21774C19.4494 3.11289 19.4339 3.00804 19.4117 2.90524C19.3917 2.81479 19.3673 2.72844 19.3407 2.64209C19.3163 2.56191 19.2897 2.48379 19.2609 2.40566C19.2321 2.33165 19.2054 2.2597 19.1722 2.18774C19.1433 2.12401 19.1079 2.06028 19.0746 1.9986C19.0413 1.93898 19.0081 1.8773 18.9726 1.81974C18.9371 1.76423 18.9016 1.70872 18.8639 1.65527C18.8284 1.60387 18.7907 1.55247 18.7508 1.50313C18.7131 1.45379 18.6754 1.40651 18.6354 1.35922C18.5977 1.31399 18.5556 1.27082 18.5157 1.22764C18.4758 1.18447 18.4358 1.14335 18.3937 1.10224C18.3516 1.06317 18.3094 1.02617 18.2673 0.987106C18.2251 0.9501 18.183 0.913094 18.1386 0.878144C18.0965 0.843194 18.0521 0.8103 18.0078 0.777406C17.9634 0.744512 17.9191 0.713674 17.8725 0.684891C17.8281 0.654053 17.7838 0.623215 17.7372 0.596489C17.6906 0.567706 17.644 0.543036 17.5975 0.518365C17.5509 0.493694 17.5065 0.462856 17.4577 0.440242C17.4112 0.415571 17.3602 0.397068 17.3114 0.374453C17.2626 0.351839 17.216 0.329224 17.165 0.308665C17.1162 0.288106 17.0652 0.271659 17.0164 0.253156C16.9676 0.234653 16.9166 0.218206 16.8656 0.201759C16.8146 0.185312 16.7658 0.168865 16.7125 0.154474C16.6615 0.140083 16.6083 0.129803 16.5573 0.117468C16.5063 0.105133 16.453 0.0907416 16.402 0.0804622C16.3488 0.0701828 16.2956 0.0640151 16.2401 0.0557916C16.1869 0.0475681 16.1337 0.0393445 16.0782 0.0331769C16.0228 0.0270092 15.9695 0.0228975 15.9141 0.0187857C15.8586 0.0146739 15.8032 0.0126181 15.7477 0.0105622C15.699 0.0105622 15.6524 0.00439453 15.6058 0.00439453C15.5969 0.00439453 15.5881 0.00439453 15.5814 0.00439453C15.5237 0.00439453 15.4661 0.0105622 15.4084 0.0126181C15.3507 0.0146739 15.2931 0.0167298 15.2354 0.0208416C15.1755 0.0270092 15.1156 0.0352328 15.0558 0.0434563C14.9959 0.0516798 14.936 0.0578475 14.8761 0.0681269C14.814 0.0784063 14.7519 0.0927975 14.692 0.107189C14.6299 0.12158 14.5656 0.133915 14.5057 0.152418C14.4414 0.170921 14.3771 0.19148 14.3128 0.212039C14.2462 0.232597 14.1819 0.253156 14.1176 0.277827C12.7115 0.82058 11.7223 2.10345 11.7223 3.60424C11.7223 4.23129 11.8953 4.82133 12.2013 5.3353C12.2346 5.39081 12.2723 5.44631 12.31 5.49977L12.3078 5.50182Z" fill="url(#paint3_linear_329_787)"/>
<defs>
<linearGradient id="paint0_linear_329_787" x1="-7.11773" y1="-1.6648" x2="172.416" y2="15.6231" gradientUnits="userSpaceOnUse">
<stop offset="0.0439044" stop-color="#FFC205"/>
<stop offset="0.133738" stop-color="#E91C17"/>
<stop offset="0.234796" stop-color="#C81E5A"/>
<stop offset="0.272095" stop-color="#BC1F74"/>
<stop offset="0.350445" stop-color="#B0208C"/>
<stop offset="0.41809" stop-color="#C42F97"/>
<stop offset="0.470617" stop-color="#DE42A5"/>
<stop offset="0.53578" stop-color="#BC5AB2"/>
<stop offset="0.651042" stop-color="#3DBBCB"/>
<stop offset="0.780732" stop-color="#62BB47"/>
</linearGradient>
<linearGradient id="paint1_linear_329_787" x1="26.9338" y1="-2.83007" x2="49.3634" y2="-1.58424" gradientUnits="userSpaceOnUse">
<stop offset="0.0439044" stop-color="#FFC205"/>
<stop offset="0.133738" stop-color="#E91C17"/>
<stop offset="0.234796" stop-color="#C81E5A"/>
<stop offset="0.272095" stop-color="#BC1F74"/>
<stop offset="0.350445" stop-color="#B0208C"/>
<stop offset="0.41809" stop-color="#C42F97"/>
<stop offset="0.470617" stop-color="#DE42A5"/>
<stop offset="0.53578" stop-color="#BC5AB2"/>
<stop offset="0.651042" stop-color="#3DBBCB"/>
<stop offset="0.780732" stop-color="#62BB47"/>
</linearGradient>
<linearGradient id="paint2_linear_329_787" x1="43.0723" y1="-2.81349" x2="65.5273" y2="-1.56375" gradientUnits="userSpaceOnUse">
<stop offset="0.0439044" stop-color="#FFC205"/>
<stop offset="0.133738" stop-color="#E91C17"/>
<stop offset="0.234796" stop-color="#C81E5A"/>
<stop offset="0.272095" stop-color="#BC1F74"/>
<stop offset="0.350445" stop-color="#B0208C"/>
<stop offset="0.41809" stop-color="#C42F97"/>
<stop offset="0.470617" stop-color="#DE42A5"/>
<stop offset="0.53578" stop-color="#BC5AB2"/>
<stop offset="0.651042" stop-color="#3DBBCB"/>
<stop offset="0.780732" stop-color="#62BB47"/>
</linearGradient>
<linearGradient id="paint3_linear_329_787" x1="10.7761" y1="-2.82487" x2="33.2121" y2="-1.57798" gradientUnits="userSpaceOnUse">
<stop offset="0.0439044" stop-color="#FFC205"/>
<stop offset="0.133738" stop-color="#E91C17"/>
<stop offset="0.234796" stop-color="#C81E5A"/>
<stop offset="0.272095" stop-color="#BC1F74"/>
<stop offset="0.350445" stop-color="#B0208C"/>
<stop offset="0.41809" stop-color="#C42F97"/>
<stop offset="0.470617" stop-color="#DE42A5"/>
<stop offset="0.53578" stop-color="#BC5AB2"/>
<stop offset="0.651042" stop-color="#3DBBCB"/>
<stop offset="0.780732" stop-color="#62BB47"/>
</linearGradient>
</defs>
</svg>
