<svg width="16" height="17" viewBox="0 0 16 17" fill="none" xmlns="http://www.w3.org/2000/svg">
<path d="M15.2682 4.58548C15.0937 3.92853 14.5797 3.41114 13.927 3.23556C12.7439 2.9165 7.99999 2.9165 7.99999 2.9165C7.99999 2.9165 3.2561 2.9165 2.07302 3.23556C1.42032 3.41117 0.906267 3.92853 0.731795 4.58548C0.414795 5.77623 0.414795 8.26061 0.414795 8.26061C0.414795 8.26061 0.414795 10.745 0.731795 11.9358C0.906267 12.5927 1.42032 13.0885 2.07302 13.2641C3.2561 13.5832 7.99999 13.5832 7.99999 13.5832C7.99999 13.5832 12.7439 13.5832 13.927 13.2641C14.5797 13.0885 15.0937 12.5927 15.2682 11.9358C15.5852 10.745 15.5852 8.26061 15.5852 8.26061C15.5852 8.26061 15.5852 5.77623 15.2682 4.58548ZM6.44846 10.5163V6.00498L10.4134 8.26067L6.44846 10.5163Z" fill="#F70000"/>
</svg>
